<?xml version="1.0" encoding="UTF-8" standalone="no"?>
<!-- Created with Inkscape (http://www.inkscape.org/) -->

<svg
   width="210mm"
   height="297mm"
   viewBox="0 0 210 297"
   version="1.1"
   id="svg5"
   inkscape:export-filename="/home/niels/Desktop/USBCereal/USBCereal.png"
   inkscape:export-xdpi="500"
   inkscape:export-ydpi="500"
   inkscape:version="1.1 (c4e8f9ed74, 2021-05-24)"
   sodipodi:docname="USBCereal.svg"
   xmlns:inkscape="http://www.inkscape.org/namespaces/inkscape"
   xmlns:sodipodi="http://sodipodi.sourceforge.net/DTD/sodipodi-0.dtd"
   xmlns="http://www.w3.org/2000/svg"
   xmlns:svg="http://www.w3.org/2000/svg">
  <sodipodi:namedview
     id="namedview7"
     pagecolor="#ffffff"
     bordercolor="#666666"
     borderopacity="1.0"
     inkscape:pageshadow="2"
     inkscape:pageopacity="0.0"
     inkscape:pagecheckerboard="0"
     inkscape:document-units="mm"
     showgrid="false"
     inkscape:lockguides="false"
     showguides="false"
     inkscape:zoom="4.5850586"
     inkscape:cx="217.88162"
     inkscape:cy="455.61032"
     inkscape:window-width="1720"
     inkscape:window-height="1378"
     inkscape:window-x="0"
     inkscape:window-y="31"
     inkscape:window-maximized="0"
     inkscape:current-layer="layer1">
    <inkscape:grid
       type="xygrid"
       id="grid108" />
  </sodipodi:namedview>
  <defs
     id="defs2" />
  <g
     inkscape:label="Layer 1"
     inkscape:groupmode="layer"
     id="layer1"
     style="display:inline">
    <path
       style="fill:#000000;stroke-width:0.264583"
       d="m 63.073289,134.78422 c -0.0791,-0.30259 -0.67771,-0.66819 -1.61645,-0.98727 -3.20779,-1.09037 -6.17573,-3.7008 -7.719045,-6.78924 -1.438963,-2.87962 -1.204352,-3.18524 2.691215,-3.5057 l 2.30864,-0.18992 -0.49598,-0.9722 c -0.27279,-0.53471 -1.21488,-1.59748 -2.09354,-2.36171 -1.736939,-1.51075 -2.07978,-2.13089 -1.636233,-2.95967 0.559769,-1.04593 1.359138,-0.6538 3.614653,1.77319 1.18476,1.27482 2.2405,2.23446 2.34609,2.13253 0.26929,-0.25994 -0.97252,-1.76663 -1.47071,-1.78441 -0.55592,-0.0198 -1.0451,-0.54683 -1.0451,-1.12589 0,-0.658 0.90407,-0.61128 1.35679,0.0701 0.24752,0.37255 0.51394,0.48841 0.83745,0.36418 0.41078,-0.15773 0.42505,-0.23992 0.10636,-0.61251 -0.57941,-0.67739 -0.73446,-1.35126 -0.43826,-1.9047 0.60377,-1.12815 1.78731,-0.34943 2.24084,1.47437 l 0.19739,0.79375 0.37089,-0.87673 c 0.30827,-0.72873 0.49243,-0.86273 1.09086,-0.79375 0.6846,0.0789 0.71997,0.15329 0.71997,1.51396 0,0.84796 0.12487,1.47349 0.30649,1.53532 0.49472,0.16843 0.70635,-0.44075 0.74811,-2.15345 0.047,-1.9283 0.45195,-2.79723 1.30356,-2.79723 1.16077,0 1.46315,1.01609 0.80706,2.71198 -0.14424,0.37285 -0.036,0.46303 0.55595,0.46303 0.4043,0 0.94291,-0.18809 1.19693,-0.41797 0.58343,-0.528 1.56419,-0.091 1.56419,0.6969 0,0.42725 0.1226,0.49413 0.659,0.3595 0.89112,-0.22366 1.13206,0.46314 0.57345,1.63457 -0.23658,0.4961 -0.3378,0.902 -0.22495,0.902 0.11285,0 0.52868,-0.65959 0.92406,-1.46575 0.65993,-1.34559 0.67497,-1.44226 0.18348,-1.17922 -0.69029,0.36944 -0.91205,-0.1256 -0.59843,-1.33588 0.30466,-1.17573 0.96952,-1.58392 1.58211,-0.97133 0.38352,0.38352 0.40704,0.55213 0.13726,0.98411 -0.42099,0.67411 -0.41029,0.79307 0.0713,0.79307 0.40521,0 0.49954,0.27222 0.40378,1.16537 -0.0457,0.42632 0.11177,0.37259 1.02285,-0.349 0.59229,-0.46909 1.32537,-1.20187 1.62908,-1.62839 0.89424,-1.25584 2.63283,-0.96181 2.63283,0.44528 0,0.40318 -0.52725,1.0053 -1.69163,1.93182 -2.35917,1.87725 -2.4047,2.14711 -0.34913,2.06914 l 1.64388,-0.0624 -0.024,1.62682 c -0.0473,3.2005 -2.79725,7.41068 -6.22059,9.52369 -0.98937,0.61067 -1.56059,1.14133 -1.56059,1.44976 0,0.57088 -0.34263,0.66913 -3.57187,1.02419 -3.70952,0.40787 -4.92067,0.35666 -5.07,-0.21438 z m 4.93771,-0.39677 c 2.81531,-0.28989 3.04887,-0.3566 3.12515,-0.89256 0.0549,-0.38539 0.57112,-0.85505 1.54253,-1.40328 2.80871,-1.58514 4.99273,-4.32539 5.94852,-7.46349 0.7565,-2.48378 0.66889,-2.72395 -0.96081,-2.6339 -1.33993,0.074 -16.04735,1.5168 -17.98977,1.76476 -0.58208,0.0743 -2.12829,0.25707 -3.43603,0.40615 -1.30773,0.14909 -2.47132,0.3647 -2.585755,0.47913 -0.299778,0.29978 0.491157,2.04704 1.720966,3.80182 1.581179,2.25613 4.256439,4.15553 7.012799,4.979 0.79427,0.23729 1.12448,0.47904 1.12448,0.82323 0,0.57674 0.1908,0.58264 4.49792,0.13914 z m -0.30076,-11.95915 c 3.54536,-0.36151 6.66104,-0.65728 6.92373,-0.65728 0.26269,0 0.72323,-0.39741 1.02342,-0.88313 0.30019,-0.48572 1.27227,-1.45387 2.16017,-2.15145 1.49343,-1.1733 1.58179,-1.30039 1.17963,-1.69656 -0.40146,-0.39548 -0.50941,-0.3423 -1.41098,0.6951 -1.81029,2.08303 -3.72462,3.08967 -3.77587,1.98551 -0.015,-0.32377 -0.11552,-0.25141 -0.33418,0.24062 -0.41556,0.93513 -1.2267,1.80991 -1.67824,1.80991 -0.20041,0 -0.47207,-0.2679 -0.60368,-0.59532 -0.1316,-0.32742 -0.24683,-0.44648 -0.25605,-0.26458 -0.009,0.18736 -0.36086,0.33073 -0.81053,0.33073 -0.96911,0 -1.04614,-0.58469 -0.27592,-2.09445 0.4874,-0.95537 0.47791,-1.34513 -0.0328,-1.34513 -0.12126,0 -0.22048,0.24194 -0.22048,0.53766 0,0.29571 -0.17252,0.95056 -0.38338,1.45521 -0.44763,1.07133 -1.35849,1.24107 -2.12353,0.39571 -0.47972,-0.53009 -0.47731,-0.96761 0.0223,-4.04223 0.10251,-0.63083 0.0577,-0.99219 -0.12299,-0.99219 -0.52232,0 -0.832,1.00785 -0.832,2.70782 0,1.86574 -0.26722,2.31927 -1.36652,2.31927 -0.97481,0 -1.38457,-0.76721 -1.05235,-1.97039 0.25232,-0.91384 0.15338,-1.30738 -0.26386,-1.04952 -0.12523,0.0774 -0.22768,0.60994 -0.22768,1.18344 0,0.82771 -0.0982,1.04272 -0.47625,1.04272 -0.26194,0 -0.61247,-0.13622 -0.77895,-0.3027 -0.22721,-0.22721 -0.2657,-0.16122 -0.15435,0.26458 0.1093,0.41795 0.0283,0.56728 -0.30769,0.56728 -0.29667,0 -0.40282,0.1387 -0.30375,0.39688 0.26068,0.67932 -0.11896,1.19062 -0.88404,1.19062 -0.72672,0 -0.91578,-0.16863 -3.64983,-3.25529 -0.47647,-0.53792 -1.042016,-0.97804 -1.256767,-0.97804 -0.805789,0 -0.336984,0.80682 1.318657,2.26942 1.10512,0.97628 1.87652,1.9147 2.18281,2.65543 0.45165,1.09224 0.51681,1.13957 1.39974,1.01661 0.50932,-0.0709 3.82679,-0.42475 7.37216,-0.78626 z m 2.82063,-2.26472 c 0.25502,-0.8035 -0.003,-0.88595 -0.35455,-0.11348 -0.16604,0.36442 -0.19341,0.66258 -0.0608,0.66258 0.13259,0 0.3195,-0.2471 0.41536,-0.5491 z m -2.15804,-0.18795 c 0.0707,-0.11434 -0.0922,-0.20789 -0.36183,-0.20789 -0.26968,0 -0.4325,0.0935 -0.36184,0.20789 0.0707,0.11434 0.23349,0.20789 0.36184,0.20789 0.12834,0 0.29117,-0.0935 0.36183,-0.20789 z m -0.98035,-1.71034 c -0.0734,-0.18191 -0.13346,-0.0331 -0.13346,0.33073 0,0.3638 0.0601,0.51263 0.13346,0.33072 0.0734,-0.1819 0.0734,-0.47955 0,-0.66145 z m -6.05647,-0.86744 c -0.30879,-0.92718 -0.99793,-1.58937 -0.99793,-0.9589 0,0.2912 1.14476,2.13305 1.26251,2.03131 0.0395,-0.0342 -0.0795,-0.51674 -0.26458,-1.07241 z m 12.23124,-0.68515 c 0,-0.14552 -0.11907,-0.191 -0.26459,-0.10106 -0.14552,0.0899 -0.26458,0.28258 -0.26458,0.4281 0,0.14552 0.11906,0.191 0.26458,0.10107 0.14552,-0.0899 0.26459,-0.28259 0.26459,-0.42811 z m -10.84705,-1.42168 c -0.33373,-0.87778 -0.0884,-1.42546 0.73072,-1.63104 0.83487,-0.20954 1.49003,0.17557 1.60382,0.94272 0.11996,0.80869 -0.40626,1.34748 -1.31602,1.34748 -0.57493,0 -0.83088,-0.16564 -1.01852,-0.65916 z m 1.49949,-0.7738 c -0.0912,-0.2377 -0.32851,-0.34454 -0.5643,-0.25406 -0.48957,0.18786 -0.53771,0.80121 -0.0762,0.97044 0.4675,0.17142 0.82688,-0.23056 0.64046,-0.71638 z m 3.72516,0.35344 c -1.19636,-0.69682 0.14764,-2.75987 1.37132,-2.10497 0.72367,0.38729 0.74607,1.73637 0.0351,2.11685 -0.6253,0.33465 -0.81424,0.33305 -1.40646,-0.0119 z m 1.25677,-1.03715 c 0,-0.21429 -0.20836,-0.42975 -0.46302,-0.47879 -0.32487,-0.0626 -0.46302,0.0803 -0.46302,0.47879 0,0.39851 0.13815,0.54137 0.46302,0.4788 0.25466,-0.049 0.46302,-0.2645 0.46302,-0.4788 z m 2.95452,1.14653 c -0.29233,-0.29232 -0.19846,-1.54779 0.14111,-1.88736 0.17462,-0.17462 0.56753,-0.3175 0.87312,-0.3175 0.3056,0 0.6985,0.14288 0.87313,0.3175 0.17462,0.17463 0.3175,0.56753 0.3175,0.87313 0,0.30559 -0.14288,0.6985 -0.3175,0.87312 -0.33957,0.33957 -1.59504,0.43343 -1.88736,0.14111 z m 1.36436,-0.97001 c 0.0495,-0.25521 -0.0833,-0.4411 -0.31511,-0.4411 -0.49153,0 -0.78819,0.43131 -0.55555,0.80772 0.23932,0.38723 0.7676,0.16478 0.87066,-0.36662 z m -13.91002,0.44201 c -0.42156,-0.17011 -0.43067,-1.47108 -0.0132,-1.88853 0.17462,-0.17462 0.56753,-0.3175 0.87312,-0.3175 0.3056,0 0.6985,0.14288 0.87313,0.3175 0.17462,0.17463 0.3175,0.56754 0.3175,0.87313 0,0.98463 -0.95491,1.45749 -2.05052,1.0154 z m 1.22763,-0.71571 c 0.22709,-0.27363 0.21131,-0.43559 -0.0648,-0.66472 -0.27889,-0.23146 -0.44113,-0.21126 -0.6875,0.0856 -0.31978,0.38532 -0.18074,0.9409 0.23548,0.9409 0.11911,0 0.35168,-0.1628 0.51681,-0.36177 z m 3.61991,-2.17067 c -0.84609,-0.8461 -0.32946,-1.96548 0.90714,-1.96548 0.79467,0 1.32292,0.43619 1.32292,1.09235 0,0.60171 -0.70533,1.2889 -1.32292,1.2889 -0.27025,0 -0.67846,-0.1871 -0.90714,-0.41577 z m 1.38594,-0.841 c -0.049,-0.25466 -0.2645,-0.46302 -0.4788,-0.46302 -0.21429,0 -0.42975,0.20836 -0.47879,0.46302 -0.0626,0.32487 0.0803,0.46302 0.47879,0.46302 0.39851,0 0.54137,-0.13815 0.4788,-0.46302 z m 3.4846,-0.0761 c -0.1587,-0.29654 -0.21448,-0.77251 -0.12396,-1.05772 0.19545,-0.61579 1.35964,-0.97161 1.9562,-0.59787 0.53871,0.33749 0.6888,1.31709 0.27769,1.81244 -0.47938,0.57762 -1.76812,0.48182 -2.10993,-0.15685 z m 1.504,-0.40467 c 0.20853,-0.54341 -0.21001,-0.94953 -0.67952,-0.65935 -0.39985,0.24712 -0.21569,1.07401 0.23921,1.07401 0.15465,0 0.35279,-0.18659 0.44031,-0.41466 z m -8.85406,-2.28409 c -0.17463,-0.17462 -0.3175,-0.56753 -0.3175,-0.87312 0,-0.76487 0.49504,-1.19063 1.38436,-1.19063 1.10435,0 1.54374,1.54577 0.61931,2.17877 -0.43697,0.29921 -1.33307,0.23809 -1.68617,-0.11502 z m 1.53458,-0.88581 c 0,-0.49713 -0.52203,-0.76174 -0.85193,-0.43183 -0.39511,0.39511 -0.0476,1.12994 0.44504,0.94092 0.22379,-0.0859 0.40689,-0.31497 0.40689,-0.50909 z m 4.10586,-0.0203 c -0.98551,-0.98551 0.41155,-2.6166 1.58021,-1.84492 1.03923,0.68621 0.57904,2.27477 -0.65899,2.27477 -0.27025,0 -0.6848,-0.19343 -0.92122,-0.42985 z m 1.45039,-0.91246 c 0,-0.67804 -0.87573,-0.60112 -1.00855,0.0886 -0.0611,0.3175 0.0813,0.45998 0.45998,0.45998 0.37865,0 0.54857,-0.16992 0.54857,-0.54856 z"
       id="path190"
       sodipodi:nodetypes="cssscssssscsssssscsssssssssssssssssssssssscccsssccscsscssssssssssssssssscssssssssssssssssssssssssssscssscscscsscssscssssssssssscsscccssccscscssssssssssssssssssssssssscsssccscscsssssssssssssssscsssssscsss" />
    <text
       xml:space="preserve"
       style="font-style:normal;font-variant:normal;font-weight:normal;font-stretch:normal;font-size:10.5833px;line-height:1.25;font-family:'Noto Sans Canadian Aboriginal';-inkscape-font-specification:'Noto Sans Canadian Aboriginal';fill:#000000;fill-opacity:1;stroke:none;stroke-width:0.264583"
       x="35.223534"
       y="136.30055"
       id="text4177"><tspan
         sodipodi:role="line"
         id="tspan4175"
         style="font-style:normal;font-variant:normal;font-weight:normal;font-stretch:normal;font-size:8.46667px;font-family:'Open Sans Condensed';-inkscape-font-specification:'Open Sans Condensed, ';stroke-width:0.264583"
         x="35.223534"
         y="136.30055" /><tspan
         sodipodi:role="line"
         style="font-style:normal;font-variant:normal;font-weight:normal;font-stretch:normal;font-family:'Noto Sans Canadian Aboriginal';-inkscape-font-specification:'Noto Sans Canadian Aboriginal';stroke-width:0.264583"
         x="35.223534"
         y="149.52968"
         id="tspan5355" /></text>
    <path
       style="fill:#000000;stroke-width:0.0830998"
       d="m 66.82091,133.5949 c -0.219346,-0.17607 -0.275522,-0.28471 -0.309974,-0.59948 -0.0347,-0.31702 -0.0034,-0.43267 0.178621,-0.65937 0.188527,-0.23488 0.213855,-0.33745 0.173763,-0.70376 l -0.04693,-0.4288 -0.961978,-0.76949 -0.961979,-0.76949 -0.04722,-0.43141 c -0.0381,-0.34813 -0.09073,-0.46633 -0.272609,-0.61232 -0.123973,-0.0996 -0.261456,-0.27823 -0.305534,-0.39717 -0.180251,-0.48638 0.336376,-1.16118 0.837595,-1.09405 0.648041,0.0868 0.969607,0.7668 0.613716,1.29777 -0.124244,0.18538 -0.168813,0.36713 -0.144488,0.58936 0.03047,0.2784 0.09973,0.37249 0.518608,0.70444 0.265893,0.21071 0.510721,0.38011 0.544063,0.37646 0.03335,-0.003 -0.06622,-1.07426 -0.221234,-2.37917 l -0.281848,-2.37254 -0.188736,-0.006 c -0.103821,-0.003 -0.194214,-0.056 -0.200894,-0.11698 -0.0195,-0.1782 0.525406,-1.35507 0.631269,-1.3634 0.08163,-0.006 1.015168,1.13052 1.02853,1.25259 0.0025,0.0229 -0.0964,0.0643 -0.219777,0.0924 l -0.224315,0.051 0.160727,1.67523 c 0.08843,0.92138 0.193178,1.67169 0.233049,1.66732 0.03978,-0.004 0.241456,-0.23108 0.448164,-0.50381 0.306161,-0.40398 0.369924,-0.54989 0.343964,-0.78707 -0.02283,-0.20859 -0.08249,-0.31155 -0.210347,-0.36297 -0.159728,-0.0643 -0.183259,-0.13883 -0.223986,-0.70988 l -0.04551,-0.63811 0.660858,-0.0724 0.660848,-0.0723 0.0936,0.63285 c 0.08374,0.56633 0.07693,0.64426 -0.06514,0.74153 -0.128743,0.0881 -0.149792,0.19035 -0.111421,0.54095 l 0.0473,0.43225 -0.772758,0.95934 -0.772761,0.95937 0.123521,1.12858 0.123522,1.12858 0.276856,0.23817 c 0.390031,0.33553 0.450313,0.8615 0.142649,1.24476 -0.176062,0.21934 -0.284711,0.27551 -0.599475,0.30995 -0.314764,0.0345 -0.433001,0.003 -0.652333,-0.17293 z m 1.06851,-0.28413 c 0.291199,-0.3628 0.247763,-0.63551 -0.15417,-0.9679 l -0.321705,-0.26605 -0.131063,-1.19747 -0.13106,-1.19746 0.771033,-0.97514 0.771032,-0.97514 -0.05685,-0.51951 c -0.04926,-0.45001 -0.03539,-0.52767 0.103628,-0.58078 0.135409,-0.0519 0.152883,-0.13073 0.111813,-0.50599 l -0.04868,-0.4447 -0.495631,0.0542 -0.495638,0.0542 0.04867,0.44469 c 0.04107,0.37522 0.07525,0.44863 0.218617,0.46983 0.145597,0.0216 0.177542,0.0946 0.222999,0.50991 l 0.05306,0.48478 -0.551268,0.6821 c -0.37883,0.46872 -0.58085,0.65835 -0.645833,0.60616 -0.06096,-0.0489 -0.160315,-0.74974 -0.279641,-1.97255 l -0.185103,-1.89667 0.187075,-0.0478 0.187074,-0.0478 -0.263917,-0.36182 c -0.145148,-0.199 -0.294684,-0.38934 -0.332283,-0.42295 -0.05514,-0.0493 -0.503142,0.74671 -0.489647,0.87 0.0021,0.0189 0.0887,0.037 0.192512,0.0404 l 0.188736,0.006 0.309118,2.62251 c 0.369815,3.1375 0.396671,3.04343 -0.628464,2.20127 -0.648388,-0.53265 -0.678217,-0.57195 -0.719329,-0.94758 -0.03477,-0.31765 -0.0018,-0.45051 0.174034,-0.70129 0.248504,-0.35442 0.251695,-0.39708 0.05215,-0.69753 -0.237686,-0.35786 -0.595122,-0.38375 -0.918662,-0.0665 -0.261532,0.25642 -0.226353,0.62102 0.08385,0.87013 0.189919,0.15242 0.237797,0.26315 0.279828,0.64718 l 0.0507,0.46325 1.009472,0.82154 1.00948,0.82156 0.05212,0.47617 c 0.04784,0.4372 0.03089,0.5011 -0.207164,0.78049 -0.172326,0.20226 -0.251063,0.3794 -0.234787,0.52812 0.03222,0.29436 0.487028,0.66185 0.779506,0.62984 0.132164,-0.0145 0.304622,-0.13042 0.43426,-0.2919 z"
       id="path47604"
       sodipodi:nodetypes="cssscccsssssssssccscscccssssscccssscccccssscccscccccssscccscscssscccsssccsssssscscccsssscc" />
    <path
       style="fill:#000000;fill-opacity:1;stroke:#000000;stroke-width:0.605107"
       d="m 253.90701,504.63382 c -0.69375,-0.36418 -1.55611,-1.25745 -1.73385,-1.79601 -0.19788,-0.59959 0.0676,-1.31668 0.83329,-2.25116 0.76636,-0.93524 0.86836,-1.3095 0.75393,-2.76633 -0.0551,-0.70102 -0.13712,-1.45958 -0.18235,-1.6857 -0.0631,-0.31546 -0.96558,-1.1301 -3.8788,-3.50125 l -3.79658,-3.09015 -0.10443,-1.08702 c -0.16519,-1.71951 -0.36931,-2.33527 -0.96629,-2.91505 -0.81153,-0.78815 -1.07009,-1.26187 -1.07119,-1.96257 -0.002,-1.06145 1.16979,-2.14743 2.31643,-2.14743 0.64028,0 1.46215,0.66109 1.90775,1.53453 0.33658,0.65975 0.3285,0.68805 -0.63078,2.21044 -0.45855,0.72773 -0.51263,0.92594 -0.51263,1.87912 0,0.58607 0.0525,1.25332 0.11657,1.48278 0.16342,0.58493 0.99131,1.45674 2.7397,2.88506 1.94158,1.58614 2.16698,1.73379 2.64669,1.73379 0.90336,0 0.86542,-0.64195 -0.93895,-15.88921 -0.55054,-4.65224 -0.46224,-4.39808 -1.52996,-4.40326 -0.36901,-0.002 -0.41036,-0.0456 -0.32119,-0.34029 0.1565,-0.51718 0.93069,-1.93893 1.32389,-2.43121 l 0.35091,-0.43934 1.00068,1.32666 c 0.55037,0.72966 1.00068,1.37646 1.00068,1.43733 0,0.0609 -0.24033,0.15576 -0.53406,0.21087 -0.29373,0.0551 -0.56898,0.19121 -0.61167,0.30245 -0.0813,0.21187 0.68892,8.32393 1.08542,11.43171 0.3327,2.60772 0.48569,3.23209 0.79197,3.23209 0.33295,0 1.45907,-1.1678 3.13644,-3.25254 l 1.34696,-1.67407 -0.19286,-1.58793 c -0.21833,-1.79762 -0.34776,-2.1307 -0.87983,-2.26424 -0.2065,-0.0518 -0.44157,-0.21777 -0.52238,-0.36877 -0.11403,-0.21308 -0.46307,-2.39205 -0.46307,-2.89089 0,-0.0523 0.49046,-0.13962 1.0899,-0.19404 0.59944,-0.0544 1.40499,-0.13966 1.79011,-0.18945 l 0.70022,-0.0905 0.10294,0.96123 c 0.20654,1.92866 0.18506,2.07358 -0.37524,2.53087 l -0.51085,0.41694 0.17409,1.85047 c 0.0958,1.01775 0.12134,1.92188 0.0569,2.00917 -0.0645,0.0873 -1.37289,1.74955 -2.9076,3.69392 l -2.79038,3.53522 0.49991,4.58259 c 0.49932,4.57721 0.5004,4.583 0.92156,4.93681 2.32149,1.95021 2.56662,2.73795 1.30915,4.20702 -0.89976,1.05116 -1.64964,1.29531 -2.54112,0.82735 z"
       id="path57714"
       transform="scale(0.26458333)" />
  </g>
  <g
     inkscape:groupmode="layer"
     id="layer2"
     inkscape:label="Layer 2"
     style="display:none" />
</svg>
