%TF.GenerationSoftware,KiCad,Pcbnew,5.1.10*%
%TF.CreationDate,2021-06-29T14:23:48+12:00*%
%TF.ProjectId,USBCereal,55534243-6572-4656-916c-2e6b69636164,rev?*%
%TF.SameCoordinates,Original*%
%TF.FileFunction,Copper,L1,Top*%
%TF.FilePolarity,Positive*%
%FSLAX46Y46*%
G04 Gerber Fmt 4.6, Leading zero omitted, Abs format (unit mm)*
G04 Created by KiCad (PCBNEW 5.1.10) date 2021-06-29 14:23:48*
%MOMM*%
%LPD*%
G01*
G04 APERTURE LIST*
%TA.AperFunction,SMDPad,CuDef*%
%ADD10R,1.450000X0.600000*%
%TD*%
%TA.AperFunction,SMDPad,CuDef*%
%ADD11R,1.450000X0.300000*%
%TD*%
%TA.AperFunction,ComponentPad*%
%ADD12O,2.100000X1.000000*%
%TD*%
%TA.AperFunction,ComponentPad*%
%ADD13O,1.600000X1.000000*%
%TD*%
%TA.AperFunction,ComponentPad*%
%ADD14O,1.700000X1.700000*%
%TD*%
%TA.AperFunction,ComponentPad*%
%ADD15R,1.700000X1.700000*%
%TD*%
%TA.AperFunction,ComponentPad*%
%ADD16C,1.700000*%
%TD*%
%TA.AperFunction,SMDPad,CuDef*%
%ADD17R,0.800000X0.900000*%
%TD*%
%TA.AperFunction,ViaPad*%
%ADD18C,0.800000*%
%TD*%
%TA.AperFunction,Conductor*%
%ADD19C,0.300000*%
%TD*%
%TA.AperFunction,Conductor*%
%ADD20C,0.500000*%
%TD*%
%TA.AperFunction,Conductor*%
%ADD21C,0.250000*%
%TD*%
%TA.AperFunction,Conductor*%
%ADD22C,0.254000*%
%TD*%
%TA.AperFunction,Conductor*%
%ADD23C,0.100000*%
%TD*%
G04 APERTURE END LIST*
D10*
%TO.P,J1,B1*%
%TO.N,GNDD*%
X27794000Y-30301000D03*
%TO.P,J1,A9*%
%TO.N,+5V*%
X27794000Y-29501000D03*
%TO.P,J1,B9*%
X27794000Y-24601000D03*
%TO.P,J1,B12*%
%TO.N,GNDD*%
X27794000Y-23801000D03*
%TO.P,J1,A1*%
X27794000Y-23801000D03*
%TO.P,J1,A4*%
%TO.N,+5V*%
X27794000Y-24601000D03*
%TO.P,J1,B4*%
X27794000Y-29501000D03*
%TO.P,J1,A12*%
%TO.N,GNDD*%
X27794000Y-30301000D03*
D11*
%TO.P,J1,B8*%
%TO.N,N/C*%
X27794000Y-25301000D03*
%TO.P,J1,A5*%
%TO.N,/CC1*%
X27794000Y-25801000D03*
%TO.P,J1,B7*%
%TO.N,/USB_D-*%
X27794000Y-26301000D03*
%TO.P,J1,A7*%
X27794000Y-27301000D03*
%TO.P,J1,B6*%
%TO.N,/USB_D+*%
X27794000Y-27801000D03*
%TO.P,J1,A8*%
%TO.N,N/C*%
X27794000Y-28301000D03*
%TO.P,J1,B5*%
%TO.N,/CC2*%
X27794000Y-28801000D03*
%TO.P,J1,A6*%
%TO.N,/USB_D+*%
X27794000Y-26801000D03*
D12*
%TO.P,J1,S1*%
%TO.N,Net-(J1-PadS1)*%
X26879000Y-31371000D03*
X26879000Y-22731000D03*
D13*
X22699000Y-22731000D03*
X22699000Y-31371000D03*
%TD*%
D14*
%TO.P,J2,6*%
%TO.N,/DTR*%
X43180000Y-33401000D03*
%TO.P,J2,5*%
%TO.N,/RXD*%
X43180000Y-30861000D03*
%TO.P,J2,4*%
%TO.N,/TXD*%
X43180000Y-28321000D03*
%TO.P,J2,3*%
%TO.N,VCC*%
X43180000Y-25781000D03*
%TO.P,J2,2*%
%TO.N,/CTS*%
X43180000Y-23241000D03*
D15*
%TO.P,J2,1*%
%TO.N,GNDD*%
X43180000Y-20701000D03*
%TD*%
D14*
%TO.P,JP1,3*%
%TO.N,+3V3*%
X36195000Y-29464000D03*
%TO.P,JP1,2*%
%TO.N,VCC*%
X33655000Y-29464000D03*
D16*
%TO.P,JP1,1*%
%TO.N,+5V*%
X31115000Y-29464000D03*
%TD*%
%TO.P,D1,2*%
%TO.N,Net-(D1-Pad2)*%
%TA.AperFunction,SMDPad,CuDef*%
G36*
G01*
X40656500Y-28304000D02*
X41131500Y-28304000D01*
G75*
G02*
X41369000Y-28541500I0J-237500D01*
G01*
X41369000Y-29116500D01*
G75*
G02*
X41131500Y-29354000I-237500J0D01*
G01*
X40656500Y-29354000D01*
G75*
G02*
X40419000Y-29116500I0J237500D01*
G01*
X40419000Y-28541500D01*
G75*
G02*
X40656500Y-28304000I237500J0D01*
G01*
G37*
%TD.AperFunction*%
%TO.P,D1,1*%
%TO.N,/TXD*%
%TA.AperFunction,SMDPad,CuDef*%
G36*
G01*
X40656500Y-26554000D02*
X41131500Y-26554000D01*
G75*
G02*
X41369000Y-26791500I0J-237500D01*
G01*
X41369000Y-27366500D01*
G75*
G02*
X41131500Y-27604000I-237500J0D01*
G01*
X40656500Y-27604000D01*
G75*
G02*
X40419000Y-27366500I0J237500D01*
G01*
X40419000Y-26791500D01*
G75*
G02*
X40656500Y-26554000I237500J0D01*
G01*
G37*
%TD.AperFunction*%
%TD*%
%TO.P,D2,2*%
%TO.N,Net-(D2-Pad2)*%
%TA.AperFunction,SMDPad,CuDef*%
G36*
G01*
X40656500Y-31769500D02*
X41131500Y-31769500D01*
G75*
G02*
X41369000Y-32007000I0J-237500D01*
G01*
X41369000Y-32582000D01*
G75*
G02*
X41131500Y-32819500I-237500J0D01*
G01*
X40656500Y-32819500D01*
G75*
G02*
X40419000Y-32582000I0J237500D01*
G01*
X40419000Y-32007000D01*
G75*
G02*
X40656500Y-31769500I237500J0D01*
G01*
G37*
%TD.AperFunction*%
%TO.P,D2,1*%
%TO.N,/RXD*%
%TA.AperFunction,SMDPad,CuDef*%
G36*
G01*
X40656500Y-30019500D02*
X41131500Y-30019500D01*
G75*
G02*
X41369000Y-30257000I0J-237500D01*
G01*
X41369000Y-30832000D01*
G75*
G02*
X41131500Y-31069500I-237500J0D01*
G01*
X40656500Y-31069500D01*
G75*
G02*
X40419000Y-30832000I0J237500D01*
G01*
X40419000Y-30257000D01*
G75*
G02*
X40656500Y-30019500I237500J0D01*
G01*
G37*
%TD.AperFunction*%
%TD*%
%TO.P,R4,2*%
%TO.N,Net-(D2-Pad2)*%
%TA.AperFunction,SMDPad,CuDef*%
G36*
G01*
X38878500Y-31817500D02*
X39353500Y-31817500D01*
G75*
G02*
X39591000Y-32055000I0J-237500D01*
G01*
X39591000Y-32555000D01*
G75*
G02*
X39353500Y-32792500I-237500J0D01*
G01*
X38878500Y-32792500D01*
G75*
G02*
X38641000Y-32555000I0J237500D01*
G01*
X38641000Y-32055000D01*
G75*
G02*
X38878500Y-31817500I237500J0D01*
G01*
G37*
%TD.AperFunction*%
%TO.P,R4,1*%
%TO.N,+3V3*%
%TA.AperFunction,SMDPad,CuDef*%
G36*
G01*
X38878500Y-29992500D02*
X39353500Y-29992500D01*
G75*
G02*
X39591000Y-30230000I0J-237500D01*
G01*
X39591000Y-30730000D01*
G75*
G02*
X39353500Y-30967500I-237500J0D01*
G01*
X38878500Y-30967500D01*
G75*
G02*
X38641000Y-30730000I0J237500D01*
G01*
X38641000Y-30230000D01*
G75*
G02*
X38878500Y-29992500I237500J0D01*
G01*
G37*
%TD.AperFunction*%
%TD*%
%TO.P,R3,2*%
%TO.N,Net-(D1-Pad2)*%
%TA.AperFunction,SMDPad,CuDef*%
G36*
G01*
X38878500Y-28341500D02*
X39353500Y-28341500D01*
G75*
G02*
X39591000Y-28579000I0J-237500D01*
G01*
X39591000Y-29079000D01*
G75*
G02*
X39353500Y-29316500I-237500J0D01*
G01*
X38878500Y-29316500D01*
G75*
G02*
X38641000Y-29079000I0J237500D01*
G01*
X38641000Y-28579000D01*
G75*
G02*
X38878500Y-28341500I237500J0D01*
G01*
G37*
%TD.AperFunction*%
%TO.P,R3,1*%
%TO.N,+3V3*%
%TA.AperFunction,SMDPad,CuDef*%
G36*
G01*
X38878500Y-26516500D02*
X39353500Y-26516500D01*
G75*
G02*
X39591000Y-26754000I0J-237500D01*
G01*
X39591000Y-27254000D01*
G75*
G02*
X39353500Y-27491500I-237500J0D01*
G01*
X38878500Y-27491500D01*
G75*
G02*
X38641000Y-27254000I0J237500D01*
G01*
X38641000Y-26754000D01*
G75*
G02*
X38878500Y-26516500I237500J0D01*
G01*
G37*
%TD.AperFunction*%
%TD*%
%TO.P,R2,2*%
%TO.N,GNDD*%
%TA.AperFunction,SMDPad,CuDef*%
G36*
G01*
X24721000Y-20590500D02*
X24721000Y-21065500D01*
G75*
G02*
X24483500Y-21303000I-237500J0D01*
G01*
X23983500Y-21303000D01*
G75*
G02*
X23746000Y-21065500I0J237500D01*
G01*
X23746000Y-20590500D01*
G75*
G02*
X23983500Y-20353000I237500J0D01*
G01*
X24483500Y-20353000D01*
G75*
G02*
X24721000Y-20590500I0J-237500D01*
G01*
G37*
%TD.AperFunction*%
%TO.P,R2,1*%
%TO.N,/CC1*%
%TA.AperFunction,SMDPad,CuDef*%
G36*
G01*
X26546000Y-20590500D02*
X26546000Y-21065500D01*
G75*
G02*
X26308500Y-21303000I-237500J0D01*
G01*
X25808500Y-21303000D01*
G75*
G02*
X25571000Y-21065500I0J237500D01*
G01*
X25571000Y-20590500D01*
G75*
G02*
X25808500Y-20353000I237500J0D01*
G01*
X26308500Y-20353000D01*
G75*
G02*
X26546000Y-20590500I0J-237500D01*
G01*
G37*
%TD.AperFunction*%
%TD*%
%TO.P,R1,2*%
%TO.N,GNDD*%
%TA.AperFunction,SMDPad,CuDef*%
G36*
G01*
X24721000Y-33061900D02*
X24721000Y-33536900D01*
G75*
G02*
X24483500Y-33774400I-237500J0D01*
G01*
X23983500Y-33774400D01*
G75*
G02*
X23746000Y-33536900I0J237500D01*
G01*
X23746000Y-33061900D01*
G75*
G02*
X23983500Y-32824400I237500J0D01*
G01*
X24483500Y-32824400D01*
G75*
G02*
X24721000Y-33061900I0J-237500D01*
G01*
G37*
%TD.AperFunction*%
%TO.P,R1,1*%
%TO.N,/CC2*%
%TA.AperFunction,SMDPad,CuDef*%
G36*
G01*
X26546000Y-33061900D02*
X26546000Y-33536900D01*
G75*
G02*
X26308500Y-33774400I-237500J0D01*
G01*
X25808500Y-33774400D01*
G75*
G02*
X25571000Y-33536900I0J237500D01*
G01*
X25571000Y-33061900D01*
G75*
G02*
X25808500Y-32824400I237500J0D01*
G01*
X26308500Y-32824400D01*
G75*
G02*
X26546000Y-33061900I0J-237500D01*
G01*
G37*
%TD.AperFunction*%
%TD*%
D17*
%TO.P,U1,3*%
%TO.N,+5V*%
X28829000Y-33274000D03*
%TO.P,U1,2*%
%TO.N,+3V3*%
X29779000Y-35274000D03*
%TO.P,U1,1*%
%TO.N,GNDD*%
X27879000Y-35274000D03*
%TD*%
%TO.P,C3,2*%
%TO.N,GNDD*%
%TA.AperFunction,SMDPad,CuDef*%
G36*
G01*
X31385500Y-34588500D02*
X31860500Y-34588500D01*
G75*
G02*
X32098000Y-34826000I0J-237500D01*
G01*
X32098000Y-35426000D01*
G75*
G02*
X31860500Y-35663500I-237500J0D01*
G01*
X31385500Y-35663500D01*
G75*
G02*
X31148000Y-35426000I0J237500D01*
G01*
X31148000Y-34826000D01*
G75*
G02*
X31385500Y-34588500I237500J0D01*
G01*
G37*
%TD.AperFunction*%
%TO.P,C3,1*%
%TO.N,+3V3*%
%TA.AperFunction,SMDPad,CuDef*%
G36*
G01*
X31385500Y-32863500D02*
X31860500Y-32863500D01*
G75*
G02*
X32098000Y-33101000I0J-237500D01*
G01*
X32098000Y-33701000D01*
G75*
G02*
X31860500Y-33938500I-237500J0D01*
G01*
X31385500Y-33938500D01*
G75*
G02*
X31148000Y-33701000I0J237500D01*
G01*
X31148000Y-33101000D01*
G75*
G02*
X31385500Y-32863500I237500J0D01*
G01*
G37*
%TD.AperFunction*%
%TD*%
%TO.P,C2,2*%
%TO.N,GNDD*%
%TA.AperFunction,SMDPad,CuDef*%
G36*
G01*
X24821000Y-34814500D02*
X24821000Y-35289500D01*
G75*
G02*
X24583500Y-35527000I-237500J0D01*
G01*
X23983500Y-35527000D01*
G75*
G02*
X23746000Y-35289500I0J237500D01*
G01*
X23746000Y-34814500D01*
G75*
G02*
X23983500Y-34577000I237500J0D01*
G01*
X24583500Y-34577000D01*
G75*
G02*
X24821000Y-34814500I0J-237500D01*
G01*
G37*
%TD.AperFunction*%
%TO.P,C2,1*%
%TO.N,+5V*%
%TA.AperFunction,SMDPad,CuDef*%
G36*
G01*
X26546000Y-34814500D02*
X26546000Y-35289500D01*
G75*
G02*
X26308500Y-35527000I-237500J0D01*
G01*
X25708500Y-35527000D01*
G75*
G02*
X25471000Y-35289500I0J237500D01*
G01*
X25471000Y-34814500D01*
G75*
G02*
X25708500Y-34577000I237500J0D01*
G01*
X26308500Y-34577000D01*
G75*
G02*
X26546000Y-34814500I0J-237500D01*
G01*
G37*
%TD.AperFunction*%
%TD*%
%TO.P,C1,2*%
%TO.N,GNDD*%
%TA.AperFunction,SMDPad,CuDef*%
G36*
G01*
X24821000Y-18812500D02*
X24821000Y-19287500D01*
G75*
G02*
X24583500Y-19525000I-237500J0D01*
G01*
X23983500Y-19525000D01*
G75*
G02*
X23746000Y-19287500I0J237500D01*
G01*
X23746000Y-18812500D01*
G75*
G02*
X23983500Y-18575000I237500J0D01*
G01*
X24583500Y-18575000D01*
G75*
G02*
X24821000Y-18812500I0J-237500D01*
G01*
G37*
%TD.AperFunction*%
%TO.P,C1,1*%
%TO.N,+5V*%
%TA.AperFunction,SMDPad,CuDef*%
G36*
G01*
X26546000Y-18812500D02*
X26546000Y-19287500D01*
G75*
G02*
X26308500Y-19525000I-237500J0D01*
G01*
X25708500Y-19525000D01*
G75*
G02*
X25471000Y-19287500I0J237500D01*
G01*
X25471000Y-18812500D01*
G75*
G02*
X25708500Y-18575000I237500J0D01*
G01*
X26308500Y-18575000D01*
G75*
G02*
X26546000Y-18812500I0J-237500D01*
G01*
G37*
%TD.AperFunction*%
%TD*%
%TO.P,U2,16*%
%TO.N,VCC*%
%TA.AperFunction,SMDPad,CuDef*%
G36*
G01*
X30884000Y-20725000D02*
X30584000Y-20725000D01*
G75*
G02*
X30434000Y-20575000I0J150000D01*
G01*
X30434000Y-18925000D01*
G75*
G02*
X30584000Y-18775000I150000J0D01*
G01*
X30884000Y-18775000D01*
G75*
G02*
X31034000Y-18925000I0J-150000D01*
G01*
X31034000Y-20575000D01*
G75*
G02*
X30884000Y-20725000I-150000J0D01*
G01*
G37*
%TD.AperFunction*%
%TO.P,U2,15*%
%TO.N,N/C*%
%TA.AperFunction,SMDPad,CuDef*%
G36*
G01*
X32154000Y-20725000D02*
X31854000Y-20725000D01*
G75*
G02*
X31704000Y-20575000I0J150000D01*
G01*
X31704000Y-18925000D01*
G75*
G02*
X31854000Y-18775000I150000J0D01*
G01*
X32154000Y-18775000D01*
G75*
G02*
X32304000Y-18925000I0J-150000D01*
G01*
X32304000Y-20575000D01*
G75*
G02*
X32154000Y-20725000I-150000J0D01*
G01*
G37*
%TD.AperFunction*%
%TO.P,U2,14*%
%TA.AperFunction,SMDPad,CuDef*%
G36*
G01*
X33424000Y-20725000D02*
X33124000Y-20725000D01*
G75*
G02*
X32974000Y-20575000I0J150000D01*
G01*
X32974000Y-18925000D01*
G75*
G02*
X33124000Y-18775000I150000J0D01*
G01*
X33424000Y-18775000D01*
G75*
G02*
X33574000Y-18925000I0J-150000D01*
G01*
X33574000Y-20575000D01*
G75*
G02*
X33424000Y-20725000I-150000J0D01*
G01*
G37*
%TD.AperFunction*%
%TO.P,U2,13*%
%TO.N,/DTR*%
%TA.AperFunction,SMDPad,CuDef*%
G36*
G01*
X34694000Y-20725000D02*
X34394000Y-20725000D01*
G75*
G02*
X34244000Y-20575000I0J150000D01*
G01*
X34244000Y-18925000D01*
G75*
G02*
X34394000Y-18775000I150000J0D01*
G01*
X34694000Y-18775000D01*
G75*
G02*
X34844000Y-18925000I0J-150000D01*
G01*
X34844000Y-20575000D01*
G75*
G02*
X34694000Y-20725000I-150000J0D01*
G01*
G37*
%TD.AperFunction*%
%TO.P,U2,12*%
%TO.N,N/C*%
%TA.AperFunction,SMDPad,CuDef*%
G36*
G01*
X35964000Y-20725000D02*
X35664000Y-20725000D01*
G75*
G02*
X35514000Y-20575000I0J150000D01*
G01*
X35514000Y-18925000D01*
G75*
G02*
X35664000Y-18775000I150000J0D01*
G01*
X35964000Y-18775000D01*
G75*
G02*
X36114000Y-18925000I0J-150000D01*
G01*
X36114000Y-20575000D01*
G75*
G02*
X35964000Y-20725000I-150000J0D01*
G01*
G37*
%TD.AperFunction*%
%TO.P,U2,11*%
%TA.AperFunction,SMDPad,CuDef*%
G36*
G01*
X37234000Y-20725000D02*
X36934000Y-20725000D01*
G75*
G02*
X36784000Y-20575000I0J150000D01*
G01*
X36784000Y-18925000D01*
G75*
G02*
X36934000Y-18775000I150000J0D01*
G01*
X37234000Y-18775000D01*
G75*
G02*
X37384000Y-18925000I0J-150000D01*
G01*
X37384000Y-20575000D01*
G75*
G02*
X37234000Y-20725000I-150000J0D01*
G01*
G37*
%TD.AperFunction*%
%TO.P,U2,10*%
%TA.AperFunction,SMDPad,CuDef*%
G36*
G01*
X38504000Y-20725000D02*
X38204000Y-20725000D01*
G75*
G02*
X38054000Y-20575000I0J150000D01*
G01*
X38054000Y-18925000D01*
G75*
G02*
X38204000Y-18775000I150000J0D01*
G01*
X38504000Y-18775000D01*
G75*
G02*
X38654000Y-18925000I0J-150000D01*
G01*
X38654000Y-20575000D01*
G75*
G02*
X38504000Y-20725000I-150000J0D01*
G01*
G37*
%TD.AperFunction*%
%TO.P,U2,9*%
%TO.N,/CTS*%
%TA.AperFunction,SMDPad,CuDef*%
G36*
G01*
X39774000Y-20725000D02*
X39474000Y-20725000D01*
G75*
G02*
X39324000Y-20575000I0J150000D01*
G01*
X39324000Y-18925000D01*
G75*
G02*
X39474000Y-18775000I150000J0D01*
G01*
X39774000Y-18775000D01*
G75*
G02*
X39924000Y-18925000I0J-150000D01*
G01*
X39924000Y-20575000D01*
G75*
G02*
X39774000Y-20725000I-150000J0D01*
G01*
G37*
%TD.AperFunction*%
%TO.P,U2,8*%
%TO.N,N/C*%
%TA.AperFunction,SMDPad,CuDef*%
G36*
G01*
X39774000Y-25675000D02*
X39474000Y-25675000D01*
G75*
G02*
X39324000Y-25525000I0J150000D01*
G01*
X39324000Y-23875000D01*
G75*
G02*
X39474000Y-23725000I150000J0D01*
G01*
X39774000Y-23725000D01*
G75*
G02*
X39924000Y-23875000I0J-150000D01*
G01*
X39924000Y-25525000D01*
G75*
G02*
X39774000Y-25675000I-150000J0D01*
G01*
G37*
%TD.AperFunction*%
%TO.P,U2,7*%
%TA.AperFunction,SMDPad,CuDef*%
G36*
G01*
X38504000Y-25675000D02*
X38204000Y-25675000D01*
G75*
G02*
X38054000Y-25525000I0J150000D01*
G01*
X38054000Y-23875000D01*
G75*
G02*
X38204000Y-23725000I150000J0D01*
G01*
X38504000Y-23725000D01*
G75*
G02*
X38654000Y-23875000I0J-150000D01*
G01*
X38654000Y-25525000D01*
G75*
G02*
X38504000Y-25675000I-150000J0D01*
G01*
G37*
%TD.AperFunction*%
%TO.P,U2,6*%
%TO.N,/USB_D-*%
%TA.AperFunction,SMDPad,CuDef*%
G36*
G01*
X37234000Y-25675000D02*
X36934000Y-25675000D01*
G75*
G02*
X36784000Y-25525000I0J150000D01*
G01*
X36784000Y-23875000D01*
G75*
G02*
X36934000Y-23725000I150000J0D01*
G01*
X37234000Y-23725000D01*
G75*
G02*
X37384000Y-23875000I0J-150000D01*
G01*
X37384000Y-25525000D01*
G75*
G02*
X37234000Y-25675000I-150000J0D01*
G01*
G37*
%TD.AperFunction*%
%TO.P,U2,5*%
%TO.N,/USB_D+*%
%TA.AperFunction,SMDPad,CuDef*%
G36*
G01*
X35964000Y-25675000D02*
X35664000Y-25675000D01*
G75*
G02*
X35514000Y-25525000I0J150000D01*
G01*
X35514000Y-23875000D01*
G75*
G02*
X35664000Y-23725000I150000J0D01*
G01*
X35964000Y-23725000D01*
G75*
G02*
X36114000Y-23875000I0J-150000D01*
G01*
X36114000Y-25525000D01*
G75*
G02*
X35964000Y-25675000I-150000J0D01*
G01*
G37*
%TD.AperFunction*%
%TO.P,U2,4*%
%TO.N,+3V3*%
%TA.AperFunction,SMDPad,CuDef*%
G36*
G01*
X34694000Y-25675000D02*
X34394000Y-25675000D01*
G75*
G02*
X34244000Y-25525000I0J150000D01*
G01*
X34244000Y-23875000D01*
G75*
G02*
X34394000Y-23725000I150000J0D01*
G01*
X34694000Y-23725000D01*
G75*
G02*
X34844000Y-23875000I0J-150000D01*
G01*
X34844000Y-25525000D01*
G75*
G02*
X34694000Y-25675000I-150000J0D01*
G01*
G37*
%TD.AperFunction*%
%TO.P,U2,3*%
%TO.N,/RXD*%
%TA.AperFunction,SMDPad,CuDef*%
G36*
G01*
X33424000Y-25675000D02*
X33124000Y-25675000D01*
G75*
G02*
X32974000Y-25525000I0J150000D01*
G01*
X32974000Y-23875000D01*
G75*
G02*
X33124000Y-23725000I150000J0D01*
G01*
X33424000Y-23725000D01*
G75*
G02*
X33574000Y-23875000I0J-150000D01*
G01*
X33574000Y-25525000D01*
G75*
G02*
X33424000Y-25675000I-150000J0D01*
G01*
G37*
%TD.AperFunction*%
%TO.P,U2,2*%
%TO.N,/TXD*%
%TA.AperFunction,SMDPad,CuDef*%
G36*
G01*
X32154000Y-25675000D02*
X31854000Y-25675000D01*
G75*
G02*
X31704000Y-25525000I0J150000D01*
G01*
X31704000Y-23875000D01*
G75*
G02*
X31854000Y-23725000I150000J0D01*
G01*
X32154000Y-23725000D01*
G75*
G02*
X32304000Y-23875000I0J-150000D01*
G01*
X32304000Y-25525000D01*
G75*
G02*
X32154000Y-25675000I-150000J0D01*
G01*
G37*
%TD.AperFunction*%
%TO.P,U2,1*%
%TO.N,GNDD*%
%TA.AperFunction,SMDPad,CuDef*%
G36*
G01*
X30884000Y-25675000D02*
X30584000Y-25675000D01*
G75*
G02*
X30434000Y-25525000I0J150000D01*
G01*
X30434000Y-23875000D01*
G75*
G02*
X30584000Y-23725000I150000J0D01*
G01*
X30884000Y-23725000D01*
G75*
G02*
X31034000Y-23875000I0J-150000D01*
G01*
X31034000Y-25525000D01*
G75*
G02*
X30884000Y-25675000I-150000J0D01*
G01*
G37*
%TD.AperFunction*%
%TD*%
D18*
%TO.N,+5V*%
X29464000Y-25654000D03*
X29464000Y-29971980D03*
X27686000Y-19050000D03*
%TO.N,GNDD*%
X28448000Y-32004000D03*
X28397200Y-22047184D03*
X24231600Y-30022800D03*
X24231600Y-24130000D03*
X24231600Y-27076400D03*
X40894000Y-19050000D03*
X29210000Y-19050000D03*
X30734000Y-32004000D03*
%TO.N,+3V3*%
X34544000Y-26081288D03*
%TO.N,/USB_D-*%
X33426404Y-27025600D03*
X35052000Y-28092400D03*
%TO.N,VCC*%
X30734000Y-22225000D03*
%TO.N,/DTR*%
X34544000Y-21475000D03*
%TO.N,/RXD*%
X40005000Y-29654500D03*
X33274000Y-23839000D03*
%TD*%
D19*
%TO.N,+5V*%
X30820000Y-29169000D02*
X31115000Y-29464000D01*
D20*
X31078000Y-29501000D02*
X31115000Y-29464000D01*
X29464000Y-25046000D02*
X29464000Y-25654000D01*
X27794000Y-24601000D02*
X29019000Y-24601000D01*
X29019000Y-24601000D02*
X29464000Y-25046000D01*
X28829000Y-33274000D02*
X29464000Y-32639000D01*
X29464000Y-32639000D02*
X29464000Y-29971980D01*
X28993020Y-29501000D02*
X29464000Y-29971980D01*
X27794000Y-29501000D02*
X28993020Y-29501000D01*
X30607020Y-29971980D02*
X31115000Y-29464000D01*
X29464000Y-29971980D02*
X30607020Y-29971980D01*
X27786500Y-33274000D02*
X28829000Y-33274000D01*
X26008500Y-35052000D02*
X27786500Y-33274000D01*
X27686000Y-19050000D02*
X26008500Y-19050000D01*
D21*
%TO.N,GNDD*%
X28702000Y-31750000D02*
X28448000Y-32004000D01*
D20*
X28448000Y-30955000D02*
X28448000Y-32004000D01*
X27794000Y-30301000D02*
X28448000Y-30955000D01*
X27794000Y-23801000D02*
X28397200Y-23197800D01*
X28397200Y-23197800D02*
X28397200Y-22047184D01*
D19*
%TO.N,+3V3*%
X34549847Y-24705847D02*
X34544000Y-24700000D01*
X36195000Y-28702000D02*
X36195000Y-29464000D01*
D20*
X34544000Y-26081288D02*
X34544000Y-24700000D01*
X36195000Y-29464000D02*
X36195000Y-28067000D01*
X37258000Y-27004000D02*
X39116000Y-27004000D01*
X36195000Y-28067000D02*
X37258000Y-27004000D01*
X36195000Y-29464000D02*
X37211000Y-30480000D01*
X37211000Y-30480000D02*
X39116000Y-30480000D01*
X36035000Y-29464000D02*
X36195000Y-29464000D01*
X32098000Y-33401000D02*
X36035000Y-29464000D01*
X31623000Y-33401000D02*
X32098000Y-33401000D01*
X29779000Y-35245000D02*
X31623000Y-33401000D01*
X29779000Y-35274000D02*
X29779000Y-35245000D01*
D21*
%TO.N,/USB_D+*%
X27790000Y-26797000D02*
X27794000Y-26801000D01*
X26833998Y-27801000D02*
X27794000Y-27801000D01*
X26743999Y-27711001D02*
X26833998Y-27801000D01*
X26743999Y-26876001D02*
X26743999Y-27711001D01*
X26819000Y-26801000D02*
X26743999Y-26876001D01*
X27794000Y-26801000D02*
X26819000Y-26801000D01*
X35814000Y-25908000D02*
X35814000Y-24700000D01*
X33920598Y-27801402D02*
X35814000Y-25908000D01*
X32570398Y-27801402D02*
X33920598Y-27801402D01*
X32569996Y-27801000D02*
X32570398Y-27801402D01*
X27794000Y-27801000D02*
X32569996Y-27801000D01*
%TO.N,/USB_D-*%
X27794000Y-26301000D02*
X27698000Y-26301000D01*
X27790000Y-27305000D02*
X27794000Y-27301000D01*
X27794000Y-27324000D02*
X27792001Y-27325999D01*
X27794000Y-27301000D02*
X27794000Y-27324000D01*
X28754002Y-27301000D02*
X27794000Y-27301000D01*
X28844001Y-27211001D02*
X28754002Y-27301000D01*
X28754002Y-26301000D02*
X28844001Y-26390999D01*
X27794000Y-26301000D02*
X28754002Y-26301000D01*
X28844001Y-26390999D02*
X28844001Y-26558001D01*
X37084000Y-25675000D02*
X37084000Y-24700000D01*
X28854400Y-26568400D02*
X28844001Y-26558001D01*
X28844001Y-27035999D02*
X28844001Y-27211001D01*
X28844001Y-26558001D02*
X28844001Y-27035999D01*
X32860719Y-27025600D02*
X33426404Y-27025600D01*
X28854401Y-27025599D02*
X32860719Y-27025600D01*
X28844001Y-27035999D02*
X28854401Y-27025599D01*
X37084000Y-25908000D02*
X37084000Y-24700000D01*
X37084000Y-26060400D02*
X37084000Y-24700000D01*
X35052000Y-28092400D02*
X37084000Y-26060400D01*
D20*
%TO.N,VCC*%
X30734000Y-19750000D02*
X30734000Y-22225000D01*
X39937990Y-22538990D02*
X43180000Y-25781000D01*
X31047990Y-22538990D02*
X39937990Y-22538990D01*
X30734000Y-22225000D02*
X31047990Y-22538990D01*
D21*
%TO.N,/DTR*%
X34544000Y-21475000D02*
X34544000Y-19750000D01*
%TO.N,/CTS*%
X43115000Y-23241000D02*
X43180000Y-23241000D01*
X39624000Y-19750000D02*
X43115000Y-23241000D01*
%TO.N,/RXD*%
X42418000Y-30861000D02*
X43942000Y-30861000D01*
X40894000Y-30544500D02*
X40831500Y-30544500D01*
X40894000Y-30543500D02*
X40005000Y-29654500D01*
X40894000Y-30544500D02*
X40894000Y-30543500D01*
X42863500Y-30544500D02*
X43180000Y-30861000D01*
X40894000Y-30544500D02*
X42863500Y-30544500D01*
%TO.N,/TXD*%
X40894000Y-27079000D02*
X41430000Y-27079000D01*
X42672000Y-28321000D02*
X43942000Y-28321000D01*
X41430000Y-27079000D02*
X42672000Y-28321000D01*
X32004000Y-23725000D02*
X32004000Y-24700000D01*
X32615000Y-23114000D02*
X32004000Y-23725000D01*
X39684768Y-23114000D02*
X32615000Y-23114000D01*
X40894000Y-24323232D02*
X39684768Y-23114000D01*
X40894000Y-27079000D02*
X40894000Y-24323232D01*
%TO.N,Net-(D1-Pad2)*%
X39116000Y-28829000D02*
X40894000Y-28829000D01*
%TO.N,Net-(D2-Pad2)*%
X40883500Y-32305000D02*
X40894000Y-32294500D01*
X39116000Y-32305000D02*
X40883500Y-32305000D01*
%TO.N,/CC2*%
X27794000Y-28801000D02*
X26628002Y-28801000D01*
X26628002Y-28801000D02*
X26138003Y-29290999D01*
X25503990Y-29824008D02*
X25503990Y-32744890D01*
X26138003Y-29290999D02*
X26036999Y-29290999D01*
X25503990Y-32744890D02*
X26058500Y-33299400D01*
X26036999Y-29290999D02*
X25503990Y-29824008D01*
%TO.N,/CC1*%
X27793000Y-25801000D02*
X27768001Y-25825999D01*
X27794000Y-25801000D02*
X27793000Y-25801000D01*
X25503990Y-24487990D02*
X26841999Y-25825999D01*
X25503990Y-21382510D02*
X25503990Y-24487990D01*
X26058500Y-20828000D02*
X25503990Y-21382510D01*
X27031000Y-25801000D02*
X27794000Y-25801000D01*
X27006001Y-25825999D02*
X27031000Y-25801000D01*
X26841999Y-25825999D02*
X27006001Y-25825999D01*
%TD*%
D22*
%TO.N,GNDD*%
X44760723Y-17480717D02*
X45059615Y-17570957D01*
X45335288Y-17717535D01*
X45577238Y-17914864D01*
X45776251Y-18155430D01*
X45924750Y-18430071D01*
X46017075Y-18728325D01*
X46050589Y-19047188D01*
X46050600Y-19050326D01*
X46050600Y-26417683D01*
X45945227Y-26312310D01*
X45789467Y-26208235D01*
X45616396Y-26136547D01*
X45432665Y-26100000D01*
X45245335Y-26100000D01*
X45061604Y-26136547D01*
X44888533Y-26208235D01*
X44732773Y-26312310D01*
X44600310Y-26444773D01*
X44496235Y-26600533D01*
X44424547Y-26773604D01*
X44388000Y-26957335D01*
X44388000Y-27144665D01*
X44424547Y-27328396D01*
X44496235Y-27501467D01*
X44600310Y-27657227D01*
X44732773Y-27789690D01*
X44888533Y-27893765D01*
X45061604Y-27965453D01*
X45245335Y-28002000D01*
X45432665Y-28002000D01*
X45616396Y-27965453D01*
X45789467Y-27893765D01*
X45945227Y-27789690D01*
X46050601Y-27684316D01*
X46050601Y-35043317D01*
X46019283Y-35362723D01*
X45929041Y-35661619D01*
X45782465Y-35937288D01*
X45585136Y-36179238D01*
X45344569Y-36378252D01*
X45069928Y-36526750D01*
X44771675Y-36619075D01*
X44452812Y-36652589D01*
X44449674Y-36652600D01*
X22868673Y-36652600D01*
X22549277Y-36621283D01*
X22250381Y-36531041D01*
X21974712Y-36384465D01*
X21732762Y-36187136D01*
X21533748Y-35946569D01*
X21385250Y-35671928D01*
X21340388Y-35527000D01*
X23316934Y-35527000D01*
X23325178Y-35610707D01*
X23349595Y-35691196D01*
X23389245Y-35765376D01*
X23442605Y-35830395D01*
X23507624Y-35883755D01*
X23581804Y-35923405D01*
X23662293Y-35947822D01*
X23746000Y-35956066D01*
X24153750Y-35954000D01*
X24260500Y-35847250D01*
X24260500Y-35075000D01*
X23425750Y-35075000D01*
X23319000Y-35181750D01*
X23316934Y-35527000D01*
X21340388Y-35527000D01*
X21292925Y-35373675D01*
X21259411Y-35054812D01*
X21259400Y-35051674D01*
X21259400Y-34796317D01*
X21364773Y-34901690D01*
X21520533Y-35005765D01*
X21693604Y-35077453D01*
X21877335Y-35114000D01*
X22064665Y-35114000D01*
X22248396Y-35077453D01*
X22421467Y-35005765D01*
X22577227Y-34901690D01*
X22709690Y-34769227D01*
X22813765Y-34613467D01*
X22885453Y-34440396D01*
X22922000Y-34256665D01*
X22922000Y-34069335D01*
X22885453Y-33885604D01*
X22839392Y-33774400D01*
X23316934Y-33774400D01*
X23325178Y-33858107D01*
X23349595Y-33938596D01*
X23389245Y-34012776D01*
X23442605Y-34077795D01*
X23507624Y-34131155D01*
X23581804Y-34170805D01*
X23597940Y-34175700D01*
X23581804Y-34180595D01*
X23507624Y-34220245D01*
X23442605Y-34273605D01*
X23389245Y-34338624D01*
X23349595Y-34412804D01*
X23325178Y-34493293D01*
X23316934Y-34577000D01*
X23319000Y-34922250D01*
X23425750Y-35029000D01*
X24260500Y-35029000D01*
X24260500Y-34256750D01*
X24154450Y-34150700D01*
X24210500Y-34094650D01*
X24210500Y-33322400D01*
X23425750Y-33322400D01*
X23319000Y-33429150D01*
X23316934Y-33774400D01*
X22839392Y-33774400D01*
X22813765Y-33712533D01*
X22709690Y-33556773D01*
X22577227Y-33424310D01*
X22421467Y-33320235D01*
X22248396Y-33248547D01*
X22064665Y-33212000D01*
X21877335Y-33212000D01*
X21693604Y-33248547D01*
X21520533Y-33320235D01*
X21364773Y-33424310D01*
X21259400Y-33529683D01*
X21259400Y-32824400D01*
X23316934Y-32824400D01*
X23319000Y-33169650D01*
X23425750Y-33276400D01*
X24210500Y-33276400D01*
X24210500Y-32504150D01*
X24103750Y-32397400D01*
X23746000Y-32395334D01*
X23662293Y-32403578D01*
X23581804Y-32427995D01*
X23507624Y-32467645D01*
X23442605Y-32521005D01*
X23389245Y-32586024D01*
X23349595Y-32660204D01*
X23325178Y-32740693D01*
X23316934Y-32824400D01*
X21259400Y-32824400D01*
X21259400Y-31371000D01*
X21567999Y-31371000D01*
X21583966Y-31533120D01*
X21631255Y-31689010D01*
X21708048Y-31832679D01*
X21811394Y-31958606D01*
X21937321Y-32061952D01*
X22080990Y-32138745D01*
X22236880Y-32186034D01*
X22358376Y-32198000D01*
X23039624Y-32198000D01*
X23161120Y-32186034D01*
X23317010Y-32138745D01*
X23460679Y-32061952D01*
X23586606Y-31958606D01*
X23689952Y-31832679D01*
X23766745Y-31689010D01*
X23814034Y-31533120D01*
X23830001Y-31371000D01*
X23814034Y-31208880D01*
X23766745Y-31052990D01*
X23689952Y-30909321D01*
X23586606Y-30783394D01*
X23460679Y-30680048D01*
X23317010Y-30603255D01*
X23161120Y-30555966D01*
X23039624Y-30544000D01*
X22358376Y-30544000D01*
X22236880Y-30555966D01*
X22080990Y-30603255D01*
X21937321Y-30680048D01*
X21811394Y-30783394D01*
X21708048Y-30909321D01*
X21631255Y-31052990D01*
X21583966Y-31208880D01*
X21567999Y-31371000D01*
X21259400Y-31371000D01*
X21259400Y-22731000D01*
X21567999Y-22731000D01*
X21583966Y-22893120D01*
X21631255Y-23049010D01*
X21708048Y-23192679D01*
X21811394Y-23318606D01*
X21937321Y-23421952D01*
X22080990Y-23498745D01*
X22236880Y-23546034D01*
X22358376Y-23558000D01*
X23039624Y-23558000D01*
X23161120Y-23546034D01*
X23317010Y-23498745D01*
X23460679Y-23421952D01*
X23586606Y-23318606D01*
X23689952Y-23192679D01*
X23766745Y-23049010D01*
X23814034Y-22893120D01*
X23830001Y-22731000D01*
X23814034Y-22568880D01*
X23766745Y-22412990D01*
X23689952Y-22269321D01*
X23586606Y-22143394D01*
X23460679Y-22040048D01*
X23317010Y-21963255D01*
X23161120Y-21915966D01*
X23039624Y-21904000D01*
X22358376Y-21904000D01*
X22236880Y-21915966D01*
X22080990Y-21963255D01*
X21937321Y-22040048D01*
X21811394Y-22143394D01*
X21708048Y-22269321D01*
X21631255Y-22412990D01*
X21583966Y-22568880D01*
X21567999Y-22731000D01*
X21259400Y-22731000D01*
X21259400Y-21303000D01*
X23316934Y-21303000D01*
X23325178Y-21386707D01*
X23349595Y-21467196D01*
X23389245Y-21541376D01*
X23442605Y-21606395D01*
X23507624Y-21659755D01*
X23581804Y-21699405D01*
X23662293Y-21723822D01*
X23746000Y-21732066D01*
X24103750Y-21730000D01*
X24210500Y-21623250D01*
X24210500Y-20851000D01*
X24256500Y-20851000D01*
X24256500Y-21623250D01*
X24363250Y-21730000D01*
X24721000Y-21732066D01*
X24804707Y-21723822D01*
X24885196Y-21699405D01*
X24959376Y-21659755D01*
X25024395Y-21606395D01*
X25051990Y-21572770D01*
X25051991Y-24465775D01*
X25049803Y-24487990D01*
X25058530Y-24576597D01*
X25084376Y-24661799D01*
X25112338Y-24714112D01*
X25126348Y-24740323D01*
X25182832Y-24809149D01*
X25200086Y-24823309D01*
X26506684Y-26129909D01*
X26520840Y-26147158D01*
X26589666Y-26203642D01*
X26668189Y-26245613D01*
X26740418Y-26267523D01*
X26740418Y-26354553D01*
X26730393Y-26355540D01*
X26645190Y-26381386D01*
X26566667Y-26423357D01*
X26497841Y-26479841D01*
X26483680Y-26497097D01*
X26440098Y-26540679D01*
X26422840Y-26554842D01*
X26366356Y-26623669D01*
X26348537Y-26657007D01*
X26324385Y-26702192D01*
X26298539Y-26787394D01*
X26289812Y-26876001D01*
X26291999Y-26898207D01*
X26292000Y-27688786D01*
X26289812Y-27711001D01*
X26298539Y-27799608D01*
X26324385Y-27884810D01*
X26342477Y-27918657D01*
X26366357Y-27963334D01*
X26422841Y-28032160D01*
X26440095Y-28046320D01*
X26498675Y-28104900D01*
X26512839Y-28122159D01*
X26581665Y-28178643D01*
X26660188Y-28220614D01*
X26697403Y-28231903D01*
X26740418Y-28244952D01*
X26740418Y-28349000D01*
X26650206Y-28349000D01*
X26628001Y-28346813D01*
X26539394Y-28355540D01*
X26519564Y-28361556D01*
X26454192Y-28381386D01*
X26375669Y-28423357D01*
X26306843Y-28479841D01*
X26292687Y-28497090D01*
X25942432Y-28847347D01*
X25863189Y-28871385D01*
X25784666Y-28913356D01*
X25715840Y-28969840D01*
X25701680Y-28987094D01*
X25200090Y-29488685D01*
X25182831Y-29502849D01*
X25126347Y-29571676D01*
X25110143Y-29601992D01*
X25084376Y-29650199D01*
X25058530Y-29735401D01*
X25049803Y-29824008D01*
X25051990Y-29846213D01*
X25051991Y-32554631D01*
X25024395Y-32521005D01*
X24959376Y-32467645D01*
X24885196Y-32427995D01*
X24804707Y-32403578D01*
X24721000Y-32395334D01*
X24363250Y-32397400D01*
X24256500Y-32504150D01*
X24256500Y-33276400D01*
X25041250Y-33276400D01*
X25148000Y-33169650D01*
X25148868Y-33024663D01*
X25182832Y-33066049D01*
X25200086Y-33080209D01*
X25242418Y-33122541D01*
X25242418Y-33536900D01*
X25253295Y-33647337D01*
X25285508Y-33753530D01*
X25337820Y-33851398D01*
X25408220Y-33937180D01*
X25494002Y-34007580D01*
X25591870Y-34059892D01*
X25698063Y-34092105D01*
X25808500Y-34102982D01*
X26141517Y-34102982D01*
X25996081Y-34248418D01*
X25708500Y-34248418D01*
X25598063Y-34259295D01*
X25491870Y-34291508D01*
X25394002Y-34343820D01*
X25308220Y-34414220D01*
X25241983Y-34494929D01*
X25241822Y-34493293D01*
X25217405Y-34412804D01*
X25177755Y-34338624D01*
X25124395Y-34273605D01*
X25059376Y-34220245D01*
X24985196Y-34180595D01*
X24909718Y-34157698D01*
X24959376Y-34131155D01*
X25024395Y-34077795D01*
X25077755Y-34012776D01*
X25117405Y-33938596D01*
X25141822Y-33858107D01*
X25150066Y-33774400D01*
X25148000Y-33429150D01*
X25041250Y-33322400D01*
X24256500Y-33322400D01*
X24256500Y-34094650D01*
X24362550Y-34200700D01*
X24306500Y-34256750D01*
X24306500Y-35029000D01*
X24326500Y-35029000D01*
X24326500Y-35075000D01*
X24306500Y-35075000D01*
X24306500Y-35847250D01*
X24413250Y-35954000D01*
X24821000Y-35956066D01*
X24904707Y-35947822D01*
X24985196Y-35923405D01*
X25059376Y-35883755D01*
X25124395Y-35830395D01*
X25177755Y-35765376D01*
X25217405Y-35691196D01*
X25241822Y-35610707D01*
X25241983Y-35609071D01*
X25308220Y-35689780D01*
X25394002Y-35760180D01*
X25491870Y-35812492D01*
X25598063Y-35844705D01*
X25708500Y-35855582D01*
X26308500Y-35855582D01*
X26418937Y-35844705D01*
X26525130Y-35812492D01*
X26622998Y-35760180D01*
X26667083Y-35724000D01*
X27049934Y-35724000D01*
X27058178Y-35807707D01*
X27082595Y-35888196D01*
X27122245Y-35962376D01*
X27175605Y-36027395D01*
X27240624Y-36080755D01*
X27314804Y-36120405D01*
X27395293Y-36144822D01*
X27479000Y-36153066D01*
X27749250Y-36151000D01*
X27856000Y-36044250D01*
X27856000Y-35297000D01*
X27902000Y-35297000D01*
X27902000Y-36044250D01*
X28008750Y-36151000D01*
X28279000Y-36153066D01*
X28362707Y-36144822D01*
X28443196Y-36120405D01*
X28517376Y-36080755D01*
X28582395Y-36027395D01*
X28635755Y-35962376D01*
X28675405Y-35888196D01*
X28699822Y-35807707D01*
X28708066Y-35724000D01*
X28706000Y-35403750D01*
X28599250Y-35297000D01*
X27902000Y-35297000D01*
X27856000Y-35297000D01*
X27158750Y-35297000D01*
X27052000Y-35403750D01*
X27049934Y-35724000D01*
X26667083Y-35724000D01*
X26708780Y-35689780D01*
X26779180Y-35603998D01*
X26831492Y-35506130D01*
X26863705Y-35399937D01*
X26874582Y-35289500D01*
X26874582Y-35001919D01*
X27049950Y-34826551D01*
X27052000Y-35144250D01*
X27158750Y-35251000D01*
X27856000Y-35251000D01*
X27856000Y-34503750D01*
X27902000Y-34503750D01*
X27902000Y-35251000D01*
X28599250Y-35251000D01*
X28706000Y-35144250D01*
X28708066Y-34824000D01*
X28699822Y-34740293D01*
X28675405Y-34659804D01*
X28635755Y-34585624D01*
X28582395Y-34520605D01*
X28517376Y-34467245D01*
X28443196Y-34427595D01*
X28362707Y-34403178D01*
X28279000Y-34394934D01*
X28008750Y-34397000D01*
X27902000Y-34503750D01*
X27856000Y-34503750D01*
X27749250Y-34397000D01*
X27481548Y-34394953D01*
X28025501Y-33851000D01*
X28126102Y-33851000D01*
X28155794Y-33906550D01*
X28196657Y-33956343D01*
X28246450Y-33997206D01*
X28303257Y-34027570D01*
X28364897Y-34046268D01*
X28429000Y-34052582D01*
X29229000Y-34052582D01*
X29293103Y-34046268D01*
X29354743Y-34027570D01*
X29411550Y-33997206D01*
X29461343Y-33956343D01*
X29502206Y-33906550D01*
X29532570Y-33849743D01*
X29551268Y-33788103D01*
X29557582Y-33724000D01*
X29557582Y-33361419D01*
X29851963Y-33067038D01*
X29873974Y-33048974D01*
X29946079Y-32961115D01*
X29999657Y-32860876D01*
X30020574Y-32791922D01*
X30032651Y-32752112D01*
X30043791Y-32639000D01*
X30041000Y-32610661D01*
X30041000Y-30548980D01*
X30578689Y-30548980D01*
X30607020Y-30551770D01*
X30635351Y-30548980D01*
X30635356Y-30548980D01*
X30654234Y-30547121D01*
X30771682Y-30595769D01*
X30999076Y-30641000D01*
X31230924Y-30641000D01*
X31458318Y-30595769D01*
X31672519Y-30507044D01*
X31865294Y-30378236D01*
X32029236Y-30214294D01*
X32158044Y-30021519D01*
X32246769Y-29807318D01*
X32292000Y-29579924D01*
X32292000Y-29348076D01*
X32246769Y-29120682D01*
X32158044Y-28906481D01*
X32029236Y-28713706D01*
X31865294Y-28549764D01*
X31672519Y-28420956D01*
X31458318Y-28332231D01*
X31230924Y-28287000D01*
X30999076Y-28287000D01*
X30771682Y-28332231D01*
X30557481Y-28420956D01*
X30364706Y-28549764D01*
X30200764Y-28713706D01*
X30071956Y-28906481D01*
X29983231Y-29120682D01*
X29938000Y-29348076D01*
X29938000Y-29394980D01*
X29909025Y-29394980D01*
X29808364Y-29327721D01*
X29676058Y-29272918D01*
X29557321Y-29249300D01*
X29421057Y-29113036D01*
X29402994Y-29091026D01*
X29315135Y-29018921D01*
X29214896Y-28965343D01*
X29150790Y-28945897D01*
X29106131Y-28932349D01*
X29051065Y-28926926D01*
X29021356Y-28924000D01*
X29021351Y-28924000D01*
X28993020Y-28921210D01*
X28964689Y-28924000D01*
X28847582Y-28924000D01*
X28847582Y-28651000D01*
X28841268Y-28586897D01*
X28830379Y-28551000D01*
X28841268Y-28515103D01*
X28847582Y-28451000D01*
X28847582Y-28253000D01*
X32544111Y-28253000D01*
X32570398Y-28255589D01*
X32592603Y-28253402D01*
X33898393Y-28253402D01*
X33920598Y-28255589D01*
X33942803Y-28253402D01*
X34009205Y-28246862D01*
X34094408Y-28221016D01*
X34172931Y-28179045D01*
X34241757Y-28122561D01*
X34255921Y-28105302D01*
X34325000Y-28036223D01*
X34325000Y-28164003D01*
X34352938Y-28304458D01*
X34407741Y-28436764D01*
X34487302Y-28555836D01*
X34588564Y-28657098D01*
X34707636Y-28736659D01*
X34839942Y-28791462D01*
X34980397Y-28819400D01*
X35123603Y-28819400D01*
X35223406Y-28799548D01*
X35151956Y-28906481D01*
X35063231Y-29120682D01*
X35018000Y-29348076D01*
X35018000Y-29579924D01*
X35032115Y-29650884D01*
X34723899Y-29959100D01*
X34786769Y-29807318D01*
X34832000Y-29579924D01*
X34832000Y-29348076D01*
X34786769Y-29120682D01*
X34698044Y-28906481D01*
X34569236Y-28713706D01*
X34405294Y-28549764D01*
X34212519Y-28420956D01*
X33998318Y-28332231D01*
X33770924Y-28287000D01*
X33539076Y-28287000D01*
X33311682Y-28332231D01*
X33097481Y-28420956D01*
X32904706Y-28549764D01*
X32740764Y-28713706D01*
X32611956Y-28906481D01*
X32523231Y-29120682D01*
X32478000Y-29348076D01*
X32478000Y-29579924D01*
X32523231Y-29807318D01*
X32611956Y-30021519D01*
X32740764Y-30214294D01*
X32904706Y-30378236D01*
X33097481Y-30507044D01*
X33311682Y-30595769D01*
X33539076Y-30641000D01*
X33770924Y-30641000D01*
X33998318Y-30595769D01*
X34150100Y-30532899D01*
X32095286Y-32587713D01*
X32077130Y-32578008D01*
X31970937Y-32545795D01*
X31860500Y-32534918D01*
X31385500Y-32534918D01*
X31275063Y-32545795D01*
X31168870Y-32578008D01*
X31071002Y-32630320D01*
X30985220Y-32700720D01*
X30914820Y-32786502D01*
X30862508Y-32884370D01*
X30830295Y-32990563D01*
X30819418Y-33101000D01*
X30819418Y-33388581D01*
X29712581Y-34495418D01*
X29379000Y-34495418D01*
X29314897Y-34501732D01*
X29253257Y-34520430D01*
X29196450Y-34550794D01*
X29146657Y-34591657D01*
X29105794Y-34641450D01*
X29075430Y-34698257D01*
X29056732Y-34759897D01*
X29050418Y-34824000D01*
X29050418Y-35724000D01*
X29056732Y-35788103D01*
X29075430Y-35849743D01*
X29105794Y-35906550D01*
X29146657Y-35956343D01*
X29196450Y-35997206D01*
X29253257Y-36027570D01*
X29314897Y-36046268D01*
X29379000Y-36052582D01*
X30179000Y-36052582D01*
X30243103Y-36046268D01*
X30304743Y-36027570D01*
X30361550Y-35997206D01*
X30411343Y-35956343D01*
X30452206Y-35906550D01*
X30482570Y-35849743D01*
X30501268Y-35788103D01*
X30507582Y-35724000D01*
X30507582Y-35663500D01*
X30718934Y-35663500D01*
X30727178Y-35747207D01*
X30751595Y-35827696D01*
X30791245Y-35901876D01*
X30844605Y-35966895D01*
X30909624Y-36020255D01*
X30983804Y-36059905D01*
X31064293Y-36084322D01*
X31148000Y-36092566D01*
X31493250Y-36090500D01*
X31600000Y-35983750D01*
X31600000Y-35149000D01*
X31646000Y-35149000D01*
X31646000Y-35983750D01*
X31752750Y-36090500D01*
X32098000Y-36092566D01*
X32181707Y-36084322D01*
X32262196Y-36059905D01*
X32336376Y-36020255D01*
X32401395Y-35966895D01*
X32454755Y-35901876D01*
X32494405Y-35827696D01*
X32518822Y-35747207D01*
X32527066Y-35663500D01*
X32525000Y-35255750D01*
X32418250Y-35149000D01*
X31646000Y-35149000D01*
X31600000Y-35149000D01*
X30827750Y-35149000D01*
X30721000Y-35255750D01*
X30718934Y-35663500D01*
X30507582Y-35663500D01*
X30507582Y-35332419D01*
X30782376Y-35057626D01*
X30827750Y-35103000D01*
X31600000Y-35103000D01*
X31600000Y-35083000D01*
X31646000Y-35083000D01*
X31646000Y-35103000D01*
X32418250Y-35103000D01*
X32525000Y-34996250D01*
X32527066Y-34588500D01*
X32518822Y-34504793D01*
X32494405Y-34424304D01*
X32454755Y-34350124D01*
X32401395Y-34285105D01*
X32336376Y-34231745D01*
X32262196Y-34192095D01*
X32181707Y-34167678D01*
X32180071Y-34167517D01*
X32260780Y-34101280D01*
X32331180Y-34015498D01*
X32383492Y-33917630D01*
X32388914Y-33899756D01*
X32420115Y-33883079D01*
X32507974Y-33810974D01*
X32526039Y-33788962D01*
X33029925Y-33285076D01*
X42003000Y-33285076D01*
X42003000Y-33516924D01*
X42048231Y-33744318D01*
X42136956Y-33958519D01*
X42265764Y-34151294D01*
X42429706Y-34315236D01*
X42622481Y-34444044D01*
X42836682Y-34532769D01*
X43064076Y-34578000D01*
X43295924Y-34578000D01*
X43523318Y-34532769D01*
X43737519Y-34444044D01*
X43930294Y-34315236D01*
X44094236Y-34151294D01*
X44223044Y-33958519D01*
X44311769Y-33744318D01*
X44357000Y-33516924D01*
X44357000Y-33285076D01*
X44311769Y-33057682D01*
X44223044Y-32843481D01*
X44094236Y-32650706D01*
X43930294Y-32486764D01*
X43737519Y-32357956D01*
X43523318Y-32269231D01*
X43295924Y-32224000D01*
X43064076Y-32224000D01*
X42836682Y-32269231D01*
X42622481Y-32357956D01*
X42429706Y-32486764D01*
X42265764Y-32650706D01*
X42136956Y-32843481D01*
X42048231Y-33057682D01*
X42003000Y-33285076D01*
X33029925Y-33285076D01*
X34260001Y-32055000D01*
X38312418Y-32055000D01*
X38312418Y-32555000D01*
X38323295Y-32665437D01*
X38355508Y-32771630D01*
X38407820Y-32869498D01*
X38478220Y-32955280D01*
X38564002Y-33025680D01*
X38661870Y-33077992D01*
X38768063Y-33110205D01*
X38878500Y-33121082D01*
X39353500Y-33121082D01*
X39463937Y-33110205D01*
X39570130Y-33077992D01*
X39667998Y-33025680D01*
X39753780Y-32955280D01*
X39824180Y-32869498D01*
X39876492Y-32771630D01*
X39880930Y-32757000D01*
X40120880Y-32757000D01*
X40133508Y-32798630D01*
X40185820Y-32896498D01*
X40256220Y-32982280D01*
X40342002Y-33052680D01*
X40439870Y-33104992D01*
X40546063Y-33137205D01*
X40656500Y-33148082D01*
X41131500Y-33148082D01*
X41241937Y-33137205D01*
X41348130Y-33104992D01*
X41445998Y-33052680D01*
X41531780Y-32982280D01*
X41602180Y-32896498D01*
X41654492Y-32798630D01*
X41686705Y-32692437D01*
X41697582Y-32582000D01*
X41697582Y-32007000D01*
X41686705Y-31896563D01*
X41654492Y-31790370D01*
X41602180Y-31692502D01*
X41531780Y-31606720D01*
X41445998Y-31536320D01*
X41348130Y-31484008D01*
X41241937Y-31451795D01*
X41131500Y-31440918D01*
X40656500Y-31440918D01*
X40546063Y-31451795D01*
X40439870Y-31484008D01*
X40342002Y-31536320D01*
X40256220Y-31606720D01*
X40185820Y-31692502D01*
X40133508Y-31790370D01*
X40114510Y-31853000D01*
X39880930Y-31853000D01*
X39876492Y-31838370D01*
X39824180Y-31740502D01*
X39753780Y-31654720D01*
X39667998Y-31584320D01*
X39570130Y-31532008D01*
X39463937Y-31499795D01*
X39353500Y-31488918D01*
X38878500Y-31488918D01*
X38768063Y-31499795D01*
X38661870Y-31532008D01*
X38564002Y-31584320D01*
X38478220Y-31654720D01*
X38407820Y-31740502D01*
X38355508Y-31838370D01*
X38323295Y-31944563D01*
X38312418Y-32055000D01*
X34260001Y-32055000D01*
X35758026Y-30556975D01*
X35851682Y-30595769D01*
X36079076Y-30641000D01*
X36310924Y-30641000D01*
X36515338Y-30600340D01*
X36782965Y-30867967D01*
X36801026Y-30889974D01*
X36823033Y-30908035D01*
X36823035Y-30908037D01*
X36824600Y-30909321D01*
X36888885Y-30962079D01*
X36989124Y-31015657D01*
X37029814Y-31028000D01*
X37097888Y-31048651D01*
X37155886Y-31054363D01*
X37182664Y-31057000D01*
X37182669Y-31057000D01*
X37211000Y-31059790D01*
X37239331Y-31057000D01*
X38418080Y-31057000D01*
X38478220Y-31130280D01*
X38564002Y-31200680D01*
X38661870Y-31252992D01*
X38768063Y-31285205D01*
X38878500Y-31296082D01*
X39353500Y-31296082D01*
X39463937Y-31285205D01*
X39570130Y-31252992D01*
X39667998Y-31200680D01*
X39753780Y-31130280D01*
X39824180Y-31044498D01*
X39876492Y-30946630D01*
X39908705Y-30840437D01*
X39919582Y-30730000D01*
X39919582Y-30378752D01*
X39933397Y-30381500D01*
X40076603Y-30381500D01*
X40090093Y-30378817D01*
X40090418Y-30379141D01*
X40090418Y-30832000D01*
X40101295Y-30942437D01*
X40133508Y-31048630D01*
X40185820Y-31146498D01*
X40256220Y-31232280D01*
X40342002Y-31302680D01*
X40439870Y-31354992D01*
X40546063Y-31387205D01*
X40656500Y-31398082D01*
X41131500Y-31398082D01*
X41241937Y-31387205D01*
X41348130Y-31354992D01*
X41445998Y-31302680D01*
X41531780Y-31232280D01*
X41602180Y-31146498D01*
X41654492Y-31048630D01*
X41670305Y-30996500D01*
X41986765Y-30996500D01*
X41998386Y-31034810D01*
X42024073Y-31082868D01*
X42048231Y-31204318D01*
X42136956Y-31418519D01*
X42265764Y-31611294D01*
X42429706Y-31775236D01*
X42622481Y-31904044D01*
X42836682Y-31992769D01*
X43064076Y-32038000D01*
X43295924Y-32038000D01*
X43523318Y-31992769D01*
X43737519Y-31904044D01*
X43930294Y-31775236D01*
X44094236Y-31611294D01*
X44223044Y-31418519D01*
X44311769Y-31204318D01*
X44335927Y-31082868D01*
X44361614Y-31034810D01*
X44387460Y-30949607D01*
X44396187Y-30861000D01*
X44387460Y-30772393D01*
X44361614Y-30687190D01*
X44335927Y-30639132D01*
X44311769Y-30517682D01*
X44223044Y-30303481D01*
X44094236Y-30110706D01*
X43930294Y-29946764D01*
X43737519Y-29817956D01*
X43523318Y-29729231D01*
X43295924Y-29684000D01*
X43064076Y-29684000D01*
X42836682Y-29729231D01*
X42622481Y-29817956D01*
X42429706Y-29946764D01*
X42283970Y-30092500D01*
X41670305Y-30092500D01*
X41654492Y-30040370D01*
X41602180Y-29942502D01*
X41531780Y-29856720D01*
X41445998Y-29786320D01*
X41348130Y-29734008D01*
X41241937Y-29701795D01*
X41131500Y-29690918D01*
X40732000Y-29690918D01*
X40732000Y-29682582D01*
X41131500Y-29682582D01*
X41241937Y-29671705D01*
X41348130Y-29639492D01*
X41445998Y-29587180D01*
X41531780Y-29516780D01*
X41602180Y-29430998D01*
X41654492Y-29333130D01*
X41686705Y-29226937D01*
X41697582Y-29116500D01*
X41697582Y-28541500D01*
X41686705Y-28431063D01*
X41654492Y-28324870D01*
X41602180Y-28227002D01*
X41531780Y-28141220D01*
X41445998Y-28070820D01*
X41348130Y-28018508D01*
X41241937Y-27986295D01*
X41131500Y-27975418D01*
X40656500Y-27975418D01*
X40546063Y-27986295D01*
X40439870Y-28018508D01*
X40342002Y-28070820D01*
X40256220Y-28141220D01*
X40185820Y-28227002D01*
X40133508Y-28324870D01*
X40117695Y-28377000D01*
X39880930Y-28377000D01*
X39876492Y-28362370D01*
X39824180Y-28264502D01*
X39753780Y-28178720D01*
X39667998Y-28108320D01*
X39570130Y-28056008D01*
X39463937Y-28023795D01*
X39353500Y-28012918D01*
X38878500Y-28012918D01*
X38768063Y-28023795D01*
X38661870Y-28056008D01*
X38564002Y-28108320D01*
X38478220Y-28178720D01*
X38407820Y-28264502D01*
X38355508Y-28362370D01*
X38323295Y-28468563D01*
X38312418Y-28579000D01*
X38312418Y-29079000D01*
X38323295Y-29189437D01*
X38355508Y-29295630D01*
X38407820Y-29393498D01*
X38478220Y-29479280D01*
X38564002Y-29549680D01*
X38661870Y-29601992D01*
X38768063Y-29634205D01*
X38878500Y-29645082D01*
X39278000Y-29645082D01*
X39278000Y-29663918D01*
X38878500Y-29663918D01*
X38768063Y-29674795D01*
X38661870Y-29707008D01*
X38564002Y-29759320D01*
X38478220Y-29829720D01*
X38418080Y-29903000D01*
X37450002Y-29903000D01*
X37331340Y-29784338D01*
X37372000Y-29579924D01*
X37372000Y-29348076D01*
X37326769Y-29120682D01*
X37238044Y-28906481D01*
X37109236Y-28713706D01*
X36945294Y-28549764D01*
X36772000Y-28433973D01*
X36772000Y-28306001D01*
X37497002Y-27581000D01*
X38418080Y-27581000D01*
X38478220Y-27654280D01*
X38564002Y-27724680D01*
X38661870Y-27776992D01*
X38768063Y-27809205D01*
X38878500Y-27820082D01*
X39353500Y-27820082D01*
X39463937Y-27809205D01*
X39570130Y-27776992D01*
X39667998Y-27724680D01*
X39753780Y-27654280D01*
X39824180Y-27568498D01*
X39876492Y-27470630D01*
X39908705Y-27364437D01*
X39919582Y-27254000D01*
X39919582Y-26754000D01*
X39908705Y-26643563D01*
X39876492Y-26537370D01*
X39824180Y-26439502D01*
X39753780Y-26353720D01*
X39667998Y-26283320D01*
X39570130Y-26231008D01*
X39463937Y-26198795D01*
X39353500Y-26187918D01*
X38878500Y-26187918D01*
X38768063Y-26198795D01*
X38661870Y-26231008D01*
X38564002Y-26283320D01*
X38478220Y-26353720D01*
X38418080Y-26427000D01*
X37356624Y-26427000D01*
X37387906Y-26395718D01*
X37405159Y-26381559D01*
X37461643Y-26312733D01*
X37503614Y-26234210D01*
X37511250Y-26209037D01*
X37529460Y-26149008D01*
X37538187Y-26060400D01*
X37536000Y-26038195D01*
X37536000Y-25893289D01*
X37572409Y-25863409D01*
X37631926Y-25790886D01*
X37676152Y-25708145D01*
X37703386Y-25618367D01*
X37712582Y-25525000D01*
X37712582Y-23875000D01*
X37703386Y-23781633D01*
X37676152Y-23691855D01*
X37631926Y-23609114D01*
X37596544Y-23566000D01*
X37841456Y-23566000D01*
X37806074Y-23609114D01*
X37761848Y-23691855D01*
X37734614Y-23781633D01*
X37725418Y-23875000D01*
X37725418Y-25525000D01*
X37734614Y-25618367D01*
X37761848Y-25708145D01*
X37806074Y-25790886D01*
X37865591Y-25863409D01*
X37938114Y-25922926D01*
X38020855Y-25967152D01*
X38110633Y-25994386D01*
X38204000Y-26003582D01*
X38504000Y-26003582D01*
X38597367Y-25994386D01*
X38687145Y-25967152D01*
X38769886Y-25922926D01*
X38842409Y-25863409D01*
X38901926Y-25790886D01*
X38946152Y-25708145D01*
X38973386Y-25618367D01*
X38982582Y-25525000D01*
X38982582Y-23875000D01*
X38973386Y-23781633D01*
X38946152Y-23691855D01*
X38901926Y-23609114D01*
X38866544Y-23566000D01*
X39111456Y-23566000D01*
X39076074Y-23609114D01*
X39031848Y-23691855D01*
X39004614Y-23781633D01*
X38995418Y-23875000D01*
X38995418Y-25525000D01*
X39004614Y-25618367D01*
X39031848Y-25708145D01*
X39076074Y-25790886D01*
X39135591Y-25863409D01*
X39208114Y-25922926D01*
X39290855Y-25967152D01*
X39380633Y-25994386D01*
X39474000Y-26003582D01*
X39774000Y-26003582D01*
X39867367Y-25994386D01*
X39957145Y-25967152D01*
X40039886Y-25922926D01*
X40112409Y-25863409D01*
X40171926Y-25790886D01*
X40216152Y-25708145D01*
X40243386Y-25618367D01*
X40252582Y-25525000D01*
X40252582Y-24321038D01*
X40442001Y-24510458D01*
X40442000Y-26267862D01*
X40439870Y-26268508D01*
X40342002Y-26320820D01*
X40256220Y-26391220D01*
X40185820Y-26477002D01*
X40133508Y-26574870D01*
X40101295Y-26681063D01*
X40090418Y-26791500D01*
X40090418Y-27366500D01*
X40101295Y-27476937D01*
X40133508Y-27583130D01*
X40185820Y-27680998D01*
X40256220Y-27766780D01*
X40342002Y-27837180D01*
X40439870Y-27889492D01*
X40546063Y-27921705D01*
X40656500Y-27932582D01*
X41131500Y-27932582D01*
X41241937Y-27921705D01*
X41348130Y-27889492D01*
X41445998Y-27837180D01*
X41502547Y-27790771D01*
X42003000Y-28291224D01*
X42003000Y-28436924D01*
X42048231Y-28664318D01*
X42136956Y-28878519D01*
X42265764Y-29071294D01*
X42429706Y-29235236D01*
X42622481Y-29364044D01*
X42836682Y-29452769D01*
X43064076Y-29498000D01*
X43295924Y-29498000D01*
X43523318Y-29452769D01*
X43737519Y-29364044D01*
X43930294Y-29235236D01*
X44094236Y-29071294D01*
X44223044Y-28878519D01*
X44311769Y-28664318D01*
X44335927Y-28542868D01*
X44361614Y-28494810D01*
X44387460Y-28409607D01*
X44396187Y-28321000D01*
X44387460Y-28232393D01*
X44361614Y-28147190D01*
X44335927Y-28099132D01*
X44311769Y-27977682D01*
X44223044Y-27763481D01*
X44094236Y-27570706D01*
X43930294Y-27406764D01*
X43737519Y-27277956D01*
X43523318Y-27189231D01*
X43295924Y-27144000D01*
X43064076Y-27144000D01*
X42836682Y-27189231D01*
X42622481Y-27277956D01*
X42429706Y-27406764D01*
X42413347Y-27423123D01*
X41765323Y-26775100D01*
X41751159Y-26757841D01*
X41689264Y-26707045D01*
X41686705Y-26681063D01*
X41654492Y-26574870D01*
X41602180Y-26477002D01*
X41531780Y-26391220D01*
X41445998Y-26320820D01*
X41348130Y-26268508D01*
X41346000Y-26267862D01*
X41346000Y-24763001D01*
X42043660Y-25460661D01*
X42003000Y-25665076D01*
X42003000Y-25896924D01*
X42048231Y-26124318D01*
X42136956Y-26338519D01*
X42265764Y-26531294D01*
X42429706Y-26695236D01*
X42622481Y-26824044D01*
X42836682Y-26912769D01*
X43064076Y-26958000D01*
X43295924Y-26958000D01*
X43523318Y-26912769D01*
X43737519Y-26824044D01*
X43930294Y-26695236D01*
X44094236Y-26531294D01*
X44223044Y-26338519D01*
X44311769Y-26124318D01*
X44357000Y-25896924D01*
X44357000Y-25665076D01*
X44311769Y-25437682D01*
X44223044Y-25223481D01*
X44094236Y-25030706D01*
X43930294Y-24866764D01*
X43737519Y-24737956D01*
X43523318Y-24649231D01*
X43295924Y-24604000D01*
X43064076Y-24604000D01*
X42859661Y-24644660D01*
X40366028Y-22151027D01*
X40347964Y-22129016D01*
X40260105Y-22056911D01*
X40159866Y-22003333D01*
X40083165Y-21980066D01*
X40051101Y-21970339D01*
X39996035Y-21964916D01*
X39966326Y-21961990D01*
X39966321Y-21961990D01*
X39937990Y-21959200D01*
X39909659Y-21961990D01*
X35085144Y-21961990D01*
X35108698Y-21938436D01*
X35188259Y-21819364D01*
X35243062Y-21687058D01*
X35271000Y-21546603D01*
X35271000Y-21403397D01*
X35243062Y-21262942D01*
X35188259Y-21130636D01*
X35108698Y-21011564D01*
X35020399Y-20923265D01*
X35032409Y-20913409D01*
X35091926Y-20840886D01*
X35136152Y-20758145D01*
X35163386Y-20668367D01*
X35172582Y-20575000D01*
X35172582Y-18925000D01*
X35185418Y-18925000D01*
X35185418Y-20575000D01*
X35194614Y-20668367D01*
X35221848Y-20758145D01*
X35266074Y-20840886D01*
X35325591Y-20913409D01*
X35398114Y-20972926D01*
X35480855Y-21017152D01*
X35570633Y-21044386D01*
X35664000Y-21053582D01*
X35964000Y-21053582D01*
X36057367Y-21044386D01*
X36147145Y-21017152D01*
X36229886Y-20972926D01*
X36302409Y-20913409D01*
X36361926Y-20840886D01*
X36406152Y-20758145D01*
X36433386Y-20668367D01*
X36442582Y-20575000D01*
X36442582Y-18925000D01*
X36455418Y-18925000D01*
X36455418Y-20575000D01*
X36464614Y-20668367D01*
X36491848Y-20758145D01*
X36536074Y-20840886D01*
X36595591Y-20913409D01*
X36668114Y-20972926D01*
X36750855Y-21017152D01*
X36840633Y-21044386D01*
X36934000Y-21053582D01*
X37234000Y-21053582D01*
X37327367Y-21044386D01*
X37417145Y-21017152D01*
X37499886Y-20972926D01*
X37572409Y-20913409D01*
X37631926Y-20840886D01*
X37676152Y-20758145D01*
X37703386Y-20668367D01*
X37712582Y-20575000D01*
X37712582Y-18925000D01*
X37725418Y-18925000D01*
X37725418Y-20575000D01*
X37734614Y-20668367D01*
X37761848Y-20758145D01*
X37806074Y-20840886D01*
X37865591Y-20913409D01*
X37938114Y-20972926D01*
X38020855Y-21017152D01*
X38110633Y-21044386D01*
X38204000Y-21053582D01*
X38504000Y-21053582D01*
X38597367Y-21044386D01*
X38687145Y-21017152D01*
X38769886Y-20972926D01*
X38842409Y-20913409D01*
X38901926Y-20840886D01*
X38946152Y-20758145D01*
X38973386Y-20668367D01*
X38982582Y-20575000D01*
X38982582Y-18925000D01*
X38995418Y-18925000D01*
X38995418Y-20575000D01*
X39004614Y-20668367D01*
X39031848Y-20758145D01*
X39076074Y-20840886D01*
X39135591Y-20913409D01*
X39208114Y-20972926D01*
X39290855Y-21017152D01*
X39380633Y-21044386D01*
X39474000Y-21053582D01*
X39774000Y-21053582D01*
X39867367Y-21044386D01*
X39957145Y-21017152D01*
X40039886Y-20972926D01*
X40112409Y-20913409D01*
X40128535Y-20893759D01*
X42072901Y-22838124D01*
X42048231Y-22897682D01*
X42003000Y-23125076D01*
X42003000Y-23356924D01*
X42048231Y-23584318D01*
X42136956Y-23798519D01*
X42265764Y-23991294D01*
X42429706Y-24155236D01*
X42622481Y-24284044D01*
X42836682Y-24372769D01*
X43064076Y-24418000D01*
X43295924Y-24418000D01*
X43523318Y-24372769D01*
X43737519Y-24284044D01*
X43930294Y-24155236D01*
X44094236Y-23991294D01*
X44223044Y-23798519D01*
X44311769Y-23584318D01*
X44357000Y-23356924D01*
X44357000Y-23125076D01*
X44311769Y-22897682D01*
X44223044Y-22683481D01*
X44094236Y-22490706D01*
X43930294Y-22326764D01*
X43737519Y-22197956D01*
X43523318Y-22109231D01*
X43295924Y-22064000D01*
X43064076Y-22064000D01*
X42836682Y-22109231D01*
X42685201Y-22171977D01*
X42492823Y-21979599D01*
X43050250Y-21978000D01*
X43157000Y-21871250D01*
X43157000Y-20724000D01*
X43203000Y-20724000D01*
X43203000Y-21871250D01*
X43309750Y-21978000D01*
X44030000Y-21980066D01*
X44113707Y-21971822D01*
X44194196Y-21947405D01*
X44268376Y-21907755D01*
X44333395Y-21854395D01*
X44386755Y-21789376D01*
X44426405Y-21715196D01*
X44450822Y-21634707D01*
X44459066Y-21551000D01*
X44457000Y-20830750D01*
X44350250Y-20724000D01*
X43203000Y-20724000D01*
X43157000Y-20724000D01*
X42009750Y-20724000D01*
X41903000Y-20830750D01*
X41901401Y-21388177D01*
X40364224Y-19851000D01*
X41900934Y-19851000D01*
X41903000Y-20571250D01*
X42009750Y-20678000D01*
X43157000Y-20678000D01*
X43157000Y-19530750D01*
X43203000Y-19530750D01*
X43203000Y-20678000D01*
X44350250Y-20678000D01*
X44457000Y-20571250D01*
X44459066Y-19851000D01*
X44450822Y-19767293D01*
X44426405Y-19686804D01*
X44386755Y-19612624D01*
X44333395Y-19547605D01*
X44268376Y-19494245D01*
X44194196Y-19454595D01*
X44113707Y-19430178D01*
X44030000Y-19421934D01*
X43309750Y-19424000D01*
X43203000Y-19530750D01*
X43157000Y-19530750D01*
X43050250Y-19424000D01*
X42330000Y-19421934D01*
X42246293Y-19430178D01*
X42165804Y-19454595D01*
X42091624Y-19494245D01*
X42026605Y-19547605D01*
X41973245Y-19612624D01*
X41933595Y-19686804D01*
X41909178Y-19767293D01*
X41900934Y-19851000D01*
X40364224Y-19851000D01*
X40252582Y-19739359D01*
X40252582Y-18925000D01*
X40243386Y-18831633D01*
X40216152Y-18741855D01*
X40171926Y-18659114D01*
X40112409Y-18586591D01*
X40039886Y-18527074D01*
X39957145Y-18482848D01*
X39867367Y-18455614D01*
X39774000Y-18446418D01*
X39474000Y-18446418D01*
X39380633Y-18455614D01*
X39290855Y-18482848D01*
X39208114Y-18527074D01*
X39135591Y-18586591D01*
X39076074Y-18659114D01*
X39031848Y-18741855D01*
X39004614Y-18831633D01*
X38995418Y-18925000D01*
X38982582Y-18925000D01*
X38973386Y-18831633D01*
X38946152Y-18741855D01*
X38901926Y-18659114D01*
X38842409Y-18586591D01*
X38769886Y-18527074D01*
X38687145Y-18482848D01*
X38597367Y-18455614D01*
X38504000Y-18446418D01*
X38204000Y-18446418D01*
X38110633Y-18455614D01*
X38020855Y-18482848D01*
X37938114Y-18527074D01*
X37865591Y-18586591D01*
X37806074Y-18659114D01*
X37761848Y-18741855D01*
X37734614Y-18831633D01*
X37725418Y-18925000D01*
X37712582Y-18925000D01*
X37703386Y-18831633D01*
X37676152Y-18741855D01*
X37631926Y-18659114D01*
X37572409Y-18586591D01*
X37499886Y-18527074D01*
X37417145Y-18482848D01*
X37327367Y-18455614D01*
X37234000Y-18446418D01*
X36934000Y-18446418D01*
X36840633Y-18455614D01*
X36750855Y-18482848D01*
X36668114Y-18527074D01*
X36595591Y-18586591D01*
X36536074Y-18659114D01*
X36491848Y-18741855D01*
X36464614Y-18831633D01*
X36455418Y-18925000D01*
X36442582Y-18925000D01*
X36433386Y-18831633D01*
X36406152Y-18741855D01*
X36361926Y-18659114D01*
X36302409Y-18586591D01*
X36229886Y-18527074D01*
X36147145Y-18482848D01*
X36057367Y-18455614D01*
X35964000Y-18446418D01*
X35664000Y-18446418D01*
X35570633Y-18455614D01*
X35480855Y-18482848D01*
X35398114Y-18527074D01*
X35325591Y-18586591D01*
X35266074Y-18659114D01*
X35221848Y-18741855D01*
X35194614Y-18831633D01*
X35185418Y-18925000D01*
X35172582Y-18925000D01*
X35163386Y-18831633D01*
X35136152Y-18741855D01*
X35091926Y-18659114D01*
X35032409Y-18586591D01*
X34959886Y-18527074D01*
X34877145Y-18482848D01*
X34787367Y-18455614D01*
X34694000Y-18446418D01*
X34394000Y-18446418D01*
X34300633Y-18455614D01*
X34210855Y-18482848D01*
X34128114Y-18527074D01*
X34055591Y-18586591D01*
X33996074Y-18659114D01*
X33951848Y-18741855D01*
X33924614Y-18831633D01*
X33915418Y-18925000D01*
X33915418Y-20575000D01*
X33924614Y-20668367D01*
X33951848Y-20758145D01*
X33996074Y-20840886D01*
X34055591Y-20913409D01*
X34067601Y-20923265D01*
X33979302Y-21011564D01*
X33899741Y-21130636D01*
X33844938Y-21262942D01*
X33817000Y-21403397D01*
X33817000Y-21546603D01*
X33844938Y-21687058D01*
X33899741Y-21819364D01*
X33979302Y-21938436D01*
X34002856Y-21961990D01*
X31411957Y-21961990D01*
X31378259Y-21880636D01*
X31311000Y-21779975D01*
X31311000Y-20786492D01*
X31326152Y-20758145D01*
X31353386Y-20668367D01*
X31362582Y-20575000D01*
X31362582Y-18925000D01*
X31375418Y-18925000D01*
X31375418Y-20575000D01*
X31384614Y-20668367D01*
X31411848Y-20758145D01*
X31456074Y-20840886D01*
X31515591Y-20913409D01*
X31588114Y-20972926D01*
X31670855Y-21017152D01*
X31760633Y-21044386D01*
X31854000Y-21053582D01*
X32154000Y-21053582D01*
X32247367Y-21044386D01*
X32337145Y-21017152D01*
X32419886Y-20972926D01*
X32492409Y-20913409D01*
X32551926Y-20840886D01*
X32596152Y-20758145D01*
X32623386Y-20668367D01*
X32632582Y-20575000D01*
X32632582Y-18925000D01*
X32645418Y-18925000D01*
X32645418Y-20575000D01*
X32654614Y-20668367D01*
X32681848Y-20758145D01*
X32726074Y-20840886D01*
X32785591Y-20913409D01*
X32858114Y-20972926D01*
X32940855Y-21017152D01*
X33030633Y-21044386D01*
X33124000Y-21053582D01*
X33424000Y-21053582D01*
X33517367Y-21044386D01*
X33607145Y-21017152D01*
X33689886Y-20972926D01*
X33762409Y-20913409D01*
X33821926Y-20840886D01*
X33866152Y-20758145D01*
X33893386Y-20668367D01*
X33902582Y-20575000D01*
X33902582Y-18925000D01*
X33893386Y-18831633D01*
X33866152Y-18741855D01*
X33821926Y-18659114D01*
X33762409Y-18586591D01*
X33689886Y-18527074D01*
X33607145Y-18482848D01*
X33517367Y-18455614D01*
X33424000Y-18446418D01*
X33124000Y-18446418D01*
X33030633Y-18455614D01*
X32940855Y-18482848D01*
X32858114Y-18527074D01*
X32785591Y-18586591D01*
X32726074Y-18659114D01*
X32681848Y-18741855D01*
X32654614Y-18831633D01*
X32645418Y-18925000D01*
X32632582Y-18925000D01*
X32623386Y-18831633D01*
X32596152Y-18741855D01*
X32551926Y-18659114D01*
X32492409Y-18586591D01*
X32419886Y-18527074D01*
X32337145Y-18482848D01*
X32247367Y-18455614D01*
X32154000Y-18446418D01*
X31854000Y-18446418D01*
X31760633Y-18455614D01*
X31670855Y-18482848D01*
X31588114Y-18527074D01*
X31515591Y-18586591D01*
X31456074Y-18659114D01*
X31411848Y-18741855D01*
X31384614Y-18831633D01*
X31375418Y-18925000D01*
X31362582Y-18925000D01*
X31353386Y-18831633D01*
X31326152Y-18741855D01*
X31281926Y-18659114D01*
X31222409Y-18586591D01*
X31149886Y-18527074D01*
X31067145Y-18482848D01*
X30977367Y-18455614D01*
X30884000Y-18446418D01*
X30584000Y-18446418D01*
X30490633Y-18455614D01*
X30400855Y-18482848D01*
X30318114Y-18527074D01*
X30245591Y-18586591D01*
X30186074Y-18659114D01*
X30141848Y-18741855D01*
X30114614Y-18831633D01*
X30105418Y-18925000D01*
X30105418Y-20575000D01*
X30114614Y-20668367D01*
X30141848Y-20758145D01*
X30157000Y-20786493D01*
X30157001Y-21779974D01*
X30089741Y-21880636D01*
X30034938Y-22012942D01*
X30007000Y-22153397D01*
X30007000Y-22296603D01*
X30034938Y-22437058D01*
X30089741Y-22569364D01*
X30169302Y-22688436D01*
X30270564Y-22789698D01*
X30389636Y-22869259D01*
X30521942Y-22924062D01*
X30636237Y-22946797D01*
X30638016Y-22948964D01*
X30725875Y-23021069D01*
X30797500Y-23059353D01*
X30797500Y-23364250D01*
X30757000Y-23404750D01*
X30757000Y-24677000D01*
X30777000Y-24677000D01*
X30777000Y-24723000D01*
X30757000Y-24723000D01*
X30757000Y-25995250D01*
X30863750Y-26102000D01*
X31034000Y-26104066D01*
X31117707Y-26095822D01*
X31198196Y-26071405D01*
X31272376Y-26031755D01*
X31337395Y-25978395D01*
X31390755Y-25913376D01*
X31430405Y-25839196D01*
X31449048Y-25777741D01*
X31456074Y-25790886D01*
X31515591Y-25863409D01*
X31588114Y-25922926D01*
X31670855Y-25967152D01*
X31760633Y-25994386D01*
X31854000Y-26003582D01*
X32154000Y-26003582D01*
X32247367Y-25994386D01*
X32337145Y-25967152D01*
X32419886Y-25922926D01*
X32492409Y-25863409D01*
X32551926Y-25790886D01*
X32596152Y-25708145D01*
X32623386Y-25618367D01*
X32632582Y-25525000D01*
X32632582Y-24187616D01*
X32645418Y-24206826D01*
X32645418Y-25525000D01*
X32654614Y-25618367D01*
X32681848Y-25708145D01*
X32726074Y-25790886D01*
X32785591Y-25863409D01*
X32858114Y-25922926D01*
X32940855Y-25967152D01*
X33030633Y-25994386D01*
X33124000Y-26003582D01*
X33424000Y-26003582D01*
X33517367Y-25994386D01*
X33607145Y-25967152D01*
X33689886Y-25922926D01*
X33762409Y-25863409D01*
X33821926Y-25790886D01*
X33866152Y-25708145D01*
X33893386Y-25618367D01*
X33902582Y-25525000D01*
X33902582Y-24206826D01*
X33915418Y-24187616D01*
X33915418Y-25525000D01*
X33924614Y-25618367D01*
X33941582Y-25674304D01*
X33899741Y-25736924D01*
X33844938Y-25869230D01*
X33817000Y-26009685D01*
X33817000Y-26152891D01*
X33844938Y-26293346D01*
X33899741Y-26425652D01*
X33979302Y-26544724D01*
X34080564Y-26645986D01*
X34199636Y-26725547D01*
X34311071Y-26771705D01*
X34149319Y-26933458D01*
X34125466Y-26813542D01*
X34070663Y-26681236D01*
X33991102Y-26562164D01*
X33889840Y-26460902D01*
X33770768Y-26381341D01*
X33638462Y-26326538D01*
X33498007Y-26298600D01*
X33354801Y-26298600D01*
X33214346Y-26326538D01*
X33082040Y-26381341D01*
X32962968Y-26460902D01*
X32861706Y-26562164D01*
X32854065Y-26573600D01*
X32838514Y-26573600D01*
X32838504Y-26573601D01*
X29308075Y-26573599D01*
X29308587Y-26568399D01*
X29299860Y-26479793D01*
X29296001Y-26467072D01*
X29296001Y-26413204D01*
X29298188Y-26390999D01*
X29295301Y-26361687D01*
X29392397Y-26381000D01*
X29535603Y-26381000D01*
X29676058Y-26353062D01*
X29808364Y-26298259D01*
X29927436Y-26218698D01*
X30028698Y-26117436D01*
X30108259Y-25998364D01*
X30121251Y-25966998D01*
X30130605Y-25978395D01*
X30195624Y-26031755D01*
X30269804Y-26071405D01*
X30350293Y-26095822D01*
X30434000Y-26104066D01*
X30604250Y-26102000D01*
X30711000Y-25995250D01*
X30711000Y-24723000D01*
X30113750Y-24723000D01*
X30007000Y-24829750D01*
X30006955Y-24848182D01*
X29999657Y-24824124D01*
X29946079Y-24723885D01*
X29899757Y-24667442D01*
X29892037Y-24658035D01*
X29892035Y-24658033D01*
X29873974Y-24636026D01*
X29851968Y-24617966D01*
X29447039Y-24213038D01*
X29428974Y-24191026D01*
X29341115Y-24118921D01*
X29240876Y-24065343D01*
X29176770Y-24045897D01*
X29132111Y-24032349D01*
X29077045Y-24026926D01*
X29047336Y-24024000D01*
X29047331Y-24024000D01*
X29019000Y-24021210D01*
X28990669Y-24024000D01*
X28947132Y-24024000D01*
X28946000Y-23930750D01*
X28839250Y-23824000D01*
X27817000Y-23824000D01*
X27817000Y-23844000D01*
X27771000Y-23844000D01*
X27771000Y-23824000D01*
X27751000Y-23824000D01*
X27751000Y-23778000D01*
X27771000Y-23778000D01*
X27771000Y-23758000D01*
X27817000Y-23758000D01*
X27817000Y-23778000D01*
X28839250Y-23778000D01*
X28892250Y-23725000D01*
X30004934Y-23725000D01*
X30007000Y-24570250D01*
X30113750Y-24677000D01*
X30711000Y-24677000D01*
X30711000Y-23404750D01*
X30604250Y-23298000D01*
X30434000Y-23295934D01*
X30350293Y-23304178D01*
X30269804Y-23328595D01*
X30195624Y-23368245D01*
X30130605Y-23421605D01*
X30077245Y-23486624D01*
X30037595Y-23560804D01*
X30013178Y-23641293D01*
X30004934Y-23725000D01*
X28892250Y-23725000D01*
X28946000Y-23671250D01*
X28948066Y-23501000D01*
X28939822Y-23417293D01*
X28915405Y-23336804D01*
X28875755Y-23262624D01*
X28822395Y-23197605D01*
X28757376Y-23144245D01*
X28683196Y-23104595D01*
X28602707Y-23080178D01*
X28519000Y-23071934D01*
X28183870Y-23073097D01*
X28196745Y-23049010D01*
X28244034Y-22893120D01*
X28260001Y-22731000D01*
X28244034Y-22568880D01*
X28196745Y-22412990D01*
X28119952Y-22269321D01*
X28016606Y-22143394D01*
X27890679Y-22040048D01*
X27747010Y-21963255D01*
X27591120Y-21915966D01*
X27469624Y-21904000D01*
X26288376Y-21904000D01*
X26166880Y-21915966D01*
X26010990Y-21963255D01*
X25955990Y-21992653D01*
X25955990Y-21631582D01*
X26308500Y-21631582D01*
X26418937Y-21620705D01*
X26525130Y-21588492D01*
X26622998Y-21536180D01*
X26708780Y-21465780D01*
X26779180Y-21379998D01*
X26831492Y-21282130D01*
X26863705Y-21175937D01*
X26874582Y-21065500D01*
X26874582Y-20590500D01*
X26863705Y-20480063D01*
X26831492Y-20373870D01*
X26779180Y-20276002D01*
X26708780Y-20190220D01*
X26622998Y-20119820D01*
X26525130Y-20067508D01*
X26418937Y-20035295D01*
X26308500Y-20024418D01*
X25808500Y-20024418D01*
X25698063Y-20035295D01*
X25591870Y-20067508D01*
X25494002Y-20119820D01*
X25408220Y-20190220D01*
X25337820Y-20276002D01*
X25285508Y-20373870D01*
X25253295Y-20480063D01*
X25242418Y-20590500D01*
X25242418Y-21004859D01*
X25200090Y-21047187D01*
X25182831Y-21061351D01*
X25148868Y-21102736D01*
X25148000Y-20957750D01*
X25041250Y-20851000D01*
X24256500Y-20851000D01*
X24210500Y-20851000D01*
X23425750Y-20851000D01*
X23319000Y-20957750D01*
X23316934Y-21303000D01*
X21259400Y-21303000D01*
X21259400Y-20572317D01*
X21364773Y-20677690D01*
X21520533Y-20781765D01*
X21693604Y-20853453D01*
X21877335Y-20890000D01*
X22064665Y-20890000D01*
X22248396Y-20853453D01*
X22421467Y-20781765D01*
X22577227Y-20677690D01*
X22709690Y-20545227D01*
X22813765Y-20389467D01*
X22885453Y-20216396D01*
X22922000Y-20032665D01*
X22922000Y-19845335D01*
X22885453Y-19661604D01*
X22828871Y-19525000D01*
X23316934Y-19525000D01*
X23325178Y-19608707D01*
X23349595Y-19689196D01*
X23389245Y-19763376D01*
X23442605Y-19828395D01*
X23507624Y-19881755D01*
X23581804Y-19921405D01*
X23639805Y-19939000D01*
X23581804Y-19956595D01*
X23507624Y-19996245D01*
X23442605Y-20049605D01*
X23389245Y-20114624D01*
X23349595Y-20188804D01*
X23325178Y-20269293D01*
X23316934Y-20353000D01*
X23319000Y-20698250D01*
X23425750Y-20805000D01*
X24210500Y-20805000D01*
X24210500Y-20032750D01*
X24256500Y-20032750D01*
X24256500Y-20805000D01*
X25041250Y-20805000D01*
X25148000Y-20698250D01*
X25150066Y-20353000D01*
X25141822Y-20269293D01*
X25117405Y-20188804D01*
X25077755Y-20114624D01*
X25024395Y-20049605D01*
X24959376Y-19996245D01*
X24885196Y-19956595D01*
X24863169Y-19949913D01*
X24904707Y-19945822D01*
X24985196Y-19921405D01*
X25059376Y-19881755D01*
X25124395Y-19828395D01*
X25177755Y-19763376D01*
X25217405Y-19689196D01*
X25241822Y-19608707D01*
X25241983Y-19607071D01*
X25308220Y-19687780D01*
X25394002Y-19758180D01*
X25491870Y-19810492D01*
X25598063Y-19842705D01*
X25708500Y-19853582D01*
X26308500Y-19853582D01*
X26418937Y-19842705D01*
X26525130Y-19810492D01*
X26622998Y-19758180D01*
X26708780Y-19687780D01*
X26758661Y-19627000D01*
X27240975Y-19627000D01*
X27341636Y-19694259D01*
X27473942Y-19749062D01*
X27614397Y-19777000D01*
X27757603Y-19777000D01*
X27898058Y-19749062D01*
X28030364Y-19694259D01*
X28149436Y-19614698D01*
X28250698Y-19513436D01*
X28330259Y-19394364D01*
X28385062Y-19262058D01*
X28413000Y-19121603D01*
X28413000Y-18978397D01*
X28385062Y-18837942D01*
X28330259Y-18705636D01*
X28250698Y-18586564D01*
X28149436Y-18485302D01*
X28030364Y-18405741D01*
X27898058Y-18350938D01*
X27757603Y-18323000D01*
X27614397Y-18323000D01*
X27473942Y-18350938D01*
X27341636Y-18405741D01*
X27240975Y-18473000D01*
X26758661Y-18473000D01*
X26708780Y-18412220D01*
X26622998Y-18341820D01*
X26525130Y-18289508D01*
X26418937Y-18257295D01*
X26308500Y-18246418D01*
X25708500Y-18246418D01*
X25598063Y-18257295D01*
X25491870Y-18289508D01*
X25394002Y-18341820D01*
X25308220Y-18412220D01*
X25241983Y-18492929D01*
X25241822Y-18491293D01*
X25217405Y-18410804D01*
X25177755Y-18336624D01*
X25124395Y-18271605D01*
X25059376Y-18218245D01*
X24985196Y-18178595D01*
X24904707Y-18154178D01*
X24821000Y-18145934D01*
X24413250Y-18148000D01*
X24306500Y-18254750D01*
X24306500Y-19027000D01*
X24326500Y-19027000D01*
X24326500Y-19073000D01*
X24306500Y-19073000D01*
X24306500Y-19845250D01*
X24387112Y-19925862D01*
X24363250Y-19926000D01*
X24256500Y-20032750D01*
X24210500Y-20032750D01*
X24129871Y-19952121D01*
X24153750Y-19952000D01*
X24260500Y-19845250D01*
X24260500Y-19073000D01*
X23425750Y-19073000D01*
X23319000Y-19179750D01*
X23316934Y-19525000D01*
X22828871Y-19525000D01*
X22813765Y-19488533D01*
X22709690Y-19332773D01*
X22577227Y-19200310D01*
X22421467Y-19096235D01*
X22248396Y-19024547D01*
X22064665Y-18988000D01*
X21877335Y-18988000D01*
X21693604Y-19024547D01*
X21520533Y-19096235D01*
X21364773Y-19200310D01*
X21259400Y-19305683D01*
X21259400Y-19058673D01*
X21290717Y-18739277D01*
X21340314Y-18575000D01*
X23316934Y-18575000D01*
X23319000Y-18920250D01*
X23425750Y-19027000D01*
X24260500Y-19027000D01*
X24260500Y-18254750D01*
X24153750Y-18148000D01*
X23746000Y-18145934D01*
X23662293Y-18154178D01*
X23581804Y-18178595D01*
X23507624Y-18218245D01*
X23442605Y-18271605D01*
X23389245Y-18336624D01*
X23349595Y-18410804D01*
X23325178Y-18491293D01*
X23316934Y-18575000D01*
X21340314Y-18575000D01*
X21380957Y-18440385D01*
X21527535Y-18164712D01*
X21724864Y-17922762D01*
X21965430Y-17723749D01*
X22240071Y-17575250D01*
X22538325Y-17482925D01*
X22857188Y-17449411D01*
X22860325Y-17449400D01*
X44441327Y-17449400D01*
X44760723Y-17480717D01*
%TA.AperFunction,Conductor*%
D23*
G36*
X44760723Y-17480717D02*
G01*
X45059615Y-17570957D01*
X45335288Y-17717535D01*
X45577238Y-17914864D01*
X45776251Y-18155430D01*
X45924750Y-18430071D01*
X46017075Y-18728325D01*
X46050589Y-19047188D01*
X46050600Y-19050326D01*
X46050600Y-26417683D01*
X45945227Y-26312310D01*
X45789467Y-26208235D01*
X45616396Y-26136547D01*
X45432665Y-26100000D01*
X45245335Y-26100000D01*
X45061604Y-26136547D01*
X44888533Y-26208235D01*
X44732773Y-26312310D01*
X44600310Y-26444773D01*
X44496235Y-26600533D01*
X44424547Y-26773604D01*
X44388000Y-26957335D01*
X44388000Y-27144665D01*
X44424547Y-27328396D01*
X44496235Y-27501467D01*
X44600310Y-27657227D01*
X44732773Y-27789690D01*
X44888533Y-27893765D01*
X45061604Y-27965453D01*
X45245335Y-28002000D01*
X45432665Y-28002000D01*
X45616396Y-27965453D01*
X45789467Y-27893765D01*
X45945227Y-27789690D01*
X46050601Y-27684316D01*
X46050601Y-35043317D01*
X46019283Y-35362723D01*
X45929041Y-35661619D01*
X45782465Y-35937288D01*
X45585136Y-36179238D01*
X45344569Y-36378252D01*
X45069928Y-36526750D01*
X44771675Y-36619075D01*
X44452812Y-36652589D01*
X44449674Y-36652600D01*
X22868673Y-36652600D01*
X22549277Y-36621283D01*
X22250381Y-36531041D01*
X21974712Y-36384465D01*
X21732762Y-36187136D01*
X21533748Y-35946569D01*
X21385250Y-35671928D01*
X21340388Y-35527000D01*
X23316934Y-35527000D01*
X23325178Y-35610707D01*
X23349595Y-35691196D01*
X23389245Y-35765376D01*
X23442605Y-35830395D01*
X23507624Y-35883755D01*
X23581804Y-35923405D01*
X23662293Y-35947822D01*
X23746000Y-35956066D01*
X24153750Y-35954000D01*
X24260500Y-35847250D01*
X24260500Y-35075000D01*
X23425750Y-35075000D01*
X23319000Y-35181750D01*
X23316934Y-35527000D01*
X21340388Y-35527000D01*
X21292925Y-35373675D01*
X21259411Y-35054812D01*
X21259400Y-35051674D01*
X21259400Y-34796317D01*
X21364773Y-34901690D01*
X21520533Y-35005765D01*
X21693604Y-35077453D01*
X21877335Y-35114000D01*
X22064665Y-35114000D01*
X22248396Y-35077453D01*
X22421467Y-35005765D01*
X22577227Y-34901690D01*
X22709690Y-34769227D01*
X22813765Y-34613467D01*
X22885453Y-34440396D01*
X22922000Y-34256665D01*
X22922000Y-34069335D01*
X22885453Y-33885604D01*
X22839392Y-33774400D01*
X23316934Y-33774400D01*
X23325178Y-33858107D01*
X23349595Y-33938596D01*
X23389245Y-34012776D01*
X23442605Y-34077795D01*
X23507624Y-34131155D01*
X23581804Y-34170805D01*
X23597940Y-34175700D01*
X23581804Y-34180595D01*
X23507624Y-34220245D01*
X23442605Y-34273605D01*
X23389245Y-34338624D01*
X23349595Y-34412804D01*
X23325178Y-34493293D01*
X23316934Y-34577000D01*
X23319000Y-34922250D01*
X23425750Y-35029000D01*
X24260500Y-35029000D01*
X24260500Y-34256750D01*
X24154450Y-34150700D01*
X24210500Y-34094650D01*
X24210500Y-33322400D01*
X23425750Y-33322400D01*
X23319000Y-33429150D01*
X23316934Y-33774400D01*
X22839392Y-33774400D01*
X22813765Y-33712533D01*
X22709690Y-33556773D01*
X22577227Y-33424310D01*
X22421467Y-33320235D01*
X22248396Y-33248547D01*
X22064665Y-33212000D01*
X21877335Y-33212000D01*
X21693604Y-33248547D01*
X21520533Y-33320235D01*
X21364773Y-33424310D01*
X21259400Y-33529683D01*
X21259400Y-32824400D01*
X23316934Y-32824400D01*
X23319000Y-33169650D01*
X23425750Y-33276400D01*
X24210500Y-33276400D01*
X24210500Y-32504150D01*
X24103750Y-32397400D01*
X23746000Y-32395334D01*
X23662293Y-32403578D01*
X23581804Y-32427995D01*
X23507624Y-32467645D01*
X23442605Y-32521005D01*
X23389245Y-32586024D01*
X23349595Y-32660204D01*
X23325178Y-32740693D01*
X23316934Y-32824400D01*
X21259400Y-32824400D01*
X21259400Y-31371000D01*
X21567999Y-31371000D01*
X21583966Y-31533120D01*
X21631255Y-31689010D01*
X21708048Y-31832679D01*
X21811394Y-31958606D01*
X21937321Y-32061952D01*
X22080990Y-32138745D01*
X22236880Y-32186034D01*
X22358376Y-32198000D01*
X23039624Y-32198000D01*
X23161120Y-32186034D01*
X23317010Y-32138745D01*
X23460679Y-32061952D01*
X23586606Y-31958606D01*
X23689952Y-31832679D01*
X23766745Y-31689010D01*
X23814034Y-31533120D01*
X23830001Y-31371000D01*
X23814034Y-31208880D01*
X23766745Y-31052990D01*
X23689952Y-30909321D01*
X23586606Y-30783394D01*
X23460679Y-30680048D01*
X23317010Y-30603255D01*
X23161120Y-30555966D01*
X23039624Y-30544000D01*
X22358376Y-30544000D01*
X22236880Y-30555966D01*
X22080990Y-30603255D01*
X21937321Y-30680048D01*
X21811394Y-30783394D01*
X21708048Y-30909321D01*
X21631255Y-31052990D01*
X21583966Y-31208880D01*
X21567999Y-31371000D01*
X21259400Y-31371000D01*
X21259400Y-22731000D01*
X21567999Y-22731000D01*
X21583966Y-22893120D01*
X21631255Y-23049010D01*
X21708048Y-23192679D01*
X21811394Y-23318606D01*
X21937321Y-23421952D01*
X22080990Y-23498745D01*
X22236880Y-23546034D01*
X22358376Y-23558000D01*
X23039624Y-23558000D01*
X23161120Y-23546034D01*
X23317010Y-23498745D01*
X23460679Y-23421952D01*
X23586606Y-23318606D01*
X23689952Y-23192679D01*
X23766745Y-23049010D01*
X23814034Y-22893120D01*
X23830001Y-22731000D01*
X23814034Y-22568880D01*
X23766745Y-22412990D01*
X23689952Y-22269321D01*
X23586606Y-22143394D01*
X23460679Y-22040048D01*
X23317010Y-21963255D01*
X23161120Y-21915966D01*
X23039624Y-21904000D01*
X22358376Y-21904000D01*
X22236880Y-21915966D01*
X22080990Y-21963255D01*
X21937321Y-22040048D01*
X21811394Y-22143394D01*
X21708048Y-22269321D01*
X21631255Y-22412990D01*
X21583966Y-22568880D01*
X21567999Y-22731000D01*
X21259400Y-22731000D01*
X21259400Y-21303000D01*
X23316934Y-21303000D01*
X23325178Y-21386707D01*
X23349595Y-21467196D01*
X23389245Y-21541376D01*
X23442605Y-21606395D01*
X23507624Y-21659755D01*
X23581804Y-21699405D01*
X23662293Y-21723822D01*
X23746000Y-21732066D01*
X24103750Y-21730000D01*
X24210500Y-21623250D01*
X24210500Y-20851000D01*
X24256500Y-20851000D01*
X24256500Y-21623250D01*
X24363250Y-21730000D01*
X24721000Y-21732066D01*
X24804707Y-21723822D01*
X24885196Y-21699405D01*
X24959376Y-21659755D01*
X25024395Y-21606395D01*
X25051990Y-21572770D01*
X25051991Y-24465775D01*
X25049803Y-24487990D01*
X25058530Y-24576597D01*
X25084376Y-24661799D01*
X25112338Y-24714112D01*
X25126348Y-24740323D01*
X25182832Y-24809149D01*
X25200086Y-24823309D01*
X26506684Y-26129909D01*
X26520840Y-26147158D01*
X26589666Y-26203642D01*
X26668189Y-26245613D01*
X26740418Y-26267523D01*
X26740418Y-26354553D01*
X26730393Y-26355540D01*
X26645190Y-26381386D01*
X26566667Y-26423357D01*
X26497841Y-26479841D01*
X26483680Y-26497097D01*
X26440098Y-26540679D01*
X26422840Y-26554842D01*
X26366356Y-26623669D01*
X26348537Y-26657007D01*
X26324385Y-26702192D01*
X26298539Y-26787394D01*
X26289812Y-26876001D01*
X26291999Y-26898207D01*
X26292000Y-27688786D01*
X26289812Y-27711001D01*
X26298539Y-27799608D01*
X26324385Y-27884810D01*
X26342477Y-27918657D01*
X26366357Y-27963334D01*
X26422841Y-28032160D01*
X26440095Y-28046320D01*
X26498675Y-28104900D01*
X26512839Y-28122159D01*
X26581665Y-28178643D01*
X26660188Y-28220614D01*
X26697403Y-28231903D01*
X26740418Y-28244952D01*
X26740418Y-28349000D01*
X26650206Y-28349000D01*
X26628001Y-28346813D01*
X26539394Y-28355540D01*
X26519564Y-28361556D01*
X26454192Y-28381386D01*
X26375669Y-28423357D01*
X26306843Y-28479841D01*
X26292687Y-28497090D01*
X25942432Y-28847347D01*
X25863189Y-28871385D01*
X25784666Y-28913356D01*
X25715840Y-28969840D01*
X25701680Y-28987094D01*
X25200090Y-29488685D01*
X25182831Y-29502849D01*
X25126347Y-29571676D01*
X25110143Y-29601992D01*
X25084376Y-29650199D01*
X25058530Y-29735401D01*
X25049803Y-29824008D01*
X25051990Y-29846213D01*
X25051991Y-32554631D01*
X25024395Y-32521005D01*
X24959376Y-32467645D01*
X24885196Y-32427995D01*
X24804707Y-32403578D01*
X24721000Y-32395334D01*
X24363250Y-32397400D01*
X24256500Y-32504150D01*
X24256500Y-33276400D01*
X25041250Y-33276400D01*
X25148000Y-33169650D01*
X25148868Y-33024663D01*
X25182832Y-33066049D01*
X25200086Y-33080209D01*
X25242418Y-33122541D01*
X25242418Y-33536900D01*
X25253295Y-33647337D01*
X25285508Y-33753530D01*
X25337820Y-33851398D01*
X25408220Y-33937180D01*
X25494002Y-34007580D01*
X25591870Y-34059892D01*
X25698063Y-34092105D01*
X25808500Y-34102982D01*
X26141517Y-34102982D01*
X25996081Y-34248418D01*
X25708500Y-34248418D01*
X25598063Y-34259295D01*
X25491870Y-34291508D01*
X25394002Y-34343820D01*
X25308220Y-34414220D01*
X25241983Y-34494929D01*
X25241822Y-34493293D01*
X25217405Y-34412804D01*
X25177755Y-34338624D01*
X25124395Y-34273605D01*
X25059376Y-34220245D01*
X24985196Y-34180595D01*
X24909718Y-34157698D01*
X24959376Y-34131155D01*
X25024395Y-34077795D01*
X25077755Y-34012776D01*
X25117405Y-33938596D01*
X25141822Y-33858107D01*
X25150066Y-33774400D01*
X25148000Y-33429150D01*
X25041250Y-33322400D01*
X24256500Y-33322400D01*
X24256500Y-34094650D01*
X24362550Y-34200700D01*
X24306500Y-34256750D01*
X24306500Y-35029000D01*
X24326500Y-35029000D01*
X24326500Y-35075000D01*
X24306500Y-35075000D01*
X24306500Y-35847250D01*
X24413250Y-35954000D01*
X24821000Y-35956066D01*
X24904707Y-35947822D01*
X24985196Y-35923405D01*
X25059376Y-35883755D01*
X25124395Y-35830395D01*
X25177755Y-35765376D01*
X25217405Y-35691196D01*
X25241822Y-35610707D01*
X25241983Y-35609071D01*
X25308220Y-35689780D01*
X25394002Y-35760180D01*
X25491870Y-35812492D01*
X25598063Y-35844705D01*
X25708500Y-35855582D01*
X26308500Y-35855582D01*
X26418937Y-35844705D01*
X26525130Y-35812492D01*
X26622998Y-35760180D01*
X26667083Y-35724000D01*
X27049934Y-35724000D01*
X27058178Y-35807707D01*
X27082595Y-35888196D01*
X27122245Y-35962376D01*
X27175605Y-36027395D01*
X27240624Y-36080755D01*
X27314804Y-36120405D01*
X27395293Y-36144822D01*
X27479000Y-36153066D01*
X27749250Y-36151000D01*
X27856000Y-36044250D01*
X27856000Y-35297000D01*
X27902000Y-35297000D01*
X27902000Y-36044250D01*
X28008750Y-36151000D01*
X28279000Y-36153066D01*
X28362707Y-36144822D01*
X28443196Y-36120405D01*
X28517376Y-36080755D01*
X28582395Y-36027395D01*
X28635755Y-35962376D01*
X28675405Y-35888196D01*
X28699822Y-35807707D01*
X28708066Y-35724000D01*
X28706000Y-35403750D01*
X28599250Y-35297000D01*
X27902000Y-35297000D01*
X27856000Y-35297000D01*
X27158750Y-35297000D01*
X27052000Y-35403750D01*
X27049934Y-35724000D01*
X26667083Y-35724000D01*
X26708780Y-35689780D01*
X26779180Y-35603998D01*
X26831492Y-35506130D01*
X26863705Y-35399937D01*
X26874582Y-35289500D01*
X26874582Y-35001919D01*
X27049950Y-34826551D01*
X27052000Y-35144250D01*
X27158750Y-35251000D01*
X27856000Y-35251000D01*
X27856000Y-34503750D01*
X27902000Y-34503750D01*
X27902000Y-35251000D01*
X28599250Y-35251000D01*
X28706000Y-35144250D01*
X28708066Y-34824000D01*
X28699822Y-34740293D01*
X28675405Y-34659804D01*
X28635755Y-34585624D01*
X28582395Y-34520605D01*
X28517376Y-34467245D01*
X28443196Y-34427595D01*
X28362707Y-34403178D01*
X28279000Y-34394934D01*
X28008750Y-34397000D01*
X27902000Y-34503750D01*
X27856000Y-34503750D01*
X27749250Y-34397000D01*
X27481548Y-34394953D01*
X28025501Y-33851000D01*
X28126102Y-33851000D01*
X28155794Y-33906550D01*
X28196657Y-33956343D01*
X28246450Y-33997206D01*
X28303257Y-34027570D01*
X28364897Y-34046268D01*
X28429000Y-34052582D01*
X29229000Y-34052582D01*
X29293103Y-34046268D01*
X29354743Y-34027570D01*
X29411550Y-33997206D01*
X29461343Y-33956343D01*
X29502206Y-33906550D01*
X29532570Y-33849743D01*
X29551268Y-33788103D01*
X29557582Y-33724000D01*
X29557582Y-33361419D01*
X29851963Y-33067038D01*
X29873974Y-33048974D01*
X29946079Y-32961115D01*
X29999657Y-32860876D01*
X30020574Y-32791922D01*
X30032651Y-32752112D01*
X30043791Y-32639000D01*
X30041000Y-32610661D01*
X30041000Y-30548980D01*
X30578689Y-30548980D01*
X30607020Y-30551770D01*
X30635351Y-30548980D01*
X30635356Y-30548980D01*
X30654234Y-30547121D01*
X30771682Y-30595769D01*
X30999076Y-30641000D01*
X31230924Y-30641000D01*
X31458318Y-30595769D01*
X31672519Y-30507044D01*
X31865294Y-30378236D01*
X32029236Y-30214294D01*
X32158044Y-30021519D01*
X32246769Y-29807318D01*
X32292000Y-29579924D01*
X32292000Y-29348076D01*
X32246769Y-29120682D01*
X32158044Y-28906481D01*
X32029236Y-28713706D01*
X31865294Y-28549764D01*
X31672519Y-28420956D01*
X31458318Y-28332231D01*
X31230924Y-28287000D01*
X30999076Y-28287000D01*
X30771682Y-28332231D01*
X30557481Y-28420956D01*
X30364706Y-28549764D01*
X30200764Y-28713706D01*
X30071956Y-28906481D01*
X29983231Y-29120682D01*
X29938000Y-29348076D01*
X29938000Y-29394980D01*
X29909025Y-29394980D01*
X29808364Y-29327721D01*
X29676058Y-29272918D01*
X29557321Y-29249300D01*
X29421057Y-29113036D01*
X29402994Y-29091026D01*
X29315135Y-29018921D01*
X29214896Y-28965343D01*
X29150790Y-28945897D01*
X29106131Y-28932349D01*
X29051065Y-28926926D01*
X29021356Y-28924000D01*
X29021351Y-28924000D01*
X28993020Y-28921210D01*
X28964689Y-28924000D01*
X28847582Y-28924000D01*
X28847582Y-28651000D01*
X28841268Y-28586897D01*
X28830379Y-28551000D01*
X28841268Y-28515103D01*
X28847582Y-28451000D01*
X28847582Y-28253000D01*
X32544111Y-28253000D01*
X32570398Y-28255589D01*
X32592603Y-28253402D01*
X33898393Y-28253402D01*
X33920598Y-28255589D01*
X33942803Y-28253402D01*
X34009205Y-28246862D01*
X34094408Y-28221016D01*
X34172931Y-28179045D01*
X34241757Y-28122561D01*
X34255921Y-28105302D01*
X34325000Y-28036223D01*
X34325000Y-28164003D01*
X34352938Y-28304458D01*
X34407741Y-28436764D01*
X34487302Y-28555836D01*
X34588564Y-28657098D01*
X34707636Y-28736659D01*
X34839942Y-28791462D01*
X34980397Y-28819400D01*
X35123603Y-28819400D01*
X35223406Y-28799548D01*
X35151956Y-28906481D01*
X35063231Y-29120682D01*
X35018000Y-29348076D01*
X35018000Y-29579924D01*
X35032115Y-29650884D01*
X34723899Y-29959100D01*
X34786769Y-29807318D01*
X34832000Y-29579924D01*
X34832000Y-29348076D01*
X34786769Y-29120682D01*
X34698044Y-28906481D01*
X34569236Y-28713706D01*
X34405294Y-28549764D01*
X34212519Y-28420956D01*
X33998318Y-28332231D01*
X33770924Y-28287000D01*
X33539076Y-28287000D01*
X33311682Y-28332231D01*
X33097481Y-28420956D01*
X32904706Y-28549764D01*
X32740764Y-28713706D01*
X32611956Y-28906481D01*
X32523231Y-29120682D01*
X32478000Y-29348076D01*
X32478000Y-29579924D01*
X32523231Y-29807318D01*
X32611956Y-30021519D01*
X32740764Y-30214294D01*
X32904706Y-30378236D01*
X33097481Y-30507044D01*
X33311682Y-30595769D01*
X33539076Y-30641000D01*
X33770924Y-30641000D01*
X33998318Y-30595769D01*
X34150100Y-30532899D01*
X32095286Y-32587713D01*
X32077130Y-32578008D01*
X31970937Y-32545795D01*
X31860500Y-32534918D01*
X31385500Y-32534918D01*
X31275063Y-32545795D01*
X31168870Y-32578008D01*
X31071002Y-32630320D01*
X30985220Y-32700720D01*
X30914820Y-32786502D01*
X30862508Y-32884370D01*
X30830295Y-32990563D01*
X30819418Y-33101000D01*
X30819418Y-33388581D01*
X29712581Y-34495418D01*
X29379000Y-34495418D01*
X29314897Y-34501732D01*
X29253257Y-34520430D01*
X29196450Y-34550794D01*
X29146657Y-34591657D01*
X29105794Y-34641450D01*
X29075430Y-34698257D01*
X29056732Y-34759897D01*
X29050418Y-34824000D01*
X29050418Y-35724000D01*
X29056732Y-35788103D01*
X29075430Y-35849743D01*
X29105794Y-35906550D01*
X29146657Y-35956343D01*
X29196450Y-35997206D01*
X29253257Y-36027570D01*
X29314897Y-36046268D01*
X29379000Y-36052582D01*
X30179000Y-36052582D01*
X30243103Y-36046268D01*
X30304743Y-36027570D01*
X30361550Y-35997206D01*
X30411343Y-35956343D01*
X30452206Y-35906550D01*
X30482570Y-35849743D01*
X30501268Y-35788103D01*
X30507582Y-35724000D01*
X30507582Y-35663500D01*
X30718934Y-35663500D01*
X30727178Y-35747207D01*
X30751595Y-35827696D01*
X30791245Y-35901876D01*
X30844605Y-35966895D01*
X30909624Y-36020255D01*
X30983804Y-36059905D01*
X31064293Y-36084322D01*
X31148000Y-36092566D01*
X31493250Y-36090500D01*
X31600000Y-35983750D01*
X31600000Y-35149000D01*
X31646000Y-35149000D01*
X31646000Y-35983750D01*
X31752750Y-36090500D01*
X32098000Y-36092566D01*
X32181707Y-36084322D01*
X32262196Y-36059905D01*
X32336376Y-36020255D01*
X32401395Y-35966895D01*
X32454755Y-35901876D01*
X32494405Y-35827696D01*
X32518822Y-35747207D01*
X32527066Y-35663500D01*
X32525000Y-35255750D01*
X32418250Y-35149000D01*
X31646000Y-35149000D01*
X31600000Y-35149000D01*
X30827750Y-35149000D01*
X30721000Y-35255750D01*
X30718934Y-35663500D01*
X30507582Y-35663500D01*
X30507582Y-35332419D01*
X30782376Y-35057626D01*
X30827750Y-35103000D01*
X31600000Y-35103000D01*
X31600000Y-35083000D01*
X31646000Y-35083000D01*
X31646000Y-35103000D01*
X32418250Y-35103000D01*
X32525000Y-34996250D01*
X32527066Y-34588500D01*
X32518822Y-34504793D01*
X32494405Y-34424304D01*
X32454755Y-34350124D01*
X32401395Y-34285105D01*
X32336376Y-34231745D01*
X32262196Y-34192095D01*
X32181707Y-34167678D01*
X32180071Y-34167517D01*
X32260780Y-34101280D01*
X32331180Y-34015498D01*
X32383492Y-33917630D01*
X32388914Y-33899756D01*
X32420115Y-33883079D01*
X32507974Y-33810974D01*
X32526039Y-33788962D01*
X33029925Y-33285076D01*
X42003000Y-33285076D01*
X42003000Y-33516924D01*
X42048231Y-33744318D01*
X42136956Y-33958519D01*
X42265764Y-34151294D01*
X42429706Y-34315236D01*
X42622481Y-34444044D01*
X42836682Y-34532769D01*
X43064076Y-34578000D01*
X43295924Y-34578000D01*
X43523318Y-34532769D01*
X43737519Y-34444044D01*
X43930294Y-34315236D01*
X44094236Y-34151294D01*
X44223044Y-33958519D01*
X44311769Y-33744318D01*
X44357000Y-33516924D01*
X44357000Y-33285076D01*
X44311769Y-33057682D01*
X44223044Y-32843481D01*
X44094236Y-32650706D01*
X43930294Y-32486764D01*
X43737519Y-32357956D01*
X43523318Y-32269231D01*
X43295924Y-32224000D01*
X43064076Y-32224000D01*
X42836682Y-32269231D01*
X42622481Y-32357956D01*
X42429706Y-32486764D01*
X42265764Y-32650706D01*
X42136956Y-32843481D01*
X42048231Y-33057682D01*
X42003000Y-33285076D01*
X33029925Y-33285076D01*
X34260001Y-32055000D01*
X38312418Y-32055000D01*
X38312418Y-32555000D01*
X38323295Y-32665437D01*
X38355508Y-32771630D01*
X38407820Y-32869498D01*
X38478220Y-32955280D01*
X38564002Y-33025680D01*
X38661870Y-33077992D01*
X38768063Y-33110205D01*
X38878500Y-33121082D01*
X39353500Y-33121082D01*
X39463937Y-33110205D01*
X39570130Y-33077992D01*
X39667998Y-33025680D01*
X39753780Y-32955280D01*
X39824180Y-32869498D01*
X39876492Y-32771630D01*
X39880930Y-32757000D01*
X40120880Y-32757000D01*
X40133508Y-32798630D01*
X40185820Y-32896498D01*
X40256220Y-32982280D01*
X40342002Y-33052680D01*
X40439870Y-33104992D01*
X40546063Y-33137205D01*
X40656500Y-33148082D01*
X41131500Y-33148082D01*
X41241937Y-33137205D01*
X41348130Y-33104992D01*
X41445998Y-33052680D01*
X41531780Y-32982280D01*
X41602180Y-32896498D01*
X41654492Y-32798630D01*
X41686705Y-32692437D01*
X41697582Y-32582000D01*
X41697582Y-32007000D01*
X41686705Y-31896563D01*
X41654492Y-31790370D01*
X41602180Y-31692502D01*
X41531780Y-31606720D01*
X41445998Y-31536320D01*
X41348130Y-31484008D01*
X41241937Y-31451795D01*
X41131500Y-31440918D01*
X40656500Y-31440918D01*
X40546063Y-31451795D01*
X40439870Y-31484008D01*
X40342002Y-31536320D01*
X40256220Y-31606720D01*
X40185820Y-31692502D01*
X40133508Y-31790370D01*
X40114510Y-31853000D01*
X39880930Y-31853000D01*
X39876492Y-31838370D01*
X39824180Y-31740502D01*
X39753780Y-31654720D01*
X39667998Y-31584320D01*
X39570130Y-31532008D01*
X39463937Y-31499795D01*
X39353500Y-31488918D01*
X38878500Y-31488918D01*
X38768063Y-31499795D01*
X38661870Y-31532008D01*
X38564002Y-31584320D01*
X38478220Y-31654720D01*
X38407820Y-31740502D01*
X38355508Y-31838370D01*
X38323295Y-31944563D01*
X38312418Y-32055000D01*
X34260001Y-32055000D01*
X35758026Y-30556975D01*
X35851682Y-30595769D01*
X36079076Y-30641000D01*
X36310924Y-30641000D01*
X36515338Y-30600340D01*
X36782965Y-30867967D01*
X36801026Y-30889974D01*
X36823033Y-30908035D01*
X36823035Y-30908037D01*
X36824600Y-30909321D01*
X36888885Y-30962079D01*
X36989124Y-31015657D01*
X37029814Y-31028000D01*
X37097888Y-31048651D01*
X37155886Y-31054363D01*
X37182664Y-31057000D01*
X37182669Y-31057000D01*
X37211000Y-31059790D01*
X37239331Y-31057000D01*
X38418080Y-31057000D01*
X38478220Y-31130280D01*
X38564002Y-31200680D01*
X38661870Y-31252992D01*
X38768063Y-31285205D01*
X38878500Y-31296082D01*
X39353500Y-31296082D01*
X39463937Y-31285205D01*
X39570130Y-31252992D01*
X39667998Y-31200680D01*
X39753780Y-31130280D01*
X39824180Y-31044498D01*
X39876492Y-30946630D01*
X39908705Y-30840437D01*
X39919582Y-30730000D01*
X39919582Y-30378752D01*
X39933397Y-30381500D01*
X40076603Y-30381500D01*
X40090093Y-30378817D01*
X40090418Y-30379141D01*
X40090418Y-30832000D01*
X40101295Y-30942437D01*
X40133508Y-31048630D01*
X40185820Y-31146498D01*
X40256220Y-31232280D01*
X40342002Y-31302680D01*
X40439870Y-31354992D01*
X40546063Y-31387205D01*
X40656500Y-31398082D01*
X41131500Y-31398082D01*
X41241937Y-31387205D01*
X41348130Y-31354992D01*
X41445998Y-31302680D01*
X41531780Y-31232280D01*
X41602180Y-31146498D01*
X41654492Y-31048630D01*
X41670305Y-30996500D01*
X41986765Y-30996500D01*
X41998386Y-31034810D01*
X42024073Y-31082868D01*
X42048231Y-31204318D01*
X42136956Y-31418519D01*
X42265764Y-31611294D01*
X42429706Y-31775236D01*
X42622481Y-31904044D01*
X42836682Y-31992769D01*
X43064076Y-32038000D01*
X43295924Y-32038000D01*
X43523318Y-31992769D01*
X43737519Y-31904044D01*
X43930294Y-31775236D01*
X44094236Y-31611294D01*
X44223044Y-31418519D01*
X44311769Y-31204318D01*
X44335927Y-31082868D01*
X44361614Y-31034810D01*
X44387460Y-30949607D01*
X44396187Y-30861000D01*
X44387460Y-30772393D01*
X44361614Y-30687190D01*
X44335927Y-30639132D01*
X44311769Y-30517682D01*
X44223044Y-30303481D01*
X44094236Y-30110706D01*
X43930294Y-29946764D01*
X43737519Y-29817956D01*
X43523318Y-29729231D01*
X43295924Y-29684000D01*
X43064076Y-29684000D01*
X42836682Y-29729231D01*
X42622481Y-29817956D01*
X42429706Y-29946764D01*
X42283970Y-30092500D01*
X41670305Y-30092500D01*
X41654492Y-30040370D01*
X41602180Y-29942502D01*
X41531780Y-29856720D01*
X41445998Y-29786320D01*
X41348130Y-29734008D01*
X41241937Y-29701795D01*
X41131500Y-29690918D01*
X40732000Y-29690918D01*
X40732000Y-29682582D01*
X41131500Y-29682582D01*
X41241937Y-29671705D01*
X41348130Y-29639492D01*
X41445998Y-29587180D01*
X41531780Y-29516780D01*
X41602180Y-29430998D01*
X41654492Y-29333130D01*
X41686705Y-29226937D01*
X41697582Y-29116500D01*
X41697582Y-28541500D01*
X41686705Y-28431063D01*
X41654492Y-28324870D01*
X41602180Y-28227002D01*
X41531780Y-28141220D01*
X41445998Y-28070820D01*
X41348130Y-28018508D01*
X41241937Y-27986295D01*
X41131500Y-27975418D01*
X40656500Y-27975418D01*
X40546063Y-27986295D01*
X40439870Y-28018508D01*
X40342002Y-28070820D01*
X40256220Y-28141220D01*
X40185820Y-28227002D01*
X40133508Y-28324870D01*
X40117695Y-28377000D01*
X39880930Y-28377000D01*
X39876492Y-28362370D01*
X39824180Y-28264502D01*
X39753780Y-28178720D01*
X39667998Y-28108320D01*
X39570130Y-28056008D01*
X39463937Y-28023795D01*
X39353500Y-28012918D01*
X38878500Y-28012918D01*
X38768063Y-28023795D01*
X38661870Y-28056008D01*
X38564002Y-28108320D01*
X38478220Y-28178720D01*
X38407820Y-28264502D01*
X38355508Y-28362370D01*
X38323295Y-28468563D01*
X38312418Y-28579000D01*
X38312418Y-29079000D01*
X38323295Y-29189437D01*
X38355508Y-29295630D01*
X38407820Y-29393498D01*
X38478220Y-29479280D01*
X38564002Y-29549680D01*
X38661870Y-29601992D01*
X38768063Y-29634205D01*
X38878500Y-29645082D01*
X39278000Y-29645082D01*
X39278000Y-29663918D01*
X38878500Y-29663918D01*
X38768063Y-29674795D01*
X38661870Y-29707008D01*
X38564002Y-29759320D01*
X38478220Y-29829720D01*
X38418080Y-29903000D01*
X37450002Y-29903000D01*
X37331340Y-29784338D01*
X37372000Y-29579924D01*
X37372000Y-29348076D01*
X37326769Y-29120682D01*
X37238044Y-28906481D01*
X37109236Y-28713706D01*
X36945294Y-28549764D01*
X36772000Y-28433973D01*
X36772000Y-28306001D01*
X37497002Y-27581000D01*
X38418080Y-27581000D01*
X38478220Y-27654280D01*
X38564002Y-27724680D01*
X38661870Y-27776992D01*
X38768063Y-27809205D01*
X38878500Y-27820082D01*
X39353500Y-27820082D01*
X39463937Y-27809205D01*
X39570130Y-27776992D01*
X39667998Y-27724680D01*
X39753780Y-27654280D01*
X39824180Y-27568498D01*
X39876492Y-27470630D01*
X39908705Y-27364437D01*
X39919582Y-27254000D01*
X39919582Y-26754000D01*
X39908705Y-26643563D01*
X39876492Y-26537370D01*
X39824180Y-26439502D01*
X39753780Y-26353720D01*
X39667998Y-26283320D01*
X39570130Y-26231008D01*
X39463937Y-26198795D01*
X39353500Y-26187918D01*
X38878500Y-26187918D01*
X38768063Y-26198795D01*
X38661870Y-26231008D01*
X38564002Y-26283320D01*
X38478220Y-26353720D01*
X38418080Y-26427000D01*
X37356624Y-26427000D01*
X37387906Y-26395718D01*
X37405159Y-26381559D01*
X37461643Y-26312733D01*
X37503614Y-26234210D01*
X37511250Y-26209037D01*
X37529460Y-26149008D01*
X37538187Y-26060400D01*
X37536000Y-26038195D01*
X37536000Y-25893289D01*
X37572409Y-25863409D01*
X37631926Y-25790886D01*
X37676152Y-25708145D01*
X37703386Y-25618367D01*
X37712582Y-25525000D01*
X37712582Y-23875000D01*
X37703386Y-23781633D01*
X37676152Y-23691855D01*
X37631926Y-23609114D01*
X37596544Y-23566000D01*
X37841456Y-23566000D01*
X37806074Y-23609114D01*
X37761848Y-23691855D01*
X37734614Y-23781633D01*
X37725418Y-23875000D01*
X37725418Y-25525000D01*
X37734614Y-25618367D01*
X37761848Y-25708145D01*
X37806074Y-25790886D01*
X37865591Y-25863409D01*
X37938114Y-25922926D01*
X38020855Y-25967152D01*
X38110633Y-25994386D01*
X38204000Y-26003582D01*
X38504000Y-26003582D01*
X38597367Y-25994386D01*
X38687145Y-25967152D01*
X38769886Y-25922926D01*
X38842409Y-25863409D01*
X38901926Y-25790886D01*
X38946152Y-25708145D01*
X38973386Y-25618367D01*
X38982582Y-25525000D01*
X38982582Y-23875000D01*
X38973386Y-23781633D01*
X38946152Y-23691855D01*
X38901926Y-23609114D01*
X38866544Y-23566000D01*
X39111456Y-23566000D01*
X39076074Y-23609114D01*
X39031848Y-23691855D01*
X39004614Y-23781633D01*
X38995418Y-23875000D01*
X38995418Y-25525000D01*
X39004614Y-25618367D01*
X39031848Y-25708145D01*
X39076074Y-25790886D01*
X39135591Y-25863409D01*
X39208114Y-25922926D01*
X39290855Y-25967152D01*
X39380633Y-25994386D01*
X39474000Y-26003582D01*
X39774000Y-26003582D01*
X39867367Y-25994386D01*
X39957145Y-25967152D01*
X40039886Y-25922926D01*
X40112409Y-25863409D01*
X40171926Y-25790886D01*
X40216152Y-25708145D01*
X40243386Y-25618367D01*
X40252582Y-25525000D01*
X40252582Y-24321038D01*
X40442001Y-24510458D01*
X40442000Y-26267862D01*
X40439870Y-26268508D01*
X40342002Y-26320820D01*
X40256220Y-26391220D01*
X40185820Y-26477002D01*
X40133508Y-26574870D01*
X40101295Y-26681063D01*
X40090418Y-26791500D01*
X40090418Y-27366500D01*
X40101295Y-27476937D01*
X40133508Y-27583130D01*
X40185820Y-27680998D01*
X40256220Y-27766780D01*
X40342002Y-27837180D01*
X40439870Y-27889492D01*
X40546063Y-27921705D01*
X40656500Y-27932582D01*
X41131500Y-27932582D01*
X41241937Y-27921705D01*
X41348130Y-27889492D01*
X41445998Y-27837180D01*
X41502547Y-27790771D01*
X42003000Y-28291224D01*
X42003000Y-28436924D01*
X42048231Y-28664318D01*
X42136956Y-28878519D01*
X42265764Y-29071294D01*
X42429706Y-29235236D01*
X42622481Y-29364044D01*
X42836682Y-29452769D01*
X43064076Y-29498000D01*
X43295924Y-29498000D01*
X43523318Y-29452769D01*
X43737519Y-29364044D01*
X43930294Y-29235236D01*
X44094236Y-29071294D01*
X44223044Y-28878519D01*
X44311769Y-28664318D01*
X44335927Y-28542868D01*
X44361614Y-28494810D01*
X44387460Y-28409607D01*
X44396187Y-28321000D01*
X44387460Y-28232393D01*
X44361614Y-28147190D01*
X44335927Y-28099132D01*
X44311769Y-27977682D01*
X44223044Y-27763481D01*
X44094236Y-27570706D01*
X43930294Y-27406764D01*
X43737519Y-27277956D01*
X43523318Y-27189231D01*
X43295924Y-27144000D01*
X43064076Y-27144000D01*
X42836682Y-27189231D01*
X42622481Y-27277956D01*
X42429706Y-27406764D01*
X42413347Y-27423123D01*
X41765323Y-26775100D01*
X41751159Y-26757841D01*
X41689264Y-26707045D01*
X41686705Y-26681063D01*
X41654492Y-26574870D01*
X41602180Y-26477002D01*
X41531780Y-26391220D01*
X41445998Y-26320820D01*
X41348130Y-26268508D01*
X41346000Y-26267862D01*
X41346000Y-24763001D01*
X42043660Y-25460661D01*
X42003000Y-25665076D01*
X42003000Y-25896924D01*
X42048231Y-26124318D01*
X42136956Y-26338519D01*
X42265764Y-26531294D01*
X42429706Y-26695236D01*
X42622481Y-26824044D01*
X42836682Y-26912769D01*
X43064076Y-26958000D01*
X43295924Y-26958000D01*
X43523318Y-26912769D01*
X43737519Y-26824044D01*
X43930294Y-26695236D01*
X44094236Y-26531294D01*
X44223044Y-26338519D01*
X44311769Y-26124318D01*
X44357000Y-25896924D01*
X44357000Y-25665076D01*
X44311769Y-25437682D01*
X44223044Y-25223481D01*
X44094236Y-25030706D01*
X43930294Y-24866764D01*
X43737519Y-24737956D01*
X43523318Y-24649231D01*
X43295924Y-24604000D01*
X43064076Y-24604000D01*
X42859661Y-24644660D01*
X40366028Y-22151027D01*
X40347964Y-22129016D01*
X40260105Y-22056911D01*
X40159866Y-22003333D01*
X40083165Y-21980066D01*
X40051101Y-21970339D01*
X39996035Y-21964916D01*
X39966326Y-21961990D01*
X39966321Y-21961990D01*
X39937990Y-21959200D01*
X39909659Y-21961990D01*
X35085144Y-21961990D01*
X35108698Y-21938436D01*
X35188259Y-21819364D01*
X35243062Y-21687058D01*
X35271000Y-21546603D01*
X35271000Y-21403397D01*
X35243062Y-21262942D01*
X35188259Y-21130636D01*
X35108698Y-21011564D01*
X35020399Y-20923265D01*
X35032409Y-20913409D01*
X35091926Y-20840886D01*
X35136152Y-20758145D01*
X35163386Y-20668367D01*
X35172582Y-20575000D01*
X35172582Y-18925000D01*
X35185418Y-18925000D01*
X35185418Y-20575000D01*
X35194614Y-20668367D01*
X35221848Y-20758145D01*
X35266074Y-20840886D01*
X35325591Y-20913409D01*
X35398114Y-20972926D01*
X35480855Y-21017152D01*
X35570633Y-21044386D01*
X35664000Y-21053582D01*
X35964000Y-21053582D01*
X36057367Y-21044386D01*
X36147145Y-21017152D01*
X36229886Y-20972926D01*
X36302409Y-20913409D01*
X36361926Y-20840886D01*
X36406152Y-20758145D01*
X36433386Y-20668367D01*
X36442582Y-20575000D01*
X36442582Y-18925000D01*
X36455418Y-18925000D01*
X36455418Y-20575000D01*
X36464614Y-20668367D01*
X36491848Y-20758145D01*
X36536074Y-20840886D01*
X36595591Y-20913409D01*
X36668114Y-20972926D01*
X36750855Y-21017152D01*
X36840633Y-21044386D01*
X36934000Y-21053582D01*
X37234000Y-21053582D01*
X37327367Y-21044386D01*
X37417145Y-21017152D01*
X37499886Y-20972926D01*
X37572409Y-20913409D01*
X37631926Y-20840886D01*
X37676152Y-20758145D01*
X37703386Y-20668367D01*
X37712582Y-20575000D01*
X37712582Y-18925000D01*
X37725418Y-18925000D01*
X37725418Y-20575000D01*
X37734614Y-20668367D01*
X37761848Y-20758145D01*
X37806074Y-20840886D01*
X37865591Y-20913409D01*
X37938114Y-20972926D01*
X38020855Y-21017152D01*
X38110633Y-21044386D01*
X38204000Y-21053582D01*
X38504000Y-21053582D01*
X38597367Y-21044386D01*
X38687145Y-21017152D01*
X38769886Y-20972926D01*
X38842409Y-20913409D01*
X38901926Y-20840886D01*
X38946152Y-20758145D01*
X38973386Y-20668367D01*
X38982582Y-20575000D01*
X38982582Y-18925000D01*
X38995418Y-18925000D01*
X38995418Y-20575000D01*
X39004614Y-20668367D01*
X39031848Y-20758145D01*
X39076074Y-20840886D01*
X39135591Y-20913409D01*
X39208114Y-20972926D01*
X39290855Y-21017152D01*
X39380633Y-21044386D01*
X39474000Y-21053582D01*
X39774000Y-21053582D01*
X39867367Y-21044386D01*
X39957145Y-21017152D01*
X40039886Y-20972926D01*
X40112409Y-20913409D01*
X40128535Y-20893759D01*
X42072901Y-22838124D01*
X42048231Y-22897682D01*
X42003000Y-23125076D01*
X42003000Y-23356924D01*
X42048231Y-23584318D01*
X42136956Y-23798519D01*
X42265764Y-23991294D01*
X42429706Y-24155236D01*
X42622481Y-24284044D01*
X42836682Y-24372769D01*
X43064076Y-24418000D01*
X43295924Y-24418000D01*
X43523318Y-24372769D01*
X43737519Y-24284044D01*
X43930294Y-24155236D01*
X44094236Y-23991294D01*
X44223044Y-23798519D01*
X44311769Y-23584318D01*
X44357000Y-23356924D01*
X44357000Y-23125076D01*
X44311769Y-22897682D01*
X44223044Y-22683481D01*
X44094236Y-22490706D01*
X43930294Y-22326764D01*
X43737519Y-22197956D01*
X43523318Y-22109231D01*
X43295924Y-22064000D01*
X43064076Y-22064000D01*
X42836682Y-22109231D01*
X42685201Y-22171977D01*
X42492823Y-21979599D01*
X43050250Y-21978000D01*
X43157000Y-21871250D01*
X43157000Y-20724000D01*
X43203000Y-20724000D01*
X43203000Y-21871250D01*
X43309750Y-21978000D01*
X44030000Y-21980066D01*
X44113707Y-21971822D01*
X44194196Y-21947405D01*
X44268376Y-21907755D01*
X44333395Y-21854395D01*
X44386755Y-21789376D01*
X44426405Y-21715196D01*
X44450822Y-21634707D01*
X44459066Y-21551000D01*
X44457000Y-20830750D01*
X44350250Y-20724000D01*
X43203000Y-20724000D01*
X43157000Y-20724000D01*
X42009750Y-20724000D01*
X41903000Y-20830750D01*
X41901401Y-21388177D01*
X40364224Y-19851000D01*
X41900934Y-19851000D01*
X41903000Y-20571250D01*
X42009750Y-20678000D01*
X43157000Y-20678000D01*
X43157000Y-19530750D01*
X43203000Y-19530750D01*
X43203000Y-20678000D01*
X44350250Y-20678000D01*
X44457000Y-20571250D01*
X44459066Y-19851000D01*
X44450822Y-19767293D01*
X44426405Y-19686804D01*
X44386755Y-19612624D01*
X44333395Y-19547605D01*
X44268376Y-19494245D01*
X44194196Y-19454595D01*
X44113707Y-19430178D01*
X44030000Y-19421934D01*
X43309750Y-19424000D01*
X43203000Y-19530750D01*
X43157000Y-19530750D01*
X43050250Y-19424000D01*
X42330000Y-19421934D01*
X42246293Y-19430178D01*
X42165804Y-19454595D01*
X42091624Y-19494245D01*
X42026605Y-19547605D01*
X41973245Y-19612624D01*
X41933595Y-19686804D01*
X41909178Y-19767293D01*
X41900934Y-19851000D01*
X40364224Y-19851000D01*
X40252582Y-19739359D01*
X40252582Y-18925000D01*
X40243386Y-18831633D01*
X40216152Y-18741855D01*
X40171926Y-18659114D01*
X40112409Y-18586591D01*
X40039886Y-18527074D01*
X39957145Y-18482848D01*
X39867367Y-18455614D01*
X39774000Y-18446418D01*
X39474000Y-18446418D01*
X39380633Y-18455614D01*
X39290855Y-18482848D01*
X39208114Y-18527074D01*
X39135591Y-18586591D01*
X39076074Y-18659114D01*
X39031848Y-18741855D01*
X39004614Y-18831633D01*
X38995418Y-18925000D01*
X38982582Y-18925000D01*
X38973386Y-18831633D01*
X38946152Y-18741855D01*
X38901926Y-18659114D01*
X38842409Y-18586591D01*
X38769886Y-18527074D01*
X38687145Y-18482848D01*
X38597367Y-18455614D01*
X38504000Y-18446418D01*
X38204000Y-18446418D01*
X38110633Y-18455614D01*
X38020855Y-18482848D01*
X37938114Y-18527074D01*
X37865591Y-18586591D01*
X37806074Y-18659114D01*
X37761848Y-18741855D01*
X37734614Y-18831633D01*
X37725418Y-18925000D01*
X37712582Y-18925000D01*
X37703386Y-18831633D01*
X37676152Y-18741855D01*
X37631926Y-18659114D01*
X37572409Y-18586591D01*
X37499886Y-18527074D01*
X37417145Y-18482848D01*
X37327367Y-18455614D01*
X37234000Y-18446418D01*
X36934000Y-18446418D01*
X36840633Y-18455614D01*
X36750855Y-18482848D01*
X36668114Y-18527074D01*
X36595591Y-18586591D01*
X36536074Y-18659114D01*
X36491848Y-18741855D01*
X36464614Y-18831633D01*
X36455418Y-18925000D01*
X36442582Y-18925000D01*
X36433386Y-18831633D01*
X36406152Y-18741855D01*
X36361926Y-18659114D01*
X36302409Y-18586591D01*
X36229886Y-18527074D01*
X36147145Y-18482848D01*
X36057367Y-18455614D01*
X35964000Y-18446418D01*
X35664000Y-18446418D01*
X35570633Y-18455614D01*
X35480855Y-18482848D01*
X35398114Y-18527074D01*
X35325591Y-18586591D01*
X35266074Y-18659114D01*
X35221848Y-18741855D01*
X35194614Y-18831633D01*
X35185418Y-18925000D01*
X35172582Y-18925000D01*
X35163386Y-18831633D01*
X35136152Y-18741855D01*
X35091926Y-18659114D01*
X35032409Y-18586591D01*
X34959886Y-18527074D01*
X34877145Y-18482848D01*
X34787367Y-18455614D01*
X34694000Y-18446418D01*
X34394000Y-18446418D01*
X34300633Y-18455614D01*
X34210855Y-18482848D01*
X34128114Y-18527074D01*
X34055591Y-18586591D01*
X33996074Y-18659114D01*
X33951848Y-18741855D01*
X33924614Y-18831633D01*
X33915418Y-18925000D01*
X33915418Y-20575000D01*
X33924614Y-20668367D01*
X33951848Y-20758145D01*
X33996074Y-20840886D01*
X34055591Y-20913409D01*
X34067601Y-20923265D01*
X33979302Y-21011564D01*
X33899741Y-21130636D01*
X33844938Y-21262942D01*
X33817000Y-21403397D01*
X33817000Y-21546603D01*
X33844938Y-21687058D01*
X33899741Y-21819364D01*
X33979302Y-21938436D01*
X34002856Y-21961990D01*
X31411957Y-21961990D01*
X31378259Y-21880636D01*
X31311000Y-21779975D01*
X31311000Y-20786492D01*
X31326152Y-20758145D01*
X31353386Y-20668367D01*
X31362582Y-20575000D01*
X31362582Y-18925000D01*
X31375418Y-18925000D01*
X31375418Y-20575000D01*
X31384614Y-20668367D01*
X31411848Y-20758145D01*
X31456074Y-20840886D01*
X31515591Y-20913409D01*
X31588114Y-20972926D01*
X31670855Y-21017152D01*
X31760633Y-21044386D01*
X31854000Y-21053582D01*
X32154000Y-21053582D01*
X32247367Y-21044386D01*
X32337145Y-21017152D01*
X32419886Y-20972926D01*
X32492409Y-20913409D01*
X32551926Y-20840886D01*
X32596152Y-20758145D01*
X32623386Y-20668367D01*
X32632582Y-20575000D01*
X32632582Y-18925000D01*
X32645418Y-18925000D01*
X32645418Y-20575000D01*
X32654614Y-20668367D01*
X32681848Y-20758145D01*
X32726074Y-20840886D01*
X32785591Y-20913409D01*
X32858114Y-20972926D01*
X32940855Y-21017152D01*
X33030633Y-21044386D01*
X33124000Y-21053582D01*
X33424000Y-21053582D01*
X33517367Y-21044386D01*
X33607145Y-21017152D01*
X33689886Y-20972926D01*
X33762409Y-20913409D01*
X33821926Y-20840886D01*
X33866152Y-20758145D01*
X33893386Y-20668367D01*
X33902582Y-20575000D01*
X33902582Y-18925000D01*
X33893386Y-18831633D01*
X33866152Y-18741855D01*
X33821926Y-18659114D01*
X33762409Y-18586591D01*
X33689886Y-18527074D01*
X33607145Y-18482848D01*
X33517367Y-18455614D01*
X33424000Y-18446418D01*
X33124000Y-18446418D01*
X33030633Y-18455614D01*
X32940855Y-18482848D01*
X32858114Y-18527074D01*
X32785591Y-18586591D01*
X32726074Y-18659114D01*
X32681848Y-18741855D01*
X32654614Y-18831633D01*
X32645418Y-18925000D01*
X32632582Y-18925000D01*
X32623386Y-18831633D01*
X32596152Y-18741855D01*
X32551926Y-18659114D01*
X32492409Y-18586591D01*
X32419886Y-18527074D01*
X32337145Y-18482848D01*
X32247367Y-18455614D01*
X32154000Y-18446418D01*
X31854000Y-18446418D01*
X31760633Y-18455614D01*
X31670855Y-18482848D01*
X31588114Y-18527074D01*
X31515591Y-18586591D01*
X31456074Y-18659114D01*
X31411848Y-18741855D01*
X31384614Y-18831633D01*
X31375418Y-18925000D01*
X31362582Y-18925000D01*
X31353386Y-18831633D01*
X31326152Y-18741855D01*
X31281926Y-18659114D01*
X31222409Y-18586591D01*
X31149886Y-18527074D01*
X31067145Y-18482848D01*
X30977367Y-18455614D01*
X30884000Y-18446418D01*
X30584000Y-18446418D01*
X30490633Y-18455614D01*
X30400855Y-18482848D01*
X30318114Y-18527074D01*
X30245591Y-18586591D01*
X30186074Y-18659114D01*
X30141848Y-18741855D01*
X30114614Y-18831633D01*
X30105418Y-18925000D01*
X30105418Y-20575000D01*
X30114614Y-20668367D01*
X30141848Y-20758145D01*
X30157000Y-20786493D01*
X30157001Y-21779974D01*
X30089741Y-21880636D01*
X30034938Y-22012942D01*
X30007000Y-22153397D01*
X30007000Y-22296603D01*
X30034938Y-22437058D01*
X30089741Y-22569364D01*
X30169302Y-22688436D01*
X30270564Y-22789698D01*
X30389636Y-22869259D01*
X30521942Y-22924062D01*
X30636237Y-22946797D01*
X30638016Y-22948964D01*
X30725875Y-23021069D01*
X30797500Y-23059353D01*
X30797500Y-23364250D01*
X30757000Y-23404750D01*
X30757000Y-24677000D01*
X30777000Y-24677000D01*
X30777000Y-24723000D01*
X30757000Y-24723000D01*
X30757000Y-25995250D01*
X30863750Y-26102000D01*
X31034000Y-26104066D01*
X31117707Y-26095822D01*
X31198196Y-26071405D01*
X31272376Y-26031755D01*
X31337395Y-25978395D01*
X31390755Y-25913376D01*
X31430405Y-25839196D01*
X31449048Y-25777741D01*
X31456074Y-25790886D01*
X31515591Y-25863409D01*
X31588114Y-25922926D01*
X31670855Y-25967152D01*
X31760633Y-25994386D01*
X31854000Y-26003582D01*
X32154000Y-26003582D01*
X32247367Y-25994386D01*
X32337145Y-25967152D01*
X32419886Y-25922926D01*
X32492409Y-25863409D01*
X32551926Y-25790886D01*
X32596152Y-25708145D01*
X32623386Y-25618367D01*
X32632582Y-25525000D01*
X32632582Y-24187616D01*
X32645418Y-24206826D01*
X32645418Y-25525000D01*
X32654614Y-25618367D01*
X32681848Y-25708145D01*
X32726074Y-25790886D01*
X32785591Y-25863409D01*
X32858114Y-25922926D01*
X32940855Y-25967152D01*
X33030633Y-25994386D01*
X33124000Y-26003582D01*
X33424000Y-26003582D01*
X33517367Y-25994386D01*
X33607145Y-25967152D01*
X33689886Y-25922926D01*
X33762409Y-25863409D01*
X33821926Y-25790886D01*
X33866152Y-25708145D01*
X33893386Y-25618367D01*
X33902582Y-25525000D01*
X33902582Y-24206826D01*
X33915418Y-24187616D01*
X33915418Y-25525000D01*
X33924614Y-25618367D01*
X33941582Y-25674304D01*
X33899741Y-25736924D01*
X33844938Y-25869230D01*
X33817000Y-26009685D01*
X33817000Y-26152891D01*
X33844938Y-26293346D01*
X33899741Y-26425652D01*
X33979302Y-26544724D01*
X34080564Y-26645986D01*
X34199636Y-26725547D01*
X34311071Y-26771705D01*
X34149319Y-26933458D01*
X34125466Y-26813542D01*
X34070663Y-26681236D01*
X33991102Y-26562164D01*
X33889840Y-26460902D01*
X33770768Y-26381341D01*
X33638462Y-26326538D01*
X33498007Y-26298600D01*
X33354801Y-26298600D01*
X33214346Y-26326538D01*
X33082040Y-26381341D01*
X32962968Y-26460902D01*
X32861706Y-26562164D01*
X32854065Y-26573600D01*
X32838514Y-26573600D01*
X32838504Y-26573601D01*
X29308075Y-26573599D01*
X29308587Y-26568399D01*
X29299860Y-26479793D01*
X29296001Y-26467072D01*
X29296001Y-26413204D01*
X29298188Y-26390999D01*
X29295301Y-26361687D01*
X29392397Y-26381000D01*
X29535603Y-26381000D01*
X29676058Y-26353062D01*
X29808364Y-26298259D01*
X29927436Y-26218698D01*
X30028698Y-26117436D01*
X30108259Y-25998364D01*
X30121251Y-25966998D01*
X30130605Y-25978395D01*
X30195624Y-26031755D01*
X30269804Y-26071405D01*
X30350293Y-26095822D01*
X30434000Y-26104066D01*
X30604250Y-26102000D01*
X30711000Y-25995250D01*
X30711000Y-24723000D01*
X30113750Y-24723000D01*
X30007000Y-24829750D01*
X30006955Y-24848182D01*
X29999657Y-24824124D01*
X29946079Y-24723885D01*
X29899757Y-24667442D01*
X29892037Y-24658035D01*
X29892035Y-24658033D01*
X29873974Y-24636026D01*
X29851968Y-24617966D01*
X29447039Y-24213038D01*
X29428974Y-24191026D01*
X29341115Y-24118921D01*
X29240876Y-24065343D01*
X29176770Y-24045897D01*
X29132111Y-24032349D01*
X29077045Y-24026926D01*
X29047336Y-24024000D01*
X29047331Y-24024000D01*
X29019000Y-24021210D01*
X28990669Y-24024000D01*
X28947132Y-24024000D01*
X28946000Y-23930750D01*
X28839250Y-23824000D01*
X27817000Y-23824000D01*
X27817000Y-23844000D01*
X27771000Y-23844000D01*
X27771000Y-23824000D01*
X27751000Y-23824000D01*
X27751000Y-23778000D01*
X27771000Y-23778000D01*
X27771000Y-23758000D01*
X27817000Y-23758000D01*
X27817000Y-23778000D01*
X28839250Y-23778000D01*
X28892250Y-23725000D01*
X30004934Y-23725000D01*
X30007000Y-24570250D01*
X30113750Y-24677000D01*
X30711000Y-24677000D01*
X30711000Y-23404750D01*
X30604250Y-23298000D01*
X30434000Y-23295934D01*
X30350293Y-23304178D01*
X30269804Y-23328595D01*
X30195624Y-23368245D01*
X30130605Y-23421605D01*
X30077245Y-23486624D01*
X30037595Y-23560804D01*
X30013178Y-23641293D01*
X30004934Y-23725000D01*
X28892250Y-23725000D01*
X28946000Y-23671250D01*
X28948066Y-23501000D01*
X28939822Y-23417293D01*
X28915405Y-23336804D01*
X28875755Y-23262624D01*
X28822395Y-23197605D01*
X28757376Y-23144245D01*
X28683196Y-23104595D01*
X28602707Y-23080178D01*
X28519000Y-23071934D01*
X28183870Y-23073097D01*
X28196745Y-23049010D01*
X28244034Y-22893120D01*
X28260001Y-22731000D01*
X28244034Y-22568880D01*
X28196745Y-22412990D01*
X28119952Y-22269321D01*
X28016606Y-22143394D01*
X27890679Y-22040048D01*
X27747010Y-21963255D01*
X27591120Y-21915966D01*
X27469624Y-21904000D01*
X26288376Y-21904000D01*
X26166880Y-21915966D01*
X26010990Y-21963255D01*
X25955990Y-21992653D01*
X25955990Y-21631582D01*
X26308500Y-21631582D01*
X26418937Y-21620705D01*
X26525130Y-21588492D01*
X26622998Y-21536180D01*
X26708780Y-21465780D01*
X26779180Y-21379998D01*
X26831492Y-21282130D01*
X26863705Y-21175937D01*
X26874582Y-21065500D01*
X26874582Y-20590500D01*
X26863705Y-20480063D01*
X26831492Y-20373870D01*
X26779180Y-20276002D01*
X26708780Y-20190220D01*
X26622998Y-20119820D01*
X26525130Y-20067508D01*
X26418937Y-20035295D01*
X26308500Y-20024418D01*
X25808500Y-20024418D01*
X25698063Y-20035295D01*
X25591870Y-20067508D01*
X25494002Y-20119820D01*
X25408220Y-20190220D01*
X25337820Y-20276002D01*
X25285508Y-20373870D01*
X25253295Y-20480063D01*
X25242418Y-20590500D01*
X25242418Y-21004859D01*
X25200090Y-21047187D01*
X25182831Y-21061351D01*
X25148868Y-21102736D01*
X25148000Y-20957750D01*
X25041250Y-20851000D01*
X24256500Y-20851000D01*
X24210500Y-20851000D01*
X23425750Y-20851000D01*
X23319000Y-20957750D01*
X23316934Y-21303000D01*
X21259400Y-21303000D01*
X21259400Y-20572317D01*
X21364773Y-20677690D01*
X21520533Y-20781765D01*
X21693604Y-20853453D01*
X21877335Y-20890000D01*
X22064665Y-20890000D01*
X22248396Y-20853453D01*
X22421467Y-20781765D01*
X22577227Y-20677690D01*
X22709690Y-20545227D01*
X22813765Y-20389467D01*
X22885453Y-20216396D01*
X22922000Y-20032665D01*
X22922000Y-19845335D01*
X22885453Y-19661604D01*
X22828871Y-19525000D01*
X23316934Y-19525000D01*
X23325178Y-19608707D01*
X23349595Y-19689196D01*
X23389245Y-19763376D01*
X23442605Y-19828395D01*
X23507624Y-19881755D01*
X23581804Y-19921405D01*
X23639805Y-19939000D01*
X23581804Y-19956595D01*
X23507624Y-19996245D01*
X23442605Y-20049605D01*
X23389245Y-20114624D01*
X23349595Y-20188804D01*
X23325178Y-20269293D01*
X23316934Y-20353000D01*
X23319000Y-20698250D01*
X23425750Y-20805000D01*
X24210500Y-20805000D01*
X24210500Y-20032750D01*
X24256500Y-20032750D01*
X24256500Y-20805000D01*
X25041250Y-20805000D01*
X25148000Y-20698250D01*
X25150066Y-20353000D01*
X25141822Y-20269293D01*
X25117405Y-20188804D01*
X25077755Y-20114624D01*
X25024395Y-20049605D01*
X24959376Y-19996245D01*
X24885196Y-19956595D01*
X24863169Y-19949913D01*
X24904707Y-19945822D01*
X24985196Y-19921405D01*
X25059376Y-19881755D01*
X25124395Y-19828395D01*
X25177755Y-19763376D01*
X25217405Y-19689196D01*
X25241822Y-19608707D01*
X25241983Y-19607071D01*
X25308220Y-19687780D01*
X25394002Y-19758180D01*
X25491870Y-19810492D01*
X25598063Y-19842705D01*
X25708500Y-19853582D01*
X26308500Y-19853582D01*
X26418937Y-19842705D01*
X26525130Y-19810492D01*
X26622998Y-19758180D01*
X26708780Y-19687780D01*
X26758661Y-19627000D01*
X27240975Y-19627000D01*
X27341636Y-19694259D01*
X27473942Y-19749062D01*
X27614397Y-19777000D01*
X27757603Y-19777000D01*
X27898058Y-19749062D01*
X28030364Y-19694259D01*
X28149436Y-19614698D01*
X28250698Y-19513436D01*
X28330259Y-19394364D01*
X28385062Y-19262058D01*
X28413000Y-19121603D01*
X28413000Y-18978397D01*
X28385062Y-18837942D01*
X28330259Y-18705636D01*
X28250698Y-18586564D01*
X28149436Y-18485302D01*
X28030364Y-18405741D01*
X27898058Y-18350938D01*
X27757603Y-18323000D01*
X27614397Y-18323000D01*
X27473942Y-18350938D01*
X27341636Y-18405741D01*
X27240975Y-18473000D01*
X26758661Y-18473000D01*
X26708780Y-18412220D01*
X26622998Y-18341820D01*
X26525130Y-18289508D01*
X26418937Y-18257295D01*
X26308500Y-18246418D01*
X25708500Y-18246418D01*
X25598063Y-18257295D01*
X25491870Y-18289508D01*
X25394002Y-18341820D01*
X25308220Y-18412220D01*
X25241983Y-18492929D01*
X25241822Y-18491293D01*
X25217405Y-18410804D01*
X25177755Y-18336624D01*
X25124395Y-18271605D01*
X25059376Y-18218245D01*
X24985196Y-18178595D01*
X24904707Y-18154178D01*
X24821000Y-18145934D01*
X24413250Y-18148000D01*
X24306500Y-18254750D01*
X24306500Y-19027000D01*
X24326500Y-19027000D01*
X24326500Y-19073000D01*
X24306500Y-19073000D01*
X24306500Y-19845250D01*
X24387112Y-19925862D01*
X24363250Y-19926000D01*
X24256500Y-20032750D01*
X24210500Y-20032750D01*
X24129871Y-19952121D01*
X24153750Y-19952000D01*
X24260500Y-19845250D01*
X24260500Y-19073000D01*
X23425750Y-19073000D01*
X23319000Y-19179750D01*
X23316934Y-19525000D01*
X22828871Y-19525000D01*
X22813765Y-19488533D01*
X22709690Y-19332773D01*
X22577227Y-19200310D01*
X22421467Y-19096235D01*
X22248396Y-19024547D01*
X22064665Y-18988000D01*
X21877335Y-18988000D01*
X21693604Y-19024547D01*
X21520533Y-19096235D01*
X21364773Y-19200310D01*
X21259400Y-19305683D01*
X21259400Y-19058673D01*
X21290717Y-18739277D01*
X21340314Y-18575000D01*
X23316934Y-18575000D01*
X23319000Y-18920250D01*
X23425750Y-19027000D01*
X24260500Y-19027000D01*
X24260500Y-18254750D01*
X24153750Y-18148000D01*
X23746000Y-18145934D01*
X23662293Y-18154178D01*
X23581804Y-18178595D01*
X23507624Y-18218245D01*
X23442605Y-18271605D01*
X23389245Y-18336624D01*
X23349595Y-18410804D01*
X23325178Y-18491293D01*
X23316934Y-18575000D01*
X21340314Y-18575000D01*
X21380957Y-18440385D01*
X21527535Y-18164712D01*
X21724864Y-17922762D01*
X21965430Y-17723749D01*
X22240071Y-17575250D01*
X22538325Y-17482925D01*
X22857188Y-17449411D01*
X22860325Y-17449400D01*
X44441327Y-17449400D01*
X44760723Y-17480717D01*
G37*
%TD.AperFunction*%
D22*
X28887000Y-32399999D02*
X28791581Y-32495418D01*
X28429000Y-32495418D01*
X28364897Y-32501732D01*
X28303257Y-32520430D01*
X28246450Y-32550794D01*
X28196657Y-32591657D01*
X28155794Y-32641450D01*
X28126102Y-32697000D01*
X27814831Y-32697000D01*
X27786500Y-32694210D01*
X27758169Y-32697000D01*
X27758164Y-32697000D01*
X27731386Y-32699637D01*
X27673388Y-32705349D01*
X27609883Y-32724614D01*
X27564624Y-32738343D01*
X27464385Y-32791921D01*
X27376526Y-32864026D01*
X27358463Y-32886036D01*
X26874582Y-33369917D01*
X26874582Y-33061900D01*
X26863705Y-32951463D01*
X26831492Y-32845270D01*
X26779180Y-32747402D01*
X26708780Y-32661620D01*
X26622998Y-32591220D01*
X26525130Y-32538908D01*
X26418937Y-32506695D01*
X26308500Y-32495818D01*
X25955990Y-32495818D01*
X25955990Y-32109347D01*
X26010990Y-32138745D01*
X26166880Y-32186034D01*
X26288376Y-32198000D01*
X27469624Y-32198000D01*
X27591120Y-32186034D01*
X27747010Y-32138745D01*
X27890679Y-32061952D01*
X28016606Y-31958606D01*
X28119952Y-31832679D01*
X28196745Y-31689010D01*
X28244034Y-31533120D01*
X28260001Y-31371000D01*
X28244034Y-31208880D01*
X28196745Y-31052990D01*
X28183870Y-31028903D01*
X28519000Y-31030066D01*
X28602707Y-31021822D01*
X28683196Y-30997405D01*
X28757376Y-30957755D01*
X28822395Y-30904395D01*
X28875755Y-30839376D01*
X28887001Y-30818337D01*
X28887000Y-32399999D01*
%TA.AperFunction,Conductor*%
D23*
G36*
X28887000Y-32399999D02*
G01*
X28791581Y-32495418D01*
X28429000Y-32495418D01*
X28364897Y-32501732D01*
X28303257Y-32520430D01*
X28246450Y-32550794D01*
X28196657Y-32591657D01*
X28155794Y-32641450D01*
X28126102Y-32697000D01*
X27814831Y-32697000D01*
X27786500Y-32694210D01*
X27758169Y-32697000D01*
X27758164Y-32697000D01*
X27731386Y-32699637D01*
X27673388Y-32705349D01*
X27609883Y-32724614D01*
X27564624Y-32738343D01*
X27464385Y-32791921D01*
X27376526Y-32864026D01*
X27358463Y-32886036D01*
X26874582Y-33369917D01*
X26874582Y-33061900D01*
X26863705Y-32951463D01*
X26831492Y-32845270D01*
X26779180Y-32747402D01*
X26708780Y-32661620D01*
X26622998Y-32591220D01*
X26525130Y-32538908D01*
X26418937Y-32506695D01*
X26308500Y-32495818D01*
X25955990Y-32495818D01*
X25955990Y-32109347D01*
X26010990Y-32138745D01*
X26166880Y-32186034D01*
X26288376Y-32198000D01*
X27469624Y-32198000D01*
X27591120Y-32186034D01*
X27747010Y-32138745D01*
X27890679Y-32061952D01*
X28016606Y-31958606D01*
X28119952Y-31832679D01*
X28196745Y-31689010D01*
X28244034Y-31533120D01*
X28260001Y-31371000D01*
X28244034Y-31208880D01*
X28196745Y-31052990D01*
X28183870Y-31028903D01*
X28519000Y-31030066D01*
X28602707Y-31021822D01*
X28683196Y-30997405D01*
X28757376Y-30957755D01*
X28822395Y-30904395D01*
X28875755Y-30839376D01*
X28887001Y-30818337D01*
X28887000Y-32399999D01*
G37*
%TD.AperFunction*%
D22*
X27817000Y-30278000D02*
X27837000Y-30278000D01*
X27837000Y-30324000D01*
X27817000Y-30324000D01*
X27817000Y-30344000D01*
X27771000Y-30344000D01*
X27771000Y-30324000D01*
X27751000Y-30324000D01*
X27751000Y-30278000D01*
X27771000Y-30278000D01*
X27771000Y-30258000D01*
X27817000Y-30258000D01*
X27817000Y-30278000D01*
%TA.AperFunction,Conductor*%
D23*
G36*
X27817000Y-30278000D02*
G01*
X27837000Y-30278000D01*
X27837000Y-30324000D01*
X27817000Y-30324000D01*
X27817000Y-30344000D01*
X27771000Y-30344000D01*
X27771000Y-30324000D01*
X27751000Y-30324000D01*
X27751000Y-30278000D01*
X27771000Y-30278000D01*
X27771000Y-30258000D01*
X27817000Y-30258000D01*
X27817000Y-30278000D01*
G37*
%TD.AperFunction*%
%TD*%
M02*
