%TF.GenerationSoftware,KiCad,Pcbnew,5.1.10*%
%TF.CreationDate,2021-06-29T15:39:21+12:00*%
%TF.ProjectId,USBCereal,55534243-6572-4656-916c-2e6b69636164,rev?*%
%TF.SameCoordinates,Original*%
%TF.FileFunction,Soldermask,Top*%
%TF.FilePolarity,Negative*%
%FSLAX46Y46*%
G04 Gerber Fmt 4.6, Leading zero omitted, Abs format (unit mm)*
G04 Created by KiCad (PCBNEW 5.1.10) date 2021-06-29 15:39:21*
%MOMM*%
%LPD*%
G01*
G04 APERTURE LIST*
%ADD10C,1.152000*%
%ADD11R,1.450000X0.600000*%
%ADD12R,1.450000X0.300000*%
%ADD13O,2.100000X1.000000*%
%ADD14C,0.650000*%
%ADD15O,1.600000X1.000000*%
%ADD16O,1.700000X1.700000*%
%ADD17R,1.700000X1.700000*%
%ADD18C,1.700000*%
%ADD19R,0.800000X0.900000*%
G04 APERTURE END LIST*
D10*
%TO.C,REF\u002A\u002A*%
X45339000Y-27051000D03*
%TD*%
%TO.C,REF\u002A\u002A*%
X21971000Y-34163000D03*
%TD*%
%TO.C,REF\u002A\u002A*%
X21971000Y-19939000D03*
%TD*%
D11*
%TO.C,J1*%
X27794000Y-30301000D03*
X27794000Y-29501000D03*
X27794000Y-24601000D03*
X27794000Y-23801000D03*
X27794000Y-23801000D03*
X27794000Y-24601000D03*
X27794000Y-29501000D03*
X27794000Y-30301000D03*
D12*
X27794000Y-25301000D03*
X27794000Y-25801000D03*
X27794000Y-26301000D03*
X27794000Y-27301000D03*
X27794000Y-27801000D03*
X27794000Y-28301000D03*
X27794000Y-28801000D03*
X27794000Y-26801000D03*
D13*
X26879000Y-31371000D03*
X26879000Y-22731000D03*
D14*
X26349000Y-24161000D03*
D15*
X22699000Y-22731000D03*
D14*
X26349000Y-29941000D03*
D15*
X22699000Y-31371000D03*
%TD*%
D16*
%TO.C,J2*%
X43942000Y-33401000D03*
X43942000Y-30861000D03*
X43942000Y-28321000D03*
X43942000Y-25781000D03*
X43942000Y-23241000D03*
D17*
X43942000Y-20701000D03*
%TD*%
D16*
%TO.C,JP1*%
X36195000Y-29464000D03*
X33655000Y-29464000D03*
D18*
X31115000Y-29464000D03*
%TD*%
%TO.C,D1*%
G36*
G01*
X40656500Y-28304000D02*
X41131500Y-28304000D01*
G75*
G02*
X41369000Y-28541500I0J-237500D01*
G01*
X41369000Y-29116500D01*
G75*
G02*
X41131500Y-29354000I-237500J0D01*
G01*
X40656500Y-29354000D01*
G75*
G02*
X40419000Y-29116500I0J237500D01*
G01*
X40419000Y-28541500D01*
G75*
G02*
X40656500Y-28304000I237500J0D01*
G01*
G37*
G36*
G01*
X40656500Y-26554000D02*
X41131500Y-26554000D01*
G75*
G02*
X41369000Y-26791500I0J-237500D01*
G01*
X41369000Y-27366500D01*
G75*
G02*
X41131500Y-27604000I-237500J0D01*
G01*
X40656500Y-27604000D01*
G75*
G02*
X40419000Y-27366500I0J237500D01*
G01*
X40419000Y-26791500D01*
G75*
G02*
X40656500Y-26554000I237500J0D01*
G01*
G37*
%TD*%
%TO.C,D2*%
G36*
G01*
X40656500Y-31769500D02*
X41131500Y-31769500D01*
G75*
G02*
X41369000Y-32007000I0J-237500D01*
G01*
X41369000Y-32582000D01*
G75*
G02*
X41131500Y-32819500I-237500J0D01*
G01*
X40656500Y-32819500D01*
G75*
G02*
X40419000Y-32582000I0J237500D01*
G01*
X40419000Y-32007000D01*
G75*
G02*
X40656500Y-31769500I237500J0D01*
G01*
G37*
G36*
G01*
X40656500Y-30019500D02*
X41131500Y-30019500D01*
G75*
G02*
X41369000Y-30257000I0J-237500D01*
G01*
X41369000Y-30832000D01*
G75*
G02*
X41131500Y-31069500I-237500J0D01*
G01*
X40656500Y-31069500D01*
G75*
G02*
X40419000Y-30832000I0J237500D01*
G01*
X40419000Y-30257000D01*
G75*
G02*
X40656500Y-30019500I237500J0D01*
G01*
G37*
%TD*%
%TO.C,R4*%
G36*
G01*
X38878500Y-31817500D02*
X39353500Y-31817500D01*
G75*
G02*
X39591000Y-32055000I0J-237500D01*
G01*
X39591000Y-32555000D01*
G75*
G02*
X39353500Y-32792500I-237500J0D01*
G01*
X38878500Y-32792500D01*
G75*
G02*
X38641000Y-32555000I0J237500D01*
G01*
X38641000Y-32055000D01*
G75*
G02*
X38878500Y-31817500I237500J0D01*
G01*
G37*
G36*
G01*
X38878500Y-29992500D02*
X39353500Y-29992500D01*
G75*
G02*
X39591000Y-30230000I0J-237500D01*
G01*
X39591000Y-30730000D01*
G75*
G02*
X39353500Y-30967500I-237500J0D01*
G01*
X38878500Y-30967500D01*
G75*
G02*
X38641000Y-30730000I0J237500D01*
G01*
X38641000Y-30230000D01*
G75*
G02*
X38878500Y-29992500I237500J0D01*
G01*
G37*
%TD*%
%TO.C,R3*%
G36*
G01*
X38878500Y-28341500D02*
X39353500Y-28341500D01*
G75*
G02*
X39591000Y-28579000I0J-237500D01*
G01*
X39591000Y-29079000D01*
G75*
G02*
X39353500Y-29316500I-237500J0D01*
G01*
X38878500Y-29316500D01*
G75*
G02*
X38641000Y-29079000I0J237500D01*
G01*
X38641000Y-28579000D01*
G75*
G02*
X38878500Y-28341500I237500J0D01*
G01*
G37*
G36*
G01*
X38878500Y-26516500D02*
X39353500Y-26516500D01*
G75*
G02*
X39591000Y-26754000I0J-237500D01*
G01*
X39591000Y-27254000D01*
G75*
G02*
X39353500Y-27491500I-237500J0D01*
G01*
X38878500Y-27491500D01*
G75*
G02*
X38641000Y-27254000I0J237500D01*
G01*
X38641000Y-26754000D01*
G75*
G02*
X38878500Y-26516500I237500J0D01*
G01*
G37*
%TD*%
%TO.C,R2*%
G36*
G01*
X24721000Y-20590500D02*
X24721000Y-21065500D01*
G75*
G02*
X24483500Y-21303000I-237500J0D01*
G01*
X23983500Y-21303000D01*
G75*
G02*
X23746000Y-21065500I0J237500D01*
G01*
X23746000Y-20590500D01*
G75*
G02*
X23983500Y-20353000I237500J0D01*
G01*
X24483500Y-20353000D01*
G75*
G02*
X24721000Y-20590500I0J-237500D01*
G01*
G37*
G36*
G01*
X26546000Y-20590500D02*
X26546000Y-21065500D01*
G75*
G02*
X26308500Y-21303000I-237500J0D01*
G01*
X25808500Y-21303000D01*
G75*
G02*
X25571000Y-21065500I0J237500D01*
G01*
X25571000Y-20590500D01*
G75*
G02*
X25808500Y-20353000I237500J0D01*
G01*
X26308500Y-20353000D01*
G75*
G02*
X26546000Y-20590500I0J-237500D01*
G01*
G37*
%TD*%
%TO.C,R1*%
G36*
G01*
X24721000Y-33061900D02*
X24721000Y-33536900D01*
G75*
G02*
X24483500Y-33774400I-237500J0D01*
G01*
X23983500Y-33774400D01*
G75*
G02*
X23746000Y-33536900I0J237500D01*
G01*
X23746000Y-33061900D01*
G75*
G02*
X23983500Y-32824400I237500J0D01*
G01*
X24483500Y-32824400D01*
G75*
G02*
X24721000Y-33061900I0J-237500D01*
G01*
G37*
G36*
G01*
X26546000Y-33061900D02*
X26546000Y-33536900D01*
G75*
G02*
X26308500Y-33774400I-237500J0D01*
G01*
X25808500Y-33774400D01*
G75*
G02*
X25571000Y-33536900I0J237500D01*
G01*
X25571000Y-33061900D01*
G75*
G02*
X25808500Y-32824400I237500J0D01*
G01*
X26308500Y-32824400D01*
G75*
G02*
X26546000Y-33061900I0J-237500D01*
G01*
G37*
%TD*%
D19*
%TO.C,U1*%
X28829000Y-33274000D03*
X29779000Y-35274000D03*
X27879000Y-35274000D03*
%TD*%
%TO.C,C3*%
G36*
G01*
X31385500Y-34588500D02*
X31860500Y-34588500D01*
G75*
G02*
X32098000Y-34826000I0J-237500D01*
G01*
X32098000Y-35426000D01*
G75*
G02*
X31860500Y-35663500I-237500J0D01*
G01*
X31385500Y-35663500D01*
G75*
G02*
X31148000Y-35426000I0J237500D01*
G01*
X31148000Y-34826000D01*
G75*
G02*
X31385500Y-34588500I237500J0D01*
G01*
G37*
G36*
G01*
X31385500Y-32863500D02*
X31860500Y-32863500D01*
G75*
G02*
X32098000Y-33101000I0J-237500D01*
G01*
X32098000Y-33701000D01*
G75*
G02*
X31860500Y-33938500I-237500J0D01*
G01*
X31385500Y-33938500D01*
G75*
G02*
X31148000Y-33701000I0J237500D01*
G01*
X31148000Y-33101000D01*
G75*
G02*
X31385500Y-32863500I237500J0D01*
G01*
G37*
%TD*%
%TO.C,C2*%
G36*
G01*
X24821000Y-34814500D02*
X24821000Y-35289500D01*
G75*
G02*
X24583500Y-35527000I-237500J0D01*
G01*
X23983500Y-35527000D01*
G75*
G02*
X23746000Y-35289500I0J237500D01*
G01*
X23746000Y-34814500D01*
G75*
G02*
X23983500Y-34577000I237500J0D01*
G01*
X24583500Y-34577000D01*
G75*
G02*
X24821000Y-34814500I0J-237500D01*
G01*
G37*
G36*
G01*
X26546000Y-34814500D02*
X26546000Y-35289500D01*
G75*
G02*
X26308500Y-35527000I-237500J0D01*
G01*
X25708500Y-35527000D01*
G75*
G02*
X25471000Y-35289500I0J237500D01*
G01*
X25471000Y-34814500D01*
G75*
G02*
X25708500Y-34577000I237500J0D01*
G01*
X26308500Y-34577000D01*
G75*
G02*
X26546000Y-34814500I0J-237500D01*
G01*
G37*
%TD*%
%TO.C,C1*%
G36*
G01*
X24821000Y-18812500D02*
X24821000Y-19287500D01*
G75*
G02*
X24583500Y-19525000I-237500J0D01*
G01*
X23983500Y-19525000D01*
G75*
G02*
X23746000Y-19287500I0J237500D01*
G01*
X23746000Y-18812500D01*
G75*
G02*
X23983500Y-18575000I237500J0D01*
G01*
X24583500Y-18575000D01*
G75*
G02*
X24821000Y-18812500I0J-237500D01*
G01*
G37*
G36*
G01*
X26546000Y-18812500D02*
X26546000Y-19287500D01*
G75*
G02*
X26308500Y-19525000I-237500J0D01*
G01*
X25708500Y-19525000D01*
G75*
G02*
X25471000Y-19287500I0J237500D01*
G01*
X25471000Y-18812500D01*
G75*
G02*
X25708500Y-18575000I237500J0D01*
G01*
X26308500Y-18575000D01*
G75*
G02*
X26546000Y-18812500I0J-237500D01*
G01*
G37*
%TD*%
%TO.C,U2*%
G36*
G01*
X30884000Y-20725000D02*
X30584000Y-20725000D01*
G75*
G02*
X30434000Y-20575000I0J150000D01*
G01*
X30434000Y-18925000D01*
G75*
G02*
X30584000Y-18775000I150000J0D01*
G01*
X30884000Y-18775000D01*
G75*
G02*
X31034000Y-18925000I0J-150000D01*
G01*
X31034000Y-20575000D01*
G75*
G02*
X30884000Y-20725000I-150000J0D01*
G01*
G37*
G36*
G01*
X32154000Y-20725000D02*
X31854000Y-20725000D01*
G75*
G02*
X31704000Y-20575000I0J150000D01*
G01*
X31704000Y-18925000D01*
G75*
G02*
X31854000Y-18775000I150000J0D01*
G01*
X32154000Y-18775000D01*
G75*
G02*
X32304000Y-18925000I0J-150000D01*
G01*
X32304000Y-20575000D01*
G75*
G02*
X32154000Y-20725000I-150000J0D01*
G01*
G37*
G36*
G01*
X33424000Y-20725000D02*
X33124000Y-20725000D01*
G75*
G02*
X32974000Y-20575000I0J150000D01*
G01*
X32974000Y-18925000D01*
G75*
G02*
X33124000Y-18775000I150000J0D01*
G01*
X33424000Y-18775000D01*
G75*
G02*
X33574000Y-18925000I0J-150000D01*
G01*
X33574000Y-20575000D01*
G75*
G02*
X33424000Y-20725000I-150000J0D01*
G01*
G37*
G36*
G01*
X34694000Y-20725000D02*
X34394000Y-20725000D01*
G75*
G02*
X34244000Y-20575000I0J150000D01*
G01*
X34244000Y-18925000D01*
G75*
G02*
X34394000Y-18775000I150000J0D01*
G01*
X34694000Y-18775000D01*
G75*
G02*
X34844000Y-18925000I0J-150000D01*
G01*
X34844000Y-20575000D01*
G75*
G02*
X34694000Y-20725000I-150000J0D01*
G01*
G37*
G36*
G01*
X35964000Y-20725000D02*
X35664000Y-20725000D01*
G75*
G02*
X35514000Y-20575000I0J150000D01*
G01*
X35514000Y-18925000D01*
G75*
G02*
X35664000Y-18775000I150000J0D01*
G01*
X35964000Y-18775000D01*
G75*
G02*
X36114000Y-18925000I0J-150000D01*
G01*
X36114000Y-20575000D01*
G75*
G02*
X35964000Y-20725000I-150000J0D01*
G01*
G37*
G36*
G01*
X37234000Y-20725000D02*
X36934000Y-20725000D01*
G75*
G02*
X36784000Y-20575000I0J150000D01*
G01*
X36784000Y-18925000D01*
G75*
G02*
X36934000Y-18775000I150000J0D01*
G01*
X37234000Y-18775000D01*
G75*
G02*
X37384000Y-18925000I0J-150000D01*
G01*
X37384000Y-20575000D01*
G75*
G02*
X37234000Y-20725000I-150000J0D01*
G01*
G37*
G36*
G01*
X38504000Y-20725000D02*
X38204000Y-20725000D01*
G75*
G02*
X38054000Y-20575000I0J150000D01*
G01*
X38054000Y-18925000D01*
G75*
G02*
X38204000Y-18775000I150000J0D01*
G01*
X38504000Y-18775000D01*
G75*
G02*
X38654000Y-18925000I0J-150000D01*
G01*
X38654000Y-20575000D01*
G75*
G02*
X38504000Y-20725000I-150000J0D01*
G01*
G37*
G36*
G01*
X39774000Y-20725000D02*
X39474000Y-20725000D01*
G75*
G02*
X39324000Y-20575000I0J150000D01*
G01*
X39324000Y-18925000D01*
G75*
G02*
X39474000Y-18775000I150000J0D01*
G01*
X39774000Y-18775000D01*
G75*
G02*
X39924000Y-18925000I0J-150000D01*
G01*
X39924000Y-20575000D01*
G75*
G02*
X39774000Y-20725000I-150000J0D01*
G01*
G37*
G36*
G01*
X39774000Y-25675000D02*
X39474000Y-25675000D01*
G75*
G02*
X39324000Y-25525000I0J150000D01*
G01*
X39324000Y-23875000D01*
G75*
G02*
X39474000Y-23725000I150000J0D01*
G01*
X39774000Y-23725000D01*
G75*
G02*
X39924000Y-23875000I0J-150000D01*
G01*
X39924000Y-25525000D01*
G75*
G02*
X39774000Y-25675000I-150000J0D01*
G01*
G37*
G36*
G01*
X38504000Y-25675000D02*
X38204000Y-25675000D01*
G75*
G02*
X38054000Y-25525000I0J150000D01*
G01*
X38054000Y-23875000D01*
G75*
G02*
X38204000Y-23725000I150000J0D01*
G01*
X38504000Y-23725000D01*
G75*
G02*
X38654000Y-23875000I0J-150000D01*
G01*
X38654000Y-25525000D01*
G75*
G02*
X38504000Y-25675000I-150000J0D01*
G01*
G37*
G36*
G01*
X37234000Y-25675000D02*
X36934000Y-25675000D01*
G75*
G02*
X36784000Y-25525000I0J150000D01*
G01*
X36784000Y-23875000D01*
G75*
G02*
X36934000Y-23725000I150000J0D01*
G01*
X37234000Y-23725000D01*
G75*
G02*
X37384000Y-23875000I0J-150000D01*
G01*
X37384000Y-25525000D01*
G75*
G02*
X37234000Y-25675000I-150000J0D01*
G01*
G37*
G36*
G01*
X35964000Y-25675000D02*
X35664000Y-25675000D01*
G75*
G02*
X35514000Y-25525000I0J150000D01*
G01*
X35514000Y-23875000D01*
G75*
G02*
X35664000Y-23725000I150000J0D01*
G01*
X35964000Y-23725000D01*
G75*
G02*
X36114000Y-23875000I0J-150000D01*
G01*
X36114000Y-25525000D01*
G75*
G02*
X35964000Y-25675000I-150000J0D01*
G01*
G37*
G36*
G01*
X34694000Y-25675000D02*
X34394000Y-25675000D01*
G75*
G02*
X34244000Y-25525000I0J150000D01*
G01*
X34244000Y-23875000D01*
G75*
G02*
X34394000Y-23725000I150000J0D01*
G01*
X34694000Y-23725000D01*
G75*
G02*
X34844000Y-23875000I0J-150000D01*
G01*
X34844000Y-25525000D01*
G75*
G02*
X34694000Y-25675000I-150000J0D01*
G01*
G37*
G36*
G01*
X33424000Y-25675000D02*
X33124000Y-25675000D01*
G75*
G02*
X32974000Y-25525000I0J150000D01*
G01*
X32974000Y-23875000D01*
G75*
G02*
X33124000Y-23725000I150000J0D01*
G01*
X33424000Y-23725000D01*
G75*
G02*
X33574000Y-23875000I0J-150000D01*
G01*
X33574000Y-25525000D01*
G75*
G02*
X33424000Y-25675000I-150000J0D01*
G01*
G37*
G36*
G01*
X32154000Y-25675000D02*
X31854000Y-25675000D01*
G75*
G02*
X31704000Y-25525000I0J150000D01*
G01*
X31704000Y-23875000D01*
G75*
G02*
X31854000Y-23725000I150000J0D01*
G01*
X32154000Y-23725000D01*
G75*
G02*
X32304000Y-23875000I0J-150000D01*
G01*
X32304000Y-25525000D01*
G75*
G02*
X32154000Y-25675000I-150000J0D01*
G01*
G37*
G36*
G01*
X30884000Y-25675000D02*
X30584000Y-25675000D01*
G75*
G02*
X30434000Y-25525000I0J150000D01*
G01*
X30434000Y-23875000D01*
G75*
G02*
X30584000Y-23725000I150000J0D01*
G01*
X30884000Y-23725000D01*
G75*
G02*
X31034000Y-23875000I0J-150000D01*
G01*
X31034000Y-25525000D01*
G75*
G02*
X30884000Y-25675000I-150000J0D01*
G01*
G37*
%TD*%
M02*
