M48
; DRILL file {KiCad 5.1.10} date Tue Jun 29 17:09:20 2021
; FORMAT={-:-/ absolute / inch / decimal}
; #@! TF.CreationDate,2021-06-29T17:09:20+12:00
; #@! TF.GenerationSoftware,Kicad,Pcbnew,5.1.10
; #@! TF.FileFunction,Plated,1,2,PTH
FMAT,2
INCH
T1C0.0157
T2C0.0236
T3C0.0394
%
G90
G05
T1
X0.9Y-0.95
X0.9Y-1.02
X0.9Y-1.09
X0.9Y-1.16
X1.09Y-0.75
X1.118Y-0.868
X1.12Y-1.26
X1.16Y-1.01
X1.16Y-1.18
X1.21Y-0.875
X1.21Y-1.26
X1.31Y-0.9385
X1.316Y-1.064
X1.36Y-0.8455
X1.36Y-1.0268
X1.38Y-1.106
X1.575Y-1.1675
X1.61Y-0.75
T3
X1.225Y-1.16
X1.325Y-1.16
X1.425Y-1.16
X1.73Y-0.815
X1.73Y-0.915
X1.73Y-1.015
X1.73Y-1.115
X1.73Y-1.215
X1.73Y-1.315
T2
G00X0.9055Y-0.8949
M15
G01X0.8819Y-0.8949
M16
G05
G00X0.9055Y-1.2351
M15
G01X0.8819Y-1.2351
M16
G05
G00X1.0799Y-0.8949
M15
G01X1.0366Y-0.8949
M16
G05
G00X1.0799Y-1.2351
M15
G01X1.0366Y-1.2351
M16
G05
T0
M30
