%TF.GenerationSoftware,KiCad,Pcbnew,5.1.10*%
%TF.CreationDate,2021-06-29T17:09:25+12:00*%
%TF.ProjectId,USBCereal,55534243-6572-4656-916c-2e6b69636164,rev?*%
%TF.SameCoordinates,Original*%
%TF.FileFunction,Legend,Top*%
%TF.FilePolarity,Positive*%
%FSLAX46Y46*%
G04 Gerber Fmt 4.6, Leading zero omitted, Abs format (unit mm)*
G04 Created by KiCad (PCBNEW 5.1.10) date 2021-06-29 17:09:25*
%MOMM*%
%LPD*%
G01*
G04 APERTURE LIST*
%ADD10C,0.150000*%
%ADD11C,0.100000*%
%ADD12C,0.375000*%
%ADD13C,0.120000*%
G04 APERTURE END LIST*
D10*
X23945904Y-30746238D02*
X24517333Y-30746238D01*
X24631619Y-30784333D01*
X24707809Y-30860523D01*
X24745904Y-30974809D01*
X24745904Y-31051000D01*
X24745904Y-29984333D02*
X24745904Y-30365285D01*
X23945904Y-30365285D01*
X24669714Y-29260523D02*
X24707809Y-29298619D01*
X24745904Y-29412904D01*
X24745904Y-29489095D01*
X24707809Y-29603380D01*
X24631619Y-29679571D01*
X24555428Y-29717666D01*
X24403047Y-29755761D01*
X24288761Y-29755761D01*
X24136380Y-29717666D01*
X24060190Y-29679571D01*
X23984000Y-29603380D01*
X23945904Y-29489095D01*
X23945904Y-29412904D01*
X23984000Y-29298619D01*
X24022095Y-29260523D01*
X23945904Y-28689095D02*
X24517333Y-28689095D01*
X24631619Y-28727190D01*
X24707809Y-28803380D01*
X24745904Y-28917666D01*
X24745904Y-28993857D01*
X24745904Y-27927190D02*
X24745904Y-28308142D01*
X23945904Y-28308142D01*
X24669714Y-27203380D02*
X24707809Y-27241476D01*
X24745904Y-27355761D01*
X24745904Y-27431952D01*
X24707809Y-27546238D01*
X24631619Y-27622428D01*
X24555428Y-27660523D01*
X24403047Y-27698619D01*
X24288761Y-27698619D01*
X24136380Y-27660523D01*
X24060190Y-27622428D01*
X23984000Y-27546238D01*
X23945904Y-27431952D01*
X23945904Y-27355761D01*
X23984000Y-27241476D01*
X24022095Y-27203380D01*
X23945904Y-26631952D02*
X24517333Y-26631952D01*
X24631619Y-26670047D01*
X24707809Y-26746238D01*
X24745904Y-26860523D01*
X24745904Y-26936714D01*
X24745904Y-25870047D02*
X24745904Y-26251000D01*
X23945904Y-26251000D01*
X24669714Y-25146238D02*
X24707809Y-25184333D01*
X24745904Y-25298619D01*
X24745904Y-25374809D01*
X24707809Y-25489095D01*
X24631619Y-25565285D01*
X24555428Y-25603380D01*
X24403047Y-25641476D01*
X24288761Y-25641476D01*
X24136380Y-25603380D01*
X24060190Y-25565285D01*
X23984000Y-25489095D01*
X23945904Y-25374809D01*
X23945904Y-25298619D01*
X23984000Y-25184333D01*
X24022095Y-25146238D01*
X23945904Y-24574809D02*
X24517333Y-24574809D01*
X24631619Y-24612904D01*
X24707809Y-24689095D01*
X24745904Y-24803380D01*
X24745904Y-24879571D01*
X24745904Y-23812904D02*
X24745904Y-24193857D01*
X23945904Y-24193857D01*
X24669714Y-23089095D02*
X24707809Y-23127190D01*
X24745904Y-23241476D01*
X24745904Y-23317666D01*
X24707809Y-23431952D01*
X24631619Y-23508142D01*
X24555428Y-23546238D01*
X24403047Y-23584333D01*
X24288761Y-23584333D01*
X24136380Y-23546238D01*
X24060190Y-23508142D01*
X23984000Y-23431952D01*
X23945904Y-23317666D01*
X23945904Y-23241476D01*
X23984000Y-23127190D01*
X24022095Y-23089095D01*
D11*
X41941000Y-21234333D02*
X41907666Y-21301000D01*
X41907666Y-21401000D01*
X41941000Y-21501000D01*
X42007666Y-21567666D01*
X42074333Y-21601000D01*
X42207666Y-21634333D01*
X42307666Y-21634333D01*
X42441000Y-21601000D01*
X42507666Y-21567666D01*
X42574333Y-21501000D01*
X42607666Y-21401000D01*
X42607666Y-21334333D01*
X42574333Y-21234333D01*
X42541000Y-21201000D01*
X42307666Y-21201000D01*
X42307666Y-21334333D01*
X42607666Y-20901000D02*
X41907666Y-20901000D01*
X42607666Y-20501000D01*
X41907666Y-20501000D01*
X42607666Y-20167666D02*
X41907666Y-20167666D01*
X41907666Y-20001000D01*
X41941000Y-19901000D01*
X42007666Y-19834333D01*
X42074333Y-19801000D01*
X42207666Y-19767666D01*
X42307666Y-19767666D01*
X42441000Y-19801000D01*
X42507666Y-19834333D01*
X42574333Y-19901000D01*
X42607666Y-20001000D01*
X42607666Y-20167666D01*
X42541000Y-23624333D02*
X42574333Y-23657666D01*
X42607666Y-23757666D01*
X42607666Y-23824333D01*
X42574333Y-23924333D01*
X42507666Y-23991000D01*
X42441000Y-24024333D01*
X42307666Y-24057666D01*
X42207666Y-24057666D01*
X42074333Y-24024333D01*
X42007666Y-23991000D01*
X41941000Y-23924333D01*
X41907666Y-23824333D01*
X41907666Y-23757666D01*
X41941000Y-23657666D01*
X41974333Y-23624333D01*
X41907666Y-23424333D02*
X41907666Y-23024333D01*
X42607666Y-23224333D02*
X41907666Y-23224333D01*
X42574333Y-22824333D02*
X42607666Y-22724333D01*
X42607666Y-22557666D01*
X42574333Y-22491000D01*
X42541000Y-22457666D01*
X42474333Y-22424333D01*
X42407666Y-22424333D01*
X42341000Y-22457666D01*
X42307666Y-22491000D01*
X42274333Y-22557666D01*
X42241000Y-22691000D01*
X42207666Y-22757666D01*
X42174333Y-22791000D01*
X42107666Y-22824333D01*
X42041000Y-22824333D01*
X41974333Y-22791000D01*
X41941000Y-22757666D01*
X41907666Y-22691000D01*
X41907666Y-22524333D01*
X41941000Y-22424333D01*
X41907666Y-26714333D02*
X42607666Y-26481000D01*
X41907666Y-26247666D01*
X42541000Y-25614333D02*
X42574333Y-25647666D01*
X42607666Y-25747666D01*
X42607666Y-25814333D01*
X42574333Y-25914333D01*
X42507666Y-25981000D01*
X42441000Y-26014333D01*
X42307666Y-26047666D01*
X42207666Y-26047666D01*
X42074333Y-26014333D01*
X42007666Y-25981000D01*
X41941000Y-25914333D01*
X41907666Y-25814333D01*
X41907666Y-25747666D01*
X41941000Y-25647666D01*
X41974333Y-25614333D01*
X42541000Y-24914333D02*
X42574333Y-24947666D01*
X42607666Y-25047666D01*
X42607666Y-25114333D01*
X42574333Y-25214333D01*
X42507666Y-25281000D01*
X42441000Y-25314333D01*
X42307666Y-25347666D01*
X42207666Y-25347666D01*
X42074333Y-25314333D01*
X42007666Y-25281000D01*
X41941000Y-25214333D01*
X41907666Y-25114333D01*
X41907666Y-25047666D01*
X41941000Y-24947666D01*
X41974333Y-24914333D01*
X41907666Y-28854333D02*
X41907666Y-28454333D01*
X42607666Y-28654333D02*
X41907666Y-28654333D01*
X41907666Y-28287666D02*
X42607666Y-27821000D01*
X41907666Y-27821000D02*
X42607666Y-28287666D01*
X42607666Y-30977666D02*
X42274333Y-31211000D01*
X42607666Y-31377666D02*
X41907666Y-31377666D01*
X41907666Y-31111000D01*
X41941000Y-31044333D01*
X41974333Y-31011000D01*
X42041000Y-30977666D01*
X42141000Y-30977666D01*
X42207666Y-31011000D01*
X42241000Y-31044333D01*
X42274333Y-31111000D01*
X42274333Y-31377666D01*
X41907666Y-30744333D02*
X42607666Y-30277666D01*
X41907666Y-30277666D02*
X42607666Y-30744333D01*
X42607666Y-34201000D02*
X41907666Y-34201000D01*
X41907666Y-34034333D01*
X41941000Y-33934333D01*
X42007666Y-33867666D01*
X42074333Y-33834333D01*
X42207666Y-33801000D01*
X42307666Y-33801000D01*
X42441000Y-33834333D01*
X42507666Y-33867666D01*
X42574333Y-33934333D01*
X42607666Y-34034333D01*
X42607666Y-34201000D01*
X41907666Y-33601000D02*
X41907666Y-33201000D01*
X42607666Y-33401000D02*
X41907666Y-33401000D01*
X42607666Y-32567666D02*
X42274333Y-32801000D01*
X42607666Y-32967666D02*
X41907666Y-32967666D01*
X41907666Y-32701000D01*
X41941000Y-32634333D01*
X41974333Y-32601000D01*
X42041000Y-32567666D01*
X42141000Y-32567666D01*
X42207666Y-32601000D01*
X42241000Y-32634333D01*
X42274333Y-32701000D01*
X42274333Y-32967666D01*
D12*
X33366892Y-31521071D02*
X33366892Y-32735357D01*
X33438321Y-32878214D01*
X33509750Y-32949642D01*
X33652607Y-33021071D01*
X33938321Y-33021071D01*
X34081178Y-32949642D01*
X34152607Y-32878214D01*
X34224035Y-32735357D01*
X34224035Y-31521071D01*
X34866892Y-32949642D02*
X35081178Y-33021071D01*
X35438321Y-33021071D01*
X35581178Y-32949642D01*
X35652607Y-32878214D01*
X35724035Y-32735357D01*
X35724035Y-32592500D01*
X35652607Y-32449642D01*
X35581178Y-32378214D01*
X35438321Y-32306785D01*
X35152607Y-32235357D01*
X35009750Y-32163928D01*
X34938321Y-32092500D01*
X34866892Y-31949642D01*
X34866892Y-31806785D01*
X34938321Y-31663928D01*
X35009750Y-31592500D01*
X35152607Y-31521071D01*
X35509750Y-31521071D01*
X35724035Y-31592500D01*
X36866892Y-32235357D02*
X37081178Y-32306785D01*
X37152607Y-32378214D01*
X37224035Y-32521071D01*
X37224035Y-32735357D01*
X37152607Y-32878214D01*
X37081178Y-32949642D01*
X36938321Y-33021071D01*
X36366892Y-33021071D01*
X36366892Y-31521071D01*
X36866892Y-31521071D01*
X37009750Y-31592500D01*
X37081178Y-31663928D01*
X37152607Y-31806785D01*
X37152607Y-31949642D01*
X37081178Y-32092500D01*
X37009750Y-32163928D01*
X36866892Y-32235357D01*
X36366892Y-32235357D01*
X34224035Y-35503214D02*
X34152607Y-35574642D01*
X33938321Y-35646071D01*
X33795464Y-35646071D01*
X33581178Y-35574642D01*
X33438321Y-35431785D01*
X33366892Y-35288928D01*
X33295464Y-35003214D01*
X33295464Y-34788928D01*
X33366892Y-34503214D01*
X33438321Y-34360357D01*
X33581178Y-34217500D01*
X33795464Y-34146071D01*
X33938321Y-34146071D01*
X34152607Y-34217500D01*
X34224035Y-34288928D01*
X35438321Y-35574642D02*
X35295464Y-35646071D01*
X35009750Y-35646071D01*
X34866892Y-35574642D01*
X34795464Y-35431785D01*
X34795464Y-34860357D01*
X34866892Y-34717500D01*
X35009750Y-34646071D01*
X35295464Y-34646071D01*
X35438321Y-34717500D01*
X35509750Y-34860357D01*
X35509750Y-35003214D01*
X34795464Y-35146071D01*
X36152607Y-35646071D02*
X36152607Y-34646071D01*
X36152607Y-34931785D02*
X36224035Y-34788928D01*
X36295464Y-34717500D01*
X36438321Y-34646071D01*
X36581178Y-34646071D01*
X37652607Y-35574642D02*
X37509750Y-35646071D01*
X37224035Y-35646071D01*
X37081178Y-35574642D01*
X37009750Y-35431785D01*
X37009750Y-34860357D01*
X37081178Y-34717500D01*
X37224035Y-34646071D01*
X37509750Y-34646071D01*
X37652607Y-34717500D01*
X37724035Y-34860357D01*
X37724035Y-35003214D01*
X37009750Y-35146071D01*
X39009750Y-35646071D02*
X39009750Y-34860357D01*
X38938321Y-34717500D01*
X38795464Y-34646071D01*
X38509750Y-34646071D01*
X38366892Y-34717500D01*
X39009750Y-35574642D02*
X38866892Y-35646071D01*
X38509750Y-35646071D01*
X38366892Y-35574642D01*
X38295464Y-35431785D01*
X38295464Y-35288928D01*
X38366892Y-35146071D01*
X38509750Y-35074642D01*
X38866892Y-35074642D01*
X39009750Y-35003214D01*
X39938321Y-35646071D02*
X39795464Y-35574642D01*
X39724035Y-35431785D01*
X39724035Y-34146071D01*
D10*
X34956904Y-26884380D02*
X35575952Y-26884380D01*
X35242619Y-27265333D01*
X35385476Y-27265333D01*
X35480714Y-27312952D01*
X35528333Y-27360571D01*
X35575952Y-27455809D01*
X35575952Y-27693904D01*
X35528333Y-27789142D01*
X35480714Y-27836761D01*
X35385476Y-27884380D01*
X35099761Y-27884380D01*
X35004523Y-27836761D01*
X34956904Y-27789142D01*
X35861666Y-26884380D02*
X36195000Y-27884380D01*
X36528333Y-26884380D01*
X36766428Y-26884380D02*
X37385476Y-26884380D01*
X37052142Y-27265333D01*
X37195000Y-27265333D01*
X37290238Y-27312952D01*
X37337857Y-27360571D01*
X37385476Y-27455809D01*
X37385476Y-27693904D01*
X37337857Y-27789142D01*
X37290238Y-27836761D01*
X37195000Y-27884380D01*
X36909285Y-27884380D01*
X36814047Y-27836761D01*
X36766428Y-27789142D01*
X30924523Y-26757380D02*
X30448333Y-26757380D01*
X30400714Y-27233571D01*
X30448333Y-27185952D01*
X30543571Y-27138333D01*
X30781666Y-27138333D01*
X30876904Y-27185952D01*
X30924523Y-27233571D01*
X30972142Y-27328809D01*
X30972142Y-27566904D01*
X30924523Y-27662142D01*
X30876904Y-27709761D01*
X30781666Y-27757380D01*
X30543571Y-27757380D01*
X30448333Y-27709761D01*
X30400714Y-27662142D01*
X31257857Y-26757380D02*
X31591190Y-27757380D01*
X31924523Y-26757380D01*
D13*
%TO.C,J1*%
X19849000Y-22351000D02*
X19849000Y-31751000D01*
X25649000Y-31751000D02*
X23649000Y-31751000D01*
X21749000Y-31751000D02*
X19849000Y-31751000D01*
X25649000Y-22351000D02*
X23649000Y-22351000D01*
X21749000Y-22351000D02*
X19849000Y-22351000D01*
%TO.C,JP1*%
X29845000Y-30794000D02*
X29845000Y-28134000D01*
X29845000Y-28134000D02*
X37525000Y-28134000D01*
X29845000Y-30794000D02*
X37525000Y-30794000D01*
X37525000Y-30794000D02*
X37525000Y-28134000D01*
%TO.C,D1*%
X40159000Y-26294000D02*
X40159000Y-28754000D01*
X41629000Y-26294000D02*
X40159000Y-26294000D01*
X41629000Y-28754000D02*
X41629000Y-26294000D01*
%TO.C,D2*%
X40159000Y-29759500D02*
X40159000Y-32219500D01*
X41629000Y-29759500D02*
X40159000Y-29759500D01*
X41629000Y-32219500D02*
X41629000Y-29759500D01*
%TO.C,R4*%
X39638500Y-31137776D02*
X39638500Y-31647224D01*
X38593500Y-31137776D02*
X38593500Y-31647224D01*
%TO.C,R3*%
X39638500Y-27661776D02*
X39638500Y-28171224D01*
X38593500Y-27661776D02*
X38593500Y-28171224D01*
%TO.C,R2*%
X25400724Y-21350500D02*
X24891276Y-21350500D01*
X25400724Y-20305500D02*
X24891276Y-20305500D01*
%TO.C,R1*%
X25400724Y-33821900D02*
X24891276Y-33821900D01*
X25400724Y-32776900D02*
X24891276Y-32776900D01*
%TO.C,U1*%
X30409000Y-33514000D02*
X30409000Y-34974000D01*
X27249000Y-33514000D02*
X27249000Y-35674000D01*
X27249000Y-33514000D02*
X28179000Y-33514000D01*
X30409000Y-33514000D02*
X29479000Y-33514000D01*
%TO.C,C3*%
X31113000Y-34117233D02*
X31113000Y-34409767D01*
X32133000Y-34117233D02*
X32133000Y-34409767D01*
%TO.C,C2*%
X25292267Y-34542000D02*
X24999733Y-34542000D01*
X25292267Y-35562000D02*
X24999733Y-35562000D01*
%TO.C,C1*%
X25292267Y-18540000D02*
X24999733Y-18540000D01*
X25292267Y-19560000D02*
X24999733Y-19560000D01*
%TO.C,U2*%
X30119000Y-22225000D02*
X30119000Y-25675000D01*
X30119000Y-22225000D02*
X30119000Y-20275000D01*
X40239000Y-22225000D02*
X40239000Y-24175000D01*
X40239000Y-22225000D02*
X40239000Y-20275000D01*
%TO.C,J1*%
D10*
X25614380Y-27384333D02*
X26328666Y-27384333D01*
X26471523Y-27431952D01*
X26566761Y-27527190D01*
X26614380Y-27670047D01*
X26614380Y-27765285D01*
X26614380Y-26384333D02*
X26614380Y-26955761D01*
X26614380Y-26670047D02*
X25614380Y-26670047D01*
X25757238Y-26765285D01*
X25852476Y-26860523D01*
X25900095Y-26955761D01*
%TO.C,U2*%
X34885380Y-22986904D02*
X35694904Y-22986904D01*
X35790142Y-22939285D01*
X35837761Y-22891666D01*
X35885380Y-22796428D01*
X35885380Y-22605952D01*
X35837761Y-22510714D01*
X35790142Y-22463095D01*
X35694904Y-22415476D01*
X34885380Y-22415476D01*
X34980619Y-21986904D02*
X34933000Y-21939285D01*
X34885380Y-21844047D01*
X34885380Y-21605952D01*
X34933000Y-21510714D01*
X34980619Y-21463095D01*
X35075857Y-21415476D01*
X35171095Y-21415476D01*
X35313952Y-21463095D01*
X35885380Y-22034523D01*
X35885380Y-21415476D01*
%TD*%
M02*
