%TF.GenerationSoftware,KiCad,Pcbnew,5.1.10*%
%TF.CreationDate,2021-07-18T17:37:54+12:00*%
%TF.ProjectId,USBCereal,55534243-6572-4656-916c-2e6b69636164,rev?*%
%TF.SameCoordinates,Original*%
%TF.FileFunction,Copper,L2,Bot*%
%TF.FilePolarity,Positive*%
%FSLAX46Y46*%
G04 Gerber Fmt 4.6, Leading zero omitted, Abs format (unit mm)*
G04 Created by KiCad (PCBNEW 5.1.10) date 2021-07-18 17:37:54*
%MOMM*%
%LPD*%
G01*
G04 APERTURE LIST*
%TA.AperFunction,ComponentPad*%
%ADD10O,1.700000X1.700000*%
%TD*%
%TA.AperFunction,ComponentPad*%
%ADD11R,1.700000X1.700000*%
%TD*%
%TA.AperFunction,ComponentPad*%
%ADD12O,2.100000X1.000000*%
%TD*%
%TA.AperFunction,ComponentPad*%
%ADD13O,1.600000X1.000000*%
%TD*%
%TA.AperFunction,ViaPad*%
%ADD14C,0.800000*%
%TD*%
%TA.AperFunction,Conductor*%
%ADD15C,0.500000*%
%TD*%
%TA.AperFunction,Conductor*%
%ADD16C,0.250000*%
%TD*%
%TA.AperFunction,Conductor*%
%ADD17C,0.254000*%
%TD*%
%TA.AperFunction,Conductor*%
%ADD18C,0.100000*%
%TD*%
G04 APERTURE END LIST*
D10*
%TO.P,J2,6*%
%TO.N,/DTR*%
X44196000Y-33401000D03*
%TO.P,J2,5*%
%TO.N,/RXD*%
X44196000Y-30861000D03*
%TO.P,J2,4*%
%TO.N,/TXD*%
X44196000Y-28321000D03*
%TO.P,J2,3*%
%TO.N,VCC*%
X44196000Y-25781000D03*
%TO.P,J2,2*%
%TO.N,/CTS*%
X44196000Y-23241000D03*
D11*
%TO.P,J2,1*%
%TO.N,GNDD*%
X44196000Y-20701000D03*
%TD*%
D12*
%TO.P,J1,S1*%
%TO.N,Net-(J1-PadS1)*%
X26879000Y-31371000D03*
X26879000Y-22731000D03*
D13*
X22699000Y-22731000D03*
X22699000Y-31371000D03*
%TD*%
D14*
%TO.N,+5V*%
X29464000Y-25654000D03*
X29464000Y-28448016D03*
%TO.N,GNDD*%
X28448000Y-32004000D03*
X27686000Y-21336000D03*
X22860000Y-24130000D03*
X22860000Y-25908000D03*
X22860000Y-27686000D03*
X22860000Y-29464000D03*
X30480000Y-31496000D03*
X36830000Y-27940000D03*
%TO.N,/USB_D+*%
X32690611Y-27115999D03*
X35814000Y-27081565D03*
%TO.N,/USB_D-*%
X33468565Y-26356565D03*
X37084000Y-26162000D03*
%TO.N,VCC*%
X33055018Y-32004000D03*
X31309018Y-22538990D03*
%TO.N,/DTR*%
X34544000Y-21475000D03*
%TO.N,/RXD*%
X40513000Y-29654500D03*
X33330872Y-23989002D03*
%TD*%
D15*
%TO.N,+5V*%
X29464000Y-25654000D02*
X29464000Y-28448016D01*
D16*
%TO.N,/USB_D+*%
X35779566Y-27115999D02*
X35814000Y-27081565D01*
X32690611Y-27115999D02*
X35779566Y-27115999D01*
%TO.N,/USB_D-*%
X33468565Y-26356565D02*
X36262565Y-26356565D01*
X36889435Y-26356565D02*
X37084000Y-26162000D01*
X36262565Y-26356565D02*
X36889435Y-26356565D01*
D15*
%TO.N,VCC*%
X33055018Y-32004000D02*
X31309018Y-30258000D01*
X31309018Y-30258000D02*
X31309018Y-22538990D01*
D16*
%TO.N,/DTR*%
X41402000Y-28333000D02*
X34544000Y-21475000D01*
X44196000Y-33401000D02*
X41529000Y-30734000D01*
X41529000Y-28460000D02*
X41402000Y-28333000D01*
X41529000Y-30734000D02*
X41529000Y-28460000D01*
%TO.N,/RXD*%
X40513000Y-28321000D02*
X36181002Y-23989002D01*
X36181002Y-23989002D02*
X33330872Y-23989002D01*
X40513000Y-29654500D02*
X40513000Y-28321000D01*
%TD*%
D17*
%TO.N,GNDD*%
X45014723Y-17480717D02*
X45313615Y-17570957D01*
X45589288Y-17717535D01*
X45831238Y-17914864D01*
X46030251Y-18155430D01*
X46178750Y-18430071D01*
X46271075Y-18728325D01*
X46304589Y-19047188D01*
X46304600Y-19050326D01*
X46304600Y-26594300D01*
X46204690Y-26444773D01*
X46072227Y-26312310D01*
X45916467Y-26208235D01*
X45743396Y-26136547D01*
X45559665Y-26100000D01*
X45372335Y-26100000D01*
X45330969Y-26108228D01*
X45373000Y-25896924D01*
X45373000Y-25665076D01*
X45327769Y-25437682D01*
X45239044Y-25223481D01*
X45110236Y-25030706D01*
X44946294Y-24866764D01*
X44753519Y-24737956D01*
X44539318Y-24649231D01*
X44311924Y-24604000D01*
X44080076Y-24604000D01*
X43852682Y-24649231D01*
X43638481Y-24737956D01*
X43445706Y-24866764D01*
X43281764Y-25030706D01*
X43152956Y-25223481D01*
X43064231Y-25437682D01*
X43019000Y-25665076D01*
X43019000Y-25896924D01*
X43064231Y-26124318D01*
X43152956Y-26338519D01*
X43281764Y-26531294D01*
X43445706Y-26695236D01*
X43638481Y-26824044D01*
X43852682Y-26912769D01*
X44080076Y-26958000D01*
X44311924Y-26958000D01*
X44523228Y-26915969D01*
X44515000Y-26957335D01*
X44515000Y-27144665D01*
X44523228Y-27186031D01*
X44311924Y-27144000D01*
X44080076Y-27144000D01*
X43852682Y-27189231D01*
X43638481Y-27277956D01*
X43445706Y-27406764D01*
X43281764Y-27570706D01*
X43152956Y-27763481D01*
X43064231Y-27977682D01*
X43019000Y-28205076D01*
X43019000Y-28436924D01*
X43064231Y-28664318D01*
X43152956Y-28878519D01*
X43281764Y-29071294D01*
X43445706Y-29235236D01*
X43638481Y-29364044D01*
X43852682Y-29452769D01*
X44080076Y-29498000D01*
X44311924Y-29498000D01*
X44539318Y-29452769D01*
X44753519Y-29364044D01*
X44946294Y-29235236D01*
X45110236Y-29071294D01*
X45239044Y-28878519D01*
X45327769Y-28664318D01*
X45373000Y-28436924D01*
X45373000Y-28205076D01*
X45330969Y-27993772D01*
X45372335Y-28002000D01*
X45559665Y-28002000D01*
X45743396Y-27965453D01*
X45916467Y-27893765D01*
X46072227Y-27789690D01*
X46204690Y-27657227D01*
X46304601Y-27507700D01*
X46304601Y-35043317D01*
X46273283Y-35362723D01*
X46183041Y-35661619D01*
X46036465Y-35937288D01*
X45839136Y-36179238D01*
X45598569Y-36378252D01*
X45323928Y-36526750D01*
X45025675Y-36619075D01*
X44706812Y-36652589D01*
X44703674Y-36652600D01*
X22868673Y-36652600D01*
X22549277Y-36621283D01*
X22250381Y-36531041D01*
X21974712Y-36384465D01*
X21732762Y-36187136D01*
X21533748Y-35946569D01*
X21385250Y-35671928D01*
X21292925Y-35373675D01*
X21259411Y-35054812D01*
X21259400Y-35051674D01*
X21259400Y-34796317D01*
X21364773Y-34901690D01*
X21520533Y-35005765D01*
X21693604Y-35077453D01*
X21877335Y-35114000D01*
X22064665Y-35114000D01*
X22248396Y-35077453D01*
X22421467Y-35005765D01*
X22577227Y-34901690D01*
X22709690Y-34769227D01*
X22741598Y-34721472D01*
X30153000Y-34721472D01*
X30153000Y-34874528D01*
X30182859Y-35024643D01*
X30241431Y-35166048D01*
X30326464Y-35293309D01*
X30434691Y-35401536D01*
X30561952Y-35486569D01*
X30703357Y-35545141D01*
X30853472Y-35575000D01*
X31006528Y-35575000D01*
X31156643Y-35545141D01*
X31298048Y-35486569D01*
X31425309Y-35401536D01*
X31533536Y-35293309D01*
X31618569Y-35166048D01*
X31677141Y-35024643D01*
X31707000Y-34874528D01*
X31707000Y-34721472D01*
X36953000Y-34721472D01*
X36953000Y-34874528D01*
X36982859Y-35024643D01*
X37041431Y-35166048D01*
X37126464Y-35293309D01*
X37234691Y-35401536D01*
X37361952Y-35486569D01*
X37503357Y-35545141D01*
X37653472Y-35575000D01*
X37806528Y-35575000D01*
X37956643Y-35545141D01*
X38098048Y-35486569D01*
X38225309Y-35401536D01*
X38333536Y-35293309D01*
X38418569Y-35166048D01*
X38477141Y-35024643D01*
X38507000Y-34874528D01*
X38507000Y-34721472D01*
X38477141Y-34571357D01*
X38418569Y-34429952D01*
X38333536Y-34302691D01*
X38225309Y-34194464D01*
X38098048Y-34109431D01*
X37956643Y-34050859D01*
X37806528Y-34021000D01*
X37653472Y-34021000D01*
X37503357Y-34050859D01*
X37361952Y-34109431D01*
X37234691Y-34194464D01*
X37126464Y-34302691D01*
X37041431Y-34429952D01*
X36982859Y-34571357D01*
X36953000Y-34721472D01*
X31707000Y-34721472D01*
X31677141Y-34571357D01*
X31618569Y-34429952D01*
X31533536Y-34302691D01*
X31425309Y-34194464D01*
X31298048Y-34109431D01*
X31156643Y-34050859D01*
X31006528Y-34021000D01*
X30853472Y-34021000D01*
X30703357Y-34050859D01*
X30561952Y-34109431D01*
X30434691Y-34194464D01*
X30326464Y-34302691D01*
X30241431Y-34429952D01*
X30182859Y-34571357D01*
X30153000Y-34721472D01*
X22741598Y-34721472D01*
X22813765Y-34613467D01*
X22885453Y-34440396D01*
X22922000Y-34256665D01*
X22922000Y-34069335D01*
X22885453Y-33885604D01*
X22813765Y-33712533D01*
X22709690Y-33556773D01*
X22577227Y-33424310D01*
X22421467Y-33320235D01*
X22248396Y-33248547D01*
X22064665Y-33212000D01*
X21877335Y-33212000D01*
X21693604Y-33248547D01*
X21520533Y-33320235D01*
X21364773Y-33424310D01*
X21259400Y-33529683D01*
X21259400Y-31371000D01*
X21567999Y-31371000D01*
X21583966Y-31533120D01*
X21631255Y-31689010D01*
X21708048Y-31832679D01*
X21811394Y-31958606D01*
X21937321Y-32061952D01*
X22080990Y-32138745D01*
X22236880Y-32186034D01*
X22358376Y-32198000D01*
X23039624Y-32198000D01*
X23161120Y-32186034D01*
X23317010Y-32138745D01*
X23460679Y-32061952D01*
X23586606Y-31958606D01*
X23689952Y-31832679D01*
X23766745Y-31689010D01*
X23814034Y-31533120D01*
X23830001Y-31371000D01*
X25497999Y-31371000D01*
X25513966Y-31533120D01*
X25561255Y-31689010D01*
X25638048Y-31832679D01*
X25741394Y-31958606D01*
X25867321Y-32061952D01*
X26010990Y-32138745D01*
X26166880Y-32186034D01*
X26288376Y-32198000D01*
X27469624Y-32198000D01*
X27591120Y-32186034D01*
X27747010Y-32138745D01*
X27890679Y-32061952D01*
X28016606Y-31958606D01*
X28119952Y-31832679D01*
X28196745Y-31689010D01*
X28244034Y-31533120D01*
X28260001Y-31371000D01*
X28244034Y-31208880D01*
X28196745Y-31052990D01*
X28119952Y-30909321D01*
X28016606Y-30783394D01*
X27890679Y-30680048D01*
X27747010Y-30603255D01*
X27591120Y-30555966D01*
X27469624Y-30544000D01*
X26596987Y-30544000D01*
X26657838Y-30518795D01*
X26764626Y-30447442D01*
X26855442Y-30356626D01*
X26926795Y-30249838D01*
X26975944Y-30131181D01*
X27001000Y-30005216D01*
X27001000Y-29876784D01*
X26975944Y-29750819D01*
X26926795Y-29632162D01*
X26855442Y-29525374D01*
X26764626Y-29434558D01*
X26657838Y-29363205D01*
X26539181Y-29314056D01*
X26413216Y-29289000D01*
X26284784Y-29289000D01*
X26158819Y-29314056D01*
X26040162Y-29363205D01*
X25933374Y-29434558D01*
X25842558Y-29525374D01*
X25771205Y-29632162D01*
X25722056Y-29750819D01*
X25697000Y-29876784D01*
X25697000Y-30005216D01*
X25722056Y-30131181D01*
X25771205Y-30249838D01*
X25842558Y-30356626D01*
X25933374Y-30447442D01*
X26040162Y-30518795D01*
X26145534Y-30562441D01*
X26010990Y-30603255D01*
X25867321Y-30680048D01*
X25741394Y-30783394D01*
X25638048Y-30909321D01*
X25561255Y-31052990D01*
X25513966Y-31208880D01*
X25497999Y-31371000D01*
X23830001Y-31371000D01*
X23814034Y-31208880D01*
X23766745Y-31052990D01*
X23689952Y-30909321D01*
X23586606Y-30783394D01*
X23460679Y-30680048D01*
X23317010Y-30603255D01*
X23161120Y-30555966D01*
X23039624Y-30544000D01*
X22358376Y-30544000D01*
X22236880Y-30555966D01*
X22080990Y-30603255D01*
X21937321Y-30680048D01*
X21811394Y-30783394D01*
X21708048Y-30909321D01*
X21631255Y-31052990D01*
X21583966Y-31208880D01*
X21567999Y-31371000D01*
X21259400Y-31371000D01*
X21259400Y-25582397D01*
X28737000Y-25582397D01*
X28737000Y-25725603D01*
X28764938Y-25866058D01*
X28819741Y-25998364D01*
X28887000Y-26099025D01*
X28887001Y-28002990D01*
X28819741Y-28103652D01*
X28764938Y-28235958D01*
X28737000Y-28376413D01*
X28737000Y-28519619D01*
X28764938Y-28660074D01*
X28819741Y-28792380D01*
X28899302Y-28911452D01*
X29000564Y-29012714D01*
X29119636Y-29092275D01*
X29251942Y-29147078D01*
X29392397Y-29175016D01*
X29535603Y-29175016D01*
X29676058Y-29147078D01*
X29808364Y-29092275D01*
X29927436Y-29012714D01*
X30028698Y-28911452D01*
X30108259Y-28792380D01*
X30163062Y-28660074D01*
X30191000Y-28519619D01*
X30191000Y-28376413D01*
X30163062Y-28235958D01*
X30108259Y-28103652D01*
X30041000Y-28002991D01*
X30041000Y-26099025D01*
X30108259Y-25998364D01*
X30163062Y-25866058D01*
X30191000Y-25725603D01*
X30191000Y-25582397D01*
X30163062Y-25441942D01*
X30108259Y-25309636D01*
X30028698Y-25190564D01*
X29927436Y-25089302D01*
X29808364Y-25009741D01*
X29676058Y-24954938D01*
X29535603Y-24927000D01*
X29392397Y-24927000D01*
X29251942Y-24954938D01*
X29119636Y-25009741D01*
X29000564Y-25089302D01*
X28899302Y-25190564D01*
X28819741Y-25309636D01*
X28764938Y-25441942D01*
X28737000Y-25582397D01*
X21259400Y-25582397D01*
X21259400Y-22731000D01*
X21567999Y-22731000D01*
X21583966Y-22893120D01*
X21631255Y-23049010D01*
X21708048Y-23192679D01*
X21811394Y-23318606D01*
X21937321Y-23421952D01*
X22080990Y-23498745D01*
X22236880Y-23546034D01*
X22358376Y-23558000D01*
X23039624Y-23558000D01*
X23161120Y-23546034D01*
X23317010Y-23498745D01*
X23460679Y-23421952D01*
X23586606Y-23318606D01*
X23689952Y-23192679D01*
X23766745Y-23049010D01*
X23814034Y-22893120D01*
X23830001Y-22731000D01*
X25497999Y-22731000D01*
X25513966Y-22893120D01*
X25561255Y-23049010D01*
X25638048Y-23192679D01*
X25741394Y-23318606D01*
X25867321Y-23421952D01*
X26010990Y-23498745D01*
X26145534Y-23539559D01*
X26040162Y-23583205D01*
X25933374Y-23654558D01*
X25842558Y-23745374D01*
X25771205Y-23852162D01*
X25722056Y-23970819D01*
X25697000Y-24096784D01*
X25697000Y-24225216D01*
X25722056Y-24351181D01*
X25771205Y-24469838D01*
X25842558Y-24576626D01*
X25933374Y-24667442D01*
X26040162Y-24738795D01*
X26158819Y-24787944D01*
X26284784Y-24813000D01*
X26413216Y-24813000D01*
X26539181Y-24787944D01*
X26657838Y-24738795D01*
X26764626Y-24667442D01*
X26855442Y-24576626D01*
X26926795Y-24469838D01*
X26975944Y-24351181D01*
X27001000Y-24225216D01*
X27001000Y-24096784D01*
X26975944Y-23970819D01*
X26926795Y-23852162D01*
X26855442Y-23745374D01*
X26764626Y-23654558D01*
X26657838Y-23583205D01*
X26596987Y-23558000D01*
X27469624Y-23558000D01*
X27591120Y-23546034D01*
X27747010Y-23498745D01*
X27890679Y-23421952D01*
X28016606Y-23318606D01*
X28119952Y-23192679D01*
X28196745Y-23049010D01*
X28244034Y-22893120D01*
X28260001Y-22731000D01*
X28244034Y-22568880D01*
X28213247Y-22467387D01*
X30582018Y-22467387D01*
X30582018Y-22610593D01*
X30609956Y-22751048D01*
X30664759Y-22883354D01*
X30732019Y-22984016D01*
X30732018Y-30229669D01*
X30729228Y-30258000D01*
X30732018Y-30286331D01*
X30732018Y-30286335D01*
X30733242Y-30298759D01*
X30740367Y-30371111D01*
X30753027Y-30412842D01*
X30773361Y-30479875D01*
X30826939Y-30580114D01*
X30899044Y-30667974D01*
X30921056Y-30686039D01*
X32332338Y-32097321D01*
X32355956Y-32216058D01*
X32410759Y-32348364D01*
X32490320Y-32467436D01*
X32591582Y-32568698D01*
X32710654Y-32648259D01*
X32842960Y-32703062D01*
X32983415Y-32731000D01*
X33126621Y-32731000D01*
X33267076Y-32703062D01*
X33399382Y-32648259D01*
X33518454Y-32568698D01*
X33619716Y-32467436D01*
X33699277Y-32348364D01*
X33754080Y-32216058D01*
X33782018Y-32075603D01*
X33782018Y-31932397D01*
X33754080Y-31791942D01*
X33699277Y-31659636D01*
X33619716Y-31540564D01*
X33518454Y-31439302D01*
X33399382Y-31359741D01*
X33267076Y-31304938D01*
X33148339Y-31281320D01*
X31886018Y-30018999D01*
X31886018Y-27044396D01*
X31963611Y-27044396D01*
X31963611Y-27187602D01*
X31991549Y-27328057D01*
X32046352Y-27460363D01*
X32125913Y-27579435D01*
X32227175Y-27680697D01*
X32346247Y-27760258D01*
X32478553Y-27815061D01*
X32619008Y-27842999D01*
X32762214Y-27842999D01*
X32902669Y-27815061D01*
X33034975Y-27760258D01*
X33154047Y-27680697D01*
X33255309Y-27579435D01*
X33262950Y-27567999D01*
X35272300Y-27567999D01*
X35350564Y-27646263D01*
X35469636Y-27725824D01*
X35601942Y-27780627D01*
X35742397Y-27808565D01*
X35885603Y-27808565D01*
X36026058Y-27780627D01*
X36158364Y-27725824D01*
X36277436Y-27646263D01*
X36378698Y-27545001D01*
X36458259Y-27425929D01*
X36513062Y-27293623D01*
X36541000Y-27153168D01*
X36541000Y-27009962D01*
X36513062Y-26869507D01*
X36487819Y-26808565D01*
X36745203Y-26808565D01*
X36871942Y-26861062D01*
X37012397Y-26889000D01*
X37155603Y-26889000D01*
X37296058Y-26861062D01*
X37428364Y-26806259D01*
X37547436Y-26726698D01*
X37648698Y-26625436D01*
X37728259Y-26506364D01*
X37783062Y-26374058D01*
X37806915Y-26254139D01*
X40061001Y-28508226D01*
X40061000Y-29082160D01*
X40049564Y-29089802D01*
X39948302Y-29191064D01*
X39868741Y-29310136D01*
X39813938Y-29442442D01*
X39786000Y-29582897D01*
X39786000Y-29726103D01*
X39813938Y-29866558D01*
X39868741Y-29998864D01*
X39948302Y-30117936D01*
X40049564Y-30219198D01*
X40168636Y-30298759D01*
X40300942Y-30353562D01*
X40441397Y-30381500D01*
X40584603Y-30381500D01*
X40725058Y-30353562D01*
X40857364Y-30298759D01*
X40976436Y-30219198D01*
X41077000Y-30118634D01*
X41077000Y-30711795D01*
X41074813Y-30734000D01*
X41083540Y-30822607D01*
X41088146Y-30837791D01*
X41109386Y-30907809D01*
X41151357Y-30986332D01*
X41207841Y-31055159D01*
X41225100Y-31069323D01*
X43107939Y-32952162D01*
X43064231Y-33057682D01*
X43019000Y-33285076D01*
X43019000Y-33516924D01*
X43064231Y-33744318D01*
X43152956Y-33958519D01*
X43281764Y-34151294D01*
X43445706Y-34315236D01*
X43638481Y-34444044D01*
X43852682Y-34532769D01*
X44080076Y-34578000D01*
X44311924Y-34578000D01*
X44539318Y-34532769D01*
X44753519Y-34444044D01*
X44946294Y-34315236D01*
X45110236Y-34151294D01*
X45239044Y-33958519D01*
X45327769Y-33744318D01*
X45373000Y-33516924D01*
X45373000Y-33285076D01*
X45327769Y-33057682D01*
X45239044Y-32843481D01*
X45110236Y-32650706D01*
X44946294Y-32486764D01*
X44753519Y-32357956D01*
X44539318Y-32269231D01*
X44311924Y-32224000D01*
X44080076Y-32224000D01*
X43852682Y-32269231D01*
X43747162Y-32312939D01*
X42179299Y-30745076D01*
X43019000Y-30745076D01*
X43019000Y-30976924D01*
X43064231Y-31204318D01*
X43152956Y-31418519D01*
X43281764Y-31611294D01*
X43445706Y-31775236D01*
X43638481Y-31904044D01*
X43852682Y-31992769D01*
X44080076Y-32038000D01*
X44311924Y-32038000D01*
X44539318Y-31992769D01*
X44753519Y-31904044D01*
X44946294Y-31775236D01*
X45110236Y-31611294D01*
X45239044Y-31418519D01*
X45327769Y-31204318D01*
X45373000Y-30976924D01*
X45373000Y-30745076D01*
X45327769Y-30517682D01*
X45239044Y-30303481D01*
X45110236Y-30110706D01*
X44946294Y-29946764D01*
X44753519Y-29817956D01*
X44539318Y-29729231D01*
X44311924Y-29684000D01*
X44080076Y-29684000D01*
X43852682Y-29729231D01*
X43638481Y-29817956D01*
X43445706Y-29946764D01*
X43281764Y-30110706D01*
X43152956Y-30303481D01*
X43064231Y-30517682D01*
X43019000Y-30745076D01*
X42179299Y-30745076D01*
X41981000Y-30546777D01*
X41981000Y-28482204D01*
X41983187Y-28459999D01*
X41974460Y-28371392D01*
X41959173Y-28320999D01*
X41948614Y-28286190D01*
X41906643Y-28207667D01*
X41850159Y-28138841D01*
X41832904Y-28124680D01*
X41737313Y-28029089D01*
X36833300Y-23125076D01*
X43019000Y-23125076D01*
X43019000Y-23356924D01*
X43064231Y-23584318D01*
X43152956Y-23798519D01*
X43281764Y-23991294D01*
X43445706Y-24155236D01*
X43638481Y-24284044D01*
X43852682Y-24372769D01*
X44080076Y-24418000D01*
X44311924Y-24418000D01*
X44539318Y-24372769D01*
X44753519Y-24284044D01*
X44946294Y-24155236D01*
X45110236Y-23991294D01*
X45239044Y-23798519D01*
X45327769Y-23584318D01*
X45373000Y-23356924D01*
X45373000Y-23125076D01*
X45327769Y-22897682D01*
X45239044Y-22683481D01*
X45110236Y-22490706D01*
X44946294Y-22326764D01*
X44753519Y-22197956D01*
X44539318Y-22109231D01*
X44311924Y-22064000D01*
X44080076Y-22064000D01*
X43852682Y-22109231D01*
X43638481Y-22197956D01*
X43445706Y-22326764D01*
X43281764Y-22490706D01*
X43152956Y-22683481D01*
X43064231Y-22897682D01*
X43019000Y-23125076D01*
X36833300Y-23125076D01*
X35268317Y-21560094D01*
X35270125Y-21551000D01*
X42916934Y-21551000D01*
X42925178Y-21634707D01*
X42949595Y-21715196D01*
X42989245Y-21789376D01*
X43042605Y-21854395D01*
X43107624Y-21907755D01*
X43181804Y-21947405D01*
X43262293Y-21971822D01*
X43346000Y-21980066D01*
X44066250Y-21978000D01*
X44173000Y-21871250D01*
X44173000Y-20724000D01*
X44219000Y-20724000D01*
X44219000Y-21871250D01*
X44325750Y-21978000D01*
X45046000Y-21980066D01*
X45129707Y-21971822D01*
X45210196Y-21947405D01*
X45284376Y-21907755D01*
X45349395Y-21854395D01*
X45402755Y-21789376D01*
X45442405Y-21715196D01*
X45466822Y-21634707D01*
X45475066Y-21551000D01*
X45473000Y-20830750D01*
X45366250Y-20724000D01*
X44219000Y-20724000D01*
X44173000Y-20724000D01*
X43025750Y-20724000D01*
X42919000Y-20830750D01*
X42916934Y-21551000D01*
X35270125Y-21551000D01*
X35271000Y-21546603D01*
X35271000Y-21403397D01*
X35243062Y-21262942D01*
X35188259Y-21130636D01*
X35108698Y-21011564D01*
X35007436Y-20910302D01*
X34888364Y-20830741D01*
X34756058Y-20775938D01*
X34615603Y-20748000D01*
X34472397Y-20748000D01*
X34331942Y-20775938D01*
X34199636Y-20830741D01*
X34080564Y-20910302D01*
X33979302Y-21011564D01*
X33899741Y-21130636D01*
X33844938Y-21262942D01*
X33817000Y-21403397D01*
X33817000Y-21546603D01*
X33844938Y-21687058D01*
X33899741Y-21819364D01*
X33979302Y-21938436D01*
X34080564Y-22039698D01*
X34199636Y-22119259D01*
X34331942Y-22174062D01*
X34472397Y-22202000D01*
X34615603Y-22202000D01*
X34629094Y-22199317D01*
X35966779Y-23537002D01*
X33903211Y-23537002D01*
X33895570Y-23525566D01*
X33794308Y-23424304D01*
X33675236Y-23344743D01*
X33542930Y-23289940D01*
X33402475Y-23262002D01*
X33259269Y-23262002D01*
X33118814Y-23289940D01*
X32986508Y-23344743D01*
X32867436Y-23424304D01*
X32766174Y-23525566D01*
X32686613Y-23644638D01*
X32631810Y-23776944D01*
X32603872Y-23917399D01*
X32603872Y-24060605D01*
X32631810Y-24201060D01*
X32686613Y-24333366D01*
X32766174Y-24452438D01*
X32867436Y-24553700D01*
X32986508Y-24633261D01*
X33118814Y-24688064D01*
X33259269Y-24716002D01*
X33402475Y-24716002D01*
X33542930Y-24688064D01*
X33675236Y-24633261D01*
X33794308Y-24553700D01*
X33895570Y-24452438D01*
X33903211Y-24441002D01*
X35993779Y-24441002D01*
X36991861Y-25439085D01*
X36871942Y-25462938D01*
X36739636Y-25517741D01*
X36620564Y-25597302D01*
X36519302Y-25698564D01*
X36439741Y-25817636D01*
X36403734Y-25904565D01*
X34040904Y-25904565D01*
X34033263Y-25893129D01*
X33932001Y-25791867D01*
X33812929Y-25712306D01*
X33680623Y-25657503D01*
X33540168Y-25629565D01*
X33396962Y-25629565D01*
X33256507Y-25657503D01*
X33124201Y-25712306D01*
X33005129Y-25791867D01*
X32903867Y-25893129D01*
X32824306Y-26012201D01*
X32769503Y-26144507D01*
X32741565Y-26284962D01*
X32741565Y-26388999D01*
X32619008Y-26388999D01*
X32478553Y-26416937D01*
X32346247Y-26471740D01*
X32227175Y-26551301D01*
X32125913Y-26652563D01*
X32046352Y-26771635D01*
X31991549Y-26903941D01*
X31963611Y-27044396D01*
X31886018Y-27044396D01*
X31886018Y-22984015D01*
X31953277Y-22883354D01*
X32008080Y-22751048D01*
X32036018Y-22610593D01*
X32036018Y-22467387D01*
X32008080Y-22326932D01*
X31953277Y-22194626D01*
X31873716Y-22075554D01*
X31772454Y-21974292D01*
X31653382Y-21894731D01*
X31521076Y-21839928D01*
X31380621Y-21811990D01*
X31237415Y-21811990D01*
X31096960Y-21839928D01*
X30964654Y-21894731D01*
X30845582Y-21974292D01*
X30744320Y-22075554D01*
X30664759Y-22194626D01*
X30609956Y-22326932D01*
X30582018Y-22467387D01*
X28213247Y-22467387D01*
X28196745Y-22412990D01*
X28119952Y-22269321D01*
X28016606Y-22143394D01*
X27890679Y-22040048D01*
X27747010Y-21963255D01*
X27591120Y-21915966D01*
X27469624Y-21904000D01*
X26288376Y-21904000D01*
X26166880Y-21915966D01*
X26010990Y-21963255D01*
X25867321Y-22040048D01*
X25741394Y-22143394D01*
X25638048Y-22269321D01*
X25561255Y-22412990D01*
X25513966Y-22568880D01*
X25497999Y-22731000D01*
X23830001Y-22731000D01*
X23814034Y-22568880D01*
X23766745Y-22412990D01*
X23689952Y-22269321D01*
X23586606Y-22143394D01*
X23460679Y-22040048D01*
X23317010Y-21963255D01*
X23161120Y-21915966D01*
X23039624Y-21904000D01*
X22358376Y-21904000D01*
X22236880Y-21915966D01*
X22080990Y-21963255D01*
X21937321Y-22040048D01*
X21811394Y-22143394D01*
X21708048Y-22269321D01*
X21631255Y-22412990D01*
X21583966Y-22568880D01*
X21567999Y-22731000D01*
X21259400Y-22731000D01*
X21259400Y-20572317D01*
X21364773Y-20677690D01*
X21520533Y-20781765D01*
X21693604Y-20853453D01*
X21877335Y-20890000D01*
X22064665Y-20890000D01*
X22248396Y-20853453D01*
X22421467Y-20781765D01*
X22577227Y-20677690D01*
X22709690Y-20545227D01*
X22813765Y-20389467D01*
X22885453Y-20216396D01*
X22922000Y-20032665D01*
X22922000Y-19851000D01*
X42916934Y-19851000D01*
X42919000Y-20571250D01*
X43025750Y-20678000D01*
X44173000Y-20678000D01*
X44173000Y-19530750D01*
X44219000Y-19530750D01*
X44219000Y-20678000D01*
X45366250Y-20678000D01*
X45473000Y-20571250D01*
X45475066Y-19851000D01*
X45466822Y-19767293D01*
X45442405Y-19686804D01*
X45402755Y-19612624D01*
X45349395Y-19547605D01*
X45284376Y-19494245D01*
X45210196Y-19454595D01*
X45129707Y-19430178D01*
X45046000Y-19421934D01*
X44325750Y-19424000D01*
X44219000Y-19530750D01*
X44173000Y-19530750D01*
X44066250Y-19424000D01*
X43346000Y-19421934D01*
X43262293Y-19430178D01*
X43181804Y-19454595D01*
X43107624Y-19494245D01*
X43042605Y-19547605D01*
X42989245Y-19612624D01*
X42949595Y-19686804D01*
X42925178Y-19767293D01*
X42916934Y-19851000D01*
X22922000Y-19851000D01*
X22922000Y-19845335D01*
X22885453Y-19661604D01*
X22813765Y-19488533D01*
X22709690Y-19332773D01*
X22577227Y-19200310D01*
X22421467Y-19096235D01*
X22248396Y-19024547D01*
X22064665Y-18988000D01*
X21877335Y-18988000D01*
X21693604Y-19024547D01*
X21520533Y-19096235D01*
X21364773Y-19200310D01*
X21259400Y-19305683D01*
X21259400Y-19058673D01*
X21290717Y-18739277D01*
X21380957Y-18440385D01*
X21527535Y-18164712D01*
X21724864Y-17922762D01*
X21965430Y-17723749D01*
X22240071Y-17575250D01*
X22538325Y-17482925D01*
X22857188Y-17449411D01*
X22860325Y-17449400D01*
X44695327Y-17449400D01*
X45014723Y-17480717D01*
%TA.AperFunction,Conductor*%
D18*
G36*
X45014723Y-17480717D02*
G01*
X45313615Y-17570957D01*
X45589288Y-17717535D01*
X45831238Y-17914864D01*
X46030251Y-18155430D01*
X46178750Y-18430071D01*
X46271075Y-18728325D01*
X46304589Y-19047188D01*
X46304600Y-19050326D01*
X46304600Y-26594300D01*
X46204690Y-26444773D01*
X46072227Y-26312310D01*
X45916467Y-26208235D01*
X45743396Y-26136547D01*
X45559665Y-26100000D01*
X45372335Y-26100000D01*
X45330969Y-26108228D01*
X45373000Y-25896924D01*
X45373000Y-25665076D01*
X45327769Y-25437682D01*
X45239044Y-25223481D01*
X45110236Y-25030706D01*
X44946294Y-24866764D01*
X44753519Y-24737956D01*
X44539318Y-24649231D01*
X44311924Y-24604000D01*
X44080076Y-24604000D01*
X43852682Y-24649231D01*
X43638481Y-24737956D01*
X43445706Y-24866764D01*
X43281764Y-25030706D01*
X43152956Y-25223481D01*
X43064231Y-25437682D01*
X43019000Y-25665076D01*
X43019000Y-25896924D01*
X43064231Y-26124318D01*
X43152956Y-26338519D01*
X43281764Y-26531294D01*
X43445706Y-26695236D01*
X43638481Y-26824044D01*
X43852682Y-26912769D01*
X44080076Y-26958000D01*
X44311924Y-26958000D01*
X44523228Y-26915969D01*
X44515000Y-26957335D01*
X44515000Y-27144665D01*
X44523228Y-27186031D01*
X44311924Y-27144000D01*
X44080076Y-27144000D01*
X43852682Y-27189231D01*
X43638481Y-27277956D01*
X43445706Y-27406764D01*
X43281764Y-27570706D01*
X43152956Y-27763481D01*
X43064231Y-27977682D01*
X43019000Y-28205076D01*
X43019000Y-28436924D01*
X43064231Y-28664318D01*
X43152956Y-28878519D01*
X43281764Y-29071294D01*
X43445706Y-29235236D01*
X43638481Y-29364044D01*
X43852682Y-29452769D01*
X44080076Y-29498000D01*
X44311924Y-29498000D01*
X44539318Y-29452769D01*
X44753519Y-29364044D01*
X44946294Y-29235236D01*
X45110236Y-29071294D01*
X45239044Y-28878519D01*
X45327769Y-28664318D01*
X45373000Y-28436924D01*
X45373000Y-28205076D01*
X45330969Y-27993772D01*
X45372335Y-28002000D01*
X45559665Y-28002000D01*
X45743396Y-27965453D01*
X45916467Y-27893765D01*
X46072227Y-27789690D01*
X46204690Y-27657227D01*
X46304601Y-27507700D01*
X46304601Y-35043317D01*
X46273283Y-35362723D01*
X46183041Y-35661619D01*
X46036465Y-35937288D01*
X45839136Y-36179238D01*
X45598569Y-36378252D01*
X45323928Y-36526750D01*
X45025675Y-36619075D01*
X44706812Y-36652589D01*
X44703674Y-36652600D01*
X22868673Y-36652600D01*
X22549277Y-36621283D01*
X22250381Y-36531041D01*
X21974712Y-36384465D01*
X21732762Y-36187136D01*
X21533748Y-35946569D01*
X21385250Y-35671928D01*
X21292925Y-35373675D01*
X21259411Y-35054812D01*
X21259400Y-35051674D01*
X21259400Y-34796317D01*
X21364773Y-34901690D01*
X21520533Y-35005765D01*
X21693604Y-35077453D01*
X21877335Y-35114000D01*
X22064665Y-35114000D01*
X22248396Y-35077453D01*
X22421467Y-35005765D01*
X22577227Y-34901690D01*
X22709690Y-34769227D01*
X22741598Y-34721472D01*
X30153000Y-34721472D01*
X30153000Y-34874528D01*
X30182859Y-35024643D01*
X30241431Y-35166048D01*
X30326464Y-35293309D01*
X30434691Y-35401536D01*
X30561952Y-35486569D01*
X30703357Y-35545141D01*
X30853472Y-35575000D01*
X31006528Y-35575000D01*
X31156643Y-35545141D01*
X31298048Y-35486569D01*
X31425309Y-35401536D01*
X31533536Y-35293309D01*
X31618569Y-35166048D01*
X31677141Y-35024643D01*
X31707000Y-34874528D01*
X31707000Y-34721472D01*
X36953000Y-34721472D01*
X36953000Y-34874528D01*
X36982859Y-35024643D01*
X37041431Y-35166048D01*
X37126464Y-35293309D01*
X37234691Y-35401536D01*
X37361952Y-35486569D01*
X37503357Y-35545141D01*
X37653472Y-35575000D01*
X37806528Y-35575000D01*
X37956643Y-35545141D01*
X38098048Y-35486569D01*
X38225309Y-35401536D01*
X38333536Y-35293309D01*
X38418569Y-35166048D01*
X38477141Y-35024643D01*
X38507000Y-34874528D01*
X38507000Y-34721472D01*
X38477141Y-34571357D01*
X38418569Y-34429952D01*
X38333536Y-34302691D01*
X38225309Y-34194464D01*
X38098048Y-34109431D01*
X37956643Y-34050859D01*
X37806528Y-34021000D01*
X37653472Y-34021000D01*
X37503357Y-34050859D01*
X37361952Y-34109431D01*
X37234691Y-34194464D01*
X37126464Y-34302691D01*
X37041431Y-34429952D01*
X36982859Y-34571357D01*
X36953000Y-34721472D01*
X31707000Y-34721472D01*
X31677141Y-34571357D01*
X31618569Y-34429952D01*
X31533536Y-34302691D01*
X31425309Y-34194464D01*
X31298048Y-34109431D01*
X31156643Y-34050859D01*
X31006528Y-34021000D01*
X30853472Y-34021000D01*
X30703357Y-34050859D01*
X30561952Y-34109431D01*
X30434691Y-34194464D01*
X30326464Y-34302691D01*
X30241431Y-34429952D01*
X30182859Y-34571357D01*
X30153000Y-34721472D01*
X22741598Y-34721472D01*
X22813765Y-34613467D01*
X22885453Y-34440396D01*
X22922000Y-34256665D01*
X22922000Y-34069335D01*
X22885453Y-33885604D01*
X22813765Y-33712533D01*
X22709690Y-33556773D01*
X22577227Y-33424310D01*
X22421467Y-33320235D01*
X22248396Y-33248547D01*
X22064665Y-33212000D01*
X21877335Y-33212000D01*
X21693604Y-33248547D01*
X21520533Y-33320235D01*
X21364773Y-33424310D01*
X21259400Y-33529683D01*
X21259400Y-31371000D01*
X21567999Y-31371000D01*
X21583966Y-31533120D01*
X21631255Y-31689010D01*
X21708048Y-31832679D01*
X21811394Y-31958606D01*
X21937321Y-32061952D01*
X22080990Y-32138745D01*
X22236880Y-32186034D01*
X22358376Y-32198000D01*
X23039624Y-32198000D01*
X23161120Y-32186034D01*
X23317010Y-32138745D01*
X23460679Y-32061952D01*
X23586606Y-31958606D01*
X23689952Y-31832679D01*
X23766745Y-31689010D01*
X23814034Y-31533120D01*
X23830001Y-31371000D01*
X25497999Y-31371000D01*
X25513966Y-31533120D01*
X25561255Y-31689010D01*
X25638048Y-31832679D01*
X25741394Y-31958606D01*
X25867321Y-32061952D01*
X26010990Y-32138745D01*
X26166880Y-32186034D01*
X26288376Y-32198000D01*
X27469624Y-32198000D01*
X27591120Y-32186034D01*
X27747010Y-32138745D01*
X27890679Y-32061952D01*
X28016606Y-31958606D01*
X28119952Y-31832679D01*
X28196745Y-31689010D01*
X28244034Y-31533120D01*
X28260001Y-31371000D01*
X28244034Y-31208880D01*
X28196745Y-31052990D01*
X28119952Y-30909321D01*
X28016606Y-30783394D01*
X27890679Y-30680048D01*
X27747010Y-30603255D01*
X27591120Y-30555966D01*
X27469624Y-30544000D01*
X26596987Y-30544000D01*
X26657838Y-30518795D01*
X26764626Y-30447442D01*
X26855442Y-30356626D01*
X26926795Y-30249838D01*
X26975944Y-30131181D01*
X27001000Y-30005216D01*
X27001000Y-29876784D01*
X26975944Y-29750819D01*
X26926795Y-29632162D01*
X26855442Y-29525374D01*
X26764626Y-29434558D01*
X26657838Y-29363205D01*
X26539181Y-29314056D01*
X26413216Y-29289000D01*
X26284784Y-29289000D01*
X26158819Y-29314056D01*
X26040162Y-29363205D01*
X25933374Y-29434558D01*
X25842558Y-29525374D01*
X25771205Y-29632162D01*
X25722056Y-29750819D01*
X25697000Y-29876784D01*
X25697000Y-30005216D01*
X25722056Y-30131181D01*
X25771205Y-30249838D01*
X25842558Y-30356626D01*
X25933374Y-30447442D01*
X26040162Y-30518795D01*
X26145534Y-30562441D01*
X26010990Y-30603255D01*
X25867321Y-30680048D01*
X25741394Y-30783394D01*
X25638048Y-30909321D01*
X25561255Y-31052990D01*
X25513966Y-31208880D01*
X25497999Y-31371000D01*
X23830001Y-31371000D01*
X23814034Y-31208880D01*
X23766745Y-31052990D01*
X23689952Y-30909321D01*
X23586606Y-30783394D01*
X23460679Y-30680048D01*
X23317010Y-30603255D01*
X23161120Y-30555966D01*
X23039624Y-30544000D01*
X22358376Y-30544000D01*
X22236880Y-30555966D01*
X22080990Y-30603255D01*
X21937321Y-30680048D01*
X21811394Y-30783394D01*
X21708048Y-30909321D01*
X21631255Y-31052990D01*
X21583966Y-31208880D01*
X21567999Y-31371000D01*
X21259400Y-31371000D01*
X21259400Y-25582397D01*
X28737000Y-25582397D01*
X28737000Y-25725603D01*
X28764938Y-25866058D01*
X28819741Y-25998364D01*
X28887000Y-26099025D01*
X28887001Y-28002990D01*
X28819741Y-28103652D01*
X28764938Y-28235958D01*
X28737000Y-28376413D01*
X28737000Y-28519619D01*
X28764938Y-28660074D01*
X28819741Y-28792380D01*
X28899302Y-28911452D01*
X29000564Y-29012714D01*
X29119636Y-29092275D01*
X29251942Y-29147078D01*
X29392397Y-29175016D01*
X29535603Y-29175016D01*
X29676058Y-29147078D01*
X29808364Y-29092275D01*
X29927436Y-29012714D01*
X30028698Y-28911452D01*
X30108259Y-28792380D01*
X30163062Y-28660074D01*
X30191000Y-28519619D01*
X30191000Y-28376413D01*
X30163062Y-28235958D01*
X30108259Y-28103652D01*
X30041000Y-28002991D01*
X30041000Y-26099025D01*
X30108259Y-25998364D01*
X30163062Y-25866058D01*
X30191000Y-25725603D01*
X30191000Y-25582397D01*
X30163062Y-25441942D01*
X30108259Y-25309636D01*
X30028698Y-25190564D01*
X29927436Y-25089302D01*
X29808364Y-25009741D01*
X29676058Y-24954938D01*
X29535603Y-24927000D01*
X29392397Y-24927000D01*
X29251942Y-24954938D01*
X29119636Y-25009741D01*
X29000564Y-25089302D01*
X28899302Y-25190564D01*
X28819741Y-25309636D01*
X28764938Y-25441942D01*
X28737000Y-25582397D01*
X21259400Y-25582397D01*
X21259400Y-22731000D01*
X21567999Y-22731000D01*
X21583966Y-22893120D01*
X21631255Y-23049010D01*
X21708048Y-23192679D01*
X21811394Y-23318606D01*
X21937321Y-23421952D01*
X22080990Y-23498745D01*
X22236880Y-23546034D01*
X22358376Y-23558000D01*
X23039624Y-23558000D01*
X23161120Y-23546034D01*
X23317010Y-23498745D01*
X23460679Y-23421952D01*
X23586606Y-23318606D01*
X23689952Y-23192679D01*
X23766745Y-23049010D01*
X23814034Y-22893120D01*
X23830001Y-22731000D01*
X25497999Y-22731000D01*
X25513966Y-22893120D01*
X25561255Y-23049010D01*
X25638048Y-23192679D01*
X25741394Y-23318606D01*
X25867321Y-23421952D01*
X26010990Y-23498745D01*
X26145534Y-23539559D01*
X26040162Y-23583205D01*
X25933374Y-23654558D01*
X25842558Y-23745374D01*
X25771205Y-23852162D01*
X25722056Y-23970819D01*
X25697000Y-24096784D01*
X25697000Y-24225216D01*
X25722056Y-24351181D01*
X25771205Y-24469838D01*
X25842558Y-24576626D01*
X25933374Y-24667442D01*
X26040162Y-24738795D01*
X26158819Y-24787944D01*
X26284784Y-24813000D01*
X26413216Y-24813000D01*
X26539181Y-24787944D01*
X26657838Y-24738795D01*
X26764626Y-24667442D01*
X26855442Y-24576626D01*
X26926795Y-24469838D01*
X26975944Y-24351181D01*
X27001000Y-24225216D01*
X27001000Y-24096784D01*
X26975944Y-23970819D01*
X26926795Y-23852162D01*
X26855442Y-23745374D01*
X26764626Y-23654558D01*
X26657838Y-23583205D01*
X26596987Y-23558000D01*
X27469624Y-23558000D01*
X27591120Y-23546034D01*
X27747010Y-23498745D01*
X27890679Y-23421952D01*
X28016606Y-23318606D01*
X28119952Y-23192679D01*
X28196745Y-23049010D01*
X28244034Y-22893120D01*
X28260001Y-22731000D01*
X28244034Y-22568880D01*
X28213247Y-22467387D01*
X30582018Y-22467387D01*
X30582018Y-22610593D01*
X30609956Y-22751048D01*
X30664759Y-22883354D01*
X30732019Y-22984016D01*
X30732018Y-30229669D01*
X30729228Y-30258000D01*
X30732018Y-30286331D01*
X30732018Y-30286335D01*
X30733242Y-30298759D01*
X30740367Y-30371111D01*
X30753027Y-30412842D01*
X30773361Y-30479875D01*
X30826939Y-30580114D01*
X30899044Y-30667974D01*
X30921056Y-30686039D01*
X32332338Y-32097321D01*
X32355956Y-32216058D01*
X32410759Y-32348364D01*
X32490320Y-32467436D01*
X32591582Y-32568698D01*
X32710654Y-32648259D01*
X32842960Y-32703062D01*
X32983415Y-32731000D01*
X33126621Y-32731000D01*
X33267076Y-32703062D01*
X33399382Y-32648259D01*
X33518454Y-32568698D01*
X33619716Y-32467436D01*
X33699277Y-32348364D01*
X33754080Y-32216058D01*
X33782018Y-32075603D01*
X33782018Y-31932397D01*
X33754080Y-31791942D01*
X33699277Y-31659636D01*
X33619716Y-31540564D01*
X33518454Y-31439302D01*
X33399382Y-31359741D01*
X33267076Y-31304938D01*
X33148339Y-31281320D01*
X31886018Y-30018999D01*
X31886018Y-27044396D01*
X31963611Y-27044396D01*
X31963611Y-27187602D01*
X31991549Y-27328057D01*
X32046352Y-27460363D01*
X32125913Y-27579435D01*
X32227175Y-27680697D01*
X32346247Y-27760258D01*
X32478553Y-27815061D01*
X32619008Y-27842999D01*
X32762214Y-27842999D01*
X32902669Y-27815061D01*
X33034975Y-27760258D01*
X33154047Y-27680697D01*
X33255309Y-27579435D01*
X33262950Y-27567999D01*
X35272300Y-27567999D01*
X35350564Y-27646263D01*
X35469636Y-27725824D01*
X35601942Y-27780627D01*
X35742397Y-27808565D01*
X35885603Y-27808565D01*
X36026058Y-27780627D01*
X36158364Y-27725824D01*
X36277436Y-27646263D01*
X36378698Y-27545001D01*
X36458259Y-27425929D01*
X36513062Y-27293623D01*
X36541000Y-27153168D01*
X36541000Y-27009962D01*
X36513062Y-26869507D01*
X36487819Y-26808565D01*
X36745203Y-26808565D01*
X36871942Y-26861062D01*
X37012397Y-26889000D01*
X37155603Y-26889000D01*
X37296058Y-26861062D01*
X37428364Y-26806259D01*
X37547436Y-26726698D01*
X37648698Y-26625436D01*
X37728259Y-26506364D01*
X37783062Y-26374058D01*
X37806915Y-26254139D01*
X40061001Y-28508226D01*
X40061000Y-29082160D01*
X40049564Y-29089802D01*
X39948302Y-29191064D01*
X39868741Y-29310136D01*
X39813938Y-29442442D01*
X39786000Y-29582897D01*
X39786000Y-29726103D01*
X39813938Y-29866558D01*
X39868741Y-29998864D01*
X39948302Y-30117936D01*
X40049564Y-30219198D01*
X40168636Y-30298759D01*
X40300942Y-30353562D01*
X40441397Y-30381500D01*
X40584603Y-30381500D01*
X40725058Y-30353562D01*
X40857364Y-30298759D01*
X40976436Y-30219198D01*
X41077000Y-30118634D01*
X41077000Y-30711795D01*
X41074813Y-30734000D01*
X41083540Y-30822607D01*
X41088146Y-30837791D01*
X41109386Y-30907809D01*
X41151357Y-30986332D01*
X41207841Y-31055159D01*
X41225100Y-31069323D01*
X43107939Y-32952162D01*
X43064231Y-33057682D01*
X43019000Y-33285076D01*
X43019000Y-33516924D01*
X43064231Y-33744318D01*
X43152956Y-33958519D01*
X43281764Y-34151294D01*
X43445706Y-34315236D01*
X43638481Y-34444044D01*
X43852682Y-34532769D01*
X44080076Y-34578000D01*
X44311924Y-34578000D01*
X44539318Y-34532769D01*
X44753519Y-34444044D01*
X44946294Y-34315236D01*
X45110236Y-34151294D01*
X45239044Y-33958519D01*
X45327769Y-33744318D01*
X45373000Y-33516924D01*
X45373000Y-33285076D01*
X45327769Y-33057682D01*
X45239044Y-32843481D01*
X45110236Y-32650706D01*
X44946294Y-32486764D01*
X44753519Y-32357956D01*
X44539318Y-32269231D01*
X44311924Y-32224000D01*
X44080076Y-32224000D01*
X43852682Y-32269231D01*
X43747162Y-32312939D01*
X42179299Y-30745076D01*
X43019000Y-30745076D01*
X43019000Y-30976924D01*
X43064231Y-31204318D01*
X43152956Y-31418519D01*
X43281764Y-31611294D01*
X43445706Y-31775236D01*
X43638481Y-31904044D01*
X43852682Y-31992769D01*
X44080076Y-32038000D01*
X44311924Y-32038000D01*
X44539318Y-31992769D01*
X44753519Y-31904044D01*
X44946294Y-31775236D01*
X45110236Y-31611294D01*
X45239044Y-31418519D01*
X45327769Y-31204318D01*
X45373000Y-30976924D01*
X45373000Y-30745076D01*
X45327769Y-30517682D01*
X45239044Y-30303481D01*
X45110236Y-30110706D01*
X44946294Y-29946764D01*
X44753519Y-29817956D01*
X44539318Y-29729231D01*
X44311924Y-29684000D01*
X44080076Y-29684000D01*
X43852682Y-29729231D01*
X43638481Y-29817956D01*
X43445706Y-29946764D01*
X43281764Y-30110706D01*
X43152956Y-30303481D01*
X43064231Y-30517682D01*
X43019000Y-30745076D01*
X42179299Y-30745076D01*
X41981000Y-30546777D01*
X41981000Y-28482204D01*
X41983187Y-28459999D01*
X41974460Y-28371392D01*
X41959173Y-28320999D01*
X41948614Y-28286190D01*
X41906643Y-28207667D01*
X41850159Y-28138841D01*
X41832904Y-28124680D01*
X41737313Y-28029089D01*
X36833300Y-23125076D01*
X43019000Y-23125076D01*
X43019000Y-23356924D01*
X43064231Y-23584318D01*
X43152956Y-23798519D01*
X43281764Y-23991294D01*
X43445706Y-24155236D01*
X43638481Y-24284044D01*
X43852682Y-24372769D01*
X44080076Y-24418000D01*
X44311924Y-24418000D01*
X44539318Y-24372769D01*
X44753519Y-24284044D01*
X44946294Y-24155236D01*
X45110236Y-23991294D01*
X45239044Y-23798519D01*
X45327769Y-23584318D01*
X45373000Y-23356924D01*
X45373000Y-23125076D01*
X45327769Y-22897682D01*
X45239044Y-22683481D01*
X45110236Y-22490706D01*
X44946294Y-22326764D01*
X44753519Y-22197956D01*
X44539318Y-22109231D01*
X44311924Y-22064000D01*
X44080076Y-22064000D01*
X43852682Y-22109231D01*
X43638481Y-22197956D01*
X43445706Y-22326764D01*
X43281764Y-22490706D01*
X43152956Y-22683481D01*
X43064231Y-22897682D01*
X43019000Y-23125076D01*
X36833300Y-23125076D01*
X35268317Y-21560094D01*
X35270125Y-21551000D01*
X42916934Y-21551000D01*
X42925178Y-21634707D01*
X42949595Y-21715196D01*
X42989245Y-21789376D01*
X43042605Y-21854395D01*
X43107624Y-21907755D01*
X43181804Y-21947405D01*
X43262293Y-21971822D01*
X43346000Y-21980066D01*
X44066250Y-21978000D01*
X44173000Y-21871250D01*
X44173000Y-20724000D01*
X44219000Y-20724000D01*
X44219000Y-21871250D01*
X44325750Y-21978000D01*
X45046000Y-21980066D01*
X45129707Y-21971822D01*
X45210196Y-21947405D01*
X45284376Y-21907755D01*
X45349395Y-21854395D01*
X45402755Y-21789376D01*
X45442405Y-21715196D01*
X45466822Y-21634707D01*
X45475066Y-21551000D01*
X45473000Y-20830750D01*
X45366250Y-20724000D01*
X44219000Y-20724000D01*
X44173000Y-20724000D01*
X43025750Y-20724000D01*
X42919000Y-20830750D01*
X42916934Y-21551000D01*
X35270125Y-21551000D01*
X35271000Y-21546603D01*
X35271000Y-21403397D01*
X35243062Y-21262942D01*
X35188259Y-21130636D01*
X35108698Y-21011564D01*
X35007436Y-20910302D01*
X34888364Y-20830741D01*
X34756058Y-20775938D01*
X34615603Y-20748000D01*
X34472397Y-20748000D01*
X34331942Y-20775938D01*
X34199636Y-20830741D01*
X34080564Y-20910302D01*
X33979302Y-21011564D01*
X33899741Y-21130636D01*
X33844938Y-21262942D01*
X33817000Y-21403397D01*
X33817000Y-21546603D01*
X33844938Y-21687058D01*
X33899741Y-21819364D01*
X33979302Y-21938436D01*
X34080564Y-22039698D01*
X34199636Y-22119259D01*
X34331942Y-22174062D01*
X34472397Y-22202000D01*
X34615603Y-22202000D01*
X34629094Y-22199317D01*
X35966779Y-23537002D01*
X33903211Y-23537002D01*
X33895570Y-23525566D01*
X33794308Y-23424304D01*
X33675236Y-23344743D01*
X33542930Y-23289940D01*
X33402475Y-23262002D01*
X33259269Y-23262002D01*
X33118814Y-23289940D01*
X32986508Y-23344743D01*
X32867436Y-23424304D01*
X32766174Y-23525566D01*
X32686613Y-23644638D01*
X32631810Y-23776944D01*
X32603872Y-23917399D01*
X32603872Y-24060605D01*
X32631810Y-24201060D01*
X32686613Y-24333366D01*
X32766174Y-24452438D01*
X32867436Y-24553700D01*
X32986508Y-24633261D01*
X33118814Y-24688064D01*
X33259269Y-24716002D01*
X33402475Y-24716002D01*
X33542930Y-24688064D01*
X33675236Y-24633261D01*
X33794308Y-24553700D01*
X33895570Y-24452438D01*
X33903211Y-24441002D01*
X35993779Y-24441002D01*
X36991861Y-25439085D01*
X36871942Y-25462938D01*
X36739636Y-25517741D01*
X36620564Y-25597302D01*
X36519302Y-25698564D01*
X36439741Y-25817636D01*
X36403734Y-25904565D01*
X34040904Y-25904565D01*
X34033263Y-25893129D01*
X33932001Y-25791867D01*
X33812929Y-25712306D01*
X33680623Y-25657503D01*
X33540168Y-25629565D01*
X33396962Y-25629565D01*
X33256507Y-25657503D01*
X33124201Y-25712306D01*
X33005129Y-25791867D01*
X32903867Y-25893129D01*
X32824306Y-26012201D01*
X32769503Y-26144507D01*
X32741565Y-26284962D01*
X32741565Y-26388999D01*
X32619008Y-26388999D01*
X32478553Y-26416937D01*
X32346247Y-26471740D01*
X32227175Y-26551301D01*
X32125913Y-26652563D01*
X32046352Y-26771635D01*
X31991549Y-26903941D01*
X31963611Y-27044396D01*
X31886018Y-27044396D01*
X31886018Y-22984015D01*
X31953277Y-22883354D01*
X32008080Y-22751048D01*
X32036018Y-22610593D01*
X32036018Y-22467387D01*
X32008080Y-22326932D01*
X31953277Y-22194626D01*
X31873716Y-22075554D01*
X31772454Y-21974292D01*
X31653382Y-21894731D01*
X31521076Y-21839928D01*
X31380621Y-21811990D01*
X31237415Y-21811990D01*
X31096960Y-21839928D01*
X30964654Y-21894731D01*
X30845582Y-21974292D01*
X30744320Y-22075554D01*
X30664759Y-22194626D01*
X30609956Y-22326932D01*
X30582018Y-22467387D01*
X28213247Y-22467387D01*
X28196745Y-22412990D01*
X28119952Y-22269321D01*
X28016606Y-22143394D01*
X27890679Y-22040048D01*
X27747010Y-21963255D01*
X27591120Y-21915966D01*
X27469624Y-21904000D01*
X26288376Y-21904000D01*
X26166880Y-21915966D01*
X26010990Y-21963255D01*
X25867321Y-22040048D01*
X25741394Y-22143394D01*
X25638048Y-22269321D01*
X25561255Y-22412990D01*
X25513966Y-22568880D01*
X25497999Y-22731000D01*
X23830001Y-22731000D01*
X23814034Y-22568880D01*
X23766745Y-22412990D01*
X23689952Y-22269321D01*
X23586606Y-22143394D01*
X23460679Y-22040048D01*
X23317010Y-21963255D01*
X23161120Y-21915966D01*
X23039624Y-21904000D01*
X22358376Y-21904000D01*
X22236880Y-21915966D01*
X22080990Y-21963255D01*
X21937321Y-22040048D01*
X21811394Y-22143394D01*
X21708048Y-22269321D01*
X21631255Y-22412990D01*
X21583966Y-22568880D01*
X21567999Y-22731000D01*
X21259400Y-22731000D01*
X21259400Y-20572317D01*
X21364773Y-20677690D01*
X21520533Y-20781765D01*
X21693604Y-20853453D01*
X21877335Y-20890000D01*
X22064665Y-20890000D01*
X22248396Y-20853453D01*
X22421467Y-20781765D01*
X22577227Y-20677690D01*
X22709690Y-20545227D01*
X22813765Y-20389467D01*
X22885453Y-20216396D01*
X22922000Y-20032665D01*
X22922000Y-19851000D01*
X42916934Y-19851000D01*
X42919000Y-20571250D01*
X43025750Y-20678000D01*
X44173000Y-20678000D01*
X44173000Y-19530750D01*
X44219000Y-19530750D01*
X44219000Y-20678000D01*
X45366250Y-20678000D01*
X45473000Y-20571250D01*
X45475066Y-19851000D01*
X45466822Y-19767293D01*
X45442405Y-19686804D01*
X45402755Y-19612624D01*
X45349395Y-19547605D01*
X45284376Y-19494245D01*
X45210196Y-19454595D01*
X45129707Y-19430178D01*
X45046000Y-19421934D01*
X44325750Y-19424000D01*
X44219000Y-19530750D01*
X44173000Y-19530750D01*
X44066250Y-19424000D01*
X43346000Y-19421934D01*
X43262293Y-19430178D01*
X43181804Y-19454595D01*
X43107624Y-19494245D01*
X43042605Y-19547605D01*
X42989245Y-19612624D01*
X42949595Y-19686804D01*
X42925178Y-19767293D01*
X42916934Y-19851000D01*
X22922000Y-19851000D01*
X22922000Y-19845335D01*
X22885453Y-19661604D01*
X22813765Y-19488533D01*
X22709690Y-19332773D01*
X22577227Y-19200310D01*
X22421467Y-19096235D01*
X22248396Y-19024547D01*
X22064665Y-18988000D01*
X21877335Y-18988000D01*
X21693604Y-19024547D01*
X21520533Y-19096235D01*
X21364773Y-19200310D01*
X21259400Y-19305683D01*
X21259400Y-19058673D01*
X21290717Y-18739277D01*
X21380957Y-18440385D01*
X21527535Y-18164712D01*
X21724864Y-17922762D01*
X21965430Y-17723749D01*
X22240071Y-17575250D01*
X22538325Y-17482925D01*
X22857188Y-17449411D01*
X22860325Y-17449400D01*
X44695327Y-17449400D01*
X45014723Y-17480717D01*
G37*
%TD.AperFunction*%
%TD*%
M02*
