%TF.GenerationSoftware,KiCad,Pcbnew,5.1.10*%
%TF.CreationDate,2021-07-18T17:37:54+12:00*%
%TF.ProjectId,USBCereal,55534243-6572-4656-916c-2e6b69636164,rev?*%
%TF.SameCoordinates,Original*%
%TF.FileFunction,Paste,Top*%
%TF.FilePolarity,Positive*%
%FSLAX46Y46*%
G04 Gerber Fmt 4.6, Leading zero omitted, Abs format (unit mm)*
G04 Created by KiCad (PCBNEW 5.1.10) date 2021-07-18 17:37:54*
%MOMM*%
%LPD*%
G01*
G04 APERTURE LIST*
%ADD10R,1.250000X2.500000*%
%ADD11R,1.450000X0.600000*%
%ADD12R,1.450000X0.300000*%
%ADD13R,0.800000X0.900000*%
G04 APERTURE END LIST*
D10*
%TO.C,SW1*%
X31830000Y-32048000D03*
X34330000Y-32048000D03*
X36830000Y-32048000D03*
%TD*%
D11*
%TO.C,J1*%
X27794000Y-30301000D03*
X27794000Y-29501000D03*
X27794000Y-24601000D03*
X27794000Y-23801000D03*
X27794000Y-23801000D03*
X27794000Y-24601000D03*
X27794000Y-29501000D03*
X27794000Y-30301000D03*
D12*
X27794000Y-25301000D03*
X27794000Y-25801000D03*
X27794000Y-26301000D03*
X27794000Y-27301000D03*
X27794000Y-27801000D03*
X27794000Y-28301000D03*
X27794000Y-28801000D03*
X27794000Y-26801000D03*
%TD*%
%TO.C,D1*%
G36*
G01*
X41164500Y-28304000D02*
X41639500Y-28304000D01*
G75*
G02*
X41877000Y-28541500I0J-237500D01*
G01*
X41877000Y-29116500D01*
G75*
G02*
X41639500Y-29354000I-237500J0D01*
G01*
X41164500Y-29354000D01*
G75*
G02*
X40927000Y-29116500I0J237500D01*
G01*
X40927000Y-28541500D01*
G75*
G02*
X41164500Y-28304000I237500J0D01*
G01*
G37*
G36*
G01*
X41164500Y-26554000D02*
X41639500Y-26554000D01*
G75*
G02*
X41877000Y-26791500I0J-237500D01*
G01*
X41877000Y-27366500D01*
G75*
G02*
X41639500Y-27604000I-237500J0D01*
G01*
X41164500Y-27604000D01*
G75*
G02*
X40927000Y-27366500I0J237500D01*
G01*
X40927000Y-26791500D01*
G75*
G02*
X41164500Y-26554000I237500J0D01*
G01*
G37*
%TD*%
%TO.C,D2*%
G36*
G01*
X41164500Y-31769500D02*
X41639500Y-31769500D01*
G75*
G02*
X41877000Y-32007000I0J-237500D01*
G01*
X41877000Y-32582000D01*
G75*
G02*
X41639500Y-32819500I-237500J0D01*
G01*
X41164500Y-32819500D01*
G75*
G02*
X40927000Y-32582000I0J237500D01*
G01*
X40927000Y-32007000D01*
G75*
G02*
X41164500Y-31769500I237500J0D01*
G01*
G37*
G36*
G01*
X41164500Y-30019500D02*
X41639500Y-30019500D01*
G75*
G02*
X41877000Y-30257000I0J-237500D01*
G01*
X41877000Y-30832000D01*
G75*
G02*
X41639500Y-31069500I-237500J0D01*
G01*
X41164500Y-31069500D01*
G75*
G02*
X40927000Y-30832000I0J237500D01*
G01*
X40927000Y-30257000D01*
G75*
G02*
X41164500Y-30019500I237500J0D01*
G01*
G37*
%TD*%
%TO.C,R4*%
G36*
G01*
X39386500Y-31817500D02*
X39861500Y-31817500D01*
G75*
G02*
X40099000Y-32055000I0J-237500D01*
G01*
X40099000Y-32555000D01*
G75*
G02*
X39861500Y-32792500I-237500J0D01*
G01*
X39386500Y-32792500D01*
G75*
G02*
X39149000Y-32555000I0J237500D01*
G01*
X39149000Y-32055000D01*
G75*
G02*
X39386500Y-31817500I237500J0D01*
G01*
G37*
G36*
G01*
X39386500Y-29992500D02*
X39861500Y-29992500D01*
G75*
G02*
X40099000Y-30230000I0J-237500D01*
G01*
X40099000Y-30730000D01*
G75*
G02*
X39861500Y-30967500I-237500J0D01*
G01*
X39386500Y-30967500D01*
G75*
G02*
X39149000Y-30730000I0J237500D01*
G01*
X39149000Y-30230000D01*
G75*
G02*
X39386500Y-29992500I237500J0D01*
G01*
G37*
%TD*%
%TO.C,R3*%
G36*
G01*
X39386500Y-28341500D02*
X39861500Y-28341500D01*
G75*
G02*
X40099000Y-28579000I0J-237500D01*
G01*
X40099000Y-29079000D01*
G75*
G02*
X39861500Y-29316500I-237500J0D01*
G01*
X39386500Y-29316500D01*
G75*
G02*
X39149000Y-29079000I0J237500D01*
G01*
X39149000Y-28579000D01*
G75*
G02*
X39386500Y-28341500I237500J0D01*
G01*
G37*
G36*
G01*
X39386500Y-26516500D02*
X39861500Y-26516500D01*
G75*
G02*
X40099000Y-26754000I0J-237500D01*
G01*
X40099000Y-27254000D01*
G75*
G02*
X39861500Y-27491500I-237500J0D01*
G01*
X39386500Y-27491500D01*
G75*
G02*
X39149000Y-27254000I0J237500D01*
G01*
X39149000Y-26754000D01*
G75*
G02*
X39386500Y-26516500I237500J0D01*
G01*
G37*
%TD*%
%TO.C,R2*%
G36*
G01*
X24721000Y-20590500D02*
X24721000Y-21065500D01*
G75*
G02*
X24483500Y-21303000I-237500J0D01*
G01*
X23983500Y-21303000D01*
G75*
G02*
X23746000Y-21065500I0J237500D01*
G01*
X23746000Y-20590500D01*
G75*
G02*
X23983500Y-20353000I237500J0D01*
G01*
X24483500Y-20353000D01*
G75*
G02*
X24721000Y-20590500I0J-237500D01*
G01*
G37*
G36*
G01*
X26546000Y-20590500D02*
X26546000Y-21065500D01*
G75*
G02*
X26308500Y-21303000I-237500J0D01*
G01*
X25808500Y-21303000D01*
G75*
G02*
X25571000Y-21065500I0J237500D01*
G01*
X25571000Y-20590500D01*
G75*
G02*
X25808500Y-20353000I237500J0D01*
G01*
X26308500Y-20353000D01*
G75*
G02*
X26546000Y-20590500I0J-237500D01*
G01*
G37*
%TD*%
%TO.C,R1*%
G36*
G01*
X24721000Y-33061900D02*
X24721000Y-33536900D01*
G75*
G02*
X24483500Y-33774400I-237500J0D01*
G01*
X23983500Y-33774400D01*
G75*
G02*
X23746000Y-33536900I0J237500D01*
G01*
X23746000Y-33061900D01*
G75*
G02*
X23983500Y-32824400I237500J0D01*
G01*
X24483500Y-32824400D01*
G75*
G02*
X24721000Y-33061900I0J-237500D01*
G01*
G37*
G36*
G01*
X26546000Y-33061900D02*
X26546000Y-33536900D01*
G75*
G02*
X26308500Y-33774400I-237500J0D01*
G01*
X25808500Y-33774400D01*
G75*
G02*
X25571000Y-33536900I0J237500D01*
G01*
X25571000Y-33061900D01*
G75*
G02*
X25808500Y-32824400I237500J0D01*
G01*
X26308500Y-32824400D01*
G75*
G02*
X26546000Y-33061900I0J-237500D01*
G01*
G37*
%TD*%
D13*
%TO.C,U1*%
X31750000Y-27956000D03*
X32700000Y-29956000D03*
X30800000Y-29956000D03*
%TD*%
%TO.C,C3*%
G36*
G01*
X34781500Y-28530500D02*
X34306500Y-28530500D01*
G75*
G02*
X34069000Y-28293000I0J237500D01*
G01*
X34069000Y-27693000D01*
G75*
G02*
X34306500Y-27455500I237500J0D01*
G01*
X34781500Y-27455500D01*
G75*
G02*
X35019000Y-27693000I0J-237500D01*
G01*
X35019000Y-28293000D01*
G75*
G02*
X34781500Y-28530500I-237500J0D01*
G01*
G37*
G36*
G01*
X34781500Y-30255500D02*
X34306500Y-30255500D01*
G75*
G02*
X34069000Y-30018000I0J237500D01*
G01*
X34069000Y-29418000D01*
G75*
G02*
X34306500Y-29180500I237500J0D01*
G01*
X34781500Y-29180500D01*
G75*
G02*
X35019000Y-29418000I0J-237500D01*
G01*
X35019000Y-30018000D01*
G75*
G02*
X34781500Y-30255500I-237500J0D01*
G01*
G37*
%TD*%
%TO.C,C2*%
G36*
G01*
X24821000Y-34814500D02*
X24821000Y-35289500D01*
G75*
G02*
X24583500Y-35527000I-237500J0D01*
G01*
X23983500Y-35527000D01*
G75*
G02*
X23746000Y-35289500I0J237500D01*
G01*
X23746000Y-34814500D01*
G75*
G02*
X23983500Y-34577000I237500J0D01*
G01*
X24583500Y-34577000D01*
G75*
G02*
X24821000Y-34814500I0J-237500D01*
G01*
G37*
G36*
G01*
X26546000Y-34814500D02*
X26546000Y-35289500D01*
G75*
G02*
X26308500Y-35527000I-237500J0D01*
G01*
X25708500Y-35527000D01*
G75*
G02*
X25471000Y-35289500I0J237500D01*
G01*
X25471000Y-34814500D01*
G75*
G02*
X25708500Y-34577000I237500J0D01*
G01*
X26308500Y-34577000D01*
G75*
G02*
X26546000Y-34814500I0J-237500D01*
G01*
G37*
%TD*%
%TO.C,C1*%
G36*
G01*
X24821000Y-18812500D02*
X24821000Y-19287500D01*
G75*
G02*
X24583500Y-19525000I-237500J0D01*
G01*
X23983500Y-19525000D01*
G75*
G02*
X23746000Y-19287500I0J237500D01*
G01*
X23746000Y-18812500D01*
G75*
G02*
X23983500Y-18575000I237500J0D01*
G01*
X24583500Y-18575000D01*
G75*
G02*
X24821000Y-18812500I0J-237500D01*
G01*
G37*
G36*
G01*
X26546000Y-18812500D02*
X26546000Y-19287500D01*
G75*
G02*
X26308500Y-19525000I-237500J0D01*
G01*
X25708500Y-19525000D01*
G75*
G02*
X25471000Y-19287500I0J237500D01*
G01*
X25471000Y-18812500D01*
G75*
G02*
X25708500Y-18575000I237500J0D01*
G01*
X26308500Y-18575000D01*
G75*
G02*
X26546000Y-18812500I0J-237500D01*
G01*
G37*
%TD*%
%TO.C,U2*%
G36*
G01*
X30884000Y-20725000D02*
X30584000Y-20725000D01*
G75*
G02*
X30434000Y-20575000I0J150000D01*
G01*
X30434000Y-18925000D01*
G75*
G02*
X30584000Y-18775000I150000J0D01*
G01*
X30884000Y-18775000D01*
G75*
G02*
X31034000Y-18925000I0J-150000D01*
G01*
X31034000Y-20575000D01*
G75*
G02*
X30884000Y-20725000I-150000J0D01*
G01*
G37*
G36*
G01*
X32154000Y-20725000D02*
X31854000Y-20725000D01*
G75*
G02*
X31704000Y-20575000I0J150000D01*
G01*
X31704000Y-18925000D01*
G75*
G02*
X31854000Y-18775000I150000J0D01*
G01*
X32154000Y-18775000D01*
G75*
G02*
X32304000Y-18925000I0J-150000D01*
G01*
X32304000Y-20575000D01*
G75*
G02*
X32154000Y-20725000I-150000J0D01*
G01*
G37*
G36*
G01*
X33424000Y-20725000D02*
X33124000Y-20725000D01*
G75*
G02*
X32974000Y-20575000I0J150000D01*
G01*
X32974000Y-18925000D01*
G75*
G02*
X33124000Y-18775000I150000J0D01*
G01*
X33424000Y-18775000D01*
G75*
G02*
X33574000Y-18925000I0J-150000D01*
G01*
X33574000Y-20575000D01*
G75*
G02*
X33424000Y-20725000I-150000J0D01*
G01*
G37*
G36*
G01*
X34694000Y-20725000D02*
X34394000Y-20725000D01*
G75*
G02*
X34244000Y-20575000I0J150000D01*
G01*
X34244000Y-18925000D01*
G75*
G02*
X34394000Y-18775000I150000J0D01*
G01*
X34694000Y-18775000D01*
G75*
G02*
X34844000Y-18925000I0J-150000D01*
G01*
X34844000Y-20575000D01*
G75*
G02*
X34694000Y-20725000I-150000J0D01*
G01*
G37*
G36*
G01*
X35964000Y-20725000D02*
X35664000Y-20725000D01*
G75*
G02*
X35514000Y-20575000I0J150000D01*
G01*
X35514000Y-18925000D01*
G75*
G02*
X35664000Y-18775000I150000J0D01*
G01*
X35964000Y-18775000D01*
G75*
G02*
X36114000Y-18925000I0J-150000D01*
G01*
X36114000Y-20575000D01*
G75*
G02*
X35964000Y-20725000I-150000J0D01*
G01*
G37*
G36*
G01*
X37234000Y-20725000D02*
X36934000Y-20725000D01*
G75*
G02*
X36784000Y-20575000I0J150000D01*
G01*
X36784000Y-18925000D01*
G75*
G02*
X36934000Y-18775000I150000J0D01*
G01*
X37234000Y-18775000D01*
G75*
G02*
X37384000Y-18925000I0J-150000D01*
G01*
X37384000Y-20575000D01*
G75*
G02*
X37234000Y-20725000I-150000J0D01*
G01*
G37*
G36*
G01*
X38504000Y-20725000D02*
X38204000Y-20725000D01*
G75*
G02*
X38054000Y-20575000I0J150000D01*
G01*
X38054000Y-18925000D01*
G75*
G02*
X38204000Y-18775000I150000J0D01*
G01*
X38504000Y-18775000D01*
G75*
G02*
X38654000Y-18925000I0J-150000D01*
G01*
X38654000Y-20575000D01*
G75*
G02*
X38504000Y-20725000I-150000J0D01*
G01*
G37*
G36*
G01*
X39774000Y-20725000D02*
X39474000Y-20725000D01*
G75*
G02*
X39324000Y-20575000I0J150000D01*
G01*
X39324000Y-18925000D01*
G75*
G02*
X39474000Y-18775000I150000J0D01*
G01*
X39774000Y-18775000D01*
G75*
G02*
X39924000Y-18925000I0J-150000D01*
G01*
X39924000Y-20575000D01*
G75*
G02*
X39774000Y-20725000I-150000J0D01*
G01*
G37*
G36*
G01*
X39774000Y-25675000D02*
X39474000Y-25675000D01*
G75*
G02*
X39324000Y-25525000I0J150000D01*
G01*
X39324000Y-23875000D01*
G75*
G02*
X39474000Y-23725000I150000J0D01*
G01*
X39774000Y-23725000D01*
G75*
G02*
X39924000Y-23875000I0J-150000D01*
G01*
X39924000Y-25525000D01*
G75*
G02*
X39774000Y-25675000I-150000J0D01*
G01*
G37*
G36*
G01*
X38504000Y-25675000D02*
X38204000Y-25675000D01*
G75*
G02*
X38054000Y-25525000I0J150000D01*
G01*
X38054000Y-23875000D01*
G75*
G02*
X38204000Y-23725000I150000J0D01*
G01*
X38504000Y-23725000D01*
G75*
G02*
X38654000Y-23875000I0J-150000D01*
G01*
X38654000Y-25525000D01*
G75*
G02*
X38504000Y-25675000I-150000J0D01*
G01*
G37*
G36*
G01*
X37234000Y-25675000D02*
X36934000Y-25675000D01*
G75*
G02*
X36784000Y-25525000I0J150000D01*
G01*
X36784000Y-23875000D01*
G75*
G02*
X36934000Y-23725000I150000J0D01*
G01*
X37234000Y-23725000D01*
G75*
G02*
X37384000Y-23875000I0J-150000D01*
G01*
X37384000Y-25525000D01*
G75*
G02*
X37234000Y-25675000I-150000J0D01*
G01*
G37*
G36*
G01*
X35964000Y-25675000D02*
X35664000Y-25675000D01*
G75*
G02*
X35514000Y-25525000I0J150000D01*
G01*
X35514000Y-23875000D01*
G75*
G02*
X35664000Y-23725000I150000J0D01*
G01*
X35964000Y-23725000D01*
G75*
G02*
X36114000Y-23875000I0J-150000D01*
G01*
X36114000Y-25525000D01*
G75*
G02*
X35964000Y-25675000I-150000J0D01*
G01*
G37*
G36*
G01*
X34694000Y-25675000D02*
X34394000Y-25675000D01*
G75*
G02*
X34244000Y-25525000I0J150000D01*
G01*
X34244000Y-23875000D01*
G75*
G02*
X34394000Y-23725000I150000J0D01*
G01*
X34694000Y-23725000D01*
G75*
G02*
X34844000Y-23875000I0J-150000D01*
G01*
X34844000Y-25525000D01*
G75*
G02*
X34694000Y-25675000I-150000J0D01*
G01*
G37*
G36*
G01*
X33424000Y-25675000D02*
X33124000Y-25675000D01*
G75*
G02*
X32974000Y-25525000I0J150000D01*
G01*
X32974000Y-23875000D01*
G75*
G02*
X33124000Y-23725000I150000J0D01*
G01*
X33424000Y-23725000D01*
G75*
G02*
X33574000Y-23875000I0J-150000D01*
G01*
X33574000Y-25525000D01*
G75*
G02*
X33424000Y-25675000I-150000J0D01*
G01*
G37*
G36*
G01*
X32154000Y-25675000D02*
X31854000Y-25675000D01*
G75*
G02*
X31704000Y-25525000I0J150000D01*
G01*
X31704000Y-23875000D01*
G75*
G02*
X31854000Y-23725000I150000J0D01*
G01*
X32154000Y-23725000D01*
G75*
G02*
X32304000Y-23875000I0J-150000D01*
G01*
X32304000Y-25525000D01*
G75*
G02*
X32154000Y-25675000I-150000J0D01*
G01*
G37*
G36*
G01*
X30884000Y-25675000D02*
X30584000Y-25675000D01*
G75*
G02*
X30434000Y-25525000I0J150000D01*
G01*
X30434000Y-23875000D01*
G75*
G02*
X30584000Y-23725000I150000J0D01*
G01*
X30884000Y-23725000D01*
G75*
G02*
X31034000Y-23875000I0J-150000D01*
G01*
X31034000Y-25525000D01*
G75*
G02*
X30884000Y-25675000I-150000J0D01*
G01*
G37*
%TD*%
M02*
