%TF.GenerationSoftware,KiCad,Pcbnew,5.1.10*%
%TF.CreationDate,2021-07-18T17:37:54+12:00*%
%TF.ProjectId,USBCereal,55534243-6572-4656-916c-2e6b69636164,rev?*%
%TF.SameCoordinates,Original*%
%TF.FileFunction,Copper,L1,Top*%
%TF.FilePolarity,Positive*%
%FSLAX46Y46*%
G04 Gerber Fmt 4.6, Leading zero omitted, Abs format (unit mm)*
G04 Created by KiCad (PCBNEW 5.1.10) date 2021-07-18 17:37:54*
%MOMM*%
%LPD*%
G01*
G04 APERTURE LIST*
%TA.AperFunction,ComponentPad*%
%ADD10O,1.700000X1.700000*%
%TD*%
%TA.AperFunction,ComponentPad*%
%ADD11R,1.700000X1.700000*%
%TD*%
%TA.AperFunction,SMDPad,CuDef*%
%ADD12R,1.250000X2.500000*%
%TD*%
%TA.AperFunction,SMDPad,CuDef*%
%ADD13R,1.450000X0.600000*%
%TD*%
%TA.AperFunction,SMDPad,CuDef*%
%ADD14R,1.450000X0.300000*%
%TD*%
%TA.AperFunction,ComponentPad*%
%ADD15O,2.100000X1.000000*%
%TD*%
%TA.AperFunction,ComponentPad*%
%ADD16O,1.600000X1.000000*%
%TD*%
%TA.AperFunction,SMDPad,CuDef*%
%ADD17R,0.800000X0.900000*%
%TD*%
%TA.AperFunction,ViaPad*%
%ADD18C,0.800000*%
%TD*%
%TA.AperFunction,Conductor*%
%ADD19C,0.500000*%
%TD*%
%TA.AperFunction,Conductor*%
%ADD20C,0.250000*%
%TD*%
%TA.AperFunction,Conductor*%
%ADD21C,0.300000*%
%TD*%
%TA.AperFunction,Conductor*%
%ADD22C,0.254000*%
%TD*%
%TA.AperFunction,Conductor*%
%ADD23C,0.100000*%
%TD*%
G04 APERTURE END LIST*
D10*
%TO.P,J2,6*%
%TO.N,/DTR*%
X44196000Y-33401000D03*
%TO.P,J2,5*%
%TO.N,/RXD*%
X44196000Y-30861000D03*
%TO.P,J2,4*%
%TO.N,/TXD*%
X44196000Y-28321000D03*
%TO.P,J2,3*%
%TO.N,VCC*%
X44196000Y-25781000D03*
%TO.P,J2,2*%
%TO.N,/CTS*%
X44196000Y-23241000D03*
D11*
%TO.P,J2,1*%
%TO.N,GNDD*%
X44196000Y-20701000D03*
%TD*%
D12*
%TO.P,SW1,1*%
%TO.N,+3V3*%
X31830000Y-32048000D03*
%TO.P,SW1,2*%
%TO.N,VCC*%
X34330000Y-32048000D03*
%TO.P,SW1,3*%
%TO.N,+5V*%
X36830000Y-32048000D03*
%TD*%
D13*
%TO.P,J1,B1*%
%TO.N,GNDD*%
X27794000Y-30301000D03*
%TO.P,J1,A9*%
%TO.N,+5V*%
X27794000Y-29501000D03*
%TO.P,J1,B9*%
X27794000Y-24601000D03*
%TO.P,J1,B12*%
%TO.N,GNDD*%
X27794000Y-23801000D03*
%TO.P,J1,A1*%
X27794000Y-23801000D03*
%TO.P,J1,A4*%
%TO.N,+5V*%
X27794000Y-24601000D03*
%TO.P,J1,B4*%
X27794000Y-29501000D03*
%TO.P,J1,A12*%
%TO.N,GNDD*%
X27794000Y-30301000D03*
D14*
%TO.P,J1,B8*%
%TO.N,Net-(J1-PadB8)*%
X27794000Y-25301000D03*
%TO.P,J1,A5*%
%TO.N,/CC1*%
X27794000Y-25801000D03*
%TO.P,J1,B7*%
%TO.N,/USB_D-*%
X27794000Y-26301000D03*
%TO.P,J1,A7*%
X27794000Y-27301000D03*
%TO.P,J1,B6*%
%TO.N,/USB_D+*%
X27794000Y-27801000D03*
%TO.P,J1,A8*%
%TO.N,Net-(J1-PadA8)*%
X27794000Y-28301000D03*
%TO.P,J1,B5*%
%TO.N,/CC2*%
X27794000Y-28801000D03*
%TO.P,J1,A6*%
%TO.N,/USB_D+*%
X27794000Y-26801000D03*
D15*
%TO.P,J1,S1*%
%TO.N,Net-(J1-PadS1)*%
X26879000Y-31371000D03*
X26879000Y-22731000D03*
D16*
X22699000Y-22731000D03*
X22699000Y-31371000D03*
%TD*%
%TO.P,D1,2*%
%TO.N,Net-(D1-Pad2)*%
%TA.AperFunction,SMDPad,CuDef*%
G36*
G01*
X41164500Y-28304000D02*
X41639500Y-28304000D01*
G75*
G02*
X41877000Y-28541500I0J-237500D01*
G01*
X41877000Y-29116500D01*
G75*
G02*
X41639500Y-29354000I-237500J0D01*
G01*
X41164500Y-29354000D01*
G75*
G02*
X40927000Y-29116500I0J237500D01*
G01*
X40927000Y-28541500D01*
G75*
G02*
X41164500Y-28304000I237500J0D01*
G01*
G37*
%TD.AperFunction*%
%TO.P,D1,1*%
%TO.N,/TXD*%
%TA.AperFunction,SMDPad,CuDef*%
G36*
G01*
X41164500Y-26554000D02*
X41639500Y-26554000D01*
G75*
G02*
X41877000Y-26791500I0J-237500D01*
G01*
X41877000Y-27366500D01*
G75*
G02*
X41639500Y-27604000I-237500J0D01*
G01*
X41164500Y-27604000D01*
G75*
G02*
X40927000Y-27366500I0J237500D01*
G01*
X40927000Y-26791500D01*
G75*
G02*
X41164500Y-26554000I237500J0D01*
G01*
G37*
%TD.AperFunction*%
%TD*%
%TO.P,D2,2*%
%TO.N,Net-(D2-Pad2)*%
%TA.AperFunction,SMDPad,CuDef*%
G36*
G01*
X41164500Y-31769500D02*
X41639500Y-31769500D01*
G75*
G02*
X41877000Y-32007000I0J-237500D01*
G01*
X41877000Y-32582000D01*
G75*
G02*
X41639500Y-32819500I-237500J0D01*
G01*
X41164500Y-32819500D01*
G75*
G02*
X40927000Y-32582000I0J237500D01*
G01*
X40927000Y-32007000D01*
G75*
G02*
X41164500Y-31769500I237500J0D01*
G01*
G37*
%TD.AperFunction*%
%TO.P,D2,1*%
%TO.N,/RXD*%
%TA.AperFunction,SMDPad,CuDef*%
G36*
G01*
X41164500Y-30019500D02*
X41639500Y-30019500D01*
G75*
G02*
X41877000Y-30257000I0J-237500D01*
G01*
X41877000Y-30832000D01*
G75*
G02*
X41639500Y-31069500I-237500J0D01*
G01*
X41164500Y-31069500D01*
G75*
G02*
X40927000Y-30832000I0J237500D01*
G01*
X40927000Y-30257000D01*
G75*
G02*
X41164500Y-30019500I237500J0D01*
G01*
G37*
%TD.AperFunction*%
%TD*%
%TO.P,R4,2*%
%TO.N,Net-(D2-Pad2)*%
%TA.AperFunction,SMDPad,CuDef*%
G36*
G01*
X39386500Y-31817500D02*
X39861500Y-31817500D01*
G75*
G02*
X40099000Y-32055000I0J-237500D01*
G01*
X40099000Y-32555000D01*
G75*
G02*
X39861500Y-32792500I-237500J0D01*
G01*
X39386500Y-32792500D01*
G75*
G02*
X39149000Y-32555000I0J237500D01*
G01*
X39149000Y-32055000D01*
G75*
G02*
X39386500Y-31817500I237500J0D01*
G01*
G37*
%TD.AperFunction*%
%TO.P,R4,1*%
%TO.N,+3V3*%
%TA.AperFunction,SMDPad,CuDef*%
G36*
G01*
X39386500Y-29992500D02*
X39861500Y-29992500D01*
G75*
G02*
X40099000Y-30230000I0J-237500D01*
G01*
X40099000Y-30730000D01*
G75*
G02*
X39861500Y-30967500I-237500J0D01*
G01*
X39386500Y-30967500D01*
G75*
G02*
X39149000Y-30730000I0J237500D01*
G01*
X39149000Y-30230000D01*
G75*
G02*
X39386500Y-29992500I237500J0D01*
G01*
G37*
%TD.AperFunction*%
%TD*%
%TO.P,R3,2*%
%TO.N,Net-(D1-Pad2)*%
%TA.AperFunction,SMDPad,CuDef*%
G36*
G01*
X39386500Y-28341500D02*
X39861500Y-28341500D01*
G75*
G02*
X40099000Y-28579000I0J-237500D01*
G01*
X40099000Y-29079000D01*
G75*
G02*
X39861500Y-29316500I-237500J0D01*
G01*
X39386500Y-29316500D01*
G75*
G02*
X39149000Y-29079000I0J237500D01*
G01*
X39149000Y-28579000D01*
G75*
G02*
X39386500Y-28341500I237500J0D01*
G01*
G37*
%TD.AperFunction*%
%TO.P,R3,1*%
%TO.N,+3V3*%
%TA.AperFunction,SMDPad,CuDef*%
G36*
G01*
X39386500Y-26516500D02*
X39861500Y-26516500D01*
G75*
G02*
X40099000Y-26754000I0J-237500D01*
G01*
X40099000Y-27254000D01*
G75*
G02*
X39861500Y-27491500I-237500J0D01*
G01*
X39386500Y-27491500D01*
G75*
G02*
X39149000Y-27254000I0J237500D01*
G01*
X39149000Y-26754000D01*
G75*
G02*
X39386500Y-26516500I237500J0D01*
G01*
G37*
%TD.AperFunction*%
%TD*%
%TO.P,R2,2*%
%TO.N,GNDD*%
%TA.AperFunction,SMDPad,CuDef*%
G36*
G01*
X24721000Y-20590500D02*
X24721000Y-21065500D01*
G75*
G02*
X24483500Y-21303000I-237500J0D01*
G01*
X23983500Y-21303000D01*
G75*
G02*
X23746000Y-21065500I0J237500D01*
G01*
X23746000Y-20590500D01*
G75*
G02*
X23983500Y-20353000I237500J0D01*
G01*
X24483500Y-20353000D01*
G75*
G02*
X24721000Y-20590500I0J-237500D01*
G01*
G37*
%TD.AperFunction*%
%TO.P,R2,1*%
%TO.N,/CC1*%
%TA.AperFunction,SMDPad,CuDef*%
G36*
G01*
X26546000Y-20590500D02*
X26546000Y-21065500D01*
G75*
G02*
X26308500Y-21303000I-237500J0D01*
G01*
X25808500Y-21303000D01*
G75*
G02*
X25571000Y-21065500I0J237500D01*
G01*
X25571000Y-20590500D01*
G75*
G02*
X25808500Y-20353000I237500J0D01*
G01*
X26308500Y-20353000D01*
G75*
G02*
X26546000Y-20590500I0J-237500D01*
G01*
G37*
%TD.AperFunction*%
%TD*%
%TO.P,R1,2*%
%TO.N,GNDD*%
%TA.AperFunction,SMDPad,CuDef*%
G36*
G01*
X24721000Y-33061900D02*
X24721000Y-33536900D01*
G75*
G02*
X24483500Y-33774400I-237500J0D01*
G01*
X23983500Y-33774400D01*
G75*
G02*
X23746000Y-33536900I0J237500D01*
G01*
X23746000Y-33061900D01*
G75*
G02*
X23983500Y-32824400I237500J0D01*
G01*
X24483500Y-32824400D01*
G75*
G02*
X24721000Y-33061900I0J-237500D01*
G01*
G37*
%TD.AperFunction*%
%TO.P,R1,1*%
%TO.N,/CC2*%
%TA.AperFunction,SMDPad,CuDef*%
G36*
G01*
X26546000Y-33061900D02*
X26546000Y-33536900D01*
G75*
G02*
X26308500Y-33774400I-237500J0D01*
G01*
X25808500Y-33774400D01*
G75*
G02*
X25571000Y-33536900I0J237500D01*
G01*
X25571000Y-33061900D01*
G75*
G02*
X25808500Y-32824400I237500J0D01*
G01*
X26308500Y-32824400D01*
G75*
G02*
X26546000Y-33061900I0J-237500D01*
G01*
G37*
%TD.AperFunction*%
%TD*%
D17*
%TO.P,U1,3*%
%TO.N,+5V*%
X31750000Y-27956000D03*
%TO.P,U1,2*%
%TO.N,+3V3*%
X32700000Y-29956000D03*
%TO.P,U1,1*%
%TO.N,GNDD*%
X30800000Y-29956000D03*
%TD*%
%TO.P,C3,2*%
%TO.N,GNDD*%
%TA.AperFunction,SMDPad,CuDef*%
G36*
G01*
X34781500Y-28530500D02*
X34306500Y-28530500D01*
G75*
G02*
X34069000Y-28293000I0J237500D01*
G01*
X34069000Y-27693000D01*
G75*
G02*
X34306500Y-27455500I237500J0D01*
G01*
X34781500Y-27455500D01*
G75*
G02*
X35019000Y-27693000I0J-237500D01*
G01*
X35019000Y-28293000D01*
G75*
G02*
X34781500Y-28530500I-237500J0D01*
G01*
G37*
%TD.AperFunction*%
%TO.P,C3,1*%
%TO.N,+3V3*%
%TA.AperFunction,SMDPad,CuDef*%
G36*
G01*
X34781500Y-30255500D02*
X34306500Y-30255500D01*
G75*
G02*
X34069000Y-30018000I0J237500D01*
G01*
X34069000Y-29418000D01*
G75*
G02*
X34306500Y-29180500I237500J0D01*
G01*
X34781500Y-29180500D01*
G75*
G02*
X35019000Y-29418000I0J-237500D01*
G01*
X35019000Y-30018000D01*
G75*
G02*
X34781500Y-30255500I-237500J0D01*
G01*
G37*
%TD.AperFunction*%
%TD*%
%TO.P,C2,2*%
%TO.N,GNDD*%
%TA.AperFunction,SMDPad,CuDef*%
G36*
G01*
X24821000Y-34814500D02*
X24821000Y-35289500D01*
G75*
G02*
X24583500Y-35527000I-237500J0D01*
G01*
X23983500Y-35527000D01*
G75*
G02*
X23746000Y-35289500I0J237500D01*
G01*
X23746000Y-34814500D01*
G75*
G02*
X23983500Y-34577000I237500J0D01*
G01*
X24583500Y-34577000D01*
G75*
G02*
X24821000Y-34814500I0J-237500D01*
G01*
G37*
%TD.AperFunction*%
%TO.P,C2,1*%
%TO.N,+5V*%
%TA.AperFunction,SMDPad,CuDef*%
G36*
G01*
X26546000Y-34814500D02*
X26546000Y-35289500D01*
G75*
G02*
X26308500Y-35527000I-237500J0D01*
G01*
X25708500Y-35527000D01*
G75*
G02*
X25471000Y-35289500I0J237500D01*
G01*
X25471000Y-34814500D01*
G75*
G02*
X25708500Y-34577000I237500J0D01*
G01*
X26308500Y-34577000D01*
G75*
G02*
X26546000Y-34814500I0J-237500D01*
G01*
G37*
%TD.AperFunction*%
%TD*%
%TO.P,C1,2*%
%TO.N,GNDD*%
%TA.AperFunction,SMDPad,CuDef*%
G36*
G01*
X24821000Y-18812500D02*
X24821000Y-19287500D01*
G75*
G02*
X24583500Y-19525000I-237500J0D01*
G01*
X23983500Y-19525000D01*
G75*
G02*
X23746000Y-19287500I0J237500D01*
G01*
X23746000Y-18812500D01*
G75*
G02*
X23983500Y-18575000I237500J0D01*
G01*
X24583500Y-18575000D01*
G75*
G02*
X24821000Y-18812500I0J-237500D01*
G01*
G37*
%TD.AperFunction*%
%TO.P,C1,1*%
%TO.N,+5V*%
%TA.AperFunction,SMDPad,CuDef*%
G36*
G01*
X26546000Y-18812500D02*
X26546000Y-19287500D01*
G75*
G02*
X26308500Y-19525000I-237500J0D01*
G01*
X25708500Y-19525000D01*
G75*
G02*
X25471000Y-19287500I0J237500D01*
G01*
X25471000Y-18812500D01*
G75*
G02*
X25708500Y-18575000I237500J0D01*
G01*
X26308500Y-18575000D01*
G75*
G02*
X26546000Y-18812500I0J-237500D01*
G01*
G37*
%TD.AperFunction*%
%TD*%
%TO.P,U2,16*%
%TO.N,VCC*%
%TA.AperFunction,SMDPad,CuDef*%
G36*
G01*
X30884000Y-20725000D02*
X30584000Y-20725000D01*
G75*
G02*
X30434000Y-20575000I0J150000D01*
G01*
X30434000Y-18925000D01*
G75*
G02*
X30584000Y-18775000I150000J0D01*
G01*
X30884000Y-18775000D01*
G75*
G02*
X31034000Y-18925000I0J-150000D01*
G01*
X31034000Y-20575000D01*
G75*
G02*
X30884000Y-20725000I-150000J0D01*
G01*
G37*
%TD.AperFunction*%
%TO.P,U2,15*%
%TO.N,Net-(U2-Pad15)*%
%TA.AperFunction,SMDPad,CuDef*%
G36*
G01*
X32154000Y-20725000D02*
X31854000Y-20725000D01*
G75*
G02*
X31704000Y-20575000I0J150000D01*
G01*
X31704000Y-18925000D01*
G75*
G02*
X31854000Y-18775000I150000J0D01*
G01*
X32154000Y-18775000D01*
G75*
G02*
X32304000Y-18925000I0J-150000D01*
G01*
X32304000Y-20575000D01*
G75*
G02*
X32154000Y-20725000I-150000J0D01*
G01*
G37*
%TD.AperFunction*%
%TO.P,U2,14*%
%TO.N,Net-(U2-Pad14)*%
%TA.AperFunction,SMDPad,CuDef*%
G36*
G01*
X33424000Y-20725000D02*
X33124000Y-20725000D01*
G75*
G02*
X32974000Y-20575000I0J150000D01*
G01*
X32974000Y-18925000D01*
G75*
G02*
X33124000Y-18775000I150000J0D01*
G01*
X33424000Y-18775000D01*
G75*
G02*
X33574000Y-18925000I0J-150000D01*
G01*
X33574000Y-20575000D01*
G75*
G02*
X33424000Y-20725000I-150000J0D01*
G01*
G37*
%TD.AperFunction*%
%TO.P,U2,13*%
%TO.N,/DTR*%
%TA.AperFunction,SMDPad,CuDef*%
G36*
G01*
X34694000Y-20725000D02*
X34394000Y-20725000D01*
G75*
G02*
X34244000Y-20575000I0J150000D01*
G01*
X34244000Y-18925000D01*
G75*
G02*
X34394000Y-18775000I150000J0D01*
G01*
X34694000Y-18775000D01*
G75*
G02*
X34844000Y-18925000I0J-150000D01*
G01*
X34844000Y-20575000D01*
G75*
G02*
X34694000Y-20725000I-150000J0D01*
G01*
G37*
%TD.AperFunction*%
%TO.P,U2,12*%
%TO.N,Net-(U2-Pad12)*%
%TA.AperFunction,SMDPad,CuDef*%
G36*
G01*
X35964000Y-20725000D02*
X35664000Y-20725000D01*
G75*
G02*
X35514000Y-20575000I0J150000D01*
G01*
X35514000Y-18925000D01*
G75*
G02*
X35664000Y-18775000I150000J0D01*
G01*
X35964000Y-18775000D01*
G75*
G02*
X36114000Y-18925000I0J-150000D01*
G01*
X36114000Y-20575000D01*
G75*
G02*
X35964000Y-20725000I-150000J0D01*
G01*
G37*
%TD.AperFunction*%
%TO.P,U2,11*%
%TO.N,Net-(U2-Pad11)*%
%TA.AperFunction,SMDPad,CuDef*%
G36*
G01*
X37234000Y-20725000D02*
X36934000Y-20725000D01*
G75*
G02*
X36784000Y-20575000I0J150000D01*
G01*
X36784000Y-18925000D01*
G75*
G02*
X36934000Y-18775000I150000J0D01*
G01*
X37234000Y-18775000D01*
G75*
G02*
X37384000Y-18925000I0J-150000D01*
G01*
X37384000Y-20575000D01*
G75*
G02*
X37234000Y-20725000I-150000J0D01*
G01*
G37*
%TD.AperFunction*%
%TO.P,U2,10*%
%TO.N,Net-(U2-Pad10)*%
%TA.AperFunction,SMDPad,CuDef*%
G36*
G01*
X38504000Y-20725000D02*
X38204000Y-20725000D01*
G75*
G02*
X38054000Y-20575000I0J150000D01*
G01*
X38054000Y-18925000D01*
G75*
G02*
X38204000Y-18775000I150000J0D01*
G01*
X38504000Y-18775000D01*
G75*
G02*
X38654000Y-18925000I0J-150000D01*
G01*
X38654000Y-20575000D01*
G75*
G02*
X38504000Y-20725000I-150000J0D01*
G01*
G37*
%TD.AperFunction*%
%TO.P,U2,9*%
%TO.N,/CTS*%
%TA.AperFunction,SMDPad,CuDef*%
G36*
G01*
X39774000Y-20725000D02*
X39474000Y-20725000D01*
G75*
G02*
X39324000Y-20575000I0J150000D01*
G01*
X39324000Y-18925000D01*
G75*
G02*
X39474000Y-18775000I150000J0D01*
G01*
X39774000Y-18775000D01*
G75*
G02*
X39924000Y-18925000I0J-150000D01*
G01*
X39924000Y-20575000D01*
G75*
G02*
X39774000Y-20725000I-150000J0D01*
G01*
G37*
%TD.AperFunction*%
%TO.P,U2,8*%
%TO.N,Net-(U2-Pad8)*%
%TA.AperFunction,SMDPad,CuDef*%
G36*
G01*
X39774000Y-25675000D02*
X39474000Y-25675000D01*
G75*
G02*
X39324000Y-25525000I0J150000D01*
G01*
X39324000Y-23875000D01*
G75*
G02*
X39474000Y-23725000I150000J0D01*
G01*
X39774000Y-23725000D01*
G75*
G02*
X39924000Y-23875000I0J-150000D01*
G01*
X39924000Y-25525000D01*
G75*
G02*
X39774000Y-25675000I-150000J0D01*
G01*
G37*
%TD.AperFunction*%
%TO.P,U2,7*%
%TO.N,Net-(U2-Pad7)*%
%TA.AperFunction,SMDPad,CuDef*%
G36*
G01*
X38504000Y-25675000D02*
X38204000Y-25675000D01*
G75*
G02*
X38054000Y-25525000I0J150000D01*
G01*
X38054000Y-23875000D01*
G75*
G02*
X38204000Y-23725000I150000J0D01*
G01*
X38504000Y-23725000D01*
G75*
G02*
X38654000Y-23875000I0J-150000D01*
G01*
X38654000Y-25525000D01*
G75*
G02*
X38504000Y-25675000I-150000J0D01*
G01*
G37*
%TD.AperFunction*%
%TO.P,U2,6*%
%TO.N,/USB_D-*%
%TA.AperFunction,SMDPad,CuDef*%
G36*
G01*
X37234000Y-25675000D02*
X36934000Y-25675000D01*
G75*
G02*
X36784000Y-25525000I0J150000D01*
G01*
X36784000Y-23875000D01*
G75*
G02*
X36934000Y-23725000I150000J0D01*
G01*
X37234000Y-23725000D01*
G75*
G02*
X37384000Y-23875000I0J-150000D01*
G01*
X37384000Y-25525000D01*
G75*
G02*
X37234000Y-25675000I-150000J0D01*
G01*
G37*
%TD.AperFunction*%
%TO.P,U2,5*%
%TO.N,/USB_D+*%
%TA.AperFunction,SMDPad,CuDef*%
G36*
G01*
X35964000Y-25675000D02*
X35664000Y-25675000D01*
G75*
G02*
X35514000Y-25525000I0J150000D01*
G01*
X35514000Y-23875000D01*
G75*
G02*
X35664000Y-23725000I150000J0D01*
G01*
X35964000Y-23725000D01*
G75*
G02*
X36114000Y-23875000I0J-150000D01*
G01*
X36114000Y-25525000D01*
G75*
G02*
X35964000Y-25675000I-150000J0D01*
G01*
G37*
%TD.AperFunction*%
%TO.P,U2,4*%
%TO.N,+3V3*%
%TA.AperFunction,SMDPad,CuDef*%
G36*
G01*
X34694000Y-25675000D02*
X34394000Y-25675000D01*
G75*
G02*
X34244000Y-25525000I0J150000D01*
G01*
X34244000Y-23875000D01*
G75*
G02*
X34394000Y-23725000I150000J0D01*
G01*
X34694000Y-23725000D01*
G75*
G02*
X34844000Y-23875000I0J-150000D01*
G01*
X34844000Y-25525000D01*
G75*
G02*
X34694000Y-25675000I-150000J0D01*
G01*
G37*
%TD.AperFunction*%
%TO.P,U2,3*%
%TO.N,/RXD*%
%TA.AperFunction,SMDPad,CuDef*%
G36*
G01*
X33424000Y-25675000D02*
X33124000Y-25675000D01*
G75*
G02*
X32974000Y-25525000I0J150000D01*
G01*
X32974000Y-23875000D01*
G75*
G02*
X33124000Y-23725000I150000J0D01*
G01*
X33424000Y-23725000D01*
G75*
G02*
X33574000Y-23875000I0J-150000D01*
G01*
X33574000Y-25525000D01*
G75*
G02*
X33424000Y-25675000I-150000J0D01*
G01*
G37*
%TD.AperFunction*%
%TO.P,U2,2*%
%TO.N,/TXD*%
%TA.AperFunction,SMDPad,CuDef*%
G36*
G01*
X32154000Y-25675000D02*
X31854000Y-25675000D01*
G75*
G02*
X31704000Y-25525000I0J150000D01*
G01*
X31704000Y-23875000D01*
G75*
G02*
X31854000Y-23725000I150000J0D01*
G01*
X32154000Y-23725000D01*
G75*
G02*
X32304000Y-23875000I0J-150000D01*
G01*
X32304000Y-25525000D01*
G75*
G02*
X32154000Y-25675000I-150000J0D01*
G01*
G37*
%TD.AperFunction*%
%TO.P,U2,1*%
%TO.N,GNDD*%
%TA.AperFunction,SMDPad,CuDef*%
G36*
G01*
X30884000Y-25675000D02*
X30584000Y-25675000D01*
G75*
G02*
X30434000Y-25525000I0J150000D01*
G01*
X30434000Y-23875000D01*
G75*
G02*
X30584000Y-23725000I150000J0D01*
G01*
X30884000Y-23725000D01*
G75*
G02*
X31034000Y-23875000I0J-150000D01*
G01*
X31034000Y-25525000D01*
G75*
G02*
X30884000Y-25675000I-150000J0D01*
G01*
G37*
%TD.AperFunction*%
%TD*%
D18*
%TO.N,+5V*%
X29464000Y-25654000D03*
X29464000Y-28448016D03*
%TO.N,GNDD*%
X28448000Y-32004000D03*
X27686000Y-21336000D03*
X22860000Y-24130000D03*
X22860000Y-25908000D03*
X22860000Y-27686000D03*
X22860000Y-29464000D03*
X30480000Y-31496000D03*
X36830000Y-27940000D03*
%TO.N,/USB_D+*%
X32690611Y-27115999D03*
X35814000Y-27081565D03*
%TO.N,/USB_D-*%
X33468565Y-26356565D03*
X37084000Y-26162000D03*
%TO.N,VCC*%
X33055018Y-32004000D03*
X31309018Y-22538990D03*
%TO.N,/DTR*%
X34544000Y-21475000D03*
%TO.N,/RXD*%
X40513000Y-29654500D03*
X33330872Y-23989002D03*
%TD*%
D19*
%TO.N,+5V*%
X29464000Y-25046000D02*
X29464000Y-25654000D01*
X27794000Y-24601000D02*
X29019000Y-24601000D01*
X29019000Y-24601000D02*
X29464000Y-25046000D01*
X27686000Y-19050000D02*
X26008500Y-19050000D01*
X27051000Y-35052000D02*
X29464000Y-32639000D01*
X26008500Y-35052000D02*
X27051000Y-35052000D01*
X29464000Y-20828000D02*
X27686000Y-19050000D01*
X29464000Y-25654000D02*
X29464000Y-20828000D01*
X29464000Y-32639000D02*
X29464000Y-33020000D01*
X29464000Y-33020000D02*
X30226000Y-33782000D01*
X30226000Y-33782000D02*
X36322000Y-33782000D01*
X36830000Y-33274000D02*
X36322000Y-33782000D01*
X36830000Y-32048000D02*
X36830000Y-33274000D01*
X29464000Y-28955990D02*
X29464000Y-28448016D01*
X29464000Y-32639000D02*
X29464000Y-28955990D01*
X27794000Y-29501000D02*
X29019000Y-29501000D01*
X31750000Y-27956000D02*
X29956016Y-27956000D01*
X29019000Y-29501000D02*
X29464000Y-29056000D01*
X29956016Y-27956000D02*
X29464000Y-28448016D01*
X29464000Y-29056000D02*
X29464000Y-28448016D01*
D20*
%TO.N,GNDD*%
X28702000Y-31750000D02*
X28448000Y-32004000D01*
D19*
X28448000Y-30955000D02*
X28448000Y-32004000D01*
X27794000Y-30301000D02*
X28448000Y-30955000D01*
D21*
%TO.N,+3V3*%
X34549847Y-24705847D02*
X34544000Y-24700000D01*
D19*
X34306000Y-29956000D02*
X34544000Y-29718000D01*
X32700000Y-29956000D02*
X34306000Y-29956000D01*
X36910000Y-29718000D02*
X39624000Y-27004000D01*
X34544000Y-29718000D02*
X36910000Y-29718000D01*
X38862000Y-29718000D02*
X39624000Y-30480000D01*
X36910000Y-29718000D02*
X38862000Y-29718000D01*
X31830000Y-30826000D02*
X32700000Y-29956000D01*
X31830000Y-32048000D02*
X31830000Y-30826000D01*
X34544000Y-26483212D02*
X34544000Y-24700000D01*
X32700000Y-28327212D02*
X34544000Y-26483212D01*
X32700000Y-29956000D02*
X32700000Y-28327212D01*
D20*
%TO.N,/USB_D+*%
X27790000Y-26797000D02*
X27794000Y-26801000D01*
X26833998Y-27801000D02*
X27794000Y-27801000D01*
X26743999Y-27711001D02*
X26833998Y-27801000D01*
X26743999Y-26876001D02*
X26743999Y-27711001D01*
X26819000Y-26801000D02*
X26743999Y-26876001D01*
X27794000Y-26801000D02*
X26819000Y-26801000D01*
X35814000Y-25908000D02*
X35814000Y-24700000D01*
X35814000Y-27081565D02*
X35814000Y-24700000D01*
X29722997Y-27115999D02*
X32690611Y-27115999D01*
X29037996Y-27801000D02*
X29722997Y-27115999D01*
X27794000Y-27801000D02*
X29037996Y-27801000D01*
%TO.N,/USB_D-*%
X27794000Y-26301000D02*
X27698000Y-26301000D01*
X27790000Y-27305000D02*
X27794000Y-27301000D01*
X27794000Y-27324000D02*
X27792001Y-27325999D01*
X27794000Y-27301000D02*
X27794000Y-27324000D01*
X28754002Y-26301000D02*
X28844001Y-26390999D01*
X27794000Y-26301000D02*
X28754002Y-26301000D01*
X28844001Y-26390999D02*
X28844001Y-26558001D01*
X28854400Y-26568400D02*
X28844001Y-26558001D01*
X28844001Y-27104584D02*
X28647586Y-27301000D01*
X28844001Y-26558001D02*
X28844001Y-27104584D01*
X28647586Y-27301000D02*
X27794000Y-27301000D01*
X28869002Y-26416000D02*
X28844001Y-26390999D01*
X28844001Y-26390999D02*
X33248999Y-26390999D01*
X33283433Y-26356565D02*
X33468565Y-26356565D01*
X33248999Y-26390999D02*
X33283433Y-26356565D01*
X37084000Y-26162000D02*
X37084000Y-24700000D01*
D19*
%TO.N,VCC*%
X34286000Y-32004000D02*
X34330000Y-32048000D01*
X33055018Y-32004000D02*
X34286000Y-32004000D01*
X40953990Y-22538990D02*
X31309018Y-22538990D01*
X44196000Y-25781000D02*
X40953990Y-22538990D01*
X30734000Y-21963972D02*
X31309018Y-22538990D01*
X30734000Y-19750000D02*
X30734000Y-21963972D01*
D20*
%TO.N,/DTR*%
X34544000Y-21475000D02*
X34544000Y-19750000D01*
%TO.N,/CTS*%
X44196000Y-23241000D02*
X42545000Y-23241000D01*
X39624000Y-20320000D02*
X39624000Y-19750000D01*
X42545000Y-23241000D02*
X39624000Y-20320000D01*
%TO.N,/RXD*%
X41402000Y-30544500D02*
X41339500Y-30544500D01*
X41402000Y-30543500D02*
X40513000Y-29654500D01*
X41402000Y-30544500D02*
X41402000Y-30543500D01*
X41718500Y-30861000D02*
X41402000Y-30544500D01*
X44196000Y-30861000D02*
X41718500Y-30861000D01*
%TO.N,/TXD*%
X42644000Y-28321000D02*
X41402000Y-27079000D01*
X44196000Y-28321000D02*
X42644000Y-28321000D01*
X41402000Y-24831232D02*
X39834760Y-23263992D01*
X41402000Y-27079000D02*
X41402000Y-24831232D01*
X32465008Y-23263992D02*
X32004000Y-23725000D01*
X32004000Y-23725000D02*
X32004000Y-24700000D01*
X39834760Y-23263992D02*
X32465008Y-23263992D01*
%TO.N,Net-(D1-Pad2)*%
X39624000Y-28829000D02*
X41402000Y-28829000D01*
%TO.N,Net-(D2-Pad2)*%
X41391500Y-32305000D02*
X41402000Y-32294500D01*
X39624000Y-32305000D02*
X41391500Y-32305000D01*
%TO.N,/CC2*%
X25503990Y-32744890D02*
X26058500Y-33299400D01*
X26526998Y-28801000D02*
X25503990Y-29824008D01*
X25503990Y-29824008D02*
X25503990Y-32744890D01*
X27794000Y-28801000D02*
X26526998Y-28801000D01*
%TO.N,/CC1*%
X27793000Y-25801000D02*
X27768001Y-25825999D01*
X27794000Y-25801000D02*
X27793000Y-25801000D01*
X25503990Y-24487990D02*
X26841999Y-25825999D01*
X25503990Y-21382510D02*
X25503990Y-24487990D01*
X26058500Y-20828000D02*
X25503990Y-21382510D01*
X27031000Y-25801000D02*
X27794000Y-25801000D01*
X27006001Y-25825999D02*
X27031000Y-25801000D01*
X26841999Y-25825999D02*
X27006001Y-25825999D01*
%TD*%
D22*
%TO.N,GNDD*%
X45014723Y-17480717D02*
X45313615Y-17570957D01*
X45589288Y-17717535D01*
X45831238Y-17914864D01*
X46030251Y-18155430D01*
X46178750Y-18430071D01*
X46271075Y-18728325D01*
X46304589Y-19047188D01*
X46304600Y-19050326D01*
X46304600Y-26594300D01*
X46204690Y-26444773D01*
X46072227Y-26312310D01*
X45916467Y-26208235D01*
X45743396Y-26136547D01*
X45559665Y-26100000D01*
X45372335Y-26100000D01*
X45330969Y-26108228D01*
X45373000Y-25896924D01*
X45373000Y-25665076D01*
X45327769Y-25437682D01*
X45239044Y-25223481D01*
X45110236Y-25030706D01*
X44946294Y-24866764D01*
X44753519Y-24737956D01*
X44539318Y-24649231D01*
X44311924Y-24604000D01*
X44080076Y-24604000D01*
X43875661Y-24644660D01*
X42924001Y-23693000D01*
X43109249Y-23693000D01*
X43152956Y-23798519D01*
X43281764Y-23991294D01*
X43445706Y-24155236D01*
X43638481Y-24284044D01*
X43852682Y-24372769D01*
X44080076Y-24418000D01*
X44311924Y-24418000D01*
X44539318Y-24372769D01*
X44753519Y-24284044D01*
X44946294Y-24155236D01*
X45110236Y-23991294D01*
X45239044Y-23798519D01*
X45327769Y-23584318D01*
X45373000Y-23356924D01*
X45373000Y-23125076D01*
X45327769Y-22897682D01*
X45239044Y-22683481D01*
X45110236Y-22490706D01*
X44946294Y-22326764D01*
X44753519Y-22197956D01*
X44539318Y-22109231D01*
X44311924Y-22064000D01*
X44080076Y-22064000D01*
X43852682Y-22109231D01*
X43638481Y-22197956D01*
X43445706Y-22326764D01*
X43281764Y-22490706D01*
X43152956Y-22683481D01*
X43109249Y-22789000D01*
X42732224Y-22789000D01*
X41494224Y-21551000D01*
X42916934Y-21551000D01*
X42925178Y-21634707D01*
X42949595Y-21715196D01*
X42989245Y-21789376D01*
X43042605Y-21854395D01*
X43107624Y-21907755D01*
X43181804Y-21947405D01*
X43262293Y-21971822D01*
X43346000Y-21980066D01*
X44066250Y-21978000D01*
X44173000Y-21871250D01*
X44173000Y-20724000D01*
X44219000Y-20724000D01*
X44219000Y-21871250D01*
X44325750Y-21978000D01*
X45046000Y-21980066D01*
X45129707Y-21971822D01*
X45210196Y-21947405D01*
X45284376Y-21907755D01*
X45349395Y-21854395D01*
X45402755Y-21789376D01*
X45442405Y-21715196D01*
X45466822Y-21634707D01*
X45475066Y-21551000D01*
X45473000Y-20830750D01*
X45366250Y-20724000D01*
X44219000Y-20724000D01*
X44173000Y-20724000D01*
X43025750Y-20724000D01*
X42919000Y-20830750D01*
X42916934Y-21551000D01*
X41494224Y-21551000D01*
X40252582Y-20309359D01*
X40252582Y-19851000D01*
X42916934Y-19851000D01*
X42919000Y-20571250D01*
X43025750Y-20678000D01*
X44173000Y-20678000D01*
X44173000Y-19530750D01*
X44219000Y-19530750D01*
X44219000Y-20678000D01*
X45366250Y-20678000D01*
X45473000Y-20571250D01*
X45475066Y-19851000D01*
X45466822Y-19767293D01*
X45442405Y-19686804D01*
X45402755Y-19612624D01*
X45349395Y-19547605D01*
X45284376Y-19494245D01*
X45210196Y-19454595D01*
X45129707Y-19430178D01*
X45046000Y-19421934D01*
X44325750Y-19424000D01*
X44219000Y-19530750D01*
X44173000Y-19530750D01*
X44066250Y-19424000D01*
X43346000Y-19421934D01*
X43262293Y-19430178D01*
X43181804Y-19454595D01*
X43107624Y-19494245D01*
X43042605Y-19547605D01*
X42989245Y-19612624D01*
X42949595Y-19686804D01*
X42925178Y-19767293D01*
X42916934Y-19851000D01*
X40252582Y-19851000D01*
X40252582Y-18925000D01*
X40243386Y-18831633D01*
X40216152Y-18741855D01*
X40171926Y-18659114D01*
X40112409Y-18586591D01*
X40039886Y-18527074D01*
X39957145Y-18482848D01*
X39867367Y-18455614D01*
X39774000Y-18446418D01*
X39474000Y-18446418D01*
X39380633Y-18455614D01*
X39290855Y-18482848D01*
X39208114Y-18527074D01*
X39135591Y-18586591D01*
X39076074Y-18659114D01*
X39031848Y-18741855D01*
X39004614Y-18831633D01*
X38995418Y-18925000D01*
X38995418Y-20575000D01*
X39004614Y-20668367D01*
X39031848Y-20758145D01*
X39076074Y-20840886D01*
X39135591Y-20913409D01*
X39208114Y-20972926D01*
X39290855Y-21017152D01*
X39380633Y-21044386D01*
X39474000Y-21053582D01*
X39718359Y-21053582D01*
X40626767Y-21961990D01*
X35085144Y-21961990D01*
X35108698Y-21938436D01*
X35188259Y-21819364D01*
X35243062Y-21687058D01*
X35271000Y-21546603D01*
X35271000Y-21403397D01*
X35243062Y-21262942D01*
X35188259Y-21130636D01*
X35108698Y-21011564D01*
X35020399Y-20923265D01*
X35032409Y-20913409D01*
X35091926Y-20840886D01*
X35136152Y-20758145D01*
X35163386Y-20668367D01*
X35172582Y-20575000D01*
X35172582Y-18925000D01*
X35185418Y-18925000D01*
X35185418Y-20575000D01*
X35194614Y-20668367D01*
X35221848Y-20758145D01*
X35266074Y-20840886D01*
X35325591Y-20913409D01*
X35398114Y-20972926D01*
X35480855Y-21017152D01*
X35570633Y-21044386D01*
X35664000Y-21053582D01*
X35964000Y-21053582D01*
X36057367Y-21044386D01*
X36147145Y-21017152D01*
X36229886Y-20972926D01*
X36302409Y-20913409D01*
X36361926Y-20840886D01*
X36406152Y-20758145D01*
X36433386Y-20668367D01*
X36442582Y-20575000D01*
X36442582Y-18925000D01*
X36455418Y-18925000D01*
X36455418Y-20575000D01*
X36464614Y-20668367D01*
X36491848Y-20758145D01*
X36536074Y-20840886D01*
X36595591Y-20913409D01*
X36668114Y-20972926D01*
X36750855Y-21017152D01*
X36840633Y-21044386D01*
X36934000Y-21053582D01*
X37234000Y-21053582D01*
X37327367Y-21044386D01*
X37417145Y-21017152D01*
X37499886Y-20972926D01*
X37572409Y-20913409D01*
X37631926Y-20840886D01*
X37676152Y-20758145D01*
X37703386Y-20668367D01*
X37712582Y-20575000D01*
X37712582Y-18925000D01*
X37725418Y-18925000D01*
X37725418Y-20575000D01*
X37734614Y-20668367D01*
X37761848Y-20758145D01*
X37806074Y-20840886D01*
X37865591Y-20913409D01*
X37938114Y-20972926D01*
X38020855Y-21017152D01*
X38110633Y-21044386D01*
X38204000Y-21053582D01*
X38504000Y-21053582D01*
X38597367Y-21044386D01*
X38687145Y-21017152D01*
X38769886Y-20972926D01*
X38842409Y-20913409D01*
X38901926Y-20840886D01*
X38946152Y-20758145D01*
X38973386Y-20668367D01*
X38982582Y-20575000D01*
X38982582Y-18925000D01*
X38973386Y-18831633D01*
X38946152Y-18741855D01*
X38901926Y-18659114D01*
X38842409Y-18586591D01*
X38769886Y-18527074D01*
X38687145Y-18482848D01*
X38597367Y-18455614D01*
X38504000Y-18446418D01*
X38204000Y-18446418D01*
X38110633Y-18455614D01*
X38020855Y-18482848D01*
X37938114Y-18527074D01*
X37865591Y-18586591D01*
X37806074Y-18659114D01*
X37761848Y-18741855D01*
X37734614Y-18831633D01*
X37725418Y-18925000D01*
X37712582Y-18925000D01*
X37703386Y-18831633D01*
X37676152Y-18741855D01*
X37631926Y-18659114D01*
X37572409Y-18586591D01*
X37499886Y-18527074D01*
X37417145Y-18482848D01*
X37327367Y-18455614D01*
X37234000Y-18446418D01*
X36934000Y-18446418D01*
X36840633Y-18455614D01*
X36750855Y-18482848D01*
X36668114Y-18527074D01*
X36595591Y-18586591D01*
X36536074Y-18659114D01*
X36491848Y-18741855D01*
X36464614Y-18831633D01*
X36455418Y-18925000D01*
X36442582Y-18925000D01*
X36433386Y-18831633D01*
X36406152Y-18741855D01*
X36361926Y-18659114D01*
X36302409Y-18586591D01*
X36229886Y-18527074D01*
X36147145Y-18482848D01*
X36057367Y-18455614D01*
X35964000Y-18446418D01*
X35664000Y-18446418D01*
X35570633Y-18455614D01*
X35480855Y-18482848D01*
X35398114Y-18527074D01*
X35325591Y-18586591D01*
X35266074Y-18659114D01*
X35221848Y-18741855D01*
X35194614Y-18831633D01*
X35185418Y-18925000D01*
X35172582Y-18925000D01*
X35163386Y-18831633D01*
X35136152Y-18741855D01*
X35091926Y-18659114D01*
X35032409Y-18586591D01*
X34959886Y-18527074D01*
X34877145Y-18482848D01*
X34787367Y-18455614D01*
X34694000Y-18446418D01*
X34394000Y-18446418D01*
X34300633Y-18455614D01*
X34210855Y-18482848D01*
X34128114Y-18527074D01*
X34055591Y-18586591D01*
X33996074Y-18659114D01*
X33951848Y-18741855D01*
X33924614Y-18831633D01*
X33915418Y-18925000D01*
X33915418Y-20575000D01*
X33924614Y-20668367D01*
X33951848Y-20758145D01*
X33996074Y-20840886D01*
X34055591Y-20913409D01*
X34067601Y-20923265D01*
X33979302Y-21011564D01*
X33899741Y-21130636D01*
X33844938Y-21262942D01*
X33817000Y-21403397D01*
X33817000Y-21546603D01*
X33844938Y-21687058D01*
X33899741Y-21819364D01*
X33979302Y-21938436D01*
X34002856Y-21961990D01*
X31754043Y-21961990D01*
X31653382Y-21894731D01*
X31521076Y-21839928D01*
X31402339Y-21816310D01*
X31311000Y-21724971D01*
X31311000Y-20786492D01*
X31326152Y-20758145D01*
X31353386Y-20668367D01*
X31362582Y-20575000D01*
X31362582Y-18925000D01*
X31375418Y-18925000D01*
X31375418Y-20575000D01*
X31384614Y-20668367D01*
X31411848Y-20758145D01*
X31456074Y-20840886D01*
X31515591Y-20913409D01*
X31588114Y-20972926D01*
X31670855Y-21017152D01*
X31760633Y-21044386D01*
X31854000Y-21053582D01*
X32154000Y-21053582D01*
X32247367Y-21044386D01*
X32337145Y-21017152D01*
X32419886Y-20972926D01*
X32492409Y-20913409D01*
X32551926Y-20840886D01*
X32596152Y-20758145D01*
X32623386Y-20668367D01*
X32632582Y-20575000D01*
X32632582Y-18925000D01*
X32645418Y-18925000D01*
X32645418Y-20575000D01*
X32654614Y-20668367D01*
X32681848Y-20758145D01*
X32726074Y-20840886D01*
X32785591Y-20913409D01*
X32858114Y-20972926D01*
X32940855Y-21017152D01*
X33030633Y-21044386D01*
X33124000Y-21053582D01*
X33424000Y-21053582D01*
X33517367Y-21044386D01*
X33607145Y-21017152D01*
X33689886Y-20972926D01*
X33762409Y-20913409D01*
X33821926Y-20840886D01*
X33866152Y-20758145D01*
X33893386Y-20668367D01*
X33902582Y-20575000D01*
X33902582Y-18925000D01*
X33893386Y-18831633D01*
X33866152Y-18741855D01*
X33821926Y-18659114D01*
X33762409Y-18586591D01*
X33689886Y-18527074D01*
X33607145Y-18482848D01*
X33517367Y-18455614D01*
X33424000Y-18446418D01*
X33124000Y-18446418D01*
X33030633Y-18455614D01*
X32940855Y-18482848D01*
X32858114Y-18527074D01*
X32785591Y-18586591D01*
X32726074Y-18659114D01*
X32681848Y-18741855D01*
X32654614Y-18831633D01*
X32645418Y-18925000D01*
X32632582Y-18925000D01*
X32623386Y-18831633D01*
X32596152Y-18741855D01*
X32551926Y-18659114D01*
X32492409Y-18586591D01*
X32419886Y-18527074D01*
X32337145Y-18482848D01*
X32247367Y-18455614D01*
X32154000Y-18446418D01*
X31854000Y-18446418D01*
X31760633Y-18455614D01*
X31670855Y-18482848D01*
X31588114Y-18527074D01*
X31515591Y-18586591D01*
X31456074Y-18659114D01*
X31411848Y-18741855D01*
X31384614Y-18831633D01*
X31375418Y-18925000D01*
X31362582Y-18925000D01*
X31353386Y-18831633D01*
X31326152Y-18741855D01*
X31281926Y-18659114D01*
X31222409Y-18586591D01*
X31149886Y-18527074D01*
X31067145Y-18482848D01*
X30977367Y-18455614D01*
X30884000Y-18446418D01*
X30584000Y-18446418D01*
X30490633Y-18455614D01*
X30400855Y-18482848D01*
X30318114Y-18527074D01*
X30245591Y-18586591D01*
X30186074Y-18659114D01*
X30141848Y-18741855D01*
X30114614Y-18831633D01*
X30105418Y-18925000D01*
X30105418Y-20575000D01*
X30114614Y-20668367D01*
X30141848Y-20758145D01*
X30157000Y-20786493D01*
X30157001Y-21935631D01*
X30154210Y-21963972D01*
X30165349Y-22077083D01*
X30194769Y-22174062D01*
X30198344Y-22185848D01*
X30251922Y-22286087D01*
X30277385Y-22317113D01*
X30305963Y-22351936D01*
X30305966Y-22351939D01*
X30324027Y-22373946D01*
X30346033Y-22392006D01*
X30586338Y-22632311D01*
X30609956Y-22751048D01*
X30664759Y-22883354D01*
X30744320Y-23002426D01*
X30797500Y-23055606D01*
X30797500Y-23364250D01*
X30757000Y-23404750D01*
X30757000Y-24677000D01*
X30777000Y-24677000D01*
X30777000Y-24723000D01*
X30757000Y-24723000D01*
X30757000Y-24743000D01*
X30711000Y-24743000D01*
X30711000Y-24723000D01*
X30691000Y-24723000D01*
X30691000Y-24677000D01*
X30711000Y-24677000D01*
X30711000Y-23404750D01*
X30604250Y-23298000D01*
X30434000Y-23295934D01*
X30350293Y-23304178D01*
X30269804Y-23328595D01*
X30195624Y-23368245D01*
X30130605Y-23421605D01*
X30077245Y-23486624D01*
X30041000Y-23554434D01*
X30041000Y-20856331D01*
X30043790Y-20828000D01*
X30032651Y-20714888D01*
X30005052Y-20623910D01*
X29999657Y-20606124D01*
X29946079Y-20505885D01*
X29873974Y-20418026D01*
X29851962Y-20399961D01*
X28114039Y-18662038D01*
X28095974Y-18640026D01*
X28008115Y-18567921D01*
X27907876Y-18514343D01*
X27831890Y-18491293D01*
X27799111Y-18481349D01*
X27744045Y-18475926D01*
X27714336Y-18473000D01*
X27714331Y-18473000D01*
X27686000Y-18470210D01*
X27657669Y-18473000D01*
X26758661Y-18473000D01*
X26708780Y-18412220D01*
X26622998Y-18341820D01*
X26525130Y-18289508D01*
X26418937Y-18257295D01*
X26308500Y-18246418D01*
X25708500Y-18246418D01*
X25598063Y-18257295D01*
X25491870Y-18289508D01*
X25394002Y-18341820D01*
X25308220Y-18412220D01*
X25241983Y-18492929D01*
X25241822Y-18491293D01*
X25217405Y-18410804D01*
X25177755Y-18336624D01*
X25124395Y-18271605D01*
X25059376Y-18218245D01*
X24985196Y-18178595D01*
X24904707Y-18154178D01*
X24821000Y-18145934D01*
X24413250Y-18148000D01*
X24306500Y-18254750D01*
X24306500Y-19027000D01*
X24326500Y-19027000D01*
X24326500Y-19073000D01*
X24306500Y-19073000D01*
X24306500Y-19845250D01*
X24387112Y-19925862D01*
X24363250Y-19926000D01*
X24256500Y-20032750D01*
X24256500Y-20805000D01*
X25041250Y-20805000D01*
X25148000Y-20698250D01*
X25150066Y-20353000D01*
X25141822Y-20269293D01*
X25117405Y-20188804D01*
X25077755Y-20114624D01*
X25024395Y-20049605D01*
X24959376Y-19996245D01*
X24885196Y-19956595D01*
X24863169Y-19949913D01*
X24904707Y-19945822D01*
X24985196Y-19921405D01*
X25059376Y-19881755D01*
X25124395Y-19828395D01*
X25177755Y-19763376D01*
X25217405Y-19689196D01*
X25241822Y-19608707D01*
X25241983Y-19607071D01*
X25308220Y-19687780D01*
X25394002Y-19758180D01*
X25491870Y-19810492D01*
X25598063Y-19842705D01*
X25708500Y-19853582D01*
X26308500Y-19853582D01*
X26418937Y-19842705D01*
X26525130Y-19810492D01*
X26622998Y-19758180D01*
X26708780Y-19687780D01*
X26758661Y-19627000D01*
X27446999Y-19627000D01*
X28887001Y-21067002D01*
X28887000Y-23283663D01*
X28875755Y-23262624D01*
X28822395Y-23197605D01*
X28757376Y-23144245D01*
X28683196Y-23104595D01*
X28602707Y-23080178D01*
X28519000Y-23071934D01*
X28183870Y-23073097D01*
X28196745Y-23049010D01*
X28244034Y-22893120D01*
X28260001Y-22731000D01*
X28244034Y-22568880D01*
X28196745Y-22412990D01*
X28119952Y-22269321D01*
X28016606Y-22143394D01*
X27890679Y-22040048D01*
X27747010Y-21963255D01*
X27591120Y-21915966D01*
X27469624Y-21904000D01*
X26288376Y-21904000D01*
X26166880Y-21915966D01*
X26010990Y-21963255D01*
X25955990Y-21992653D01*
X25955990Y-21631582D01*
X26308500Y-21631582D01*
X26418937Y-21620705D01*
X26525130Y-21588492D01*
X26622998Y-21536180D01*
X26708780Y-21465780D01*
X26779180Y-21379998D01*
X26831492Y-21282130D01*
X26863705Y-21175937D01*
X26874582Y-21065500D01*
X26874582Y-20590500D01*
X26863705Y-20480063D01*
X26831492Y-20373870D01*
X26779180Y-20276002D01*
X26708780Y-20190220D01*
X26622998Y-20119820D01*
X26525130Y-20067508D01*
X26418937Y-20035295D01*
X26308500Y-20024418D01*
X25808500Y-20024418D01*
X25698063Y-20035295D01*
X25591870Y-20067508D01*
X25494002Y-20119820D01*
X25408220Y-20190220D01*
X25337820Y-20276002D01*
X25285508Y-20373870D01*
X25253295Y-20480063D01*
X25242418Y-20590500D01*
X25242418Y-21004859D01*
X25200090Y-21047187D01*
X25182831Y-21061351D01*
X25148868Y-21102736D01*
X25148000Y-20957750D01*
X25041250Y-20851000D01*
X24256500Y-20851000D01*
X24256500Y-21623250D01*
X24363250Y-21730000D01*
X24721000Y-21732066D01*
X24804707Y-21723822D01*
X24885196Y-21699405D01*
X24959376Y-21659755D01*
X25024395Y-21606395D01*
X25051990Y-21572770D01*
X25051991Y-24465775D01*
X25049803Y-24487990D01*
X25058530Y-24576597D01*
X25084376Y-24661799D01*
X25112338Y-24714112D01*
X25126348Y-24740323D01*
X25182832Y-24809149D01*
X25200086Y-24823309D01*
X26506684Y-26129909D01*
X26520840Y-26147158D01*
X26589666Y-26203642D01*
X26668189Y-26245613D01*
X26740418Y-26267523D01*
X26740418Y-26354553D01*
X26730393Y-26355540D01*
X26645190Y-26381386D01*
X26566667Y-26423357D01*
X26497841Y-26479841D01*
X26483680Y-26497097D01*
X26440098Y-26540679D01*
X26422840Y-26554842D01*
X26366356Y-26623669D01*
X26342483Y-26668333D01*
X26324385Y-26702192D01*
X26298539Y-26787394D01*
X26289812Y-26876001D01*
X26291999Y-26898207D01*
X26292000Y-27688786D01*
X26289812Y-27711001D01*
X26298539Y-27799608D01*
X26324385Y-27884810D01*
X26341718Y-27917238D01*
X26366357Y-27963334D01*
X26422841Y-28032160D01*
X26440095Y-28046320D01*
X26498675Y-28104900D01*
X26512839Y-28122159D01*
X26581665Y-28178643D01*
X26660188Y-28220614D01*
X26699015Y-28232392D01*
X26740418Y-28244952D01*
X26740418Y-28349000D01*
X26549203Y-28349000D01*
X26526998Y-28346813D01*
X26438390Y-28355540D01*
X26370287Y-28376199D01*
X26353188Y-28381386D01*
X26274665Y-28423357D01*
X26205839Y-28479841D01*
X26191679Y-28497095D01*
X25200090Y-29488685D01*
X25182831Y-29502849D01*
X25126347Y-29571676D01*
X25103665Y-29614111D01*
X25084376Y-29650199D01*
X25058530Y-29735401D01*
X25049803Y-29824008D01*
X25051990Y-29846213D01*
X25051991Y-32554631D01*
X25024395Y-32521005D01*
X24959376Y-32467645D01*
X24885196Y-32427995D01*
X24804707Y-32403578D01*
X24721000Y-32395334D01*
X24363250Y-32397400D01*
X24256500Y-32504150D01*
X24256500Y-33276400D01*
X25041250Y-33276400D01*
X25148000Y-33169650D01*
X25148868Y-33024663D01*
X25182832Y-33066049D01*
X25200086Y-33080209D01*
X25242418Y-33122541D01*
X25242418Y-33536900D01*
X25253295Y-33647337D01*
X25285508Y-33753530D01*
X25337820Y-33851398D01*
X25408220Y-33937180D01*
X25494002Y-34007580D01*
X25591870Y-34059892D01*
X25698063Y-34092105D01*
X25808500Y-34102982D01*
X26308500Y-34102982D01*
X26418937Y-34092105D01*
X26525130Y-34059892D01*
X26622998Y-34007580D01*
X26708780Y-33937180D01*
X26779180Y-33851398D01*
X26831492Y-33753530D01*
X26863705Y-33647337D01*
X26874582Y-33536900D01*
X26874582Y-33061900D01*
X26863705Y-32951463D01*
X26831492Y-32845270D01*
X26779180Y-32747402D01*
X26708780Y-32661620D01*
X26622998Y-32591220D01*
X26525130Y-32538908D01*
X26418937Y-32506695D01*
X26308500Y-32495818D01*
X25955990Y-32495818D01*
X25955990Y-32109347D01*
X26010990Y-32138745D01*
X26166880Y-32186034D01*
X26288376Y-32198000D01*
X27469624Y-32198000D01*
X27591120Y-32186034D01*
X27747010Y-32138745D01*
X27890679Y-32061952D01*
X28016606Y-31958606D01*
X28119952Y-31832679D01*
X28196745Y-31689010D01*
X28244034Y-31533120D01*
X28260001Y-31371000D01*
X28244034Y-31208880D01*
X28196745Y-31052990D01*
X28183870Y-31028903D01*
X28519000Y-31030066D01*
X28602707Y-31021822D01*
X28683196Y-30997405D01*
X28757376Y-30957755D01*
X28822395Y-30904395D01*
X28875755Y-30839376D01*
X28887000Y-30818337D01*
X28887000Y-32399999D01*
X26811999Y-34475000D01*
X26758661Y-34475000D01*
X26708780Y-34414220D01*
X26622998Y-34343820D01*
X26525130Y-34291508D01*
X26418937Y-34259295D01*
X26308500Y-34248418D01*
X25708500Y-34248418D01*
X25598063Y-34259295D01*
X25491870Y-34291508D01*
X25394002Y-34343820D01*
X25308220Y-34414220D01*
X25241983Y-34494929D01*
X25241822Y-34493293D01*
X25217405Y-34412804D01*
X25177755Y-34338624D01*
X25124395Y-34273605D01*
X25059376Y-34220245D01*
X24985196Y-34180595D01*
X24909718Y-34157698D01*
X24959376Y-34131155D01*
X25024395Y-34077795D01*
X25077755Y-34012776D01*
X25117405Y-33938596D01*
X25141822Y-33858107D01*
X25150066Y-33774400D01*
X25148000Y-33429150D01*
X25041250Y-33322400D01*
X24256500Y-33322400D01*
X24256500Y-34094650D01*
X24362550Y-34200700D01*
X24306500Y-34256750D01*
X24306500Y-35029000D01*
X24326500Y-35029000D01*
X24326500Y-35075000D01*
X24306500Y-35075000D01*
X24306500Y-35847250D01*
X24413250Y-35954000D01*
X24821000Y-35956066D01*
X24904707Y-35947822D01*
X24985196Y-35923405D01*
X25059376Y-35883755D01*
X25124395Y-35830395D01*
X25177755Y-35765376D01*
X25217405Y-35691196D01*
X25241822Y-35610707D01*
X25241983Y-35609071D01*
X25308220Y-35689780D01*
X25394002Y-35760180D01*
X25491870Y-35812492D01*
X25598063Y-35844705D01*
X25708500Y-35855582D01*
X26308500Y-35855582D01*
X26418937Y-35844705D01*
X26525130Y-35812492D01*
X26622998Y-35760180D01*
X26708780Y-35689780D01*
X26758661Y-35629000D01*
X27022669Y-35629000D01*
X27051000Y-35631790D01*
X27079331Y-35629000D01*
X27079336Y-35629000D01*
X27109045Y-35626074D01*
X27164111Y-35620651D01*
X27208770Y-35607103D01*
X27272876Y-35587657D01*
X27373115Y-35534079D01*
X27460974Y-35461974D01*
X27479039Y-35439962D01*
X29273500Y-33645501D01*
X29797961Y-34169962D01*
X29816026Y-34191974D01*
X29903885Y-34264079D01*
X30004124Y-34317657D01*
X30048782Y-34331204D01*
X30112888Y-34350651D01*
X30170886Y-34356363D01*
X30197664Y-34359000D01*
X30197669Y-34359000D01*
X30226000Y-34361790D01*
X30254331Y-34359000D01*
X30288840Y-34359000D01*
X30241431Y-34429952D01*
X30182859Y-34571357D01*
X30153000Y-34721472D01*
X30153000Y-34874528D01*
X30182859Y-35024643D01*
X30241431Y-35166048D01*
X30326464Y-35293309D01*
X30434691Y-35401536D01*
X30561952Y-35486569D01*
X30703357Y-35545141D01*
X30853472Y-35575000D01*
X31006528Y-35575000D01*
X31156643Y-35545141D01*
X31298048Y-35486569D01*
X31425309Y-35401536D01*
X31533536Y-35293309D01*
X31618569Y-35166048D01*
X31677141Y-35024643D01*
X31707000Y-34874528D01*
X31707000Y-34721472D01*
X36953000Y-34721472D01*
X36953000Y-34874528D01*
X36982859Y-35024643D01*
X37041431Y-35166048D01*
X37126464Y-35293309D01*
X37234691Y-35401536D01*
X37361952Y-35486569D01*
X37503357Y-35545141D01*
X37653472Y-35575000D01*
X37806528Y-35575000D01*
X37956643Y-35545141D01*
X38098048Y-35486569D01*
X38225309Y-35401536D01*
X38333536Y-35293309D01*
X38418569Y-35166048D01*
X38477141Y-35024643D01*
X38507000Y-34874528D01*
X38507000Y-34721472D01*
X38477141Y-34571357D01*
X38418569Y-34429952D01*
X38333536Y-34302691D01*
X38225309Y-34194464D01*
X38098048Y-34109431D01*
X37956643Y-34050859D01*
X37806528Y-34021000D01*
X37653472Y-34021000D01*
X37503357Y-34050859D01*
X37361952Y-34109431D01*
X37234691Y-34194464D01*
X37126464Y-34302691D01*
X37041431Y-34429952D01*
X36982859Y-34571357D01*
X36953000Y-34721472D01*
X31707000Y-34721472D01*
X31677141Y-34571357D01*
X31618569Y-34429952D01*
X31571160Y-34359000D01*
X36293669Y-34359000D01*
X36322000Y-34361790D01*
X36350331Y-34359000D01*
X36350336Y-34359000D01*
X36380045Y-34356074D01*
X36435111Y-34350651D01*
X36479770Y-34337103D01*
X36543876Y-34317657D01*
X36644115Y-34264079D01*
X36731974Y-34191974D01*
X36750039Y-34169962D01*
X37217962Y-33702039D01*
X37239974Y-33683974D01*
X37287075Y-33626582D01*
X37455000Y-33626582D01*
X37519103Y-33620268D01*
X37580743Y-33601570D01*
X37637550Y-33571206D01*
X37687343Y-33530343D01*
X37728206Y-33480550D01*
X37758570Y-33423743D01*
X37777268Y-33362103D01*
X37783582Y-33298000D01*
X37783582Y-33285076D01*
X43019000Y-33285076D01*
X43019000Y-33516924D01*
X43064231Y-33744318D01*
X43152956Y-33958519D01*
X43281764Y-34151294D01*
X43445706Y-34315236D01*
X43638481Y-34444044D01*
X43852682Y-34532769D01*
X44080076Y-34578000D01*
X44311924Y-34578000D01*
X44539318Y-34532769D01*
X44753519Y-34444044D01*
X44946294Y-34315236D01*
X45110236Y-34151294D01*
X45239044Y-33958519D01*
X45327769Y-33744318D01*
X45373000Y-33516924D01*
X45373000Y-33285076D01*
X45327769Y-33057682D01*
X45239044Y-32843481D01*
X45110236Y-32650706D01*
X44946294Y-32486764D01*
X44753519Y-32357956D01*
X44539318Y-32269231D01*
X44311924Y-32224000D01*
X44080076Y-32224000D01*
X43852682Y-32269231D01*
X43638481Y-32357956D01*
X43445706Y-32486764D01*
X43281764Y-32650706D01*
X43152956Y-32843481D01*
X43064231Y-33057682D01*
X43019000Y-33285076D01*
X37783582Y-33285076D01*
X37783582Y-32055000D01*
X38820418Y-32055000D01*
X38820418Y-32555000D01*
X38831295Y-32665437D01*
X38863508Y-32771630D01*
X38915820Y-32869498D01*
X38986220Y-32955280D01*
X39072002Y-33025680D01*
X39169870Y-33077992D01*
X39276063Y-33110205D01*
X39386500Y-33121082D01*
X39861500Y-33121082D01*
X39971937Y-33110205D01*
X40078130Y-33077992D01*
X40175998Y-33025680D01*
X40261780Y-32955280D01*
X40332180Y-32869498D01*
X40384492Y-32771630D01*
X40388930Y-32757000D01*
X40628880Y-32757000D01*
X40641508Y-32798630D01*
X40693820Y-32896498D01*
X40764220Y-32982280D01*
X40850002Y-33052680D01*
X40947870Y-33104992D01*
X41054063Y-33137205D01*
X41164500Y-33148082D01*
X41639500Y-33148082D01*
X41749937Y-33137205D01*
X41856130Y-33104992D01*
X41953998Y-33052680D01*
X42039780Y-32982280D01*
X42110180Y-32896498D01*
X42162492Y-32798630D01*
X42194705Y-32692437D01*
X42205582Y-32582000D01*
X42205582Y-32007000D01*
X42194705Y-31896563D01*
X42162492Y-31790370D01*
X42110180Y-31692502D01*
X42039780Y-31606720D01*
X41953998Y-31536320D01*
X41856130Y-31484008D01*
X41749937Y-31451795D01*
X41639500Y-31440918D01*
X41164500Y-31440918D01*
X41054063Y-31451795D01*
X40947870Y-31484008D01*
X40850002Y-31536320D01*
X40764220Y-31606720D01*
X40693820Y-31692502D01*
X40641508Y-31790370D01*
X40622510Y-31853000D01*
X40388930Y-31853000D01*
X40384492Y-31838370D01*
X40332180Y-31740502D01*
X40261780Y-31654720D01*
X40175998Y-31584320D01*
X40078130Y-31532008D01*
X39971937Y-31499795D01*
X39861500Y-31488918D01*
X39386500Y-31488918D01*
X39276063Y-31499795D01*
X39169870Y-31532008D01*
X39072002Y-31584320D01*
X38986220Y-31654720D01*
X38915820Y-31740502D01*
X38863508Y-31838370D01*
X38831295Y-31944563D01*
X38820418Y-32055000D01*
X37783582Y-32055000D01*
X37783582Y-30798000D01*
X37777268Y-30733897D01*
X37758570Y-30672257D01*
X37728206Y-30615450D01*
X37687343Y-30565657D01*
X37637550Y-30524794D01*
X37580743Y-30494430D01*
X37519103Y-30475732D01*
X37455000Y-30469418D01*
X36205000Y-30469418D01*
X36140897Y-30475732D01*
X36079257Y-30494430D01*
X36022450Y-30524794D01*
X35972657Y-30565657D01*
X35931794Y-30615450D01*
X35901430Y-30672257D01*
X35882732Y-30733897D01*
X35876418Y-30798000D01*
X35876418Y-33205000D01*
X35283582Y-33205000D01*
X35283582Y-30798000D01*
X35277268Y-30733897D01*
X35258570Y-30672257D01*
X35228206Y-30615450D01*
X35187343Y-30565657D01*
X35137550Y-30524794D01*
X35082992Y-30495632D01*
X35095998Y-30488680D01*
X35181780Y-30418280D01*
X35252180Y-30332498D01*
X35272223Y-30295000D01*
X36881669Y-30295000D01*
X36910000Y-30297790D01*
X36938331Y-30295000D01*
X38622999Y-30295000D01*
X38820418Y-30492419D01*
X38820418Y-30730000D01*
X38831295Y-30840437D01*
X38863508Y-30946630D01*
X38915820Y-31044498D01*
X38986220Y-31130280D01*
X39072002Y-31200680D01*
X39169870Y-31252992D01*
X39276063Y-31285205D01*
X39386500Y-31296082D01*
X39861500Y-31296082D01*
X39971937Y-31285205D01*
X40078130Y-31252992D01*
X40175998Y-31200680D01*
X40261780Y-31130280D01*
X40332180Y-31044498D01*
X40384492Y-30946630D01*
X40416705Y-30840437D01*
X40427582Y-30730000D01*
X40427582Y-30378752D01*
X40441397Y-30381500D01*
X40584603Y-30381500D01*
X40598093Y-30378817D01*
X40598418Y-30379141D01*
X40598418Y-30832000D01*
X40609295Y-30942437D01*
X40641508Y-31048630D01*
X40693820Y-31146498D01*
X40764220Y-31232280D01*
X40850002Y-31302680D01*
X40947870Y-31354992D01*
X41054063Y-31387205D01*
X41164500Y-31398082D01*
X41639500Y-31398082D01*
X41749937Y-31387205D01*
X41856130Y-31354992D01*
X41934691Y-31313000D01*
X43109249Y-31313000D01*
X43152956Y-31418519D01*
X43281764Y-31611294D01*
X43445706Y-31775236D01*
X43638481Y-31904044D01*
X43852682Y-31992769D01*
X44080076Y-32038000D01*
X44311924Y-32038000D01*
X44539318Y-31992769D01*
X44753519Y-31904044D01*
X44946294Y-31775236D01*
X45110236Y-31611294D01*
X45239044Y-31418519D01*
X45327769Y-31204318D01*
X45373000Y-30976924D01*
X45373000Y-30745076D01*
X45327769Y-30517682D01*
X45239044Y-30303481D01*
X45110236Y-30110706D01*
X44946294Y-29946764D01*
X44753519Y-29817956D01*
X44539318Y-29729231D01*
X44311924Y-29684000D01*
X44080076Y-29684000D01*
X43852682Y-29729231D01*
X43638481Y-29817956D01*
X43445706Y-29946764D01*
X43281764Y-30110706D01*
X43152956Y-30303481D01*
X43109249Y-30409000D01*
X42205582Y-30409000D01*
X42205582Y-30257000D01*
X42194705Y-30146563D01*
X42162492Y-30040370D01*
X42110180Y-29942502D01*
X42039780Y-29856720D01*
X41953998Y-29786320D01*
X41856130Y-29734008D01*
X41749937Y-29701795D01*
X41639500Y-29690918D01*
X41240000Y-29690918D01*
X41240000Y-29682582D01*
X41639500Y-29682582D01*
X41749937Y-29671705D01*
X41856130Y-29639492D01*
X41953998Y-29587180D01*
X42039780Y-29516780D01*
X42110180Y-29430998D01*
X42162492Y-29333130D01*
X42194705Y-29226937D01*
X42205582Y-29116500D01*
X42205582Y-28541500D01*
X42203431Y-28519655D01*
X42308685Y-28624910D01*
X42322841Y-28642159D01*
X42391667Y-28698643D01*
X42470190Y-28740614D01*
X42535562Y-28760444D01*
X42555392Y-28766460D01*
X42643999Y-28775187D01*
X42666204Y-28773000D01*
X43109249Y-28773000D01*
X43152956Y-28878519D01*
X43281764Y-29071294D01*
X43445706Y-29235236D01*
X43638481Y-29364044D01*
X43852682Y-29452769D01*
X44080076Y-29498000D01*
X44311924Y-29498000D01*
X44539318Y-29452769D01*
X44753519Y-29364044D01*
X44946294Y-29235236D01*
X45110236Y-29071294D01*
X45239044Y-28878519D01*
X45327769Y-28664318D01*
X45373000Y-28436924D01*
X45373000Y-28205076D01*
X45330969Y-27993772D01*
X45372335Y-28002000D01*
X45559665Y-28002000D01*
X45743396Y-27965453D01*
X45916467Y-27893765D01*
X46072227Y-27789690D01*
X46204690Y-27657227D01*
X46304601Y-27507700D01*
X46304601Y-35043317D01*
X46273283Y-35362723D01*
X46183041Y-35661619D01*
X46036465Y-35937288D01*
X45839136Y-36179238D01*
X45598569Y-36378252D01*
X45323928Y-36526750D01*
X45025675Y-36619075D01*
X44706812Y-36652589D01*
X44703674Y-36652600D01*
X22868673Y-36652600D01*
X22549277Y-36621283D01*
X22250381Y-36531041D01*
X21974712Y-36384465D01*
X21732762Y-36187136D01*
X21533748Y-35946569D01*
X21385250Y-35671928D01*
X21340388Y-35527000D01*
X23316934Y-35527000D01*
X23325178Y-35610707D01*
X23349595Y-35691196D01*
X23389245Y-35765376D01*
X23442605Y-35830395D01*
X23507624Y-35883755D01*
X23581804Y-35923405D01*
X23662293Y-35947822D01*
X23746000Y-35956066D01*
X24153750Y-35954000D01*
X24260500Y-35847250D01*
X24260500Y-35075000D01*
X23425750Y-35075000D01*
X23319000Y-35181750D01*
X23316934Y-35527000D01*
X21340388Y-35527000D01*
X21292925Y-35373675D01*
X21259411Y-35054812D01*
X21259400Y-35051674D01*
X21259400Y-34796317D01*
X21364773Y-34901690D01*
X21520533Y-35005765D01*
X21693604Y-35077453D01*
X21877335Y-35114000D01*
X22064665Y-35114000D01*
X22248396Y-35077453D01*
X22421467Y-35005765D01*
X22577227Y-34901690D01*
X22709690Y-34769227D01*
X22813765Y-34613467D01*
X22885453Y-34440396D01*
X22922000Y-34256665D01*
X22922000Y-34069335D01*
X22885453Y-33885604D01*
X22839392Y-33774400D01*
X23316934Y-33774400D01*
X23325178Y-33858107D01*
X23349595Y-33938596D01*
X23389245Y-34012776D01*
X23442605Y-34077795D01*
X23507624Y-34131155D01*
X23581804Y-34170805D01*
X23597940Y-34175700D01*
X23581804Y-34180595D01*
X23507624Y-34220245D01*
X23442605Y-34273605D01*
X23389245Y-34338624D01*
X23349595Y-34412804D01*
X23325178Y-34493293D01*
X23316934Y-34577000D01*
X23319000Y-34922250D01*
X23425750Y-35029000D01*
X24260500Y-35029000D01*
X24260500Y-34256750D01*
X24154450Y-34150700D01*
X24210500Y-34094650D01*
X24210500Y-33322400D01*
X23425750Y-33322400D01*
X23319000Y-33429150D01*
X23316934Y-33774400D01*
X22839392Y-33774400D01*
X22813765Y-33712533D01*
X22709690Y-33556773D01*
X22577227Y-33424310D01*
X22421467Y-33320235D01*
X22248396Y-33248547D01*
X22064665Y-33212000D01*
X21877335Y-33212000D01*
X21693604Y-33248547D01*
X21520533Y-33320235D01*
X21364773Y-33424310D01*
X21259400Y-33529683D01*
X21259400Y-32824400D01*
X23316934Y-32824400D01*
X23319000Y-33169650D01*
X23425750Y-33276400D01*
X24210500Y-33276400D01*
X24210500Y-32504150D01*
X24103750Y-32397400D01*
X23746000Y-32395334D01*
X23662293Y-32403578D01*
X23581804Y-32427995D01*
X23507624Y-32467645D01*
X23442605Y-32521005D01*
X23389245Y-32586024D01*
X23349595Y-32660204D01*
X23325178Y-32740693D01*
X23316934Y-32824400D01*
X21259400Y-32824400D01*
X21259400Y-31371000D01*
X21567999Y-31371000D01*
X21583966Y-31533120D01*
X21631255Y-31689010D01*
X21708048Y-31832679D01*
X21811394Y-31958606D01*
X21937321Y-32061952D01*
X22080990Y-32138745D01*
X22236880Y-32186034D01*
X22358376Y-32198000D01*
X23039624Y-32198000D01*
X23161120Y-32186034D01*
X23317010Y-32138745D01*
X23460679Y-32061952D01*
X23586606Y-31958606D01*
X23689952Y-31832679D01*
X23766745Y-31689010D01*
X23814034Y-31533120D01*
X23830001Y-31371000D01*
X23814034Y-31208880D01*
X23766745Y-31052990D01*
X23689952Y-30909321D01*
X23586606Y-30783394D01*
X23460679Y-30680048D01*
X23317010Y-30603255D01*
X23161120Y-30555966D01*
X23039624Y-30544000D01*
X22358376Y-30544000D01*
X22236880Y-30555966D01*
X22080990Y-30603255D01*
X21937321Y-30680048D01*
X21811394Y-30783394D01*
X21708048Y-30909321D01*
X21631255Y-31052990D01*
X21583966Y-31208880D01*
X21567999Y-31371000D01*
X21259400Y-31371000D01*
X21259400Y-22731000D01*
X21567999Y-22731000D01*
X21583966Y-22893120D01*
X21631255Y-23049010D01*
X21708048Y-23192679D01*
X21811394Y-23318606D01*
X21937321Y-23421952D01*
X22080990Y-23498745D01*
X22236880Y-23546034D01*
X22358376Y-23558000D01*
X23039624Y-23558000D01*
X23161120Y-23546034D01*
X23317010Y-23498745D01*
X23460679Y-23421952D01*
X23586606Y-23318606D01*
X23689952Y-23192679D01*
X23766745Y-23049010D01*
X23814034Y-22893120D01*
X23830001Y-22731000D01*
X23814034Y-22568880D01*
X23766745Y-22412990D01*
X23689952Y-22269321D01*
X23586606Y-22143394D01*
X23460679Y-22040048D01*
X23317010Y-21963255D01*
X23161120Y-21915966D01*
X23039624Y-21904000D01*
X22358376Y-21904000D01*
X22236880Y-21915966D01*
X22080990Y-21963255D01*
X21937321Y-22040048D01*
X21811394Y-22143394D01*
X21708048Y-22269321D01*
X21631255Y-22412990D01*
X21583966Y-22568880D01*
X21567999Y-22731000D01*
X21259400Y-22731000D01*
X21259400Y-21303000D01*
X23316934Y-21303000D01*
X23325178Y-21386707D01*
X23349595Y-21467196D01*
X23389245Y-21541376D01*
X23442605Y-21606395D01*
X23507624Y-21659755D01*
X23581804Y-21699405D01*
X23662293Y-21723822D01*
X23746000Y-21732066D01*
X24103750Y-21730000D01*
X24210500Y-21623250D01*
X24210500Y-20851000D01*
X23425750Y-20851000D01*
X23319000Y-20957750D01*
X23316934Y-21303000D01*
X21259400Y-21303000D01*
X21259400Y-20572317D01*
X21364773Y-20677690D01*
X21520533Y-20781765D01*
X21693604Y-20853453D01*
X21877335Y-20890000D01*
X22064665Y-20890000D01*
X22248396Y-20853453D01*
X22421467Y-20781765D01*
X22577227Y-20677690D01*
X22709690Y-20545227D01*
X22813765Y-20389467D01*
X22885453Y-20216396D01*
X22922000Y-20032665D01*
X22922000Y-19845335D01*
X22885453Y-19661604D01*
X22828871Y-19525000D01*
X23316934Y-19525000D01*
X23325178Y-19608707D01*
X23349595Y-19689196D01*
X23389245Y-19763376D01*
X23442605Y-19828395D01*
X23507624Y-19881755D01*
X23581804Y-19921405D01*
X23639805Y-19939000D01*
X23581804Y-19956595D01*
X23507624Y-19996245D01*
X23442605Y-20049605D01*
X23389245Y-20114624D01*
X23349595Y-20188804D01*
X23325178Y-20269293D01*
X23316934Y-20353000D01*
X23319000Y-20698250D01*
X23425750Y-20805000D01*
X24210500Y-20805000D01*
X24210500Y-20032750D01*
X24129871Y-19952121D01*
X24153750Y-19952000D01*
X24260500Y-19845250D01*
X24260500Y-19073000D01*
X23425750Y-19073000D01*
X23319000Y-19179750D01*
X23316934Y-19525000D01*
X22828871Y-19525000D01*
X22813765Y-19488533D01*
X22709690Y-19332773D01*
X22577227Y-19200310D01*
X22421467Y-19096235D01*
X22248396Y-19024547D01*
X22064665Y-18988000D01*
X21877335Y-18988000D01*
X21693604Y-19024547D01*
X21520533Y-19096235D01*
X21364773Y-19200310D01*
X21259400Y-19305683D01*
X21259400Y-19058673D01*
X21290717Y-18739277D01*
X21340314Y-18575000D01*
X23316934Y-18575000D01*
X23319000Y-18920250D01*
X23425750Y-19027000D01*
X24260500Y-19027000D01*
X24260500Y-18254750D01*
X24153750Y-18148000D01*
X23746000Y-18145934D01*
X23662293Y-18154178D01*
X23581804Y-18178595D01*
X23507624Y-18218245D01*
X23442605Y-18271605D01*
X23389245Y-18336624D01*
X23349595Y-18410804D01*
X23325178Y-18491293D01*
X23316934Y-18575000D01*
X21340314Y-18575000D01*
X21380957Y-18440385D01*
X21527535Y-18164712D01*
X21724864Y-17922762D01*
X21965430Y-17723749D01*
X22240071Y-17575250D01*
X22538325Y-17482925D01*
X22857188Y-17449411D01*
X22860325Y-17449400D01*
X44695327Y-17449400D01*
X45014723Y-17480717D01*
%TA.AperFunction,Conductor*%
D23*
G36*
X45014723Y-17480717D02*
G01*
X45313615Y-17570957D01*
X45589288Y-17717535D01*
X45831238Y-17914864D01*
X46030251Y-18155430D01*
X46178750Y-18430071D01*
X46271075Y-18728325D01*
X46304589Y-19047188D01*
X46304600Y-19050326D01*
X46304600Y-26594300D01*
X46204690Y-26444773D01*
X46072227Y-26312310D01*
X45916467Y-26208235D01*
X45743396Y-26136547D01*
X45559665Y-26100000D01*
X45372335Y-26100000D01*
X45330969Y-26108228D01*
X45373000Y-25896924D01*
X45373000Y-25665076D01*
X45327769Y-25437682D01*
X45239044Y-25223481D01*
X45110236Y-25030706D01*
X44946294Y-24866764D01*
X44753519Y-24737956D01*
X44539318Y-24649231D01*
X44311924Y-24604000D01*
X44080076Y-24604000D01*
X43875661Y-24644660D01*
X42924001Y-23693000D01*
X43109249Y-23693000D01*
X43152956Y-23798519D01*
X43281764Y-23991294D01*
X43445706Y-24155236D01*
X43638481Y-24284044D01*
X43852682Y-24372769D01*
X44080076Y-24418000D01*
X44311924Y-24418000D01*
X44539318Y-24372769D01*
X44753519Y-24284044D01*
X44946294Y-24155236D01*
X45110236Y-23991294D01*
X45239044Y-23798519D01*
X45327769Y-23584318D01*
X45373000Y-23356924D01*
X45373000Y-23125076D01*
X45327769Y-22897682D01*
X45239044Y-22683481D01*
X45110236Y-22490706D01*
X44946294Y-22326764D01*
X44753519Y-22197956D01*
X44539318Y-22109231D01*
X44311924Y-22064000D01*
X44080076Y-22064000D01*
X43852682Y-22109231D01*
X43638481Y-22197956D01*
X43445706Y-22326764D01*
X43281764Y-22490706D01*
X43152956Y-22683481D01*
X43109249Y-22789000D01*
X42732224Y-22789000D01*
X41494224Y-21551000D01*
X42916934Y-21551000D01*
X42925178Y-21634707D01*
X42949595Y-21715196D01*
X42989245Y-21789376D01*
X43042605Y-21854395D01*
X43107624Y-21907755D01*
X43181804Y-21947405D01*
X43262293Y-21971822D01*
X43346000Y-21980066D01*
X44066250Y-21978000D01*
X44173000Y-21871250D01*
X44173000Y-20724000D01*
X44219000Y-20724000D01*
X44219000Y-21871250D01*
X44325750Y-21978000D01*
X45046000Y-21980066D01*
X45129707Y-21971822D01*
X45210196Y-21947405D01*
X45284376Y-21907755D01*
X45349395Y-21854395D01*
X45402755Y-21789376D01*
X45442405Y-21715196D01*
X45466822Y-21634707D01*
X45475066Y-21551000D01*
X45473000Y-20830750D01*
X45366250Y-20724000D01*
X44219000Y-20724000D01*
X44173000Y-20724000D01*
X43025750Y-20724000D01*
X42919000Y-20830750D01*
X42916934Y-21551000D01*
X41494224Y-21551000D01*
X40252582Y-20309359D01*
X40252582Y-19851000D01*
X42916934Y-19851000D01*
X42919000Y-20571250D01*
X43025750Y-20678000D01*
X44173000Y-20678000D01*
X44173000Y-19530750D01*
X44219000Y-19530750D01*
X44219000Y-20678000D01*
X45366250Y-20678000D01*
X45473000Y-20571250D01*
X45475066Y-19851000D01*
X45466822Y-19767293D01*
X45442405Y-19686804D01*
X45402755Y-19612624D01*
X45349395Y-19547605D01*
X45284376Y-19494245D01*
X45210196Y-19454595D01*
X45129707Y-19430178D01*
X45046000Y-19421934D01*
X44325750Y-19424000D01*
X44219000Y-19530750D01*
X44173000Y-19530750D01*
X44066250Y-19424000D01*
X43346000Y-19421934D01*
X43262293Y-19430178D01*
X43181804Y-19454595D01*
X43107624Y-19494245D01*
X43042605Y-19547605D01*
X42989245Y-19612624D01*
X42949595Y-19686804D01*
X42925178Y-19767293D01*
X42916934Y-19851000D01*
X40252582Y-19851000D01*
X40252582Y-18925000D01*
X40243386Y-18831633D01*
X40216152Y-18741855D01*
X40171926Y-18659114D01*
X40112409Y-18586591D01*
X40039886Y-18527074D01*
X39957145Y-18482848D01*
X39867367Y-18455614D01*
X39774000Y-18446418D01*
X39474000Y-18446418D01*
X39380633Y-18455614D01*
X39290855Y-18482848D01*
X39208114Y-18527074D01*
X39135591Y-18586591D01*
X39076074Y-18659114D01*
X39031848Y-18741855D01*
X39004614Y-18831633D01*
X38995418Y-18925000D01*
X38995418Y-20575000D01*
X39004614Y-20668367D01*
X39031848Y-20758145D01*
X39076074Y-20840886D01*
X39135591Y-20913409D01*
X39208114Y-20972926D01*
X39290855Y-21017152D01*
X39380633Y-21044386D01*
X39474000Y-21053582D01*
X39718359Y-21053582D01*
X40626767Y-21961990D01*
X35085144Y-21961990D01*
X35108698Y-21938436D01*
X35188259Y-21819364D01*
X35243062Y-21687058D01*
X35271000Y-21546603D01*
X35271000Y-21403397D01*
X35243062Y-21262942D01*
X35188259Y-21130636D01*
X35108698Y-21011564D01*
X35020399Y-20923265D01*
X35032409Y-20913409D01*
X35091926Y-20840886D01*
X35136152Y-20758145D01*
X35163386Y-20668367D01*
X35172582Y-20575000D01*
X35172582Y-18925000D01*
X35185418Y-18925000D01*
X35185418Y-20575000D01*
X35194614Y-20668367D01*
X35221848Y-20758145D01*
X35266074Y-20840886D01*
X35325591Y-20913409D01*
X35398114Y-20972926D01*
X35480855Y-21017152D01*
X35570633Y-21044386D01*
X35664000Y-21053582D01*
X35964000Y-21053582D01*
X36057367Y-21044386D01*
X36147145Y-21017152D01*
X36229886Y-20972926D01*
X36302409Y-20913409D01*
X36361926Y-20840886D01*
X36406152Y-20758145D01*
X36433386Y-20668367D01*
X36442582Y-20575000D01*
X36442582Y-18925000D01*
X36455418Y-18925000D01*
X36455418Y-20575000D01*
X36464614Y-20668367D01*
X36491848Y-20758145D01*
X36536074Y-20840886D01*
X36595591Y-20913409D01*
X36668114Y-20972926D01*
X36750855Y-21017152D01*
X36840633Y-21044386D01*
X36934000Y-21053582D01*
X37234000Y-21053582D01*
X37327367Y-21044386D01*
X37417145Y-21017152D01*
X37499886Y-20972926D01*
X37572409Y-20913409D01*
X37631926Y-20840886D01*
X37676152Y-20758145D01*
X37703386Y-20668367D01*
X37712582Y-20575000D01*
X37712582Y-18925000D01*
X37725418Y-18925000D01*
X37725418Y-20575000D01*
X37734614Y-20668367D01*
X37761848Y-20758145D01*
X37806074Y-20840886D01*
X37865591Y-20913409D01*
X37938114Y-20972926D01*
X38020855Y-21017152D01*
X38110633Y-21044386D01*
X38204000Y-21053582D01*
X38504000Y-21053582D01*
X38597367Y-21044386D01*
X38687145Y-21017152D01*
X38769886Y-20972926D01*
X38842409Y-20913409D01*
X38901926Y-20840886D01*
X38946152Y-20758145D01*
X38973386Y-20668367D01*
X38982582Y-20575000D01*
X38982582Y-18925000D01*
X38973386Y-18831633D01*
X38946152Y-18741855D01*
X38901926Y-18659114D01*
X38842409Y-18586591D01*
X38769886Y-18527074D01*
X38687145Y-18482848D01*
X38597367Y-18455614D01*
X38504000Y-18446418D01*
X38204000Y-18446418D01*
X38110633Y-18455614D01*
X38020855Y-18482848D01*
X37938114Y-18527074D01*
X37865591Y-18586591D01*
X37806074Y-18659114D01*
X37761848Y-18741855D01*
X37734614Y-18831633D01*
X37725418Y-18925000D01*
X37712582Y-18925000D01*
X37703386Y-18831633D01*
X37676152Y-18741855D01*
X37631926Y-18659114D01*
X37572409Y-18586591D01*
X37499886Y-18527074D01*
X37417145Y-18482848D01*
X37327367Y-18455614D01*
X37234000Y-18446418D01*
X36934000Y-18446418D01*
X36840633Y-18455614D01*
X36750855Y-18482848D01*
X36668114Y-18527074D01*
X36595591Y-18586591D01*
X36536074Y-18659114D01*
X36491848Y-18741855D01*
X36464614Y-18831633D01*
X36455418Y-18925000D01*
X36442582Y-18925000D01*
X36433386Y-18831633D01*
X36406152Y-18741855D01*
X36361926Y-18659114D01*
X36302409Y-18586591D01*
X36229886Y-18527074D01*
X36147145Y-18482848D01*
X36057367Y-18455614D01*
X35964000Y-18446418D01*
X35664000Y-18446418D01*
X35570633Y-18455614D01*
X35480855Y-18482848D01*
X35398114Y-18527074D01*
X35325591Y-18586591D01*
X35266074Y-18659114D01*
X35221848Y-18741855D01*
X35194614Y-18831633D01*
X35185418Y-18925000D01*
X35172582Y-18925000D01*
X35163386Y-18831633D01*
X35136152Y-18741855D01*
X35091926Y-18659114D01*
X35032409Y-18586591D01*
X34959886Y-18527074D01*
X34877145Y-18482848D01*
X34787367Y-18455614D01*
X34694000Y-18446418D01*
X34394000Y-18446418D01*
X34300633Y-18455614D01*
X34210855Y-18482848D01*
X34128114Y-18527074D01*
X34055591Y-18586591D01*
X33996074Y-18659114D01*
X33951848Y-18741855D01*
X33924614Y-18831633D01*
X33915418Y-18925000D01*
X33915418Y-20575000D01*
X33924614Y-20668367D01*
X33951848Y-20758145D01*
X33996074Y-20840886D01*
X34055591Y-20913409D01*
X34067601Y-20923265D01*
X33979302Y-21011564D01*
X33899741Y-21130636D01*
X33844938Y-21262942D01*
X33817000Y-21403397D01*
X33817000Y-21546603D01*
X33844938Y-21687058D01*
X33899741Y-21819364D01*
X33979302Y-21938436D01*
X34002856Y-21961990D01*
X31754043Y-21961990D01*
X31653382Y-21894731D01*
X31521076Y-21839928D01*
X31402339Y-21816310D01*
X31311000Y-21724971D01*
X31311000Y-20786492D01*
X31326152Y-20758145D01*
X31353386Y-20668367D01*
X31362582Y-20575000D01*
X31362582Y-18925000D01*
X31375418Y-18925000D01*
X31375418Y-20575000D01*
X31384614Y-20668367D01*
X31411848Y-20758145D01*
X31456074Y-20840886D01*
X31515591Y-20913409D01*
X31588114Y-20972926D01*
X31670855Y-21017152D01*
X31760633Y-21044386D01*
X31854000Y-21053582D01*
X32154000Y-21053582D01*
X32247367Y-21044386D01*
X32337145Y-21017152D01*
X32419886Y-20972926D01*
X32492409Y-20913409D01*
X32551926Y-20840886D01*
X32596152Y-20758145D01*
X32623386Y-20668367D01*
X32632582Y-20575000D01*
X32632582Y-18925000D01*
X32645418Y-18925000D01*
X32645418Y-20575000D01*
X32654614Y-20668367D01*
X32681848Y-20758145D01*
X32726074Y-20840886D01*
X32785591Y-20913409D01*
X32858114Y-20972926D01*
X32940855Y-21017152D01*
X33030633Y-21044386D01*
X33124000Y-21053582D01*
X33424000Y-21053582D01*
X33517367Y-21044386D01*
X33607145Y-21017152D01*
X33689886Y-20972926D01*
X33762409Y-20913409D01*
X33821926Y-20840886D01*
X33866152Y-20758145D01*
X33893386Y-20668367D01*
X33902582Y-20575000D01*
X33902582Y-18925000D01*
X33893386Y-18831633D01*
X33866152Y-18741855D01*
X33821926Y-18659114D01*
X33762409Y-18586591D01*
X33689886Y-18527074D01*
X33607145Y-18482848D01*
X33517367Y-18455614D01*
X33424000Y-18446418D01*
X33124000Y-18446418D01*
X33030633Y-18455614D01*
X32940855Y-18482848D01*
X32858114Y-18527074D01*
X32785591Y-18586591D01*
X32726074Y-18659114D01*
X32681848Y-18741855D01*
X32654614Y-18831633D01*
X32645418Y-18925000D01*
X32632582Y-18925000D01*
X32623386Y-18831633D01*
X32596152Y-18741855D01*
X32551926Y-18659114D01*
X32492409Y-18586591D01*
X32419886Y-18527074D01*
X32337145Y-18482848D01*
X32247367Y-18455614D01*
X32154000Y-18446418D01*
X31854000Y-18446418D01*
X31760633Y-18455614D01*
X31670855Y-18482848D01*
X31588114Y-18527074D01*
X31515591Y-18586591D01*
X31456074Y-18659114D01*
X31411848Y-18741855D01*
X31384614Y-18831633D01*
X31375418Y-18925000D01*
X31362582Y-18925000D01*
X31353386Y-18831633D01*
X31326152Y-18741855D01*
X31281926Y-18659114D01*
X31222409Y-18586591D01*
X31149886Y-18527074D01*
X31067145Y-18482848D01*
X30977367Y-18455614D01*
X30884000Y-18446418D01*
X30584000Y-18446418D01*
X30490633Y-18455614D01*
X30400855Y-18482848D01*
X30318114Y-18527074D01*
X30245591Y-18586591D01*
X30186074Y-18659114D01*
X30141848Y-18741855D01*
X30114614Y-18831633D01*
X30105418Y-18925000D01*
X30105418Y-20575000D01*
X30114614Y-20668367D01*
X30141848Y-20758145D01*
X30157000Y-20786493D01*
X30157001Y-21935631D01*
X30154210Y-21963972D01*
X30165349Y-22077083D01*
X30194769Y-22174062D01*
X30198344Y-22185848D01*
X30251922Y-22286087D01*
X30277385Y-22317113D01*
X30305963Y-22351936D01*
X30305966Y-22351939D01*
X30324027Y-22373946D01*
X30346033Y-22392006D01*
X30586338Y-22632311D01*
X30609956Y-22751048D01*
X30664759Y-22883354D01*
X30744320Y-23002426D01*
X30797500Y-23055606D01*
X30797500Y-23364250D01*
X30757000Y-23404750D01*
X30757000Y-24677000D01*
X30777000Y-24677000D01*
X30777000Y-24723000D01*
X30757000Y-24723000D01*
X30757000Y-24743000D01*
X30711000Y-24743000D01*
X30711000Y-24723000D01*
X30691000Y-24723000D01*
X30691000Y-24677000D01*
X30711000Y-24677000D01*
X30711000Y-23404750D01*
X30604250Y-23298000D01*
X30434000Y-23295934D01*
X30350293Y-23304178D01*
X30269804Y-23328595D01*
X30195624Y-23368245D01*
X30130605Y-23421605D01*
X30077245Y-23486624D01*
X30041000Y-23554434D01*
X30041000Y-20856331D01*
X30043790Y-20828000D01*
X30032651Y-20714888D01*
X30005052Y-20623910D01*
X29999657Y-20606124D01*
X29946079Y-20505885D01*
X29873974Y-20418026D01*
X29851962Y-20399961D01*
X28114039Y-18662038D01*
X28095974Y-18640026D01*
X28008115Y-18567921D01*
X27907876Y-18514343D01*
X27831890Y-18491293D01*
X27799111Y-18481349D01*
X27744045Y-18475926D01*
X27714336Y-18473000D01*
X27714331Y-18473000D01*
X27686000Y-18470210D01*
X27657669Y-18473000D01*
X26758661Y-18473000D01*
X26708780Y-18412220D01*
X26622998Y-18341820D01*
X26525130Y-18289508D01*
X26418937Y-18257295D01*
X26308500Y-18246418D01*
X25708500Y-18246418D01*
X25598063Y-18257295D01*
X25491870Y-18289508D01*
X25394002Y-18341820D01*
X25308220Y-18412220D01*
X25241983Y-18492929D01*
X25241822Y-18491293D01*
X25217405Y-18410804D01*
X25177755Y-18336624D01*
X25124395Y-18271605D01*
X25059376Y-18218245D01*
X24985196Y-18178595D01*
X24904707Y-18154178D01*
X24821000Y-18145934D01*
X24413250Y-18148000D01*
X24306500Y-18254750D01*
X24306500Y-19027000D01*
X24326500Y-19027000D01*
X24326500Y-19073000D01*
X24306500Y-19073000D01*
X24306500Y-19845250D01*
X24387112Y-19925862D01*
X24363250Y-19926000D01*
X24256500Y-20032750D01*
X24256500Y-20805000D01*
X25041250Y-20805000D01*
X25148000Y-20698250D01*
X25150066Y-20353000D01*
X25141822Y-20269293D01*
X25117405Y-20188804D01*
X25077755Y-20114624D01*
X25024395Y-20049605D01*
X24959376Y-19996245D01*
X24885196Y-19956595D01*
X24863169Y-19949913D01*
X24904707Y-19945822D01*
X24985196Y-19921405D01*
X25059376Y-19881755D01*
X25124395Y-19828395D01*
X25177755Y-19763376D01*
X25217405Y-19689196D01*
X25241822Y-19608707D01*
X25241983Y-19607071D01*
X25308220Y-19687780D01*
X25394002Y-19758180D01*
X25491870Y-19810492D01*
X25598063Y-19842705D01*
X25708500Y-19853582D01*
X26308500Y-19853582D01*
X26418937Y-19842705D01*
X26525130Y-19810492D01*
X26622998Y-19758180D01*
X26708780Y-19687780D01*
X26758661Y-19627000D01*
X27446999Y-19627000D01*
X28887001Y-21067002D01*
X28887000Y-23283663D01*
X28875755Y-23262624D01*
X28822395Y-23197605D01*
X28757376Y-23144245D01*
X28683196Y-23104595D01*
X28602707Y-23080178D01*
X28519000Y-23071934D01*
X28183870Y-23073097D01*
X28196745Y-23049010D01*
X28244034Y-22893120D01*
X28260001Y-22731000D01*
X28244034Y-22568880D01*
X28196745Y-22412990D01*
X28119952Y-22269321D01*
X28016606Y-22143394D01*
X27890679Y-22040048D01*
X27747010Y-21963255D01*
X27591120Y-21915966D01*
X27469624Y-21904000D01*
X26288376Y-21904000D01*
X26166880Y-21915966D01*
X26010990Y-21963255D01*
X25955990Y-21992653D01*
X25955990Y-21631582D01*
X26308500Y-21631582D01*
X26418937Y-21620705D01*
X26525130Y-21588492D01*
X26622998Y-21536180D01*
X26708780Y-21465780D01*
X26779180Y-21379998D01*
X26831492Y-21282130D01*
X26863705Y-21175937D01*
X26874582Y-21065500D01*
X26874582Y-20590500D01*
X26863705Y-20480063D01*
X26831492Y-20373870D01*
X26779180Y-20276002D01*
X26708780Y-20190220D01*
X26622998Y-20119820D01*
X26525130Y-20067508D01*
X26418937Y-20035295D01*
X26308500Y-20024418D01*
X25808500Y-20024418D01*
X25698063Y-20035295D01*
X25591870Y-20067508D01*
X25494002Y-20119820D01*
X25408220Y-20190220D01*
X25337820Y-20276002D01*
X25285508Y-20373870D01*
X25253295Y-20480063D01*
X25242418Y-20590500D01*
X25242418Y-21004859D01*
X25200090Y-21047187D01*
X25182831Y-21061351D01*
X25148868Y-21102736D01*
X25148000Y-20957750D01*
X25041250Y-20851000D01*
X24256500Y-20851000D01*
X24256500Y-21623250D01*
X24363250Y-21730000D01*
X24721000Y-21732066D01*
X24804707Y-21723822D01*
X24885196Y-21699405D01*
X24959376Y-21659755D01*
X25024395Y-21606395D01*
X25051990Y-21572770D01*
X25051991Y-24465775D01*
X25049803Y-24487990D01*
X25058530Y-24576597D01*
X25084376Y-24661799D01*
X25112338Y-24714112D01*
X25126348Y-24740323D01*
X25182832Y-24809149D01*
X25200086Y-24823309D01*
X26506684Y-26129909D01*
X26520840Y-26147158D01*
X26589666Y-26203642D01*
X26668189Y-26245613D01*
X26740418Y-26267523D01*
X26740418Y-26354553D01*
X26730393Y-26355540D01*
X26645190Y-26381386D01*
X26566667Y-26423357D01*
X26497841Y-26479841D01*
X26483680Y-26497097D01*
X26440098Y-26540679D01*
X26422840Y-26554842D01*
X26366356Y-26623669D01*
X26342483Y-26668333D01*
X26324385Y-26702192D01*
X26298539Y-26787394D01*
X26289812Y-26876001D01*
X26291999Y-26898207D01*
X26292000Y-27688786D01*
X26289812Y-27711001D01*
X26298539Y-27799608D01*
X26324385Y-27884810D01*
X26341718Y-27917238D01*
X26366357Y-27963334D01*
X26422841Y-28032160D01*
X26440095Y-28046320D01*
X26498675Y-28104900D01*
X26512839Y-28122159D01*
X26581665Y-28178643D01*
X26660188Y-28220614D01*
X26699015Y-28232392D01*
X26740418Y-28244952D01*
X26740418Y-28349000D01*
X26549203Y-28349000D01*
X26526998Y-28346813D01*
X26438390Y-28355540D01*
X26370287Y-28376199D01*
X26353188Y-28381386D01*
X26274665Y-28423357D01*
X26205839Y-28479841D01*
X26191679Y-28497095D01*
X25200090Y-29488685D01*
X25182831Y-29502849D01*
X25126347Y-29571676D01*
X25103665Y-29614111D01*
X25084376Y-29650199D01*
X25058530Y-29735401D01*
X25049803Y-29824008D01*
X25051990Y-29846213D01*
X25051991Y-32554631D01*
X25024395Y-32521005D01*
X24959376Y-32467645D01*
X24885196Y-32427995D01*
X24804707Y-32403578D01*
X24721000Y-32395334D01*
X24363250Y-32397400D01*
X24256500Y-32504150D01*
X24256500Y-33276400D01*
X25041250Y-33276400D01*
X25148000Y-33169650D01*
X25148868Y-33024663D01*
X25182832Y-33066049D01*
X25200086Y-33080209D01*
X25242418Y-33122541D01*
X25242418Y-33536900D01*
X25253295Y-33647337D01*
X25285508Y-33753530D01*
X25337820Y-33851398D01*
X25408220Y-33937180D01*
X25494002Y-34007580D01*
X25591870Y-34059892D01*
X25698063Y-34092105D01*
X25808500Y-34102982D01*
X26308500Y-34102982D01*
X26418937Y-34092105D01*
X26525130Y-34059892D01*
X26622998Y-34007580D01*
X26708780Y-33937180D01*
X26779180Y-33851398D01*
X26831492Y-33753530D01*
X26863705Y-33647337D01*
X26874582Y-33536900D01*
X26874582Y-33061900D01*
X26863705Y-32951463D01*
X26831492Y-32845270D01*
X26779180Y-32747402D01*
X26708780Y-32661620D01*
X26622998Y-32591220D01*
X26525130Y-32538908D01*
X26418937Y-32506695D01*
X26308500Y-32495818D01*
X25955990Y-32495818D01*
X25955990Y-32109347D01*
X26010990Y-32138745D01*
X26166880Y-32186034D01*
X26288376Y-32198000D01*
X27469624Y-32198000D01*
X27591120Y-32186034D01*
X27747010Y-32138745D01*
X27890679Y-32061952D01*
X28016606Y-31958606D01*
X28119952Y-31832679D01*
X28196745Y-31689010D01*
X28244034Y-31533120D01*
X28260001Y-31371000D01*
X28244034Y-31208880D01*
X28196745Y-31052990D01*
X28183870Y-31028903D01*
X28519000Y-31030066D01*
X28602707Y-31021822D01*
X28683196Y-30997405D01*
X28757376Y-30957755D01*
X28822395Y-30904395D01*
X28875755Y-30839376D01*
X28887000Y-30818337D01*
X28887000Y-32399999D01*
X26811999Y-34475000D01*
X26758661Y-34475000D01*
X26708780Y-34414220D01*
X26622998Y-34343820D01*
X26525130Y-34291508D01*
X26418937Y-34259295D01*
X26308500Y-34248418D01*
X25708500Y-34248418D01*
X25598063Y-34259295D01*
X25491870Y-34291508D01*
X25394002Y-34343820D01*
X25308220Y-34414220D01*
X25241983Y-34494929D01*
X25241822Y-34493293D01*
X25217405Y-34412804D01*
X25177755Y-34338624D01*
X25124395Y-34273605D01*
X25059376Y-34220245D01*
X24985196Y-34180595D01*
X24909718Y-34157698D01*
X24959376Y-34131155D01*
X25024395Y-34077795D01*
X25077755Y-34012776D01*
X25117405Y-33938596D01*
X25141822Y-33858107D01*
X25150066Y-33774400D01*
X25148000Y-33429150D01*
X25041250Y-33322400D01*
X24256500Y-33322400D01*
X24256500Y-34094650D01*
X24362550Y-34200700D01*
X24306500Y-34256750D01*
X24306500Y-35029000D01*
X24326500Y-35029000D01*
X24326500Y-35075000D01*
X24306500Y-35075000D01*
X24306500Y-35847250D01*
X24413250Y-35954000D01*
X24821000Y-35956066D01*
X24904707Y-35947822D01*
X24985196Y-35923405D01*
X25059376Y-35883755D01*
X25124395Y-35830395D01*
X25177755Y-35765376D01*
X25217405Y-35691196D01*
X25241822Y-35610707D01*
X25241983Y-35609071D01*
X25308220Y-35689780D01*
X25394002Y-35760180D01*
X25491870Y-35812492D01*
X25598063Y-35844705D01*
X25708500Y-35855582D01*
X26308500Y-35855582D01*
X26418937Y-35844705D01*
X26525130Y-35812492D01*
X26622998Y-35760180D01*
X26708780Y-35689780D01*
X26758661Y-35629000D01*
X27022669Y-35629000D01*
X27051000Y-35631790D01*
X27079331Y-35629000D01*
X27079336Y-35629000D01*
X27109045Y-35626074D01*
X27164111Y-35620651D01*
X27208770Y-35607103D01*
X27272876Y-35587657D01*
X27373115Y-35534079D01*
X27460974Y-35461974D01*
X27479039Y-35439962D01*
X29273500Y-33645501D01*
X29797961Y-34169962D01*
X29816026Y-34191974D01*
X29903885Y-34264079D01*
X30004124Y-34317657D01*
X30048782Y-34331204D01*
X30112888Y-34350651D01*
X30170886Y-34356363D01*
X30197664Y-34359000D01*
X30197669Y-34359000D01*
X30226000Y-34361790D01*
X30254331Y-34359000D01*
X30288840Y-34359000D01*
X30241431Y-34429952D01*
X30182859Y-34571357D01*
X30153000Y-34721472D01*
X30153000Y-34874528D01*
X30182859Y-35024643D01*
X30241431Y-35166048D01*
X30326464Y-35293309D01*
X30434691Y-35401536D01*
X30561952Y-35486569D01*
X30703357Y-35545141D01*
X30853472Y-35575000D01*
X31006528Y-35575000D01*
X31156643Y-35545141D01*
X31298048Y-35486569D01*
X31425309Y-35401536D01*
X31533536Y-35293309D01*
X31618569Y-35166048D01*
X31677141Y-35024643D01*
X31707000Y-34874528D01*
X31707000Y-34721472D01*
X36953000Y-34721472D01*
X36953000Y-34874528D01*
X36982859Y-35024643D01*
X37041431Y-35166048D01*
X37126464Y-35293309D01*
X37234691Y-35401536D01*
X37361952Y-35486569D01*
X37503357Y-35545141D01*
X37653472Y-35575000D01*
X37806528Y-35575000D01*
X37956643Y-35545141D01*
X38098048Y-35486569D01*
X38225309Y-35401536D01*
X38333536Y-35293309D01*
X38418569Y-35166048D01*
X38477141Y-35024643D01*
X38507000Y-34874528D01*
X38507000Y-34721472D01*
X38477141Y-34571357D01*
X38418569Y-34429952D01*
X38333536Y-34302691D01*
X38225309Y-34194464D01*
X38098048Y-34109431D01*
X37956643Y-34050859D01*
X37806528Y-34021000D01*
X37653472Y-34021000D01*
X37503357Y-34050859D01*
X37361952Y-34109431D01*
X37234691Y-34194464D01*
X37126464Y-34302691D01*
X37041431Y-34429952D01*
X36982859Y-34571357D01*
X36953000Y-34721472D01*
X31707000Y-34721472D01*
X31677141Y-34571357D01*
X31618569Y-34429952D01*
X31571160Y-34359000D01*
X36293669Y-34359000D01*
X36322000Y-34361790D01*
X36350331Y-34359000D01*
X36350336Y-34359000D01*
X36380045Y-34356074D01*
X36435111Y-34350651D01*
X36479770Y-34337103D01*
X36543876Y-34317657D01*
X36644115Y-34264079D01*
X36731974Y-34191974D01*
X36750039Y-34169962D01*
X37217962Y-33702039D01*
X37239974Y-33683974D01*
X37287075Y-33626582D01*
X37455000Y-33626582D01*
X37519103Y-33620268D01*
X37580743Y-33601570D01*
X37637550Y-33571206D01*
X37687343Y-33530343D01*
X37728206Y-33480550D01*
X37758570Y-33423743D01*
X37777268Y-33362103D01*
X37783582Y-33298000D01*
X37783582Y-33285076D01*
X43019000Y-33285076D01*
X43019000Y-33516924D01*
X43064231Y-33744318D01*
X43152956Y-33958519D01*
X43281764Y-34151294D01*
X43445706Y-34315236D01*
X43638481Y-34444044D01*
X43852682Y-34532769D01*
X44080076Y-34578000D01*
X44311924Y-34578000D01*
X44539318Y-34532769D01*
X44753519Y-34444044D01*
X44946294Y-34315236D01*
X45110236Y-34151294D01*
X45239044Y-33958519D01*
X45327769Y-33744318D01*
X45373000Y-33516924D01*
X45373000Y-33285076D01*
X45327769Y-33057682D01*
X45239044Y-32843481D01*
X45110236Y-32650706D01*
X44946294Y-32486764D01*
X44753519Y-32357956D01*
X44539318Y-32269231D01*
X44311924Y-32224000D01*
X44080076Y-32224000D01*
X43852682Y-32269231D01*
X43638481Y-32357956D01*
X43445706Y-32486764D01*
X43281764Y-32650706D01*
X43152956Y-32843481D01*
X43064231Y-33057682D01*
X43019000Y-33285076D01*
X37783582Y-33285076D01*
X37783582Y-32055000D01*
X38820418Y-32055000D01*
X38820418Y-32555000D01*
X38831295Y-32665437D01*
X38863508Y-32771630D01*
X38915820Y-32869498D01*
X38986220Y-32955280D01*
X39072002Y-33025680D01*
X39169870Y-33077992D01*
X39276063Y-33110205D01*
X39386500Y-33121082D01*
X39861500Y-33121082D01*
X39971937Y-33110205D01*
X40078130Y-33077992D01*
X40175998Y-33025680D01*
X40261780Y-32955280D01*
X40332180Y-32869498D01*
X40384492Y-32771630D01*
X40388930Y-32757000D01*
X40628880Y-32757000D01*
X40641508Y-32798630D01*
X40693820Y-32896498D01*
X40764220Y-32982280D01*
X40850002Y-33052680D01*
X40947870Y-33104992D01*
X41054063Y-33137205D01*
X41164500Y-33148082D01*
X41639500Y-33148082D01*
X41749937Y-33137205D01*
X41856130Y-33104992D01*
X41953998Y-33052680D01*
X42039780Y-32982280D01*
X42110180Y-32896498D01*
X42162492Y-32798630D01*
X42194705Y-32692437D01*
X42205582Y-32582000D01*
X42205582Y-32007000D01*
X42194705Y-31896563D01*
X42162492Y-31790370D01*
X42110180Y-31692502D01*
X42039780Y-31606720D01*
X41953998Y-31536320D01*
X41856130Y-31484008D01*
X41749937Y-31451795D01*
X41639500Y-31440918D01*
X41164500Y-31440918D01*
X41054063Y-31451795D01*
X40947870Y-31484008D01*
X40850002Y-31536320D01*
X40764220Y-31606720D01*
X40693820Y-31692502D01*
X40641508Y-31790370D01*
X40622510Y-31853000D01*
X40388930Y-31853000D01*
X40384492Y-31838370D01*
X40332180Y-31740502D01*
X40261780Y-31654720D01*
X40175998Y-31584320D01*
X40078130Y-31532008D01*
X39971937Y-31499795D01*
X39861500Y-31488918D01*
X39386500Y-31488918D01*
X39276063Y-31499795D01*
X39169870Y-31532008D01*
X39072002Y-31584320D01*
X38986220Y-31654720D01*
X38915820Y-31740502D01*
X38863508Y-31838370D01*
X38831295Y-31944563D01*
X38820418Y-32055000D01*
X37783582Y-32055000D01*
X37783582Y-30798000D01*
X37777268Y-30733897D01*
X37758570Y-30672257D01*
X37728206Y-30615450D01*
X37687343Y-30565657D01*
X37637550Y-30524794D01*
X37580743Y-30494430D01*
X37519103Y-30475732D01*
X37455000Y-30469418D01*
X36205000Y-30469418D01*
X36140897Y-30475732D01*
X36079257Y-30494430D01*
X36022450Y-30524794D01*
X35972657Y-30565657D01*
X35931794Y-30615450D01*
X35901430Y-30672257D01*
X35882732Y-30733897D01*
X35876418Y-30798000D01*
X35876418Y-33205000D01*
X35283582Y-33205000D01*
X35283582Y-30798000D01*
X35277268Y-30733897D01*
X35258570Y-30672257D01*
X35228206Y-30615450D01*
X35187343Y-30565657D01*
X35137550Y-30524794D01*
X35082992Y-30495632D01*
X35095998Y-30488680D01*
X35181780Y-30418280D01*
X35252180Y-30332498D01*
X35272223Y-30295000D01*
X36881669Y-30295000D01*
X36910000Y-30297790D01*
X36938331Y-30295000D01*
X38622999Y-30295000D01*
X38820418Y-30492419D01*
X38820418Y-30730000D01*
X38831295Y-30840437D01*
X38863508Y-30946630D01*
X38915820Y-31044498D01*
X38986220Y-31130280D01*
X39072002Y-31200680D01*
X39169870Y-31252992D01*
X39276063Y-31285205D01*
X39386500Y-31296082D01*
X39861500Y-31296082D01*
X39971937Y-31285205D01*
X40078130Y-31252992D01*
X40175998Y-31200680D01*
X40261780Y-31130280D01*
X40332180Y-31044498D01*
X40384492Y-30946630D01*
X40416705Y-30840437D01*
X40427582Y-30730000D01*
X40427582Y-30378752D01*
X40441397Y-30381500D01*
X40584603Y-30381500D01*
X40598093Y-30378817D01*
X40598418Y-30379141D01*
X40598418Y-30832000D01*
X40609295Y-30942437D01*
X40641508Y-31048630D01*
X40693820Y-31146498D01*
X40764220Y-31232280D01*
X40850002Y-31302680D01*
X40947870Y-31354992D01*
X41054063Y-31387205D01*
X41164500Y-31398082D01*
X41639500Y-31398082D01*
X41749937Y-31387205D01*
X41856130Y-31354992D01*
X41934691Y-31313000D01*
X43109249Y-31313000D01*
X43152956Y-31418519D01*
X43281764Y-31611294D01*
X43445706Y-31775236D01*
X43638481Y-31904044D01*
X43852682Y-31992769D01*
X44080076Y-32038000D01*
X44311924Y-32038000D01*
X44539318Y-31992769D01*
X44753519Y-31904044D01*
X44946294Y-31775236D01*
X45110236Y-31611294D01*
X45239044Y-31418519D01*
X45327769Y-31204318D01*
X45373000Y-30976924D01*
X45373000Y-30745076D01*
X45327769Y-30517682D01*
X45239044Y-30303481D01*
X45110236Y-30110706D01*
X44946294Y-29946764D01*
X44753519Y-29817956D01*
X44539318Y-29729231D01*
X44311924Y-29684000D01*
X44080076Y-29684000D01*
X43852682Y-29729231D01*
X43638481Y-29817956D01*
X43445706Y-29946764D01*
X43281764Y-30110706D01*
X43152956Y-30303481D01*
X43109249Y-30409000D01*
X42205582Y-30409000D01*
X42205582Y-30257000D01*
X42194705Y-30146563D01*
X42162492Y-30040370D01*
X42110180Y-29942502D01*
X42039780Y-29856720D01*
X41953998Y-29786320D01*
X41856130Y-29734008D01*
X41749937Y-29701795D01*
X41639500Y-29690918D01*
X41240000Y-29690918D01*
X41240000Y-29682582D01*
X41639500Y-29682582D01*
X41749937Y-29671705D01*
X41856130Y-29639492D01*
X41953998Y-29587180D01*
X42039780Y-29516780D01*
X42110180Y-29430998D01*
X42162492Y-29333130D01*
X42194705Y-29226937D01*
X42205582Y-29116500D01*
X42205582Y-28541500D01*
X42203431Y-28519655D01*
X42308685Y-28624910D01*
X42322841Y-28642159D01*
X42391667Y-28698643D01*
X42470190Y-28740614D01*
X42535562Y-28760444D01*
X42555392Y-28766460D01*
X42643999Y-28775187D01*
X42666204Y-28773000D01*
X43109249Y-28773000D01*
X43152956Y-28878519D01*
X43281764Y-29071294D01*
X43445706Y-29235236D01*
X43638481Y-29364044D01*
X43852682Y-29452769D01*
X44080076Y-29498000D01*
X44311924Y-29498000D01*
X44539318Y-29452769D01*
X44753519Y-29364044D01*
X44946294Y-29235236D01*
X45110236Y-29071294D01*
X45239044Y-28878519D01*
X45327769Y-28664318D01*
X45373000Y-28436924D01*
X45373000Y-28205076D01*
X45330969Y-27993772D01*
X45372335Y-28002000D01*
X45559665Y-28002000D01*
X45743396Y-27965453D01*
X45916467Y-27893765D01*
X46072227Y-27789690D01*
X46204690Y-27657227D01*
X46304601Y-27507700D01*
X46304601Y-35043317D01*
X46273283Y-35362723D01*
X46183041Y-35661619D01*
X46036465Y-35937288D01*
X45839136Y-36179238D01*
X45598569Y-36378252D01*
X45323928Y-36526750D01*
X45025675Y-36619075D01*
X44706812Y-36652589D01*
X44703674Y-36652600D01*
X22868673Y-36652600D01*
X22549277Y-36621283D01*
X22250381Y-36531041D01*
X21974712Y-36384465D01*
X21732762Y-36187136D01*
X21533748Y-35946569D01*
X21385250Y-35671928D01*
X21340388Y-35527000D01*
X23316934Y-35527000D01*
X23325178Y-35610707D01*
X23349595Y-35691196D01*
X23389245Y-35765376D01*
X23442605Y-35830395D01*
X23507624Y-35883755D01*
X23581804Y-35923405D01*
X23662293Y-35947822D01*
X23746000Y-35956066D01*
X24153750Y-35954000D01*
X24260500Y-35847250D01*
X24260500Y-35075000D01*
X23425750Y-35075000D01*
X23319000Y-35181750D01*
X23316934Y-35527000D01*
X21340388Y-35527000D01*
X21292925Y-35373675D01*
X21259411Y-35054812D01*
X21259400Y-35051674D01*
X21259400Y-34796317D01*
X21364773Y-34901690D01*
X21520533Y-35005765D01*
X21693604Y-35077453D01*
X21877335Y-35114000D01*
X22064665Y-35114000D01*
X22248396Y-35077453D01*
X22421467Y-35005765D01*
X22577227Y-34901690D01*
X22709690Y-34769227D01*
X22813765Y-34613467D01*
X22885453Y-34440396D01*
X22922000Y-34256665D01*
X22922000Y-34069335D01*
X22885453Y-33885604D01*
X22839392Y-33774400D01*
X23316934Y-33774400D01*
X23325178Y-33858107D01*
X23349595Y-33938596D01*
X23389245Y-34012776D01*
X23442605Y-34077795D01*
X23507624Y-34131155D01*
X23581804Y-34170805D01*
X23597940Y-34175700D01*
X23581804Y-34180595D01*
X23507624Y-34220245D01*
X23442605Y-34273605D01*
X23389245Y-34338624D01*
X23349595Y-34412804D01*
X23325178Y-34493293D01*
X23316934Y-34577000D01*
X23319000Y-34922250D01*
X23425750Y-35029000D01*
X24260500Y-35029000D01*
X24260500Y-34256750D01*
X24154450Y-34150700D01*
X24210500Y-34094650D01*
X24210500Y-33322400D01*
X23425750Y-33322400D01*
X23319000Y-33429150D01*
X23316934Y-33774400D01*
X22839392Y-33774400D01*
X22813765Y-33712533D01*
X22709690Y-33556773D01*
X22577227Y-33424310D01*
X22421467Y-33320235D01*
X22248396Y-33248547D01*
X22064665Y-33212000D01*
X21877335Y-33212000D01*
X21693604Y-33248547D01*
X21520533Y-33320235D01*
X21364773Y-33424310D01*
X21259400Y-33529683D01*
X21259400Y-32824400D01*
X23316934Y-32824400D01*
X23319000Y-33169650D01*
X23425750Y-33276400D01*
X24210500Y-33276400D01*
X24210500Y-32504150D01*
X24103750Y-32397400D01*
X23746000Y-32395334D01*
X23662293Y-32403578D01*
X23581804Y-32427995D01*
X23507624Y-32467645D01*
X23442605Y-32521005D01*
X23389245Y-32586024D01*
X23349595Y-32660204D01*
X23325178Y-32740693D01*
X23316934Y-32824400D01*
X21259400Y-32824400D01*
X21259400Y-31371000D01*
X21567999Y-31371000D01*
X21583966Y-31533120D01*
X21631255Y-31689010D01*
X21708048Y-31832679D01*
X21811394Y-31958606D01*
X21937321Y-32061952D01*
X22080990Y-32138745D01*
X22236880Y-32186034D01*
X22358376Y-32198000D01*
X23039624Y-32198000D01*
X23161120Y-32186034D01*
X23317010Y-32138745D01*
X23460679Y-32061952D01*
X23586606Y-31958606D01*
X23689952Y-31832679D01*
X23766745Y-31689010D01*
X23814034Y-31533120D01*
X23830001Y-31371000D01*
X23814034Y-31208880D01*
X23766745Y-31052990D01*
X23689952Y-30909321D01*
X23586606Y-30783394D01*
X23460679Y-30680048D01*
X23317010Y-30603255D01*
X23161120Y-30555966D01*
X23039624Y-30544000D01*
X22358376Y-30544000D01*
X22236880Y-30555966D01*
X22080990Y-30603255D01*
X21937321Y-30680048D01*
X21811394Y-30783394D01*
X21708048Y-30909321D01*
X21631255Y-31052990D01*
X21583966Y-31208880D01*
X21567999Y-31371000D01*
X21259400Y-31371000D01*
X21259400Y-22731000D01*
X21567999Y-22731000D01*
X21583966Y-22893120D01*
X21631255Y-23049010D01*
X21708048Y-23192679D01*
X21811394Y-23318606D01*
X21937321Y-23421952D01*
X22080990Y-23498745D01*
X22236880Y-23546034D01*
X22358376Y-23558000D01*
X23039624Y-23558000D01*
X23161120Y-23546034D01*
X23317010Y-23498745D01*
X23460679Y-23421952D01*
X23586606Y-23318606D01*
X23689952Y-23192679D01*
X23766745Y-23049010D01*
X23814034Y-22893120D01*
X23830001Y-22731000D01*
X23814034Y-22568880D01*
X23766745Y-22412990D01*
X23689952Y-22269321D01*
X23586606Y-22143394D01*
X23460679Y-22040048D01*
X23317010Y-21963255D01*
X23161120Y-21915966D01*
X23039624Y-21904000D01*
X22358376Y-21904000D01*
X22236880Y-21915966D01*
X22080990Y-21963255D01*
X21937321Y-22040048D01*
X21811394Y-22143394D01*
X21708048Y-22269321D01*
X21631255Y-22412990D01*
X21583966Y-22568880D01*
X21567999Y-22731000D01*
X21259400Y-22731000D01*
X21259400Y-21303000D01*
X23316934Y-21303000D01*
X23325178Y-21386707D01*
X23349595Y-21467196D01*
X23389245Y-21541376D01*
X23442605Y-21606395D01*
X23507624Y-21659755D01*
X23581804Y-21699405D01*
X23662293Y-21723822D01*
X23746000Y-21732066D01*
X24103750Y-21730000D01*
X24210500Y-21623250D01*
X24210500Y-20851000D01*
X23425750Y-20851000D01*
X23319000Y-20957750D01*
X23316934Y-21303000D01*
X21259400Y-21303000D01*
X21259400Y-20572317D01*
X21364773Y-20677690D01*
X21520533Y-20781765D01*
X21693604Y-20853453D01*
X21877335Y-20890000D01*
X22064665Y-20890000D01*
X22248396Y-20853453D01*
X22421467Y-20781765D01*
X22577227Y-20677690D01*
X22709690Y-20545227D01*
X22813765Y-20389467D01*
X22885453Y-20216396D01*
X22922000Y-20032665D01*
X22922000Y-19845335D01*
X22885453Y-19661604D01*
X22828871Y-19525000D01*
X23316934Y-19525000D01*
X23325178Y-19608707D01*
X23349595Y-19689196D01*
X23389245Y-19763376D01*
X23442605Y-19828395D01*
X23507624Y-19881755D01*
X23581804Y-19921405D01*
X23639805Y-19939000D01*
X23581804Y-19956595D01*
X23507624Y-19996245D01*
X23442605Y-20049605D01*
X23389245Y-20114624D01*
X23349595Y-20188804D01*
X23325178Y-20269293D01*
X23316934Y-20353000D01*
X23319000Y-20698250D01*
X23425750Y-20805000D01*
X24210500Y-20805000D01*
X24210500Y-20032750D01*
X24129871Y-19952121D01*
X24153750Y-19952000D01*
X24260500Y-19845250D01*
X24260500Y-19073000D01*
X23425750Y-19073000D01*
X23319000Y-19179750D01*
X23316934Y-19525000D01*
X22828871Y-19525000D01*
X22813765Y-19488533D01*
X22709690Y-19332773D01*
X22577227Y-19200310D01*
X22421467Y-19096235D01*
X22248396Y-19024547D01*
X22064665Y-18988000D01*
X21877335Y-18988000D01*
X21693604Y-19024547D01*
X21520533Y-19096235D01*
X21364773Y-19200310D01*
X21259400Y-19305683D01*
X21259400Y-19058673D01*
X21290717Y-18739277D01*
X21340314Y-18575000D01*
X23316934Y-18575000D01*
X23319000Y-18920250D01*
X23425750Y-19027000D01*
X24260500Y-19027000D01*
X24260500Y-18254750D01*
X24153750Y-18148000D01*
X23746000Y-18145934D01*
X23662293Y-18154178D01*
X23581804Y-18178595D01*
X23507624Y-18218245D01*
X23442605Y-18271605D01*
X23389245Y-18336624D01*
X23349595Y-18410804D01*
X23325178Y-18491293D01*
X23316934Y-18575000D01*
X21340314Y-18575000D01*
X21380957Y-18440385D01*
X21527535Y-18164712D01*
X21724864Y-17922762D01*
X21965430Y-17723749D01*
X22240071Y-17575250D01*
X22538325Y-17482925D01*
X22857188Y-17449411D01*
X22860325Y-17449400D01*
X44695327Y-17449400D01*
X45014723Y-17480717D01*
G37*
%TD.AperFunction*%
D22*
X31076794Y-28588550D02*
X31117657Y-28638343D01*
X31167450Y-28679206D01*
X31224257Y-28709570D01*
X31285897Y-28728268D01*
X31350000Y-28734582D01*
X32123001Y-28734582D01*
X32123000Y-29229827D01*
X32117450Y-29232794D01*
X32067657Y-29273657D01*
X32026794Y-29323450D01*
X31996430Y-29380257D01*
X31977732Y-29441897D01*
X31971418Y-29506000D01*
X31971418Y-29868581D01*
X31627816Y-30212183D01*
X31627000Y-30085750D01*
X31520250Y-29979000D01*
X30823000Y-29979000D01*
X30823000Y-30726250D01*
X30878062Y-30781312D01*
X30876418Y-30798000D01*
X30876418Y-33205000D01*
X30465001Y-33205000D01*
X30041000Y-32780999D01*
X30041000Y-32667330D01*
X30043790Y-32639001D01*
X30041000Y-32610672D01*
X30041000Y-30640176D01*
X30043245Y-30644376D01*
X30096605Y-30709395D01*
X30161624Y-30762755D01*
X30235804Y-30802405D01*
X30316293Y-30826822D01*
X30400000Y-30835066D01*
X30670250Y-30833000D01*
X30777000Y-30726250D01*
X30777000Y-29979000D01*
X30757000Y-29979000D01*
X30757000Y-29933000D01*
X30777000Y-29933000D01*
X30777000Y-29185750D01*
X30823000Y-29185750D01*
X30823000Y-29933000D01*
X31520250Y-29933000D01*
X31627000Y-29826250D01*
X31629066Y-29506000D01*
X31620822Y-29422293D01*
X31596405Y-29341804D01*
X31556755Y-29267624D01*
X31503395Y-29202605D01*
X31438376Y-29149245D01*
X31364196Y-29109595D01*
X31283707Y-29085178D01*
X31200000Y-29076934D01*
X30929750Y-29079000D01*
X30823000Y-29185750D01*
X30777000Y-29185750D01*
X30670250Y-29079000D01*
X30400000Y-29076934D01*
X30316293Y-29085178D01*
X30235804Y-29109595D01*
X30161624Y-29149245D01*
X30096605Y-29202605D01*
X30043245Y-29267624D01*
X30041000Y-29271824D01*
X30041000Y-29084332D01*
X30043790Y-29056001D01*
X30041000Y-29027670D01*
X30041000Y-28893041D01*
X30108259Y-28792380D01*
X30163062Y-28660074D01*
X30186680Y-28541337D01*
X30195017Y-28533000D01*
X31047102Y-28533000D01*
X31076794Y-28588550D01*
%TA.AperFunction,Conductor*%
D23*
G36*
X31076794Y-28588550D02*
G01*
X31117657Y-28638343D01*
X31167450Y-28679206D01*
X31224257Y-28709570D01*
X31285897Y-28728268D01*
X31350000Y-28734582D01*
X32123001Y-28734582D01*
X32123000Y-29229827D01*
X32117450Y-29232794D01*
X32067657Y-29273657D01*
X32026794Y-29323450D01*
X31996430Y-29380257D01*
X31977732Y-29441897D01*
X31971418Y-29506000D01*
X31971418Y-29868581D01*
X31627816Y-30212183D01*
X31627000Y-30085750D01*
X31520250Y-29979000D01*
X30823000Y-29979000D01*
X30823000Y-30726250D01*
X30878062Y-30781312D01*
X30876418Y-30798000D01*
X30876418Y-33205000D01*
X30465001Y-33205000D01*
X30041000Y-32780999D01*
X30041000Y-32667330D01*
X30043790Y-32639001D01*
X30041000Y-32610672D01*
X30041000Y-30640176D01*
X30043245Y-30644376D01*
X30096605Y-30709395D01*
X30161624Y-30762755D01*
X30235804Y-30802405D01*
X30316293Y-30826822D01*
X30400000Y-30835066D01*
X30670250Y-30833000D01*
X30777000Y-30726250D01*
X30777000Y-29979000D01*
X30757000Y-29979000D01*
X30757000Y-29933000D01*
X30777000Y-29933000D01*
X30777000Y-29185750D01*
X30823000Y-29185750D01*
X30823000Y-29933000D01*
X31520250Y-29933000D01*
X31627000Y-29826250D01*
X31629066Y-29506000D01*
X31620822Y-29422293D01*
X31596405Y-29341804D01*
X31556755Y-29267624D01*
X31503395Y-29202605D01*
X31438376Y-29149245D01*
X31364196Y-29109595D01*
X31283707Y-29085178D01*
X31200000Y-29076934D01*
X30929750Y-29079000D01*
X30823000Y-29185750D01*
X30777000Y-29185750D01*
X30670250Y-29079000D01*
X30400000Y-29076934D01*
X30316293Y-29085178D01*
X30235804Y-29109595D01*
X30161624Y-29149245D01*
X30096605Y-29202605D01*
X30043245Y-29267624D01*
X30041000Y-29271824D01*
X30041000Y-29084332D01*
X30043790Y-29056001D01*
X30041000Y-29027670D01*
X30041000Y-28893041D01*
X30108259Y-28792380D01*
X30163062Y-28660074D01*
X30186680Y-28541337D01*
X30195017Y-28533000D01*
X31047102Y-28533000D01*
X31076794Y-28588550D01*
G37*
%TD.AperFunction*%
D22*
X27817000Y-30278000D02*
X27837000Y-30278000D01*
X27837000Y-30324000D01*
X27817000Y-30324000D01*
X27817000Y-30344000D01*
X27771000Y-30344000D01*
X27771000Y-30324000D01*
X27751000Y-30324000D01*
X27751000Y-30278000D01*
X27771000Y-30278000D01*
X27771000Y-30258000D01*
X27817000Y-30258000D01*
X27817000Y-30278000D01*
%TA.AperFunction,Conductor*%
D23*
G36*
X27817000Y-30278000D02*
G01*
X27837000Y-30278000D01*
X27837000Y-30324000D01*
X27817000Y-30324000D01*
X27817000Y-30344000D01*
X27771000Y-30344000D01*
X27771000Y-30324000D01*
X27751000Y-30324000D01*
X27751000Y-30278000D01*
X27771000Y-30278000D01*
X27771000Y-30258000D01*
X27817000Y-30258000D01*
X27817000Y-30278000D01*
G37*
%TD.AperFunction*%
D22*
X36464614Y-23781633D02*
X36455418Y-23875000D01*
X36455418Y-25525000D01*
X36464614Y-25618367D01*
X36491848Y-25708145D01*
X36501204Y-25725649D01*
X36439741Y-25817636D01*
X36384938Y-25949942D01*
X36357000Y-26090397D01*
X36357000Y-26233603D01*
X36384938Y-26374058D01*
X36439741Y-26506364D01*
X36519302Y-26625436D01*
X36620564Y-26726698D01*
X36739636Y-26806259D01*
X36871942Y-26861062D01*
X37012397Y-26889000D01*
X37155603Y-26889000D01*
X37296058Y-26861062D01*
X37428364Y-26806259D01*
X37547436Y-26726698D01*
X37648698Y-26625436D01*
X37728259Y-26506364D01*
X37783062Y-26374058D01*
X37811000Y-26233603D01*
X37811000Y-26090397D01*
X37783062Y-25949942D01*
X37728259Y-25817636D01*
X37666796Y-25725649D01*
X37676152Y-25708145D01*
X37703386Y-25618367D01*
X37712582Y-25525000D01*
X37712582Y-23875000D01*
X37703386Y-23781633D01*
X37683474Y-23715992D01*
X37754526Y-23715992D01*
X37734614Y-23781633D01*
X37725418Y-23875000D01*
X37725418Y-25525000D01*
X37734614Y-25618367D01*
X37761848Y-25708145D01*
X37806074Y-25790886D01*
X37865591Y-25863409D01*
X37938114Y-25922926D01*
X38020855Y-25967152D01*
X38110633Y-25994386D01*
X38204000Y-26003582D01*
X38504000Y-26003582D01*
X38597367Y-25994386D01*
X38687145Y-25967152D01*
X38769886Y-25922926D01*
X38842409Y-25863409D01*
X38901926Y-25790886D01*
X38946152Y-25708145D01*
X38973386Y-25618367D01*
X38982582Y-25525000D01*
X38982582Y-23875000D01*
X38973386Y-23781633D01*
X38953474Y-23715992D01*
X39024526Y-23715992D01*
X39004614Y-23781633D01*
X38995418Y-23875000D01*
X38995418Y-25525000D01*
X39004614Y-25618367D01*
X39031848Y-25708145D01*
X39076074Y-25790886D01*
X39135591Y-25863409D01*
X39208114Y-25922926D01*
X39290855Y-25967152D01*
X39380633Y-25994386D01*
X39474000Y-26003582D01*
X39774000Y-26003582D01*
X39867367Y-25994386D01*
X39957145Y-25967152D01*
X40039886Y-25922926D01*
X40112409Y-25863409D01*
X40171926Y-25790886D01*
X40216152Y-25708145D01*
X40243386Y-25618367D01*
X40252582Y-25525000D01*
X40252582Y-24321038D01*
X40950001Y-25018458D01*
X40950000Y-26267862D01*
X40947870Y-26268508D01*
X40850002Y-26320820D01*
X40764220Y-26391220D01*
X40693820Y-26477002D01*
X40641508Y-26574870D01*
X40609295Y-26681063D01*
X40598418Y-26791500D01*
X40598418Y-27366500D01*
X40609295Y-27476937D01*
X40641508Y-27583130D01*
X40693820Y-27680998D01*
X40764220Y-27766780D01*
X40850002Y-27837180D01*
X40947870Y-27889492D01*
X41054063Y-27921705D01*
X41164500Y-27932582D01*
X41616358Y-27932582D01*
X41661346Y-27977570D01*
X41639500Y-27975418D01*
X41164500Y-27975418D01*
X41054063Y-27986295D01*
X40947870Y-28018508D01*
X40850002Y-28070820D01*
X40764220Y-28141220D01*
X40693820Y-28227002D01*
X40641508Y-28324870D01*
X40625695Y-28377000D01*
X40388930Y-28377000D01*
X40384492Y-28362370D01*
X40332180Y-28264502D01*
X40261780Y-28178720D01*
X40175998Y-28108320D01*
X40078130Y-28056008D01*
X39971937Y-28023795D01*
X39861500Y-28012918D01*
X39431083Y-28012918D01*
X39623919Y-27820082D01*
X39861500Y-27820082D01*
X39971937Y-27809205D01*
X40078130Y-27776992D01*
X40175998Y-27724680D01*
X40261780Y-27654280D01*
X40332180Y-27568498D01*
X40384492Y-27470630D01*
X40416705Y-27364437D01*
X40427582Y-27254000D01*
X40427582Y-26754000D01*
X40416705Y-26643563D01*
X40384492Y-26537370D01*
X40332180Y-26439502D01*
X40261780Y-26353720D01*
X40175998Y-26283320D01*
X40078130Y-26231008D01*
X39971937Y-26198795D01*
X39861500Y-26187918D01*
X39386500Y-26187918D01*
X39276063Y-26198795D01*
X39169870Y-26231008D01*
X39072002Y-26283320D01*
X38986220Y-26353720D01*
X38915820Y-26439502D01*
X38863508Y-26537370D01*
X38831295Y-26643563D01*
X38820418Y-26754000D01*
X38820418Y-26991581D01*
X36670999Y-29141000D01*
X35272223Y-29141000D01*
X35252180Y-29103502D01*
X35181780Y-29017720D01*
X35101071Y-28951483D01*
X35102707Y-28951322D01*
X35183196Y-28926905D01*
X35257376Y-28887255D01*
X35322395Y-28833895D01*
X35375755Y-28768876D01*
X35415405Y-28694696D01*
X35439822Y-28614207D01*
X35448066Y-28530500D01*
X35446000Y-28122750D01*
X35339250Y-28016000D01*
X34567000Y-28016000D01*
X34567000Y-28036000D01*
X34521000Y-28036000D01*
X34521000Y-28016000D01*
X34501000Y-28016000D01*
X34501000Y-27970000D01*
X34521000Y-27970000D01*
X34521000Y-27950000D01*
X34567000Y-27950000D01*
X34567000Y-27970000D01*
X35339250Y-27970000D01*
X35446000Y-27863250D01*
X35446774Y-27710548D01*
X35469636Y-27725824D01*
X35601942Y-27780627D01*
X35742397Y-27808565D01*
X35885603Y-27808565D01*
X36026058Y-27780627D01*
X36158364Y-27725824D01*
X36277436Y-27646263D01*
X36378698Y-27545001D01*
X36458259Y-27425929D01*
X36513062Y-27293623D01*
X36541000Y-27153168D01*
X36541000Y-27009962D01*
X36513062Y-26869507D01*
X36458259Y-26737201D01*
X36378698Y-26618129D01*
X36277436Y-26516867D01*
X36266000Y-26509226D01*
X36266000Y-25893289D01*
X36302409Y-25863409D01*
X36361926Y-25790886D01*
X36406152Y-25708145D01*
X36433386Y-25618367D01*
X36442582Y-25525000D01*
X36442582Y-23875000D01*
X36433386Y-23781633D01*
X36413474Y-23715992D01*
X36484526Y-23715992D01*
X36464614Y-23781633D01*
%TA.AperFunction,Conductor*%
D23*
G36*
X36464614Y-23781633D02*
G01*
X36455418Y-23875000D01*
X36455418Y-25525000D01*
X36464614Y-25618367D01*
X36491848Y-25708145D01*
X36501204Y-25725649D01*
X36439741Y-25817636D01*
X36384938Y-25949942D01*
X36357000Y-26090397D01*
X36357000Y-26233603D01*
X36384938Y-26374058D01*
X36439741Y-26506364D01*
X36519302Y-26625436D01*
X36620564Y-26726698D01*
X36739636Y-26806259D01*
X36871942Y-26861062D01*
X37012397Y-26889000D01*
X37155603Y-26889000D01*
X37296058Y-26861062D01*
X37428364Y-26806259D01*
X37547436Y-26726698D01*
X37648698Y-26625436D01*
X37728259Y-26506364D01*
X37783062Y-26374058D01*
X37811000Y-26233603D01*
X37811000Y-26090397D01*
X37783062Y-25949942D01*
X37728259Y-25817636D01*
X37666796Y-25725649D01*
X37676152Y-25708145D01*
X37703386Y-25618367D01*
X37712582Y-25525000D01*
X37712582Y-23875000D01*
X37703386Y-23781633D01*
X37683474Y-23715992D01*
X37754526Y-23715992D01*
X37734614Y-23781633D01*
X37725418Y-23875000D01*
X37725418Y-25525000D01*
X37734614Y-25618367D01*
X37761848Y-25708145D01*
X37806074Y-25790886D01*
X37865591Y-25863409D01*
X37938114Y-25922926D01*
X38020855Y-25967152D01*
X38110633Y-25994386D01*
X38204000Y-26003582D01*
X38504000Y-26003582D01*
X38597367Y-25994386D01*
X38687145Y-25967152D01*
X38769886Y-25922926D01*
X38842409Y-25863409D01*
X38901926Y-25790886D01*
X38946152Y-25708145D01*
X38973386Y-25618367D01*
X38982582Y-25525000D01*
X38982582Y-23875000D01*
X38973386Y-23781633D01*
X38953474Y-23715992D01*
X39024526Y-23715992D01*
X39004614Y-23781633D01*
X38995418Y-23875000D01*
X38995418Y-25525000D01*
X39004614Y-25618367D01*
X39031848Y-25708145D01*
X39076074Y-25790886D01*
X39135591Y-25863409D01*
X39208114Y-25922926D01*
X39290855Y-25967152D01*
X39380633Y-25994386D01*
X39474000Y-26003582D01*
X39774000Y-26003582D01*
X39867367Y-25994386D01*
X39957145Y-25967152D01*
X40039886Y-25922926D01*
X40112409Y-25863409D01*
X40171926Y-25790886D01*
X40216152Y-25708145D01*
X40243386Y-25618367D01*
X40252582Y-25525000D01*
X40252582Y-24321038D01*
X40950001Y-25018458D01*
X40950000Y-26267862D01*
X40947870Y-26268508D01*
X40850002Y-26320820D01*
X40764220Y-26391220D01*
X40693820Y-26477002D01*
X40641508Y-26574870D01*
X40609295Y-26681063D01*
X40598418Y-26791500D01*
X40598418Y-27366500D01*
X40609295Y-27476937D01*
X40641508Y-27583130D01*
X40693820Y-27680998D01*
X40764220Y-27766780D01*
X40850002Y-27837180D01*
X40947870Y-27889492D01*
X41054063Y-27921705D01*
X41164500Y-27932582D01*
X41616358Y-27932582D01*
X41661346Y-27977570D01*
X41639500Y-27975418D01*
X41164500Y-27975418D01*
X41054063Y-27986295D01*
X40947870Y-28018508D01*
X40850002Y-28070820D01*
X40764220Y-28141220D01*
X40693820Y-28227002D01*
X40641508Y-28324870D01*
X40625695Y-28377000D01*
X40388930Y-28377000D01*
X40384492Y-28362370D01*
X40332180Y-28264502D01*
X40261780Y-28178720D01*
X40175998Y-28108320D01*
X40078130Y-28056008D01*
X39971937Y-28023795D01*
X39861500Y-28012918D01*
X39431083Y-28012918D01*
X39623919Y-27820082D01*
X39861500Y-27820082D01*
X39971937Y-27809205D01*
X40078130Y-27776992D01*
X40175998Y-27724680D01*
X40261780Y-27654280D01*
X40332180Y-27568498D01*
X40384492Y-27470630D01*
X40416705Y-27364437D01*
X40427582Y-27254000D01*
X40427582Y-26754000D01*
X40416705Y-26643563D01*
X40384492Y-26537370D01*
X40332180Y-26439502D01*
X40261780Y-26353720D01*
X40175998Y-26283320D01*
X40078130Y-26231008D01*
X39971937Y-26198795D01*
X39861500Y-26187918D01*
X39386500Y-26187918D01*
X39276063Y-26198795D01*
X39169870Y-26231008D01*
X39072002Y-26283320D01*
X38986220Y-26353720D01*
X38915820Y-26439502D01*
X38863508Y-26537370D01*
X38831295Y-26643563D01*
X38820418Y-26754000D01*
X38820418Y-26991581D01*
X36670999Y-29141000D01*
X35272223Y-29141000D01*
X35252180Y-29103502D01*
X35181780Y-29017720D01*
X35101071Y-28951483D01*
X35102707Y-28951322D01*
X35183196Y-28926905D01*
X35257376Y-28887255D01*
X35322395Y-28833895D01*
X35375755Y-28768876D01*
X35415405Y-28694696D01*
X35439822Y-28614207D01*
X35448066Y-28530500D01*
X35446000Y-28122750D01*
X35339250Y-28016000D01*
X34567000Y-28016000D01*
X34567000Y-28036000D01*
X34521000Y-28036000D01*
X34521000Y-28016000D01*
X34501000Y-28016000D01*
X34501000Y-27970000D01*
X34521000Y-27970000D01*
X34521000Y-27950000D01*
X34567000Y-27950000D01*
X34567000Y-27970000D01*
X35339250Y-27970000D01*
X35446000Y-27863250D01*
X35446774Y-27710548D01*
X35469636Y-27725824D01*
X35601942Y-27780627D01*
X35742397Y-27808565D01*
X35885603Y-27808565D01*
X36026058Y-27780627D01*
X36158364Y-27725824D01*
X36277436Y-27646263D01*
X36378698Y-27545001D01*
X36458259Y-27425929D01*
X36513062Y-27293623D01*
X36541000Y-27153168D01*
X36541000Y-27009962D01*
X36513062Y-26869507D01*
X36458259Y-26737201D01*
X36378698Y-26618129D01*
X36277436Y-26516867D01*
X36266000Y-26509226D01*
X36266000Y-25893289D01*
X36302409Y-25863409D01*
X36361926Y-25790886D01*
X36406152Y-25708145D01*
X36433386Y-25618367D01*
X36442582Y-25525000D01*
X36442582Y-23875000D01*
X36433386Y-23781633D01*
X36413474Y-23715992D01*
X36484526Y-23715992D01*
X36464614Y-23781633D01*
G37*
%TD.AperFunction*%
D22*
X27817000Y-23778000D02*
X27837000Y-23778000D01*
X27837000Y-23824000D01*
X27817000Y-23824000D01*
X27817000Y-23844000D01*
X27771000Y-23844000D01*
X27771000Y-23824000D01*
X27751000Y-23824000D01*
X27751000Y-23778000D01*
X27771000Y-23778000D01*
X27771000Y-23758000D01*
X27817000Y-23758000D01*
X27817000Y-23778000D01*
%TA.AperFunction,Conductor*%
D23*
G36*
X27817000Y-23778000D02*
G01*
X27837000Y-23778000D01*
X27837000Y-23824000D01*
X27817000Y-23824000D01*
X27817000Y-23844000D01*
X27771000Y-23844000D01*
X27771000Y-23824000D01*
X27751000Y-23824000D01*
X27751000Y-23778000D01*
X27771000Y-23778000D01*
X27771000Y-23758000D01*
X27817000Y-23758000D01*
X27817000Y-23778000D01*
G37*
%TD.AperFunction*%
%TD*%
M02*
