M48
; DRILL file {KiCad 5.1.10} date Sun Jul 18 17:37:42 2021
; FORMAT={-:-/ absolute / inch / decimal}
; #@! TF.CreationDate,2021-07-18T17:37:42+12:00
; #@! TF.GenerationSoftware,Kicad,Pcbnew,5.1.10
; #@! TF.FileFunction,Plated,1,2,PTH
FMAT,2
INCH
T1C0.0157
T2C0.0236
T3C0.0394
%
G90
G05
T1
X0.9Y-0.95
X0.9Y-1.02
X0.9Y-1.09
X0.9Y-1.16
X1.09Y-0.84
X1.12Y-1.26
X1.16Y-1.01
X1.16Y-1.12
X1.2Y-1.24
X1.2326Y-0.8874
X1.287Y-1.0676
X1.3014Y-1.26
X1.3122Y-0.9444
X1.3177Y-1.0377
X1.36Y-0.8455
X1.41Y-1.0662
X1.45Y-1.1
X1.46Y-1.03
X1.595Y-1.1675
T3
X1.74Y-0.815
X1.74Y-0.915
X1.74Y-1.015
X1.74Y-1.115
X1.74Y-1.215
X1.74Y-1.315
T2
G00X0.9055Y-0.8949
M15
G01X0.8819Y-0.8949
M16
G05
G00X0.9055Y-1.2351
M15
G01X0.8819Y-1.2351
M16
G05
G00X1.0799Y-0.8949
M15
G01X1.0366Y-0.8949
M16
G05
G00X1.0799Y-1.2351
M15
G01X1.0366Y-1.2351
M16
G05
T0
M30
